<?xml version="1.0" standalone="no"?>
<!DOCTYPE svg PUBLIC "-//W3C//DTD SVG 1.1//EN" "http://www.w3.org/Graphics/SVG/1.1/DTD/svg11.dtd" >
<svg xmlns="http://www.w3.org/2000/svg" xmlns:xlink="http://www.w3.org/1999/xlink" version="1.1">
<metadata>
Created by FontForge 20150318 at Thu Jun  4 09:16:21 2015
 By uniteet7
Copyright (c) 2012 by Created by Letterhead Studio Moscow. All rights reserved.
</metadata>
<defs>
<font id="RedRingLight" horiz-adv-x="537" >
  <font-face 
    font-family="RedRingLight"
    font-weight="300"
    font-stretch="normal"
    units-per-em="1000"
    panose-1="2 11 3 4 2 2 2 2 2 4"
    ascent="770"
    descent="-230"
    x-height="500"
    cap-height="700"
    bbox="-36 -286 1060 981"
    underline-thickness="50"
    underline-position="-50"
    unicode-range="U+0020-FE69"
  />
<missing-glyph horiz-adv-x="500" 
 />
    <glyph glyph-name="fi" unicode="fi" horiz-adv-x="606" 
d="M457 0v452h-264v-452h-53v452h-105v48h105v61q0 154 135 154q46 0 86 -20v-47q-44 21 -81 21q-87 0 -87 -106v-63h317v-500h-53zM441 629q0 18 12 30.5t30 12.5t30.5 -12.5t12.5 -30.5t-12.5 -30t-30.5 -12t-30 12t-12 30z" />
    <glyph glyph-name="fl" unicode="fl" horiz-adv-x="574" 
d="M441 710h53v-710h-53v452h-248v-452h-53v452h-105v48h105v61q0 154 135 154q46 0 86 -20v-47q-44 21 -81 21q-87 0 -87 -106v-63h248v210z" />
    <glyph glyph-name=".notdef" horiz-adv-x="500" 
 />
    <glyph glyph-name=".null" horiz-adv-x="0" 
 />
    <glyph glyph-name="nonmarkingreturn" horiz-adv-x="333" 
 />
    <glyph glyph-name="space" unicode=" " horiz-adv-x="250" 
 />
    <glyph glyph-name="exclam" unicode="!" horiz-adv-x="224" 
d="M84 172v528h56v-528h-56zM65 36q0 20 13.5 33.5t32.5 13.5t33 -13.5t14 -33.5q0 -19 -13.5 -32.5t-33.5 -13.5q-19 0 -32.5 13t-13.5 33z" />
    <glyph glyph-name="quotedbl" unicode="&#x22;" horiz-adv-x="410" 
d="M290 446l-7 254h65l-29 -254h-29zM110 446l-7 254h65l-29 -254h-29z" />
    <glyph glyph-name="numbersign" unicode="#" horiz-adv-x="700" 
d="M138 0l32 187h-121v47h129l41 236h-130v47h138l31 183h48l-31 -183h207l31 183h48l-31 -183h120v-47h-128l-41 -236h129v-47h-137l-32 -187h-48l32 187h-207l-32 -187h-48zM226 234h207l41 236h-207z" />
    <glyph glyph-name="dollar" unicode="$" 
d="M244 -100v86q-122 9 -211 98l42 42q75 -78 169 -88v303q-44 13 -72 25t-58.5 33.5t-45.5 55.5t-15 81q0 73 54.5 120.5t136.5 56.5v87h53v-86q61 -3 100 -25.5t90 -72.5l-42 -42q-41 42 -73 63t-75 25v-272q49 -14 77.5 -25t62.5 -33.5t50.5 -57t16.5 -83.5
q0 -86 -56 -143t-151 -62v-86h-53zM448 191q0 58 -38.5 86.5t-112.5 49.5v-290q73 5 112 46.5t39 107.5zM109 536q0 -54 35 -82.5t100 -47.5v255q-59 -7 -97 -39.5t-38 -85.5z" />
    <glyph glyph-name="percent" unicode="%" horiz-adv-x="734" 
d="M197 435q-61 0 -99 38.5t-38 94.5t38 94t99 38t99 -38.5t38 -93.5q0 -56 -38 -94.5t-99 -38.5zM197 487q37 0 61 23.5t24 57.5t-23.5 57t-61.5 23t-61.5 -23t-23.5 -57t23.5 -57.5t61.5 -23.5zM126 0h-66l548 700h66zM537 0q-61 0 -99 38.5t-38 94.5t38 94t99 38
t99 -38.5t38 -93.5q0 -56 -38 -94.5t-99 -38.5zM537 52q37 0 61 23.5t24 57.5t-23.5 57t-61.5 23t-61.5 -23t-23.5 -57t23.5 -57.5t61.5 -23.5z" />
    <glyph glyph-name="ampersand" unicode="&#x26;" horiz-adv-x="620" 
d="M572 335l-71 -151q-12 -25 -24 -47l131 -137h-76l-87 91q-82 -106 -200 -106q-101 0 -156 53.5t-55 137.5q0 66 40 106.5t114 78.5q-38 39 -55 59t-36 57t-19 73q0 66 54 115.5t135 49.5q80 0 124.5 -44.5t44.5 -114.5q0 -76 -42.5 -121.5t-118.5 -85.5l161 -169l17 34
l55 121h64zM245 37q93 0 161 94l-182 192q-66 -34 -100 -66t-34 -82q0 -64 42.5 -101t112.5 -37zM134 550q0 -12 2.5 -23.5t9.5 -25t12 -22t18 -23.5t18.5 -21t22.5 -24t21 -23q69 36 105.5 73t36.5 95q0 50 -30.5 78.5t-84.5 28.5q-59 0 -95 -32.5t-36 -80.5z" />
    <glyph glyph-name="quotesingle" unicode="'" horiz-adv-x="233" 
d="M110 446l-7 254h65l-29 -254h-29z" />
    <glyph glyph-name="parenleft" unicode="(" horiz-adv-x="401" 
d="M335 -141q-280 159 -280 438t280 438l21 -33q-119 -73 -182.5 -176.5t-63.5 -228.5t63.5 -228.5t182.5 -176.5z" />
    <glyph glyph-name="parenright" unicode=")" horiz-adv-x="401" 
d="M66 -141l-21 33q119 73 182.5 176.5t63.5 228.5t-63.5 228.5t-182.5 176.5l21 33q280 -159 280 -438t-280 -438z" />
    <glyph glyph-name="asterisk" unicode="*" horiz-adv-x="451" 
d="M192 391l10 140l-117 -79l-24 40l130 62l-130 62l24 40l117 -79l-10 140h46l-10 -140l117 79l24 -40l-130 -62l130 -62l-24 -40l-117 79l10 -140h-46z" />
    <glyph glyph-name="plus" unicode="+" horiz-adv-x="640" 
d="M295 38v225h-227v48h227v225h50v-225h227v-48h-227v-225h-50z" />
    <glyph glyph-name="comma" unicode="," horiz-adv-x="253" 
d="M41 -148l39 232h83l-79 -232h-43z" />
    <glyph glyph-name="hyphen" unicode="-" horiz-adv-x="408" 
d="M70 269v56h268v-56h-268z" />
    <glyph glyph-name="period" unicode="." horiz-adv-x="253" 
d="M80 36q0 20 13.5 33.5t32.5 13.5q20 0 33.5 -13.5t13.5 -33.5q0 -19 -13.5 -32.5t-33.5 -13.5t-33 13t-13 33z" />
    <glyph glyph-name="slash" unicode="/" horiz-adv-x="454" 
d="M61 -100h-61l393 850h61z" />
    <glyph glyph-name="zero" unicode="0" 
d="M477 350q0 -365 -209 -365q-34 0 -62.5 9.5t-56 35t-46.5 66t-31 105.5t-12 149t12 149t31 105.5t46.5 66t56 35t62.5 9.5q209 0 209 -365zM116 350q0 -93 11.5 -157t33 -97t47 -46t59.5 -13q154 0 154 313t-154 313q-34 0 -59.5 -13t-47 -46t-33 -97t-11.5 -157z" />
    <glyph glyph-name="one" unicode="1" 
d="M502 52v-52h-436v52h190v581l-159 -90l-26 46l214 121h27v-658h190z" />
    <glyph glyph-name="two" unicode="2" 
d="M125 560l-43 34q44 59 88.5 90t114.5 31q88 0 138 -50.5t50 -134.5q0 -25 -5.5 -50t-12.5 -45.5t-26.5 -50.5t-32.5 -49.5t-46 -59t-52.5 -62t-67 -76.5t-74.5 -85h324v-52h-405v35q33 38 83.5 94.5t73.5 82.5t57 66t49 60.5t34 50t26.5 49.5t13 44t5.5 48q0 59 -36 96
t-96 37q-51 0 -86.5 -24t-73.5 -79z" />
    <glyph glyph-name="three" unicode="3" 
d="M261 37q81 0 125 46.5t44 121.5q0 63 -40 100t-93 37q-31 0 -74 -14l-13 48l45 12q63 17 107 60.5t44 101.5q0 52 -31 82.5t-90 30.5q-52 0 -86.5 -24.5t-73.5 -78.5l-43 34q82 121 201 121q82 0 130.5 -45t48.5 -114q0 -55 -30.5 -101.5t-91.5 -73.5q67 -12 106.5 -62.5
t39.5 -112.5q0 -92 -62 -156.5t-163 -64.5q-70 0 -110.5 24t-86.5 77l43 40q38 -48 72.5 -68.5t81.5 -20.5z" />
    <glyph glyph-name="four" unicode="4" 
d="M402 0h-56v200h-315l-7 43l351 467h27v-458h127v-52h-127v-200zM346 589l-253 -337h253v337z" />
    <glyph glyph-name="five" unicode="5" 
d="M168 648l-29 -228q61 37 143 37q98 0 151 -63t53 -163q0 -102 -59.5 -174t-165.5 -72q-70 0 -110.5 24t-86.5 77l43 40q38 -48 72.5 -68.5t81.5 -20.5q86 0 127.5 53.5t41.5 139.5q0 85 -41.5 130t-107.5 45q-104 0 -155 -55l-42 20l41 330h345v-52h-302z" />
    <glyph glyph-name="six" unicode="6" 
d="M287 663q-82 0 -127.5 -65t-45.5 -221q49 90 174 90q34 0 65.5 -12.5t60 -38t45.5 -73t17 -110.5q0 -116 -63.5 -182t-144.5 -66q-110 0 -159 76t-49 269q0 116 17.5 195t50.5 119t71 55.5t89 15.5t88 -16t81 -60l-35 -42q-59 66 -135 66zM117 233q0 -95 43.5 -145.5
t106.5 -50.5q61 0 107.5 49t46.5 147q0 95 -40.5 138.5t-91.5 43.5q-26 0 -52 -7t-55 -24.5t-47 -56.5t-18 -94z" />
    <glyph glyph-name="seven" unicode="7" 
d="M497 665l-275 -665h-56l269 648h-373v52h435v-35z" />
    <glyph glyph-name="eight" unicode="8" 
d="M454 537q0 -61 -33 -99t-93 -68q70 -33 109 -74t39 -111q0 -90 -56 -145t-152 -55t-152 55t-56 145q0 70 38.5 111t108.5 74q-59 30 -92 68t-33 99q0 81 51.5 129.5t134.5 48.5t134.5 -48.5t51.5 -129.5zM420 185q0 31 -11.5 55.5t-36.5 43.5t-46 30t-58 28
q-37 -17 -58 -28t-46 -30t-36.5 -43.5t-11.5 -55.5q0 -66 40.5 -107t111.5 -41q73 0 112.5 40.5t39.5 107.5zM138 537q0 -50 33 -80.5t97 -59.5q64 30 97 60t33 80q0 62 -37 94t-93 32t-93 -32t-37 -94z" />
    <glyph glyph-name="nine" unicode="9" 
d="M249 37q82 0 127.5 65t45.5 221q-49 -90 -174 -90q-35 0 -66 11t-59.5 34.5t-45.5 69.5t-17 109q0 121 66 189.5t142 68.5q108 0 158 -82t50 -263q0 -116 -17.5 -195t-50.5 -119t-71 -55.5t-89 -15.5t-88 16t-81 60l35 42q59 -66 135 -66zM419 457q0 106 -45.5 156
t-104.5 50q-61 0 -107.5 -50.5t-46.5 -155.5q0 -94 39.5 -133t92.5 -39q21 0 40.5 2.5t45 13t43.5 28t30.5 50.5t12.5 78z" />
    <glyph glyph-name="colon" unicode=":" horiz-adv-x="253" 
d="M80 456q0 20 13.5 33.5t32.5 13.5q20 0 33.5 -13.5t13.5 -33.5q0 -19 -13.5 -32.5t-33.5 -13.5t-33 13t-13 33zM80 36q0 20 13.5 33.5t32.5 13.5q20 0 33.5 -13.5t13.5 -33.5q0 -19 -13.5 -32.5t-33.5 -13.5t-33 13t-13 33z" />
    <glyph glyph-name="semicolon" unicode=";" horiz-adv-x="253" 
d="M80 456q0 20 13.5 33.5t32.5 13.5q20 0 33.5 -13.5t13.5 -33.5q0 -19 -13.5 -32.5t-33.5 -13.5t-33 13t-13 33zM41 -148l39 232h83l-79 -232h-43z" />
    <glyph glyph-name="less" unicode="&#x3c;" horiz-adv-x="640" 
d="M537 21l-464 241v40l464 241v-54l-403 -206l403 -208v-54z" />
    <glyph glyph-name="equal" unicode="=" horiz-adv-x="640" 
d="M68 374v51h503v-51h-503zM68 149v51h503v-51h-503z" />
    <glyph glyph-name="greater" unicode="&#x3e;" horiz-adv-x="640" 
d="M103 21v54l403 206l-403 208v54l464 -241v-40z" />
    <glyph glyph-name="question" unicode="?" horiz-adv-x="474" 
d="M240 201v-29h-56v29q0 62 20 105.5t48.5 67t57 43.5t48.5 49t20 70q0 63 -39 95t-103 32q-115 0 -155 -108l-51 24q55 136 206 136q90 0 144 -48t54 -131q0 -48 -20 -82.5t-48.5 -56.5t-57 -44.5t-48.5 -60.5t-20 -91zM165 36q0 20 13.5 33.5t32.5 13.5t33 -13.5
t14 -33.5q0 -19 -13.5 -32.5t-33.5 -13.5q-19 0 -32.5 13t-13.5 33z" />
    <glyph glyph-name="at" unicode="@" horiz-adv-x="951" 
d="M651 6h-26v59q-70 -72 -170 -72q-97 0 -166 70t-69 168t69 168.5t166 70.5q100 0 170 -73v59h48v-413q99 16 151 113q54 98 28 212q-30 132 -153 198q-95 52 -230 52q-167 0 -275 -108t-108 -266q0 -155 110 -264.5t265 -109.5v-36q-170 0 -290.5 120t-120.5 290
q0 173 118 291.5t301 118.5q245 0 360 -145q83 -105 70 -244q-12 -123 -92 -197q-66 -62 -156 -62zM466 33q99 0 159 81v234q-60 81 -159 81q-81 0 -138 -58.5t-57 -139.5q0 -82 57 -140t138 -58z" />
    <glyph glyph-name="A" unicode="A" horiz-adv-x="650" 
d="M357 700l278 -700h-56l-81 204h-346l-81 -204h-56l278 700h64zM325 639l-153 -383h305z" />
    <glyph glyph-name="B" unicode="B" horiz-adv-x="614" 
d="M537 527q0 -51 -29.5 -94.5t-76.5 -66.5q59 -22 96 -70t37 -108q0 -79 -58.5 -133.5t-146.5 -54.5h-273v700h260q82 0 136.5 -50.5t54.5 -122.5zM142 52h218q61 0 104.5 41.5t43.5 101.5t-43.5 101.5t-104.5 41.5h-218v-286zM481 521q0 53 -40.5 90t-94.5 37h-204v-258
h204q54 0 94.5 39t40.5 92z" />
    <glyph glyph-name="C" unicode="C" horiz-adv-x="702" 
d="M416 37q138 0 224 89l42 -42q-101 -99 -266 -99q-170 0 -270.5 103.5t-100.5 261.5q0 157 100.5 261t270.5 104q165 0 266 -99l-42 -42q-86 89 -224 89q-141 0 -225.5 -89t-84.5 -224t84.5 -224t225.5 -89z" />
    <glyph glyph-name="D" unicode="D" horiz-adv-x="731" 
d="M142 52h183q145 0 225 81.5t80 216.5q0 134 -80 216t-225 82h-183v-596zM325 0h-239v700h239q171 0 266 -97t95 -253q0 -157 -95 -253.5t-266 -96.5z" />
    <glyph glyph-name="E" unicode="E" horiz-adv-x="587" 
d="M542 52v-52h-456v700h446v-52h-390v-258h360v-52h-360v-286h400z" />
    <glyph glyph-name="F" unicode="F" horiz-adv-x="572" 
d="M502 380v-52h-360v-328h-56v700h446v-52h-390v-268h360z" />
    <glyph glyph-name="G" unicode="G" horiz-adv-x="722" 
d="M343 298v52h339v-266q-102 -99 -266 -99q-170 0 -270.5 103.5t-100.5 261.5q0 157 100.5 261t270.5 104q122 0 211 -56l-32 -47q-77 51 -179 51q-141 0 -225.5 -89t-84.5 -224t84.5 -224t225.5 -89q129 0 214 77v184h-287z" />
    <glyph glyph-name="H" unicode="H" horiz-adv-x="684" 
d="M542 0v338h-400v-338h-56v700h56v-310h400v310h56v-700h-56z" />
    <glyph glyph-name="I" unicode="I" horiz-adv-x="228" 
d="M86 0v700h56v-700h-56z" />
    <glyph glyph-name="J" unicode="J" horiz-adv-x="378" 
d="M242 169v531h56v-531q0 -89 -42.5 -136.5t-127.5 -47.5q-71 0 -128 59l38 38q46 -44 90 -44q114 0 114 131z" />
    <glyph glyph-name="K" unicode="K" horiz-adv-x="630" 
d="M538 0l-380 364l359 336h72l-358 -336l384 -364h-77zM86 0v700h56v-700h-56z" />
    <glyph glyph-name="L" unicode="L" horiz-adv-x="557" 
d="M86 0v700h56v-648h390v-52h-446z" />
    <glyph glyph-name="M" unicode="M" horiz-adv-x="788" 
d="M142 698l252 -385l252 385h56v-698h-56v608l-237 -361h-31l-236 361v-608h-56v698h56z" />
    <glyph glyph-name="N" unicode="N" horiz-adv-x="699" 
d="M141 606v-606h-55v700h56l416 -607v607h55v-700h-56z" />
    <glyph glyph-name="O" unicode="O" horiz-adv-x="832" 
d="M416 663q-141 0 -228 -89.5t-87 -223.5q0 -135 87 -224t228 -89t228 89t87 224q0 134 -87 223.5t-228 89.5zM416 -15q-170 0 -270.5 103.5t-100.5 261.5q0 157 100.5 261t270.5 104t270.5 -104t100.5 -261q0 -158 -100.5 -261.5t-270.5 -103.5z" />
    <glyph glyph-name="P" unicode="P" horiz-adv-x="594" 
d="M142 290v-290h-56v700h242q109 0 167.5 -56.5t58.5 -147.5q0 -90 -62 -148t-164 -58h-186zM330 648h-188v-306h188q81 0 124.5 42t43.5 112t-43.5 111t-124.5 41z" />
    <glyph glyph-name="Q" unicode="Q" horiz-adv-x="832" 
d="M786 0l-35 -38l-108 89q-94 -66 -227 -66q-170 0 -270.5 103.5t-100.5 261.5q0 157 100.5 261t270.5 104t270.5 -104t100.5 -261q0 -163 -104 -265zM416 663q-141 0 -228 -89.5t-87 -223.5q0 -135 87 -224t228 -89q104 0 182 51l-165 138l34 38l172 -143q92 89 92 229
q0 134 -87 223.5t-228 89.5z" />
    <glyph glyph-name="R" unicode="R" horiz-adv-x="608" 
d="M141 290v-290h-56v700h242q109 0 167.5 -56.5t58.5 -147.5q0 -83 -54 -140t-144 -65l218 -291h-72l-215 290h-145zM329 648h-188v-306h188q81 0 124.5 42t43.5 112t-43.5 111t-124.5 41z" />
    <glyph glyph-name="S" unicode="S" horiz-adv-x="582" 
d="M480 191q0 41 -23 68.5t-59.5 42t-81 26t-88.5 25.5t-80.5 34t-59.5 57.5t-23 91.5q0 81 65.5 130t158.5 49q72 0 120 -24t100 -75l-42 -42q-43 45 -84 67t-94 22q-70 0 -119 -32.5t-49 -94.5q0 -40 23 -67.5t59.5 -42t80.5 -26t88.5 -25.5t81 -34.5t59.5 -58t23 -91.5
q0 -88 -70.5 -147t-174.5 -59q-148 0 -249 99l42 42q43 -44 91 -66.5t116 -22.5q84 0 136.5 43t52.5 111z" />
    <glyph glyph-name="T" unicode="T" horiz-adv-x="562" 
d="M537 700v-52h-228v-648h-56v648h-228v52h512z" />
    <glyph glyph-name="U" unicode="U" horiz-adv-x="684" 
d="M86 237v463h56v-463q0 -86 55 -143t145 -57t145 57t55 143v463h56v-463q0 -109 -69 -180.5t-187 -71.5t-187 71.5t-69 180.5z" />
    <glyph glyph-name="V" unicode="V" horiz-adv-x="650" 
d="M293 0l-278 700h56l254 -640l254 640h56l-278 -700h-64z" />
    <glyph glyph-name="W" unicode="W" horiz-adv-x="950" 
d="M503 700l188 -621l188 621h56l-212 -700h-64l-184 607l-184 -607h-64l-212 700h56l188 -621l188 621h56z" />
    <glyph glyph-name="X" unicode="X" horiz-adv-x="628" 
d="M542 0l-228 312l-228 -312h-66l261 357l-251 343h66l218 -298l218 298h66l-251 -343l261 -357h-66z" />
    <glyph glyph-name="Y" unicode="Y" horiz-adv-x="606" 
d="M5 700h62l236 -387l237 387h61l-270 -442v-258h-56v256z" />
    <glyph glyph-name="Z" unicode="Z" horiz-adv-x="594" 
d="M540 700v-52l-429 -596h438v-52h-504v52l429 596h-419v52h485z" />
    <glyph glyph-name="bracketleft" unicode="[" horiz-adv-x="273" 
d="M90 -161v906h173v-43h-123v-820h123v-43h-173z" />
    <glyph glyph-name="backslash" unicode="\" horiz-adv-x="454" 
d="M454 -100h-61l-393 850h61z" />
    <glyph glyph-name="bracketright" unicode="]" horiz-adv-x="273" 
d="M183 745v-906h-173v43h123v820h-123v43h173z" />
    <glyph glyph-name="asciicircum" unicode="^" horiz-adv-x="500" 
d="M70 493l158 210h44l158 -210h-53l-128 167l-128 -167h-51z" />
    <glyph glyph-name="underscore" unicode="_" horiz-adv-x="600" 
d="M-2 -160v44h604v-44h-604z" />
    <glyph glyph-name="grave" unicode="`" horiz-adv-x="500" 
d="M264 595l-138 133h92l88 -133h-42z" />
    <glyph glyph-name="a" unicode="a" horiz-adv-x="515" 
d="M201 -15q-77 0 -121.5 39t-44.5 103q0 66 47 103.5t114 48.5q73 11 201 13v51q0 71 -36 97.5t-100 26.5q-90 0 -159 -69l-34 36q83 81 203 81q51 0 87 -14t53.5 -31.5t27 -46t10.5 -43.5t1 -37v-343h-53v97q-88 -112 -196 -112zM201 33q113 0 196 127v84
q-120 -1 -192 -12q-14 -2 -30.5 -7.5t-37.5 -17t-35 -32.5t-14 -48q0 -51 35.5 -72.5t77.5 -21.5z" />
    <glyph glyph-name="b" unicode="b" horiz-adv-x="619" 
d="M322 -15q-111 0 -189 80v-65h-53v710h53v-277q78 81 189 81q109 0 185.5 -77.5t76.5 -186.5t-77 -187t-185 -78zM310 469q-53 0 -99.5 -24.5t-77.5 -65.5v-259q30 -42 77 -66t100 -24q90 0 154.5 64.5t64.5 155.5q0 89 -64.5 154t-154.5 65z" />
    <glyph glyph-name="c" unicode="c" horiz-adv-x="519" 
d="M88 250q0 -92 57.5 -153.5t148.5 -61.5q88 0 156 68l37 -38q-80 -80 -193 -80q-110 0 -184.5 80t-74.5 185t74.5 185t184.5 80q113 0 193 -80l-37 -38q-68 68 -156 68q-91 0 -148.5 -61.5t-57.5 -153.5z" />
    <glyph glyph-name="d" unicode="d" horiz-adv-x="619" 
d="M539 0h-53v65q-78 -80 -189 -80q-108 0 -185 78t-77 187t77 187t185 78q111 0 189 -81v276h53v-710zM309 30q53 0 99.5 24t77.5 66v260q-31 41 -78 65.5t-99 24.5q-90 0 -154.5 -65t-64.5 -155q0 -91 64.5 -155.5t154.5 -64.5z" />
    <glyph glyph-name="e" unicode="e" horiz-adv-x="583" 
d="M547 270v-11h-458q-1 -8 -1 -22q0 -90 63.5 -146t157.5 -56q45 0 93.5 18.5t79.5 49.5l37 -38q-37 -37 -95 -58.5t-115 -21.5q-116 0 -195 70.5t-79 181.5q0 116 74 197t182 81q123 0 189.5 -73.5t66.5 -171.5zM491 307q-11 67 -62.5 112.5t-137.5 45.5
q-71 0 -123.5 -43.5t-70.5 -114.5h394z" />
    <glyph glyph-name="f" unicode="f" horiz-adv-x="376" 
d="M188 563v-63h167v-48h-167v-452h-53v452h-105v48h105v61q0 154 135 154q46 0 86 -20v-47q-44 21 -81 21q-87 0 -87 -106z" />
    <glyph glyph-name="g" unicode="g" horiz-adv-x="609" 
d="M539 500v-469q0 -122 -69.5 -183t-177.5 -61q-122 0 -227 76l29 41q94 -68 196 -68q86 0 141 48t55 147v34q-78 -80 -189 -80q-108 0 -185 78t-77 187t77 187t185 78q111 0 189 -81v66h53zM309 30q53 0 99.5 24t77.5 66v260q-31 41 -78 65.5t-99 24.5q-90 0 -154.5 -65
t-64.5 -155q0 -91 64.5 -155.5t154.5 -64.5z" />
    <glyph glyph-name="h" unicode="h" horiz-adv-x="579" 
d="M461 0v314q0 82 -40 119t-101 37q-52 0 -104.5 -30.5t-82.5 -83.5v-356h-53v710h53v-294q32 46 87 72.5t112 26.5q78 0 130 -47.5t52 -153.5v-314h-53z" />
    <glyph glyph-name="i" unicode="i" horiz-adv-x="213" 
d="M80 0v500h53v-500h-53zM64 629q0 18 12 30.5t30 12.5t30.5 -12.5t12.5 -30.5t-12.5 -30t-30.5 -12t-30 12t-12 30z" />
    <glyph glyph-name="j" unicode="j" horiz-adv-x="213" 
d="M80 -204v704h53v-704h-53zM64 629q0 18 12 30.5t30 12.5t30.5 -12.5t12.5 -30.5t-12.5 -30t-30.5 -12t-30 12t-12 30z" />
    <glyph glyph-name="k" unicode="k" horiz-adv-x="499" 
d="M80 710h53v-710h-53v710zM415 0l-264 264l254 236h77l-264 -236l274 -264h-77z" />
    <glyph glyph-name="l" unicode="l" horiz-adv-x="213" 
d="M80 710h53v-710h-53v710z" />
    <glyph glyph-name="m" unicode="m" horiz-adv-x="880" 
d="M474 0h-53v315q0 79 -33 117.5t-84 38.5q-48 0 -95.5 -31t-75.5 -83v-357h-53v500h53v-82q31 46 77.5 71.5t96.5 25.5q52 0 95 -27.5t61 -81.5q31 51 81.5 80t103.5 29q73 0 120 -48t47 -152v-315h-53v315q0 79 -33 117.5t-84 38.5q-48 0 -95.5 -31t-75.5 -83v-357z" />
    <glyph glyph-name="n" unicode="n" horiz-adv-x="579" 
d="M461 0v314q0 82 -40 119t-101 37q-52 0 -104.5 -30.5t-82.5 -83.5v-356h-53v500h53v-84q32 46 87 72.5t112 26.5q78 0 130 -47.5t52 -153.5v-314h-53z" />
    <glyph glyph-name="o" unicode="o" horiz-adv-x="618" 
d="M309 27q94 0 157.5 65t63.5 158q0 92 -63.5 157.5t-157.5 65.5q-95 0 -158 -65.5t-63 -157.5q0 -93 63 -158t158 -65zM309 -15q-122 0 -198 76.5t-76 188.5t76 188.5t198 76.5t198 -76.5t76 -188.5t-76 -188.5t-198 -76.5z" />
    <glyph glyph-name="p" unicode="p" horiz-adv-x="619" 
d="M322 -15q-111 0 -189 80v-269h-53v704h53v-66q78 81 189 81q108 0 185 -78t77 -187t-77 -187t-185 -78zM310 470q-53 0 -99.5 -24.5t-77.5 -65.5v-260q30 -42 77 -66t100 -24q90 0 154.5 64.5t64.5 155.5q0 90 -64.5 155t-154.5 65z" />
    <glyph glyph-name="q" unicode="q" horiz-adv-x="619" 
d="M539 -204h-53v269q-78 -80 -189 -80q-108 0 -185 78t-77 187t77 187t185 78q111 0 189 -81v66h53v-704zM309 30q53 0 99.5 24t77.5 66v260q-31 41 -78 65.5t-99 24.5q-90 0 -154.5 -65t-64.5 -155q0 -91 64.5 -155.5t154.5 -64.5z" />
    <glyph glyph-name="r" unicode="r" horiz-adv-x="325" 
d="M310 515v-53q-125 0 -177 -136v-326h-53v500h53v-100q28 52 74 83.5t103 31.5z" />
    <glyph glyph-name="s" unicode="s" horiz-adv-x="452" 
d="M364 136q0 38 -31.5 59.5t-76 31.5t-89 22t-76 43t-31.5 84q0 56 42 97.5t128 41.5q108 0 177 -80l-37 -38q-58 68 -140 68q-52 0 -84.5 -21.5t-32.5 -64.5q0 -35 31.5 -56t77 -31.5t90.5 -23.5t76.5 -44t31.5 -82q0 -64 -48 -110.5t-147 -46.5q-113 0 -193 80l37 38
q68 -68 156 -68q139 0 139 101z" />
    <glyph glyph-name="t" unicode="t" horiz-adv-x="366" 
d="M173 452v-315q0 -106 87 -106q37 0 81 21v-47q-40 -20 -86 -20q-135 0 -135 154v313h-105v48h105v117h53v-117h167v-48h-167z" />
    <glyph glyph-name="u" unicode="u" horiz-adv-x="579" 
d="M118 500v-313q0 -82 40 -119t101 -37q52 0 104 30t83 83v356h53v-500h-53v84q-33 -45 -88 -71.5t-111 -26.5q-78 0 -130 47.5t-52 153.5v313h53z" />
    <glyph glyph-name="v" unicode="v" horiz-adv-x="507" 
d="M223 0l-213 500h61l183 -435l184 435h59l-213 -500h-61z" />
    <glyph glyph-name="w" unicode="w" horiz-adv-x="741" 
d="M399 500l137 -423l137 423h58l-165 -500h-59l-137 413l-136 -413h-59l-165 500h58l137 -423l137 423h57z" />
    <glyph glyph-name="x" unicode="x" horiz-adv-x="508" 
d="M426 0l-172 209l-172 -209h-67l205 250l-205 250h67l172 -209l172 209h67l-206 -250l206 -250h-67z" />
    <glyph glyph-name="y" unicode="y" horiz-adv-x="488" 
d="M493 500l-298 -704h-59l86 205l-212 499h61l180 -430l183 430h59z" />
    <glyph glyph-name="z" unicode="z" horiz-adv-x="490" 
d="M105 48h350v-48h-420v48l344 404h-339v48h410v-47z" />
    <glyph glyph-name="braceleft" unicode="{" horiz-adv-x="394" 
d="M371 -129l-7 -32q-59 13 -93.5 27.5t-51.5 38.5t-21.5 48.5t-4.5 68.5v124q0 59 -26 93t-74 34h-36v38h36q48 0 74 34t26 93v124q0 44 4.5 68.5t21.5 48.5t51.5 38.5t93.5 27.5l7 -32q-39 -12 -61 -22t-37.5 -20.5t-21 -27.5t-7.5 -34.5t-2 -52.5v-120q0 -125 -104 -144
q104 -19 104 -144v-120q0 -35 2 -52.5t7.5 -34.5t21 -27.5t37.5 -20.5t61 -22z" />
    <glyph glyph-name="bar" unicode="|" horiz-adv-x="286" 
d="M121 -128v886h44v-886h-44z" />
    <glyph glyph-name="braceright" unicode="}" horiz-adv-x="394" 
d="M64 -161l-7 32q39 12 61 22t37.5 20.5t21 27.5t7.5 34.5t2 52.5v120q0 125 104 144q-104 19 -104 144v120q0 35 -2 52.5t-7.5 34.5t-21 27.5t-37.5 20.5t-61 22l7 32q59 -13 93.5 -27.5t51.5 -38.5t21.5 -48.5t4.5 -68.5v-124q0 -59 26 -93t74 -34h36v-38h-36
q-48 0 -74 -34t-26 -93v-124q0 -44 -4.5 -68.5t-21.5 -48.5t-51.5 -38.5t-93.5 -27.5z" />
    <glyph glyph-name="asciitilde" unicode="~" horiz-adv-x="640" 
d="M68 263v51q48 48 106 48q45 0 97 -24.5t102.5 -49t90.5 -24.5q57 0 107 50v-51q-50 -50 -107 -50q-45 0 -97 24.5t-102.5 49t-90.5 24.5q-58 0 -106 -48z" />
    <glyph glyph-name="uni00A0" unicode="&#xa0;" horiz-adv-x="250" 
 />
    <glyph glyph-name="exclamdown" unicode="&#xa1;" horiz-adv-x="224" 
d="M65 468q0 20 13.5 33t32.5 13q20 0 33.5 -13.5t13.5 -32.5q0 -20 -14 -33.5t-33 -13.5t-32.5 13.5t-13.5 33.5zM84 -196v528h56v-528h-56z" />
    <glyph glyph-name="cent" unicode="&#xa2;" 
d="M196 -6l22 113q-78 27 -125.5 97t-47.5 153q0 105 74.5 185t184.5 80q9 0 14 -1l17 85h50l-18 -92q75 -17 130 -72l-37 -38q-44 44 -102 61l-83 -422q9 -1 29 -1q88 0 156 68l37 -38q-80 -80 -193 -80q-26 0 -39 2l-19 -100h-50zM98 357q0 -71 35 -125t94 -77l81 417h-4
q-91 0 -148.5 -61.5t-57.5 -153.5z" />
    <glyph glyph-name="sterling" unicode="&#xa3;" 
d="M511 0h-405v361h-86v52h86v68q0 109 53.5 174t151.5 65q72 0 116 -27t84 -79l-40 -32q-36 45 -69.5 65.5t-91.5 20.5q-148 0 -148 -186v-69h253v-52h-253v-309h349v-52z" />
    <glyph glyph-name="yen" unicode="&#xa5;" horiz-adv-x="536" 
d="M5 700h62l201 -358l202 358h61l-205 -358h161v-52h-191v-77h191v-52h-191v-161h-56v161h-190v52h190v77h-190v52h159z" />
    <glyph glyph-name="brokenbar" unicode="&#xa6;" horiz-adv-x="286" 
d="M121 -128v358h44v-358h-44zM121 400v358h44v-358h-44z" />
    <glyph glyph-name="section" unicode="&#xa7;" horiz-adv-x="520" 
d="M470 328q0 -42 -25.5 -79.5t-76.5 -56.5q52 -35 52 -100q0 -56 -42 -97.5t-128 -41.5q-108 0 -177 80l37 38q58 -68 140 -68q52 0 84.5 21.5t32.5 64.5q0 35 -32.5 56.5t-79.5 32.5t-93.5 25t-79 46t-32.5 83q0 42 25 79.5t77 56.5q-56 35 -56 103q0 55 37.5 95.5
t122.5 40.5q55 0 94 -18t77 -62l-37 -38q-54 64 -136 64q-42 0 -71.5 -20.5t-29.5 -61.5q0 -35 32.5 -56t79.5 -32t93.5 -24.5t79 -45.5t32.5 -85zM414 328q0 15 -4.5 27.5t-15.5 22t-20 15.5t-29 13t-30 9.5t-35.5 9t-34.5 8.5q-64 0 -101.5 -28.5t-37.5 -72.5
q0 -16 4.5 -28.5t15.5 -22t21 -16t29.5 -12.5t31 -9t36 -8.5t35.5 -8.5q135 1 135 101z" />
    <glyph glyph-name="dieresis" unicode="&#xa8;" horiz-adv-x="500" 
d="M289 635q0 18 12 30.5t30 12.5t30.5 -12.5t12.5 -30.5t-12.5 -30t-30.5 -12t-30 12t-12 30zM126 635q0 18 12 30.5t30 12.5t30.5 -12.5t12.5 -30.5t-12.5 -30t-30.5 -12t-30 12t-12 30z" />
    <glyph glyph-name="copyright" unicode="&#xa9;" horiz-adv-x="830" 
d="M281 355q0 -61 40.5 -105t98.5 -44q60 0 115 52l28 -28q-66 -64 -144 -64q-77 0 -129.5 55.5t-52.5 133.5t52.5 133.5t129.5 55.5q78 0 144 -64l-28 -28q-55 52 -115 52q-58 0 -98.5 -44t-40.5 -105zM414 715q151 0 256 -108t105 -257t-105 -257t-256 -108t-256 108
t-105 257t105 257t256 108zM414 17q139 0 233 98t94 235t-94 235t-233 98t-233 -98t-94 -235t94 -235t233 -98z" />
    <glyph glyph-name="ordfeminine" unicode="&#xaa;" horiz-adv-x="399" 
d="M168 311q-56 0 -89 28.5t-33 76.5t35 76.5t82 36.5q52 9 138 9v30q0 47 -24 64t-67 17q-63 0 -112 -49l-31 33q64 62 150 62q37 0 63.5 -10.5t39.5 -23.5t19.5 -33.5t7.5 -31.5t1 -28v-247h-47v60q-61 -70 -133 -70zM168 356q73 0 133 85v52q-80 -1 -130 -9
q-14 -2 -29 -7.5t-32 -21.5t-17 -39q0 -33 23.5 -46.5t51.5 -13.5z" />
    <glyph glyph-name="guillemotleft" unicode="&#xab;" horiz-adv-x="515" 
d="M439 24l-180 207v8l180 207l31 -22l-137 -188l137 -190zM235 24l-180 207v8l180 207l31 -22l-137 -188l137 -190z" />
    <glyph glyph-name="logicalnot" unicode="&#xac;" horiz-adv-x="388" 
d="M35 271v37h318v-188h-37v151h-281z" />
    <glyph glyph-name="uni00AD" unicode="&#xad;" horiz-adv-x="408" 
d="M70 269v56h268v-56h-268z" />
    <glyph glyph-name="registered" unicode="&#xae;" horiz-adv-x="830" 
d="M414 715q151 0 256 -108t105 -257t-105 -257t-256 -108t-256 108t-105 257t105 257t256 108zM414 17q139 0 233 98t94 235t-94 235t-233 98t-233 -98t-94 -235t94 -235t233 -98zM348 321v-153h-40v371h128q59 0 95 -30.5t36 -77.5q0 -43 -33 -73.5t-82 -35.5l115 -154
h-48l-115 153h-56zM437 506h-89v-151h89q42 0 65.5 22.5t23.5 52.5q0 31 -23.5 53.5t-65.5 22.5z" />
    <glyph glyph-name="macron" unicode="&#xaf;" horiz-adv-x="500" 
d="M100 600v53h300v-53h-300z" />
    <glyph glyph-name="degree" unicode="&#xb0;" horiz-adv-x="450" 
d="M225 412q-60 0 -105.5 44t-45.5 102v2q0 58 45.5 102t105.5 44t105.5 -44t45.5 -102v-2q0 -58 -45.5 -102t-105.5 -44zM225 453q44 0 74 31.5t30 73.5v2q0 42 -30 73.5t-74 31.5t-74 -31.5t-30 -73.5v-2q0 -42 30 -73.5t74 -31.5z" />
    <glyph glyph-name="plusminus" unicode="&#xb1;" horiz-adv-x="640" 
d="M295 88v200h-227v48h227v200h50v-200h227v-48h-227v-200h-50zM547 0h-464v48h464v-48z" />
    <glyph glyph-name="twosuperior" unicode="&#xb2;" horiz-adv-x="420" 
d="M136 621l-35 27q27 35 53.5 54t63.5 19q50 0 78 -28t28 -74q0 -17 -6 -36t-12 -32.5t-22.5 -36.5t-23 -31.5t-28.5 -35t-26 -30.5l-33 -40h155v-39h-229v24q99 109 137 161.5t38 95.5q0 27 -15.5 43.5t-40.5 16.5t-43.5 -13.5t-38.5 -44.5z" />
    <glyph glyph-name="threesuperior" unicode="&#xb3;" horiz-adv-x="420" 
d="M210 371q35 0 54.5 22t19.5 57q0 29 -17 47t-39 18q-16 0 -47 -9l-10 35l33 10q29 9 48.5 31t19.5 51q0 48 -50 48q-26 0 -44 -13.5t-40 -43.5l-34 25q46 72 117 72q46 0 73.5 -24t27.5 -61q0 -55 -60 -93q72 -29 72 -92q0 -49 -34 -84.5t-90 -35.5q-61 0 -117 60l33 28
q36 -48 84 -48z" />
    <glyph glyph-name="acute" unicode="&#xb4;" horiz-adv-x="500" 
d="M374 728l-138 -133h-42l88 133h92z" />
    <glyph glyph-name="mu" unicode="&#xb5;" 
d="M30 213h76v77h-76v52h76v358h172q109 0 167.5 -56.5t58.5 -147.5q0 -90 -61 -148t-163 -58h-118v-77h218v-52h-218v-161h-56v161h-76v52zM280 648h-118v-306h118q81 0 124.5 42t43.5 112t-43.5 111t-124.5 41z" />
    <glyph glyph-name="paragraph" unicode="&#xb6;" horiz-adv-x="597" 
d="M454 663h-68v-824h-53v438h-6q-119 0 -196.5 56.5t-77.5 154.5t72 155t187 57h195v-861h-53v824z" />
    <glyph glyph-name="periodcentered" unicode="&#xb7;" horiz-adv-x="208" 
d="M35 306q0 20 13.5 33.5t32.5 13.5t33 -13.5t14 -33.5q0 -19 -13.5 -32.5t-33.5 -13.5q-19 0 -32.5 13t-13.5 33z" />
    <glyph glyph-name="cedilla" unicode="&#xb8;" horiz-adv-x="500" 
d="M274 9l-47 -64q15 3 27 3q37 0 60 -21.5t23 -49.5q0 -34 -28 -59t-78 -25t-95 21l14 32q33 -17 76 -17q23 0 43 11t20 32t-17 31.5t-39 10.5q-26 0 -47 -8l-16 15l63 88h41z" />
    <glyph glyph-name="onesuperior" unicode="&#xb9;" horiz-adv-x="420" 
d="M336 380v-40h-244v40h97v282l-74 -44l-15 25v-1q-1 2 -3.5 5t-3.5 5l48 28l71 41h27v-341h97z" />
    <glyph glyph-name="ordmasculine" unicode="&#xba;" horiz-adv-x="482" 
d="M238 352q62 0 103.5 43.5t41.5 107.5q0 62 -41.5 106.5t-103.5 44.5t-103 -44t-41 -107q0 -64 41 -107.5t103 -43.5zM238 311q-86 0 -138.5 55t-52.5 137q0 81 52.5 136.5t138.5 55.5t139 -55.5t53 -136.5t-53 -136.5t-139 -55.5z" />
    <glyph glyph-name="guillemotright" unicode="&#xbb;" horiz-adv-x="515" 
d="M256 231l-180 -207l-31 22l137 190l-137 188l31 22l180 -207v-8zM460 231l-180 -207l-31 22l137 190l-137 188l31 22l180 -207v-8z" />
    <glyph glyph-name="onequarter" unicode="&#xbc;" horiz-adv-x="870" 
d="M326 380v-40h-244v40h97v282l-72 -44l-23 34l115 69h30v-341h97zM750 0h-48v102h-159l-7 29l187 252h27v-241h66v-40h-66v-102zM702 291l-114 -149h114v149zM229 0h-66l548 700h66z" />
    <glyph glyph-name="onehalf" unicode="&#xbd;" horiz-adv-x="870" 
d="M223 0h-54l552 704h54zM601 283l-35 27q27 35 53.5 54t63.5 19q50 0 78 -28t28 -74q0 -17 -6 -36t-12 -32.5t-22.5 -36.5t-23 -31.5t-28.5 -35t-26 -30.5l-33 -40h155v-39h-229v24q99 109 137 161.5t38 95.5q0 27 -15.5 43.5t-40.5 16.5t-43.5 -13.5t-38.5 -44.5z
M326 380v-40h-244v40h97v282l-72 -44l-23 34l115 69h30v-341h97z" />
    <glyph glyph-name="threequarters" unicode="&#xbe;" horiz-adv-x="870" 
d="M214 0h-54l552 704h54zM182 371q35 0 54.5 22t19.5 57q0 29 -17 47t-39 18q-16 0 -47 -9l-10 35l33 10q29 9 48.5 31t19.5 51q0 48 -50 48q-26 0 -44 -13.5t-40 -43.5l-34 25q46 72 117 72q46 0 73.5 -24t27.5 -61q0 -55 -60 -93q72 -29 72 -92q0 -49 -34 -84.5
t-90 -35.5q-61 0 -117 60l33 28q36 -48 84 -48zM741 0h-48v102h-159l-7 29l187 252h27v-241h66v-40h-66v-102zM693 291l-114 -149h114v149z" />
    <glyph glyph-name="questiondown" unicode="&#xbf;" horiz-adv-x="474" 
d="M224 303v29h56v-29q0 -62 -20 -105.5t-48.5 -67t-57 -43.5t-48.5 -49t-20 -70q0 -63 39 -95t103 -32q115 0 155 108l51 -24q-55 -136 -206 -136q-90 0 -144 48t-54 131q0 48 20 82.5t48.5 56.5t57 44.5t48.5 60.5t20 91zM299 468q0 -20 -13.5 -33.5t-32.5 -13.5t-33 13.5
t-14 33.5q0 19 13.5 32.5t33.5 13.5q19 0 32.5 -13t13.5 -33z" />
    <glyph glyph-name="Agrave" unicode="&#xc0;" horiz-adv-x="650" 
d="M357 700l278 -700h-56l-81 204h-346l-81 -204h-56l278 700h64zM325 639l-153 -383h305zM289 917l84 -122h-42l-120 122h78z" />
    <glyph glyph-name="Aacute" unicode="&#xc1;" horiz-adv-x="650" 
d="M357 700l278 -700h-56l-81 204h-346l-81 -204h-56l278 700h64zM325 639l-153 -383h305zM276 795l84 122h78l-120 -122h-42z" />
    <glyph glyph-name="Acircumflex" unicode="&#xc2;" horiz-adv-x="650" 
d="M357 700l278 -700h-56l-81 204h-346l-81 -204h-56l278 700h64zM325 639l-153 -383h305zM205 795l100 122h40l100 -122h-47l-74 68l-74 -68h-45z" />
    <glyph glyph-name="Atilde" unicode="&#xc3;" horiz-adv-x="650" 
d="M357 700l278 -700h-56l-81 204h-346l-81 -204h-56l278 700h64zM325 639l-153 -383h305zM211 786l-34 9q14 52 33.5 72.5t50.5 20.5q19 0 65 -20.5t63 -20.5q18 0 28.5 10.5t21.5 39.5l34 -9q-14 -52 -33.5 -72.5t-50.5 -20.5q-19 0 -65 20.5t-63 20.5q-18 0 -28.5 -10.5
t-21.5 -39.5z" />
    <glyph glyph-name="Adieresis" unicode="&#xc4;" horiz-adv-x="650" 
d="M357 700l278 -700h-56l-81 204h-346l-81 -204h-56l278 700h64zM325 639l-153 -383h305zM364 835q0 18 12 30.5t30 12.5t30.5 -12.5t12.5 -30.5t-12.5 -30t-30.5 -12t-30 12t-12 30zM201 835q0 18 12 30.5t30 12.5t30.5 -12.5t12.5 -30.5t-12.5 -30t-30.5 -12t-30 12
t-12 30z" />
    <glyph glyph-name="Aring" unicode="&#xc5;" horiz-adv-x="650" 
d="M357 700l278 -700h-56l-81 204h-346l-81 -204h-56l278 700h64zM325 639l-153 -383h305zM325 773q-39 0 -68.5 28t-29.5 67q0 38 29.5 65.5t68.5 27.5t68.5 -28t29.5 -67q0 -38 -29.5 -65.5t-68.5 -27.5zM325 805q25 0 43.5 18.5t18.5 44.5q0 25 -18.5 43t-43.5 18
q-26 0 -44 -18.5t-18 -44.5q0 -25 18.5 -43t43.5 -18z" />
    <glyph glyph-name="AE" unicode="&#xc6;" horiz-adv-x="973" 
d="M938 52v-52h-446v204h-292l-129 -204h-66l442 700h481v-52h-380v-258h350v-52h-350v-286h390zM233 256h259v410z" />
    <glyph glyph-name="Ccedilla" unicode="&#xc7;" horiz-adv-x="702" 
d="M416 37q138 0 224 89l42 -42q-101 -99 -266 -99q-25 0 -37 1l-30 -41q15 3 27 3q37 0 60 -21.5t23 -49.5q0 -34 -28 -59t-78 -25t-95 21l14 32q33 -17 76 -17q23 0 43 11t20 32t-17 31.5t-39 10.5q-26 0 -47 -8l-16 15l50 70q-138 22 -217.5 121t-79.5 238
q0 157 100.5 261t270.5 104q165 0 266 -99l-42 -42q-86 89 -224 89q-141 0 -225.5 -89t-84.5 -224t84.5 -224t225.5 -89z" />
    <glyph glyph-name="Egrave" unicode="&#xc8;" horiz-adv-x="587" 
d="M542 52v-52h-456v700h446v-52h-390v-258h360v-52h-360v-286h400zM290 917l84 -122h-42l-120 122h78z" />
    <glyph glyph-name="Eacute" unicode="&#xc9;" horiz-adv-x="587" 
d="M542 52v-52h-456v700h446v-52h-390v-258h360v-52h-360v-286h400zM212 795l84 122h78l-120 -122h-42z" />
    <glyph glyph-name="Ecircumflex" unicode="&#xca;" horiz-adv-x="587" 
d="M542 52v-52h-456v700h446v-52h-390v-258h360v-52h-360v-286h400zM173 795l100 122h40l100 -122h-47l-74 68l-74 -68h-45z" />
    <glyph glyph-name="Edieresis" unicode="&#xcb;" horiz-adv-x="587" 
d="M542 52v-52h-456v700h446v-52h-390v-258h360v-52h-360v-286h400zM332 835q0 18 12 30.5t30 12.5t30.5 -12.5t12.5 -30.5t-12.5 -30t-30.5 -12t-30 12t-12 30zM169 835q0 18 12 30.5t30 12.5t30.5 -12.5t12.5 -30.5t-12.5 -30t-30.5 -12t-30 12t-12 30z" />
    <glyph glyph-name="Igrave" unicode="&#xcc;" horiz-adv-x="228" 
d="M86 0v700h56v-700h-56zM82 917l84 -122h-42l-120 122h78z" />
    <glyph glyph-name="Iacute" unicode="&#xcd;" horiz-adv-x="228" 
d="M86 0v700h56v-700h-56zM61 795l84 122h78l-120 -122h-42z" />
    <glyph glyph-name="Icircumflex" unicode="&#xce;" horiz-adv-x="228" 
d="M86 0v700h56v-700h-56zM-6 795l100 122h40l100 -122h-47l-74 68l-74 -68h-45z" />
    <glyph glyph-name="Idieresis" unicode="&#xcf;" horiz-adv-x="228" 
d="M86 0v700h56v-700h-56zM153 835q0 18 12 30.5t30 12.5t30.5 -12.5t12.5 -30.5t-12.5 -30t-30.5 -12t-30 12t-12 30zM-10 835q0 18 12 30.5t30 12.5t30.5 -12.5t12.5 -30.5t-12.5 -30t-30.5 -12t-30 12t-12 30z" />
    <glyph glyph-name="Eth" unicode="&#xd0;" horiz-adv-x="731" 
d="M-10 334v52h96v314h239q171 0 266 -97t95 -253q0 -157 -95 -253.5t-266 -96.5h-239v334h-96zM142 52h183q145 0 225 81.5t80 216.5q0 134 -80 216t-225 82h-183v-262h148v-52h-148v-282z" />
    <glyph glyph-name="Ntilde" unicode="&#xd1;" horiz-adv-x="699" 
d="M141 606v-606h-55v700h56l416 -607v607h55v-700h-56zM235 786l-34 9q14 52 33.5 72.5t50.5 20.5q19 0 65 -20.5t63 -20.5q18 0 28.5 10.5t21.5 39.5l34 -9q-14 -52 -33.5 -72.5t-50.5 -20.5q-19 0 -65 20.5t-63 20.5q-18 0 -28.5 -10.5t-21.5 -39.5z" />
    <glyph glyph-name="Ograve" unicode="&#xd2;" horiz-adv-x="832" 
d="M416 663q-141 0 -228 -89.5t-87 -223.5q0 -135 87 -224t228 -89t228 89t87 224q0 134 -87 223.5t-228 89.5zM416 -15q-170 0 -270.5 103.5t-100.5 261.5q0 157 100.5 261t270.5 104t270.5 -104t100.5 -261q0 -158 -100.5 -261.5t-270.5 -103.5zM406 917l84 -122h-42
l-120 122h78z" />
    <glyph glyph-name="Oacute" unicode="&#xd3;" horiz-adv-x="832" 
d="M416 663q-141 0 -228 -89.5t-87 -223.5q0 -135 87 -224t228 -89t228 89t87 224q0 134 -87 223.5t-228 89.5zM416 -15q-170 0 -270.5 103.5t-100.5 261.5q0 157 100.5 261t270.5 104t270.5 -104t100.5 -261q0 -158 -100.5 -261.5t-270.5 -103.5zM341 795l84 122h78
l-120 -122h-42z" />
    <glyph glyph-name="Ocircumflex" unicode="&#xd4;" horiz-adv-x="832" 
d="M416 663q-141 0 -228 -89.5t-87 -223.5q0 -135 87 -224t228 -89t228 89t87 224q0 134 -87 223.5t-228 89.5zM416 -15q-170 0 -270.5 103.5t-100.5 261.5q0 157 100.5 261t270.5 104t270.5 -104t100.5 -261q0 -158 -100.5 -261.5t-270.5 -103.5zM296 795l100 122h40
l100 -122h-47l-74 68l-74 -68h-45z" />
    <glyph glyph-name="Otilde" unicode="&#xd5;" horiz-adv-x="832" 
d="M416 663q-141 0 -228 -89.5t-87 -223.5q0 -135 87 -224t228 -89t228 89t87 224q0 134 -87 223.5t-228 89.5zM416 -15q-170 0 -270.5 103.5t-100.5 261.5q0 157 100.5 261t270.5 104t270.5 -104t100.5 -261q0 -158 -100.5 -261.5t-270.5 -103.5zM302 786l-34 9
q14 52 33.5 72.5t50.5 20.5q20 0 66 -20.5t62 -20.5q18 0 28.5 10.5t21.5 39.5l34 -9q-14 -52 -33.5 -72.5t-50.5 -20.5q-20 0 -66 20.5t-62 20.5q-18 0 -28.5 -10.5t-21.5 -39.5z" />
    <glyph glyph-name="Odieresis" unicode="&#xd6;" horiz-adv-x="832" 
d="M416 663q-141 0 -228 -89.5t-87 -223.5q0 -135 87 -224t228 -89t228 89t87 224q0 134 -87 223.5t-228 89.5zM416 -15q-170 0 -270.5 103.5t-100.5 261.5q0 157 100.5 261t270.5 104t270.5 -104t100.5 -261q0 -158 -100.5 -261.5t-270.5 -103.5zM455 835q0 18 12 30.5
t30 12.5t30.5 -12.5t12.5 -30.5t-12.5 -30t-30.5 -12t-30 12t-12 30zM292 835q0 18 12 30.5t30 12.5t30.5 -12.5t12.5 -30.5t-12.5 -30t-30.5 -12t-30 12t-12 30z" />
    <glyph glyph-name="multiply" unicode="&#xd7;" horiz-adv-x="640" 
d="M502 71l-182 182l-182 -182l-34 34l182 182l-182 182l34 34l182 -182l182 182l34 -34l-182 -182l182 -182z" />
    <glyph glyph-name="Oslash" unicode="&#xd8;" horiz-adv-x="832" 
d="M131 0h-61l78 86q-103 101 -103 264q0 157 100.5 261t270.5 104q137 0 233 -72l52 57h61l-78 -87q103 -103 103 -263q0 -158 -100.5 -261.5t-270.5 -103.5q-139 0 -234 71zM731 350q0 133 -85 221l-427 -473q81 -61 197 -61q141 0 228 89t87 224zM416 663
q-141 0 -228 -89.5t-87 -223.5q0 -135 84 -222l427 473q-83 62 -196 62z" />
    <glyph glyph-name="Ugrave" unicode="&#xd9;" horiz-adv-x="684" 
d="M86 237v463h56v-463q0 -86 55 -143t145 -57t145 57t55 143v463h56v-463q0 -109 -69 -180.5t-187 -71.5t-187 71.5t-69 180.5zM332 917l84 -122h-42l-120 122h78z" />
    <glyph glyph-name="Uacute" unicode="&#xda;" horiz-adv-x="684" 
d="M86 237v463h56v-463q0 -86 55 -143t145 -57t145 57t55 143v463h56v-463q0 -109 -69 -180.5t-187 -71.5t-187 71.5t-69 180.5zM267 795l84 122h78l-120 -122h-42z" />
    <glyph glyph-name="Ucircumflex" unicode="&#xdb;" horiz-adv-x="684" 
d="M86 237v463h56v-463q0 -86 55 -143t145 -57t145 57t55 143v463h56v-463q0 -109 -69 -180.5t-187 -71.5t-187 71.5t-69 180.5zM222 795l100 122h40l100 -122h-47l-74 68l-74 -68h-45z" />
    <glyph glyph-name="Udieresis" unicode="&#xdc;" horiz-adv-x="684" 
d="M86 237v463h56v-463q0 -86 55 -143t145 -57t145 57t55 143v463h56v-463q0 -109 -69 -180.5t-187 -71.5t-187 71.5t-69 180.5zM381 835q0 18 12 30.5t30 12.5t30.5 -12.5t12.5 -30.5t-12.5 -30t-30.5 -12t-30 12t-12 30zM218 835q0 18 12 30.5t30 12.5t30.5 -12.5
t12.5 -30.5t-12.5 -30t-30.5 -12t-30 12t-12 30z" />
    <glyph glyph-name="Yacute" unicode="&#xdd;" horiz-adv-x="606" 
d="M5 700h62l236 -387l237 387h61l-270 -442v-258h-56v256zM228 795l84 122h78l-120 -122h-42z" />
    <glyph glyph-name="Thorn" unicode="&#xde;" horiz-adv-x="526" 
d="M86 0v700h56v-107h60q138 0 216 -61.5t78 -167.5t-78 -167.5t-216 -61.5h-60v-135h-56zM440 364q0 82 -63 130t-175 48h-60v-356h60q112 0 175 48t63 130z" />
    <glyph glyph-name="germandbls" unicode="&#xdf;" horiz-adv-x="599" 
d="M503 543q0 -57 -31.5 -108.5t-87.5 -76.5q81 -17 125.5 -65.5t44.5 -107.5q0 -77 -65.5 -130.5t-194.5 -53.5v47q96 0 147.5 40.5t51.5 98.5q0 55 -52 94t-147 40v49q69 9 110.5 60t41.5 112q0 55 -37.5 93t-109.5 38q-73 0 -119.5 -51.5t-46.5 -136.5v-485h-53v484
q0 106 60.5 170.5t163.5 64.5q96 0 147.5 -51.5t51.5 -124.5z" />
    <glyph glyph-name="agrave" unicode="&#xe0;" horiz-adv-x="515" 
d="M201 -15q-77 0 -121.5 39t-44.5 103q0 66 47 103.5t114 48.5q73 11 201 13v51q0 71 -36 97.5t-100 26.5q-90 0 -159 -69l-34 36q83 81 203 81q51 0 87 -14t53.5 -31.5t27 -46t10.5 -43.5t1 -37v-343h-53v97q-88 -112 -196 -112zM201 33q113 0 196 127v84
q-120 -1 -192 -12q-14 -2 -30.5 -7.5t-37.5 -17t-35 -32.5t-14 -48q0 -51 35.5 -72.5t77.5 -21.5zM290 595l-138 133h92l88 -133h-42z" />
    <glyph glyph-name="aacute" unicode="&#xe1;" horiz-adv-x="515" 
d="M201 -15q-77 0 -121.5 39t-44.5 103q0 66 47 103.5t114 48.5q73 11 201 13v51q0 71 -36 97.5t-100 26.5q-90 0 -159 -69l-34 36q83 81 203 81q51 0 87 -14t53.5 -31.5t27 -46t10.5 -43.5t1 -37v-343h-53v97q-88 -112 -196 -112zM201 33q113 0 196 127v84
q-120 -1 -192 -12q-14 -2 -30.5 -7.5t-37.5 -17t-35 -32.5t-14 -48q0 -51 35.5 -72.5t77.5 -21.5zM363 728l-138 -133h-42l88 133h92z" />
    <glyph glyph-name="acircumflex" unicode="&#xe2;" horiz-adv-x="515" 
d="M201 -15q-77 0 -121.5 39t-44.5 103q0 66 47 103.5t114 48.5q73 11 201 13v51q0 71 -36 97.5t-100 26.5q-90 0 -159 -69l-34 36q83 81 203 81q51 0 87 -14t53.5 -31.5t27 -46t10.5 -43.5t1 -37v-343h-53v97q-88 -112 -196 -112zM201 33q113 0 196 127v84
q-120 -1 -192 -12q-14 -2 -30.5 -7.5t-37.5 -17t-35 -32.5t-14 -48q0 -51 35.5 -72.5t77.5 -21.5zM137 595l100 122h40l100 -122h-47l-74 68l-74 -68h-45z" />
    <glyph glyph-name="atilde" unicode="&#xe3;" horiz-adv-x="515" 
d="M201 -15q-77 0 -121.5 39t-44.5 103q0 66 47 103.5t114 48.5q73 11 201 13v51q0 71 -36 97.5t-100 26.5q-90 0 -159 -69l-34 36q83 81 203 81q51 0 87 -14t53.5 -31.5t27 -46t10.5 -43.5t1 -37v-343h-53v97q-88 -112 -196 -112zM201 33q113 0 196 127v84
q-120 -1 -192 -12q-14 -2 -30.5 -7.5t-37.5 -17t-35 -32.5t-14 -48q0 -51 35.5 -72.5t77.5 -21.5zM143 586l-34 9q14 52 33.5 72.5t50.5 20.5q19 0 65.5 -20.5t62.5 -20.5q18 0 28.5 10.5t21.5 39.5l34 -9q-14 -52 -33.5 -72.5t-50.5 -20.5q-19 0 -65 20.5t-63 20.5
q-18 0 -28.5 -10.5t-21.5 -39.5z" />
    <glyph glyph-name="adieresis" unicode="&#xe4;" horiz-adv-x="515" 
d="M201 -15q-77 0 -121.5 39t-44.5 103q0 66 47 103.5t114 48.5q73 11 201 13v51q0 71 -36 97.5t-100 26.5q-90 0 -159 -69l-34 36q83 81 203 81q51 0 87 -14t53.5 -31.5t27 -46t10.5 -43.5t1 -37v-343h-53v97q-88 -112 -196 -112zM201 33q113 0 196 127v84
q-120 -1 -192 -12q-14 -2 -30.5 -7.5t-37.5 -17t-35 -32.5t-14 -48q0 -51 35.5 -72.5t77.5 -21.5zM296 635q0 18 12 30.5t30 12.5t30.5 -12.5t12.5 -30.5t-12.5 -30t-30.5 -12t-30 12t-12 30zM133 635q0 18 12 30.5t30 12.5t30.5 -12.5t12.5 -30.5t-12.5 -30t-30.5 -12
t-30 12t-12 30z" />
    <glyph glyph-name="aring" unicode="&#xe5;" horiz-adv-x="515" 
d="M201 -15q-77 0 -121.5 39t-44.5 103q0 66 47 103.5t114 48.5q73 11 201 13v51q0 71 -36 97.5t-100 26.5q-90 0 -159 -69l-34 36q83 81 203 81q51 0 87 -14t53.5 -31.5t27 -46t10.5 -43.5t1 -37v-343h-53v97q-88 -112 -196 -112zM201 33q113 0 196 127v84
q-120 -1 -192 -12q-14 -2 -30.5 -7.5t-37.5 -17t-35 -32.5t-14 -48q0 -51 35.5 -72.5t77.5 -21.5zM257 595q-39 0 -68.5 27.5t-29.5 65.5t29.5 65.5t68.5 27.5t68.5 -27.5t29.5 -65.5t-29.5 -65.5t-68.5 -27.5zM257 627q25 0 43.5 18t18.5 43t-18.5 43t-43.5 18t-43.5 -18
t-18.5 -43t18.5 -43t43.5 -18z" />
    <glyph glyph-name="ae" unicode="&#xe6;" horiz-adv-x="939" 
d="M201 -15q-77 0 -121.5 39t-44.5 103q0 67 48.5 111.5t112.5 55.5q73 11 201 13v43q0 67 -36.5 92t-99.5 25q-90 0 -159 -69l-34 36q83 81 203 81q150 0 174 -115q82 115 208 115q123 0 189.5 -73.5t66.5 -171.5v-11h-458q-1 -4 -1 -22q0 -90 63.5 -146t157.5 -56
q45 0 93.5 18.5t79.5 49.5l37 -38q-37 -37 -95 -58.5t-115 -21.5q-74 0 -130.5 27.5t-115.5 103.5q-60 -80 -114 -105.5t-110 -25.5zM201 33q113 0 196 127v99q-120 -1 -192 -12q-18 -3 -43 -15t-49.5 -41t-24.5 -64q0 -51 35.5 -72.5t77.5 -21.5zM853 307
q-11 67 -62.5 112.5t-137.5 45.5q-71 0 -123.5 -43.5t-70.5 -114.5h394z" />
    <glyph glyph-name="ccedilla" unicode="&#xe7;" horiz-adv-x="539" 
d="M82 247q0 -90 67 -151t160 -61q88 0 156 68l37 -38q-80 -80 -193 -80h-12l-29 -40q15 3 27 3q37 0 60 -21.5t23 -49.5q0 -34 -28 -59t-78 -25t-95 21l14 32q33 -17 76 -17q23 0 43 11t20 32t-17 31.5t-39 10.5q-26 0 -47 -8l-16 15l49 68q-99 16 -165 87.5t-66 170.5
q0 112 82.5 187t197.5 75q113 0 193 -80l-37 -38q-68 68 -156 68q-93 0 -160 -61t-67 -151z" />
    <glyph glyph-name="egrave" unicode="&#xe8;" horiz-adv-x="583" 
d="M547 270v-11h-458q-1 -8 -1 -22q0 -90 63.5 -146t157.5 -56q45 0 93.5 18.5t79.5 49.5l37 -38q-37 -37 -95 -58.5t-115 -21.5q-116 0 -195 70.5t-79 181.5q0 116 74 197t182 81q123 0 189.5 -73.5t66.5 -171.5zM491 307q-11 67 -62.5 112.5t-137.5 45.5
q-71 0 -123.5 -43.5t-70.5 -114.5h394zM274 717l84 -122h-42l-120 122h78z" />
    <glyph glyph-name="eacute" unicode="&#xe9;" horiz-adv-x="583" 
d="M547 270v-11h-458q-1 -8 -1 -22q0 -90 63.5 -146t157.5 -56q45 0 93.5 18.5t79.5 49.5l37 -38q-37 -37 -95 -58.5t-115 -21.5q-116 0 -195 70.5t-79 181.5q0 116 74 197t182 81q123 0 189.5 -73.5t66.5 -171.5zM491 307q-11 67 -62.5 112.5t-137.5 45.5
q-71 0 -123.5 -43.5t-70.5 -114.5h394zM209 595l84 122h78l-120 -122h-42z" />
    <glyph glyph-name="ecircumflex" unicode="&#xea;" horiz-adv-x="583" 
d="M547 268v-11h-458q-1 -8 -1 -22q0 -90 63.5 -146t157.5 -56q45 0 93.5 18.5t79.5 49.5l37 -38q-37 -37 -95 -58.5t-115 -21.5q-116 0 -195 70.5t-79 181.5q0 116 74 197t182 81q123 0 189.5 -73.5t66.5 -171.5zM491 305q-11 67 -62.5 112.5t-137.5 45.5
q-71 0 -123.5 -43.5t-70.5 -114.5h394zM164 593l100 122h40l100 -122h-47l-74 68l-74 -68h-45z" />
    <glyph glyph-name="edieresis" unicode="&#xeb;" horiz-adv-x="583" 
d="M547 270v-11h-458q-1 -8 -1 -22q0 -90 63.5 -146t157.5 -56q45 0 93.5 18.5t79.5 49.5l37 -38q-37 -37 -95 -58.5t-115 -21.5q-116 0 -195 70.5t-79 181.5q0 116 74 197t182 81q123 0 189.5 -73.5t66.5 -171.5zM491 307q-11 67 -62.5 112.5t-137.5 45.5
q-71 0 -123.5 -43.5t-70.5 -114.5h394zM323 635q0 18 12 30.5t30 12.5t30.5 -12.5t12.5 -30.5t-12.5 -30t-30.5 -12t-30 12t-12 30zM160 635q0 18 12 30.5t30 12.5t30.5 -12.5t12.5 -30.5t-12.5 -30t-30.5 -12t-30 12t-12 30z" />
    <glyph glyph-name="igrave" unicode="&#xec;" horiz-adv-x="213" 
d="M96 0v500h53v-500h-53zM93 717l84 -122h-42l-120 122h78z" />
    <glyph glyph-name="iacute" unicode="&#xed;" horiz-adv-x="213" 
d="M96 0v500h53v-500h-53zM68 595l84 122h78l-120 -122h-42z" />
    <glyph glyph-name="icircumflex" unicode="&#xee;" horiz-adv-x="213" 
d="M96 0v500h53v-500h-53zM3 595l100 122h40l100 -122h-47l-74 68l-74 -68h-45z" />
    <glyph glyph-name="idieresis" unicode="&#xef;" horiz-adv-x="213" 
d="M96 0v500h53v-500h-53zM162 635q0 18 12 30.5t30 12.5t30.5 -12.5t12.5 -30.5t-12.5 -30t-30.5 -12t-30 12t-12 30zM-1 635q0 18 12 30.5t30 12.5t30.5 -12.5t12.5 -30.5t-12.5 -30t-30.5 -12t-30 12t-12 30z" />
    <glyph glyph-name="eth" unicode="&#xf0;" horiz-adv-x="605" 
d="M286 -12q-106 0 -178.5 75.5t-72.5 179.5q0 106 71 174.5t169 68.5q95 0 177 -63l-133 188l-133 -68l-29 36l137 67l-45 64h63l27 -41l98 50l28 -36l-102 -50l95 -141q87 -129 87 -245q0 -106 -72.5 -182.5t-186.5 -76.5zM291 34q88 0 144.5 61.5t56.5 146.5
q0 82 -61.5 141t-149.5 59q-87 0 -140 -58t-53 -144q0 -81 58.5 -143.5t144.5 -62.5z" />
    <glyph glyph-name="ntilde" unicode="&#xf1;" horiz-adv-x="579" 
d="M461 0v314q0 82 -40 119t-101 37q-52 0 -104.5 -30.5t-82.5 -83.5v-356h-53v500h53v-84q32 46 87 72.5t112 26.5q78 0 130 -47.5t52 -153.5v-314h-53zM175 586l-34 9q14 52 33.5 72.5t50.5 20.5q19 0 65 -20.5t63 -20.5q18 0 28.5 10.5t21.5 39.5l34 -9
q-14 -52 -33.5 -72.5t-50.5 -20.5q-19 0 -65 20.5t-63 20.5q-18 0 -28.5 -10.5t-21.5 -39.5z" />
    <glyph glyph-name="ograve" unicode="&#xf2;" horiz-adv-x="618" 
d="M309 27q94 0 157.5 65t63.5 158q0 92 -63.5 157.5t-157.5 65.5q-95 0 -158 -65.5t-63 -157.5q0 -93 63 -158t158 -65zM309 -15q-122 0 -198 76.5t-76 188.5t76 188.5t198 76.5t198 -76.5t76 -188.5t-76 -188.5t-198 -76.5zM299 717l84 -122h-42l-120 122h78z" />
    <glyph glyph-name="oacute" unicode="&#xf3;" horiz-adv-x="618" 
d="M309 27q94 0 157.5 65t63.5 158q0 92 -63.5 157.5t-157.5 65.5q-95 0 -158 -65.5t-63 -157.5q0 -93 63 -158t158 -65zM309 -15q-122 0 -198 76.5t-76 188.5t76 188.5t198 76.5t198 -76.5t76 -188.5t-76 -188.5t-198 -76.5zM234 595l84 122h78l-120 -122h-42z" />
    <glyph glyph-name="ocircumflex" unicode="&#xf4;" horiz-adv-x="618" 
d="M309 27q94 0 157.5 65t63.5 158q0 92 -63.5 157.5t-157.5 65.5q-95 0 -158 -65.5t-63 -157.5q0 -93 63 -158t158 -65zM309 -15q-122 0 -198 76.5t-76 188.5t76 188.5t198 76.5t198 -76.5t76 -188.5t-76 -188.5t-198 -76.5zM189 595l100 122h40l100 -122h-47l-74 68
l-74 -68h-45z" />
    <glyph glyph-name="otilde" unicode="&#xf5;" horiz-adv-x="618" 
d="M309 27q94 0 157.5 65t63.5 158q0 92 -63.5 157.5t-157.5 65.5q-95 0 -158 -65.5t-63 -157.5q0 -93 63 -158t158 -65zM309 -15q-122 0 -198 76.5t-76 188.5t76 188.5t198 76.5t198 -76.5t76 -188.5t-76 -188.5t-198 -76.5zM195 586l-34 9q14 52 33.5 72.5t50.5 20.5
q19 0 65 -20.5t63 -20.5q18 0 28.5 10.5t21.5 39.5l34 -9q-14 -52 -33.5 -72.5t-50.5 -20.5q-19 0 -65 20.5t-63 20.5q-18 0 -28.5 -10.5t-21.5 -39.5z" />
    <glyph glyph-name="odieresis" unicode="&#xf6;" horiz-adv-x="618" 
d="M309 27q94 0 157.5 65t63.5 158q0 92 -63.5 157.5t-157.5 65.5q-95 0 -158 -65.5t-63 -157.5q0 -93 63 -158t158 -65zM309 -15q-122 0 -198 76.5t-76 188.5t76 188.5t198 76.5t198 -76.5t76 -188.5t-76 -188.5t-198 -76.5zM348 635q0 18 12 30.5t30 12.5t30.5 -12.5
t12.5 -30.5t-12.5 -30t-30.5 -12t-30 12t-12 30zM185 635q0 18 12 30.5t30 12.5t30.5 -12.5t12.5 -30.5t-12.5 -30t-30.5 -12t-30 12t-12 30z" />
    <glyph glyph-name="divide" unicode="&#xf7;" horiz-adv-x="640" 
d="M273 136q0 20 13.5 33.5t32.5 13.5t33 -13.5t14 -33.5q0 -19 -13.5 -32.5t-33.5 -13.5q-19 0 -32.5 13t-13.5 33zM572 263h-504v48h504v-48zM273 437q0 20 13.5 33.5t32.5 13.5t33 -14t14 -33t-13.5 -32.5t-33.5 -13.5q-19 0 -32.5 13.5t-13.5 32.5z" />
    <glyph glyph-name="oslash" unicode="&#xf8;" horiz-adv-x="618" 
d="M103 0h-56l59 66q-71 74 -71 184q0 112 76 188.5t198 76.5q91 0 159 -46l28 31h56l-51 -56q82 -77 82 -194q0 -112 -76 -188.5t-198 -76.5q-100 0 -172 53zM309 27q94 0 157.5 65t63.5 158q0 91 -62 156l-298 -332q58 -47 139 -47zM88 250q0 -86 52 -147l296 330
q-58 40 -127 40q-95 0 -158 -65.5t-63 -157.5z" />
    <glyph glyph-name="ugrave" unicode="&#xf9;" horiz-adv-x="579" 
d="M118 500v-313q0 -82 40 -119t101 -37q52 0 104 30t83 83v356h53v-500h-53v84q-33 -45 -88 -71.5t-111 -26.5q-78 0 -130 47.5t-52 153.5v313h53zM286 717l84 -122h-42l-120 122h78z" />
    <glyph glyph-name="uacute" unicode="&#xfa;" horiz-adv-x="579" 
d="M118 500v-313q0 -82 40 -119t101 -37q52 0 104 30t83 83v356h53v-500h-53v84q-33 -45 -88 -71.5t-111 -26.5q-78 0 -130 47.5t-52 153.5v313h53zM208 595l84 122h78l-120 -122h-42z" />
    <glyph glyph-name="ucircumflex" unicode="&#xfb;" horiz-adv-x="579" 
d="M118 500v-313q0 -82 40 -119t101 -37q52 0 104 30t83 83v356h53v-500h-53v84q-33 -45 -88 -71.5t-111 -26.5q-78 0 -130 47.5t-52 153.5v313h53zM169 595l100 122h40l100 -122h-47l-74 68l-74 -68h-45z" />
    <glyph glyph-name="udieresis" unicode="&#xfc;" horiz-adv-x="579" 
d="M118 500v-313q0 -82 40 -119t101 -37q52 0 104 30t83 83v356h53v-500h-53v84q-33 -45 -88 -71.5t-111 -26.5q-78 0 -130 47.5t-52 153.5v313h53zM328 635q0 18 12 30.5t30 12.5t30.5 -12.5t12.5 -30.5t-12.5 -30t-30.5 -12t-30 12t-12 30zM165 635q0 18 12 30.5t30 12.5
t30.5 -12.5t12.5 -30.5t-12.5 -30t-30.5 -12t-30 12t-12 30z" />
    <glyph glyph-name="yacute" unicode="&#xfd;" horiz-adv-x="488" 
d="M493 500l-298 -704h-59l86 205l-212 499h61l180 -430l183 430h59zM170 595l84 122h78l-120 -122h-42z" />
    <glyph glyph-name="thorn" unicode="&#xfe;" horiz-adv-x="619" 
d="M322 -15q-111 0 -189 80v-269h-53v914h53v-276q78 81 189 81q108 0 185 -78t77 -187t-77 -187t-185 -78zM310 470q-53 0 -99.5 -24.5t-77.5 -65.5v-260q30 -42 77 -66t100 -24q90 0 154.5 64.5t64.5 155.5q0 90 -64.5 155t-154.5 65z" />
    <glyph glyph-name="ydieresis" unicode="&#xff;" horiz-adv-x="488" 
d="M493 500l-298 -704h-59l86 205l-212 499h61l180 -430l183 430h59zM283 635q0 18 12 30.5t30 12.5t30.5 -12.5t12.5 -30.5t-12.5 -30t-30.5 -12t-30 12t-12 30zM120 635q0 18 12 30.5t30 12.5t30.5 -12.5t12.5 -30.5t-12.5 -30t-30.5 -12t-30 12t-12 30z" />
    <glyph glyph-name="Amacron" unicode="&#x100;" horiz-adv-x="650" 
d="M357 700l278 -700h-56l-81 204h-346l-81 -204h-56l278 700h64zM325 639l-153 -383h305zM175 800v53h300v-53h-300z" />
    <glyph glyph-name="amacron" unicode="&#x101;" horiz-adv-x="515" 
d="M201 -15q-77 0 -121.5 39t-44.5 103q0 66 47 103.5t114 48.5q73 11 201 13v51q0 71 -36 97.5t-100 26.5q-90 0 -159 -69l-34 36q83 81 203 81q51 0 87 -14t53.5 -31.5t27 -46t10.5 -43.5t1 -37v-343h-53v97q-88 -112 -196 -112zM201 33q113 0 196 127v84
q-120 -1 -192 -12q-14 -2 -30.5 -7.5t-37.5 -17t-35 -32.5t-14 -48q0 -51 35.5 -72.5t77.5 -21.5zM107 600v53h300v-53h-300z" />
    <glyph glyph-name="Aogonek" unicode="&#x104;" horiz-adv-x="650" 
d="M642 -163q-54 0 -91 20.5t-37 63.5q0 50 65 79l-81 204h-346l-81 -204h-56l278 700h64l278 -700q-73 -36 -73 -77q0 -25 21.5 -40.5t58.5 -15.5v-30zM325 639l-153 -383h305z" />
    <glyph glyph-name="aogonek" unicode="&#x105;" horiz-adv-x="515" 
d="M457 -163q-54 0 -91 20.5t-37 63.5q0 49 68 79v97q-88 -112 -196 -112q-77 0 -121.5 39t-44.5 103q0 66 47 103.5t114 48.5q73 11 201 13v51q0 71 -36 97.5t-100 26.5q-90 0 -159 -69l-34 36q83 81 203 81q51 0 87 -14t53.5 -31.5t27 -46t10.5 -43.5t1 -37v-343
q-73 -36 -73 -77q0 -25 21.5 -40.5t58.5 -15.5v-30zM201 33q113 0 196 127v84q-120 -1 -192 -12q-14 -2 -30.5 -7.5t-37.5 -17t-35 -32.5t-14 -48q0 -51 35.5 -72.5t77.5 -21.5z" />
    <glyph glyph-name="Cacute" unicode="&#x106;" horiz-adv-x="702" 
d="M416 37q138 0 224 89l42 -42q-101 -99 -266 -99q-170 0 -270.5 103.5t-100.5 261.5q0 157 100.5 261t270.5 104q165 0 266 -99l-42 -42q-86 89 -224 89q-141 0 -225.5 -89t-84.5 -224t84.5 -224t225.5 -89zM456 928l-138 -133h-42l88 133h92z" />
    <glyph glyph-name="cacute" unicode="&#x107;" horiz-adv-x="519" 
d="M88 250q0 -92 57.5 -153.5t148.5 -61.5q88 0 156 68l37 -38q-80 -80 -193 -80q-110 0 -184.5 80t-74.5 185t74.5 185t184.5 80q113 0 193 -80l-37 -38q-68 68 -156 68q-91 0 -148.5 -61.5t-57.5 -153.5zM365 728l-138 -133h-42l88 133h92z" />
    <glyph glyph-name="Ccaron" unicode="&#x10c;" horiz-adv-x="702" 
d="M416 37q138 0 224 89l42 -42q-101 -99 -266 -99q-170 0 -270.5 103.5t-100.5 261.5q0 157 100.5 261t270.5 104q165 0 266 -99l-42 -42q-86 89 -224 89q-141 0 -225.5 -89t-84.5 -224t84.5 -224t225.5 -89zM395 795l-100 122h47l74 -68l74 68h45l-100 -122h-40z" />
    <glyph glyph-name="ccaron" unicode="&#x10d;" horiz-adv-x="519" 
d="M88 250q0 -92 57.5 -153.5t148.5 -61.5q88 0 156 68l37 -38q-80 -80 -193 -80q-110 0 -184.5 80t-74.5 185t74.5 185t184.5 80q113 0 193 -80l-37 -38q-68 68 -156 68q-91 0 -148.5 -61.5t-57.5 -153.5zM239 595l-100 122h47l74 -68l74 68h45l-100 -122h-40z" />
    <glyph glyph-name="Dcaron" unicode="&#x10e;" horiz-adv-x="731" 
d="M142 52h183q145 0 225 81.5t80 216.5q0 134 -80 216t-225 82h-183v-596zM325 0h-239v700h239q171 0 266 -97t95 -253q0 -157 -95 -253.5t-266 -96.5zM345 795l-100 122h47l74 -68l74 68h45l-100 -122h-40z" />
    <glyph glyph-name="dcaron" unicode="&#x10f;" horiz-adv-x="827" 
d="M539 0h-53v65q-78 -80 -189 -80q-108 0 -185 78t-77 187t77 187t185 78q111 0 189 -81v276h53v-710zM309 30q53 0 99.5 24t77.5 66v260q-31 41 -78 65.5t-99 24.5q-90 0 -154.5 -65t-64.5 -155q0 -91 64.5 -155.5t154.5 -64.5zM660 508l39 202h83l-79 -202h-43z" />
    <glyph glyph-name="Emacron" unicode="&#x112;" horiz-adv-x="587" 
d="M542 52v-52h-456v700h446v-52h-390v-258h360v-52h-360v-286h400zM143 800v53h300v-53h-300z" />
    <glyph glyph-name="emacron" unicode="&#x113;" horiz-adv-x="583" 
d="M547 270v-11h-458q-1 -8 -1 -22q0 -90 63.5 -146t157.5 -56q45 0 93.5 18.5t79.5 49.5l37 -38q-37 -37 -95 -58.5t-115 -21.5q-116 0 -195 70.5t-79 181.5q0 116 74 197t182 81q123 0 189.5 -73.5t66.5 -171.5zM491 307q-11 67 -62.5 112.5t-137.5 45.5
q-71 0 -123.5 -43.5t-70.5 -114.5h394zM141 600v53h300v-53h-300z" />
    <glyph glyph-name="Edotaccent" unicode="&#x116;" horiz-adv-x="587" 
d="M542 52v-52h-456v700h446v-52h-390v-258h360v-52h-360v-286h400zM257 795v81h72v-81h-72z" />
    <glyph glyph-name="edotaccent" unicode="&#x117;" horiz-adv-x="583" 
d="M547 270v-11h-458q-1 -8 -1 -22q0 -90 63.5 -146t157.5 -56q45 0 93.5 18.5t79.5 49.5l37 -38q-37 -37 -95 -58.5t-115 -21.5q-116 0 -195 70.5t-79 181.5q0 116 74 197t182 81q123 0 189.5 -73.5t66.5 -171.5zM491 307q-11 67 -62.5 112.5t-137.5 45.5
q-71 0 -123.5 -43.5t-70.5 -114.5h394zM255 595v81h72v-81h-72z" />
    <glyph glyph-name="Eogonek" unicode="&#x118;" horiz-adv-x="587" 
d="M549 -163q-54 0 -91 20.5t-37 63.5q0 50 65 79h-400v700h446v-52h-390v-258h360v-52h-360v-286h400v-52q-73 -36 -73 -77q0 -25 21.5 -40.5t58.5 -15.5v-30z" />
    <glyph glyph-name="eogonek" unicode="&#x119;" horiz-adv-x="583" 
d="M409 -163q-54 0 -91 20.5t-37 63.5q0 39 37 64h-9q-116 0 -195 70.5t-79 181.5q0 116 74 197t182 81q123 0 189.5 -73.5t66.5 -171.5v-11h-458q-1 -8 -1 -22q0 -90 63.5 -146t157.5 -56q45 0 93.5 18.5t79.5 49.5l37 -38q-46 -46 -121 -67q-69 -34 -69 -75
q0 -25 21.5 -40.5t58.5 -15.5v-30zM491 307q-11 67 -62.5 112.5t-137.5 45.5q-71 0 -123.5 -43.5t-70.5 -114.5h394z" />
    <glyph glyph-name="Ecaron" unicode="&#x11a;" horiz-adv-x="587" 
d="M542 52v-52h-456v700h446v-52h-390v-258h360v-52h-360v-286h400zM273 795l-100 122h47l74 -68l74 68h45l-100 -122h-40z" />
    <glyph glyph-name="ecaron" unicode="&#x11b;" horiz-adv-x="583" 
d="M547 270v-11h-458q-1 -8 -1 -22q0 -90 63.5 -146t157.5 -56q45 0 93.5 18.5t79.5 49.5l37 -38q-37 -37 -95 -58.5t-115 -21.5q-116 0 -195 70.5t-79 181.5q0 116 74 197t182 81q123 0 189.5 -73.5t66.5 -171.5zM491 307q-11 67 -62.5 112.5t-137.5 45.5
q-71 0 -123.5 -43.5t-70.5 -114.5h394zM271 595l-100 122h47l74 -68l74 68h45l-100 -122h-40z" />
    <glyph glyph-name="uni0122" unicode="&#x122;" horiz-adv-x="722" 
d="M343 298v52h339v-266q-102 -99 -266 -99q-170 0 -270.5 103.5t-100.5 261.5q0 157 100.5 261t270.5 104q122 0 211 -56l-32 -47q-77 51 -179 51q-141 0 -225.5 -89t-84.5 -224t84.5 -224t225.5 -89q129 0 214 77v184h-287zM348 -286l35 209h75l-71 -209h-39z" />
    <glyph glyph-name="uni0123" unicode="&#x123;" horiz-adv-x="609" 
d="M539 500v-469q0 -122 -69.5 -183t-177.5 -61q-122 0 -227 76l29 41q94 -68 196 -68q86 0 141 48t55 147v34q-78 -80 -189 -80q-108 0 -185 78t-77 187t77 187t185 78q111 0 189 -81v66h53zM309 30q53 0 99.5 24t77.5 66v260q-31 41 -78 65.5t-99 24.5q-90 0 -153.5 -65
t-63.5 -155q0 -91 63.5 -155.5t153.5 -64.5zM362 810l-35 -209h-75l71 209h39z" />
    <glyph glyph-name="Imacron" unicode="&#x12a;" horiz-adv-x="228" 
d="M86 0v700h56v-700h-56zM-36 800v53h300v-53h-300z" />
    <glyph glyph-name="imacron" unicode="&#x12b;" horiz-adv-x="213" 
d="M96 0v500h53v-500h-53zM-27 600v53h300v-53h-300z" />
    <glyph glyph-name="Iogonek" unicode="&#x12e;" horiz-adv-x="228" 
d="M149 -163q-54 0 -91 20.5t-37 63.5q0 50 65 79v700h56v-700q-73 -36 -73 -77q0 -25 21.5 -40.5t58.5 -15.5v-30z" />
    <glyph glyph-name="iogonek" unicode="&#x12f;" horiz-adv-x="213" 
d="M140 -163q-54 0 -91 20.5t-37 63.5q0 49 68 79v500h53v-500q-73 -36 -73 -77q0 -25 21.5 -40.5t58.5 -15.5v-30zM64 629q0 18 12 30.5t30 12.5t30.5 -12.5t12.5 -30.5t-12.5 -30t-30.5 -12t-30 12t-12 30z" />
    <glyph glyph-name="dotlessi" unicode="&#x131;" horiz-adv-x="245" 
d="M96 0v500h53v-500h-53z" />
    <glyph glyph-name="uni0136" unicode="&#x136;" horiz-adv-x="630" 
d="M538 0l-380 364l359 336h72l-358 -336l384 -364h-77zM86 0v700h56v-700h-56zM268 -286l35 209h75l-71 -209h-39z" />
    <glyph glyph-name="uni0137" unicode="&#x137;" horiz-adv-x="499" 
d="M80 710h53v-710h-53v710zM415 0l-264 264l254 236h77l-264 -236l274 -264h-77zM188 -286l35 209h75l-71 -209h-39z" />
    <glyph glyph-name="Lacute" unicode="&#x139;" horiz-adv-x="557" 
d="M86 0v700h56v-648h390v-52h-446zM274 928l-138 -133h-42l88 133h92z" />
    <glyph glyph-name="lacute" unicode="&#x13a;" horiz-adv-x="213" 
d="M80 710h53v-710h-53v710zM242 928l-138 -133h-42l88 133h92z" />
    <glyph glyph-name="uni013B" unicode="&#x13b;" horiz-adv-x="557" 
d="M86 0v700h56v-648h390v-52h-446zM228 -286l35 209h75l-71 -209h-39z" />
    <glyph glyph-name="uni013C" unicode="&#x13c;" horiz-adv-x="213" 
d="M80 710h53v-710h-53v710zM49 -286l35 209h75l-71 -209h-39z" />
    <glyph glyph-name="Lcaron" unicode="&#x13d;" horiz-adv-x="557" 
d="M86 0v700h56v-648h390v-52h-446zM237 498l39 202h83l-79 -202h-43z" />
    <glyph glyph-name="lcaron" unicode="&#x13e;" horiz-adv-x="421" 
d="M80 710h53v-710h-53v710zM184 508l39 202h83l-79 -202h-43z" />
    <glyph glyph-name="Lslash" unicode="&#x141;" horiz-adv-x="557" 
d="M20 231v52l66 62v355h56v-303l147 139v-52l-147 -139v-293h390v-52h-446v293z" />
    <glyph glyph-name="lslash" unicode="&#x142;" horiz-adv-x="213" 
d="M0 288v47l80 75v300h53v-250l80 75v-47l-80 -75v-413h-53v363z" />
    <glyph glyph-name="Nacute" unicode="&#x143;" horiz-adv-x="699" 
d="M141 606v-606h-55v700h56l416 -607v607h55v-700h-56zM455 928l-138 -133h-42l88 133h92z" />
    <glyph glyph-name="nacute" unicode="&#x144;" horiz-adv-x="579" 
d="M461 0v314q0 82 -40 119t-101 37q-52 0 -104.5 -30.5t-82.5 -83.5v-356h-53v500h53v-84q32 46 87 72.5t112 26.5q78 0 130 -47.5t52 -153.5v-314h-53zM395 728l-138 -133h-42l88 133h92z" />
    <glyph glyph-name="uni0145" unicode="&#x145;" horiz-adv-x="699" 
d="M141 606v-606h-55v700h56l416 -607v607h55v-700h-56zM292 -286l35 209h75l-71 -209h-39z" />
    <glyph glyph-name="uni0146" unicode="&#x146;" horiz-adv-x="579" 
d="M461 0v314q0 82 -40 119t-101 37q-52 0 -104.5 -30.5t-82.5 -83.5v-356h-53v500h53v-84q32 46 87 72.5t112 26.5q78 0 130 -47.5t52 -153.5v-314h-53zM248 -286l35 209h75l-71 -209h-39z" />
    <glyph glyph-name="Ncaron" unicode="&#x147;" horiz-adv-x="699" 
d="M141 606v-606h-55v700h56l416 -607v607h55v-700h-56zM329 795l-100 122h47l74 -68l74 68h45l-100 -122h-40z" />
    <glyph glyph-name="ncaron" unicode="&#x148;" horiz-adv-x="579" 
d="M461 0v314q0 82 -40 119t-101 37q-52 0 -104.5 -30.5t-82.5 -83.5v-356h-53v500h53v-84q32 46 87 72.5t112 26.5q78 0 130 -47.5t52 -153.5v-314h-53zM269 595l-100 122h47l74 -68l74 68h45l-100 -122h-40z" />
    <glyph glyph-name="Omacron" unicode="&#x14c;" horiz-adv-x="832" 
d="M416 663q-141 0 -228 -89.5t-87 -223.5q0 -135 87 -224t228 -89t228 89t87 224q0 134 -87 223.5t-228 89.5zM416 -15q-170 0 -270.5 103.5t-100.5 261.5q0 157 100.5 261t270.5 104t270.5 -104t100.5 -261q0 -158 -100.5 -261.5t-270.5 -103.5zM266 800v53h300v-53h-300z
" />
    <glyph glyph-name="omacron" unicode="&#x14d;" horiz-adv-x="618" 
d="M159 600v53h300v-53h-300zM309 27q94 0 157.5 65t63.5 158q0 92 -63.5 157.5t-157.5 65.5q-95 0 -158 -65.5t-63 -157.5q0 -93 63 -158t158 -65zM309 -15q-122 0 -198 76.5t-76 188.5t76 188.5t198 76.5t198 -76.5t76 -188.5t-76 -188.5t-198 -76.5z" />
    <glyph glyph-name="Ohungarumlaut" unicode="&#x150;" horiz-adv-x="832" 
d="M416 663q-141 0 -228 -89.5t-87 -223.5q0 -135 87 -224t228 -89t228 89t87 224q0 134 -87 223.5t-228 89.5zM416 -15q-170 0 -270.5 103.5t-100.5 261.5q0 157 100.5 261t270.5 104t270.5 -104t100.5 -261q0 -158 -100.5 -261.5t-270.5 -103.5zM620 928l-138 -133h-42
l88 133h92zM468 928l-138 -133h-42l88 133h92z" />
    <glyph glyph-name="ohungarumlaut" unicode="&#x151;" horiz-adv-x="618" 
d="M513 728l-138 -133h-42l88 133h92zM361 728l-138 -133h-42l88 133h92zM309 27q94 0 157.5 65t63.5 158q0 92 -63.5 157.5t-157.5 65.5q-95 0 -158 -65.5t-63 -157.5q0 -93 63 -158t158 -65zM309 -15q-122 0 -198 76.5t-76 188.5t76 188.5t198 76.5t198 -76.5t76 -188.5
t-76 -188.5t-198 -76.5z" />
    <glyph glyph-name="OE" unicode="&#x152;" horiz-adv-x="994" 
d="M959 52v-52h-445q-44 -10 -108 -10q-171 0 -266 98t-95 262q0 163 95 261.5t266 98.5q63 0 107 -10h436v-52h-380v-258h350v-52h-350v-286h390zM406 42q67 0 107 12v590q-47 14 -107 14q-142 0 -221 -83.5t-79 -224.5q0 -142 79 -225t221 -83z" />
    <glyph glyph-name="oe" unicode="&#x153;" horiz-adv-x="1079" 
d="M811 -15q-86 0 -154 40.5t-99 109.5q-32 -69 -97 -109.5t-152 -40.5q-122 0 -198 76.5t-76 188.5t76 188.5t198 76.5q90 0 156 -43t96 -115q31 72 93 115t139 43q123 0 189.5 -73.5t66.5 -171.5v-11h-458q-1 -8 -1 -22q0 -90 63.5 -146t157.5 -56q45 0 93.5 18.5
t79.5 49.5l37 -38q-37 -37 -95 -58.5t-115 -21.5zM309 27q94 0 157.5 65t63.5 158q0 92 -63.5 157.5t-157.5 65.5q-95 0 -158 -65.5t-63 -157.5q0 -93 63 -158t158 -65zM993 307q-11 67 -62.5 112.5t-137.5 45.5q-71 0 -123.5 -43.5t-70.5 -114.5h394z" />
    <glyph glyph-name="Racute" unicode="&#x154;" horiz-adv-x="608" 
d="M141 290v-290h-56v700h242q109 0 167.5 -56.5t58.5 -147.5q0 -83 -54 -140t-144 -65l218 -291h-72l-215 290h-145zM329 648h-188v-306h188q81 0 124.5 42t43.5 112t-43.5 111t-124.5 41zM409 928l-138 -133h-42l88 133h92z" />
    <glyph glyph-name="racute" unicode="&#x155;" horiz-adv-x="325" 
d="M310 515v-53q-125 0 -177 -136v-326h-53v500h53v-100q28 52 74 83.5t103 31.5zM268 728l-138 -133h-42l88 133h92z" />
    <glyph glyph-name="uni0156" unicode="&#x156;" horiz-adv-x="608" 
d="M141 290v-290h-56v700h242q109 0 167.5 -56.5t58.5 -147.5q0 -83 -54 -140t-144 -65l218 -291h-72l-215 290h-145zM329 648h-188v-306h188q81 0 124.5 42t43.5 112t-43.5 111t-124.5 41zM247 -286l35 209h75l-71 -209h-39z" />
    <glyph glyph-name="uni0157" unicode="&#x157;" horiz-adv-x="325" 
d="M310 515v-53q-125 0 -177 -136v-326h-53v500h53v-100q28 52 74 83.5t103 31.5zM48 -286l35 209h75l-71 -209h-39z" />
    <glyph glyph-name="Rcaron" unicode="&#x158;" horiz-adv-x="608" 
d="M141 290v-290h-56v700h242q109 0 167.5 -56.5t58.5 -147.5q0 -83 -54 -140t-144 -65l218 -291h-72l-215 290h-145zM329 648h-188v-306h188q81 0 124.5 42t43.5 112t-43.5 111t-124.5 41zM283 795l-100 122h47l74 -68l74 68h45l-100 -122h-40z" />
    <glyph glyph-name="rcaron" unicode="&#x159;" horiz-adv-x="325" 
d="M310 515v-53q-125 0 -177 -136v-326h-53v500h53v-100q28 52 74 83.5t103 31.5zM143 595l-100 122h47l74 -68l74 68h45l-100 -122h-40z" />
    <glyph glyph-name="Sacute" unicode="&#x15a;" horiz-adv-x="582" 
d="M480 191q0 41 -23 68.5t-59.5 42t-81 26t-88.5 25.5t-80.5 34t-59.5 57.5t-23 91.5q0 81 65.5 130t158.5 49q72 0 120 -24t100 -75l-42 -42q-43 45 -84 67t-94 22q-70 0 -119 -32.5t-49 -94.5q0 -40 23 -67.5t59.5 -42t80.5 -26t88.5 -25.5t81 -34.5t59.5 -58t23 -91.5
q0 -88 -70.5 -147t-174.5 -59q-148 0 -249 99l42 42q43 -44 91 -66.5t116 -22.5q84 0 136.5 43t52.5 111zM399 928l-138 -133h-42l88 133h92z" />
    <glyph glyph-name="sacute" unicode="&#x15b;" horiz-adv-x="452" 
d="M364 136q0 38 -31.5 59.5t-76 31.5t-89 22t-76 43t-31.5 84q0 56 42 97.5t128 41.5q108 0 177 -80l-37 -38q-58 68 -140 68q-52 0 -84.5 -21.5t-32.5 -64.5q0 -35 31.5 -56t77 -31.5t90.5 -23.5t76.5 -44t31.5 -82q0 -64 -48 -110.5t-147 -46.5q-113 0 -193 80l37 38
q68 -68 156 -68q139 0 139 101zM332 728l-138 -133h-42l88 133h92z" />
    <glyph glyph-name="Scaron" unicode="&#x160;" horiz-adv-x="582" 
d="M480 191q0 41 -23 68.5t-59.5 42t-81 26t-88.5 25.5t-80.5 34t-59.5 57.5t-23 91.5q0 81 65.5 130t158.5 49q72 0 120 -24t100 -75l-42 -42q-43 45 -84 67t-94 22q-70 0 -119 -32.5t-49 -94.5q0 -40 23 -67.5t59.5 -42t80.5 -26t88.5 -25.5t81 -34.5t59.5 -58t23 -91.5
q0 -88 -70.5 -147t-174.5 -59q-148 0 -249 99l42 42q43 -44 91 -66.5t116 -22.5q84 0 136.5 43t52.5 111zM271 795l-100 122h47l74 -68l74 68h45l-100 -122h-40z" />
    <glyph glyph-name="scaron" unicode="&#x161;" horiz-adv-x="452" 
d="M364 136q0 38 -31.5 60t-77 32.5t-90.5 23t-76.5 43t-31.5 81.5q0 55 43.5 97t129.5 42q108 0 177 -80l-37 -38q-58 68 -140 68q-52 0 -84.5 -21.5t-32.5 -64.5q0 -36 31.5 -57t77 -32t91 -24.5t77 -44.5t31.5 -80q0 -63 -48.5 -109.5t-147.5 -46.5q-113 0 -193 80l37 38
q68 -68 156 -68q139 0 139 101zM206 595l-100 122h47l74 -68l74 68h45l-100 -122h-40z" />
    <glyph glyph-name="Tcaron" unicode="&#x164;" horiz-adv-x="562" 
d="M537 700v-52h-228v-648h-56v648h-228v52h512zM261 795l-100 122h47l74 -68l74 68h45l-100 -122h-40z" />
    <glyph glyph-name="tcaron" unicode="&#x165;" horiz-adv-x="574" 
d="M173 452v-315q0 -106 87 -106q37 0 81 21v-47q-40 -20 -86 -20q-135 0 -135 154v313h-105v48h105v117h53v-117h167v-48h-167zM407 508l39 202h83l-79 -202h-43z" />
    <glyph glyph-name="Umacron" unicode="&#x16a;" horiz-adv-x="684" 
d="M86 237v463h56v-463q0 -86 55 -143t145 -57t145 57t55 143v463h56v-463q0 -109 -69 -180.5t-187 -71.5t-187 71.5t-69 180.5zM192 800v53h300v-53h-300z" />
    <glyph glyph-name="umacron" unicode="&#x16b;" horiz-adv-x="579" 
d="M118 500v-313q0 -82 40 -119t101 -37q52 0 104 30t83 83v356h53v-500h-53v84q-33 -45 -88 -71.5t-111 -26.5q-78 0 -130 47.5t-52 153.5v313h53zM139 600v53h300v-53h-300z" />
    <glyph glyph-name="Uring" unicode="&#x16e;" horiz-adv-x="684" 
d="M86 237v463h56v-463q0 -86 55 -143t145 -57t145 57t55 143v463h56v-463q0 -109 -69 -180.5t-187 -71.5t-187 71.5t-69 180.5zM342 795q-39 0 -68.5 27.5t-29.5 65.5t29.5 65.5t68.5 27.5t68.5 -27.5t29.5 -65.5t-29.5 -65.5t-68.5 -27.5zM342 827q25 0 43.5 18t18.5 43
t-18.5 43t-43.5 18t-43.5 -18t-18.5 -43t18.5 -43t43.5 -18z" />
    <glyph glyph-name="uring" unicode="&#x16f;" horiz-adv-x="579" 
d="M118 500v-313q0 -82 40 -119t101 -37q52 0 104 30t83 83v356h53v-500h-53v84q-33 -45 -88 -71.5t-111 -26.5q-78 0 -130 47.5t-52 153.5v313h53zM289 595q-39 0 -68.5 27.5t-29.5 65.5t29.5 65.5t68.5 27.5t68.5 -27.5t29.5 -65.5t-29.5 -65.5t-68.5 -27.5zM289 627
q25 0 43.5 18t18.5 43t-18.5 43t-43.5 18t-43.5 -18t-18.5 -43t18.5 -43t43.5 -18z" />
    <glyph glyph-name="Uhungarumlaut" unicode="&#x170;" horiz-adv-x="684" 
d="M86 237v463h56v-463q0 -86 55 -143t145 -57t145 57t55 143v463h56v-463q0 -109 -69 -180.5t-187 -71.5t-187 71.5t-69 180.5zM526 928l-138 -133h-42l88 133h92zM374 928l-138 -133h-42l88 133h92z" />
    <glyph glyph-name="uhungarumlaut" unicode="&#x171;" horiz-adv-x="579" 
d="M118 500v-313q0 -82 40 -119t101 -37q52 0 104 30t83 83v356h53v-500h-53v84q-33 -45 -88 -71.5t-111 -26.5q-78 0 -130 47.5t-52 153.5v313h53zM473 728l-138 -133h-42l88 133h92zM321 728l-138 -133h-42l88 133h92z" />
    <glyph glyph-name="Uogonek" unicode="&#x172;" horiz-adv-x="684" 
d="M444 -163q-54 0 -91 20.5t-37 63.5q0 39 37 64h-11q-118 0 -187 71.5t-69 180.5v463h56v-463q0 -86 55 -143t145 -57t145 57t55 143v463h56v-463q0 -85 -43 -149t-120 -89q-71 -35 -71 -76q0 -25 21.5 -40.5t58.5 -15.5v-30z" />
    <glyph glyph-name="uogonek" unicode="&#x173;" horiz-adv-x="579" 
d="M506 -163q-54 0 -91 20.5t-37 63.5q0 49 68 79v84q-33 -45 -88 -71.5t-111 -26.5q-78 0 -130 47.5t-52 153.5v313h53v-313q0 -82 40 -119t101 -37q52 0 104 30t83 83v356h53v-500q-73 -36 -73 -77q0 -25 21.5 -40.5t58.5 -15.5v-30z" />
    <glyph glyph-name="Ydieresis" unicode="&#x178;" horiz-adv-x="606" 
d="M5 700h62l236 -387l237 387h61l-270 -442v-258h-56v256zM342 835q0 18 12 30.5t30 12.5t30.5 -12.5t12.5 -30.5t-12.5 -30t-30.5 -12t-30 12t-12 30zM179 835q0 18 12 30.5t30 12.5t30.5 -12.5t12.5 -30.5t-12.5 -30t-30.5 -12t-30 12t-12 30z" />
    <glyph glyph-name="Zacute" unicode="&#x179;" horiz-adv-x="594" 
d="M540 700v-52l-429 -596h438v-52h-504v52l429 596h-419v52h485zM402 928l-138 -133h-42l88 133h92z" />
    <glyph glyph-name="zacute" unicode="&#x17a;" horiz-adv-x="490" 
d="M105 48h350v-48h-420v48l344 404h-339v48h410v-47zM351 728l-138 -133h-42l88 133h92z" />
    <glyph glyph-name="Zdotaccent" unicode="&#x17b;" horiz-adv-x="594" 
d="M540 700v-52l-429 -596h438v-52h-504v52l429 596h-419v52h485zM261 795v81h72v-81h-72z" />
    <glyph glyph-name="zdotaccent" unicode="&#x17c;" horiz-adv-x="490" 
d="M105 48h350v-48h-420v48l344 404h-339v48h410v-47zM209 595v81h72v-81h-72z" />
    <glyph glyph-name="Zcaron" unicode="&#x17d;" horiz-adv-x="594" 
d="M540 700v-52l-429 -596h438v-52h-504v52l429 596h-419v52h485zM272 795l-100 122h47l74 -68l74 68h45l-100 -122h-40z" />
    <glyph glyph-name="zcaron" unicode="&#x17e;" horiz-adv-x="490" 
d="M105 48h350v-48h-420v48l344 404h-339v48h410v-47zM225 595l-100 122h47l74 -68l74 68h45l-100 -122h-40z" />
    <glyph glyph-name="circumflex" unicode="&#x2c6;" horiz-adv-x="500" 
d="M130 595l100 122h40l100 -122h-47l-74 68l-74 -68h-45z" />
    <glyph glyph-name="caron" unicode="&#x2c7;" horiz-adv-x="500" 
d="M230 595l-100 122h47l74 -68l74 68h45l-100 -122h-40z" />
    <glyph glyph-name="breve" unicode="&#x2d8;" horiz-adv-x="500" 
d="M250 593q-56 0 -92.5 33t-40.5 91h39q19 -73 94 -73t94 73h39q-4 -58 -40.5 -91t-92.5 -33z" />
    <glyph glyph-name="dotaccent" unicode="&#x2d9;" horiz-adv-x="500" 
d="M214 595v81h72v-81h-72z" />
    <glyph glyph-name="ring" unicode="&#x2da;" horiz-adv-x="500" 
d="M250 595q-39 0 -68.5 27.5t-29.5 65.5t29.5 65.5t68.5 27.5t68.5 -27.5t29.5 -65.5t-29.5 -65.5t-68.5 -27.5zM250 627q25 0 43.5 18t18.5 43t-18.5 43t-43.5 18t-43.5 -18t-18.5 -43t18.5 -43t43.5 -18z" />
    <glyph glyph-name="ogonek" unicode="&#x2db;" horiz-adv-x="500" 
d="M356 -163q-54 0 -91 20.5t-37 63.5q0 50 65 79h56q-73 -36 -73 -77q0 -25 21.5 -40.5t58.5 -15.5v-30z" />
    <glyph glyph-name="tilde" unicode="&#x2dc;" horiz-adv-x="500" 
d="M136 586l-34 9q14 52 33.5 72.5t50.5 20.5q19 0 65.5 -20.5t62.5 -20.5q18 0 28.5 10.5t21.5 39.5l34 -9q-14 -52 -33.5 -72.5t-50.5 -20.5q-19 0 -65.5 20.5t-62.5 20.5q-18 0 -28.5 -10.5t-21.5 -39.5z" />
    <glyph glyph-name="hungarumlaut" unicode="&#x2dd;" horiz-adv-x="500" 
d="M434 728l-138 -133h-42l88 133h92zM282 728l-138 -133h-42l88 133h92z" />
    <glyph glyph-name="afii10023" unicode="&#x401;" horiz-adv-x="587" 
d="M542 52v-52h-456v700h446v-52h-390v-258h360v-52h-360v-286h400zM374 799q0 18 12 30.5t30 12.5t30.5 -12.5t12.5 -30.5t-12.5 -30t-30.5 -12t-30 12t-12 30zM180 799q0 18 12 30.5t30 12.5t30.5 -12.5t12.5 -30.5t-12.5 -30t-30.5 -12t-30 12t-12 30z" />
    <glyph glyph-name="afii10051" unicode="&#x402;" horiz-adv-x="761" 
d="M527 700v-52h-238v-248q124 20 191 20q107 0 174 -51t67 -165v-18q0 -79 -35.5 -130.5t-86.5 -65.5t-110 3.5t-104 66.5l32 36q45 -50 103 -61.5t101.5 28.5t43.5 125v16q0 92 -50 128.5t-137 36.5q-82 0 -189 -21v-348h-56v648h-218v52h512z" />
    <glyph glyph-name="afii10052" unicode="&#x403;" horiz-adv-x="542" 
d="M522 700v-52h-380v-648h-56v700h436zM214 795l84 122h78l-120 -122h-42z" />
    <glyph glyph-name="afii10053" unicode="&#x404;" horiz-adv-x="707" 
d="M416 37q138 0 224 89l42 -42q-101 -99 -266 -99q-170 0 -270.5 103.5t-100.5 261.5q0 157 100.5 261t270.5 104q165 0 266 -99l-42 -42q-86 89 -224 89q-130 0 -213 -77t-95 -196h435v-52h-437q4 -131 88 -216t222 -85z" />
    <glyph glyph-name="afii10054" unicode="&#x405;" horiz-adv-x="582" 
d="M480 191q0 41 -23 68.5t-59.5 42t-81 26t-88.5 25.5t-80.5 34t-59.5 57.5t-23 91.5q0 81 65.5 130t158.5 49q72 0 120 -24t100 -75l-42 -42q-43 45 -84 67t-94 22q-70 0 -119 -32.5t-49 -94.5q0 -40 23 -67.5t59.5 -42t80.5 -26t88.5 -25.5t81 -34.5t59.5 -58t23 -91.5
q0 -88 -70.5 -147t-174.5 -59q-148 0 -249 99l42 42q43 -44 91 -66.5t116 -22.5q84 0 136.5 43t52.5 111z" />
    <glyph glyph-name="afii10055" unicode="&#x406;" horiz-adv-x="228" 
d="M86 0v700h56v-700h-56z" />
    <glyph glyph-name="afii10056" unicode="&#x407;" horiz-adv-x="228" 
d="M86 0v700h56v-700h-56zM143 835q0 18 12 30.5t30 12.5t30.5 -12.5t12.5 -30.5t-12.5 -30t-30.5 -12t-30 12t-12 30zM0 835q0 18 12 30.5t30 12.5t30.5 -12.5t12.5 -30.5t-12.5 -30t-30.5 -12t-30 12t-12 30z" />
    <glyph glyph-name="afii10057" unicode="&#x408;" horiz-adv-x="378" 
d="M242 169v531h56v-531q0 -89 -42.5 -136.5t-127.5 -47.5q-71 0 -128 59l38 38q46 -44 90 -44q114 0 114 131z" />
    <glyph glyph-name="afii10058" unicode="&#x409;" horiz-adv-x="1010" 
d="M578 700v-290h166q102 0 164 -58t62 -148q0 -91 -58.5 -147.5t-167.5 -56.5h-222v648h-280v-226q0 -99 -11 -174.5t-29.5 -121.5t-46 -75t-56 -40t-63.5 -11h-26v52h27q79 0 114 83.5t35 286.5v278h392zM578 52h168q81 0 124.5 41t43.5 111t-43.5 112t-124.5 42h-168
v-306z" />
    <glyph glyph-name="afii10059" unicode="&#x40a;" horiz-adv-x="1010" 
d="M522 0v342h-380v-342h-56v700h56v-306h380v306h56v-306h166q103 0 164.5 -54.5t61.5 -143.5q0 -90 -58 -143t-168 -53h-222zM578 52h168q82 0 125 37.5t43 106.5t-43 107.5t-125 38.5h-168v-290z" />
    <glyph glyph-name="afii10060" unicode="&#x40b;" horiz-adv-x="761" 
d="M527 700v-52h-238v-248q124 20 191 20q107 0 174 -51t67 -165v-204h-56v204q0 92 -50 128.5t-137 36.5q-82 0 -189 -21v-348h-56v648h-218v52h512z" />
    <glyph glyph-name="afii10061" unicode="&#x40c;" horiz-adv-x="630" 
d="M538 0l-380 364l359 336h72l-358 -336l384 -364h-77zM86 0v700h56v-700h-56zM240 795l84 122h78l-120 -122h-42z" />
    <glyph glyph-name="afii10062" unicode="&#x40e;" horiz-adv-x="603" 
d="M247 0h-64l85 174l-253 526h65l220 -461l227 461h61zM300 807q81 0 146 31l26 -49q-76 -34 -172 -34t-172 34l26 49q65 -31 146 -31z" />
    <glyph glyph-name="afii10145" unicode="&#x40f;" horiz-adv-x="684" 
d="M542 52v648h56v-700h-228v-154h-56v154h-228v700h56v-648h400z" />
    <glyph glyph-name="afii10017" unicode="&#x410;" horiz-adv-x="650" 
d="M357 700l278 -700h-56l-81 204h-346l-81 -204h-56l278 700h64zM325 639l-153 -383h305z" />
    <glyph glyph-name="afii10018" unicode="&#x411;" horiz-adv-x="600" 
d="M142 52h188q81 0 122 40.5t41 111.5q0 70 -41.5 112t-121.5 42h-188v-306zM511 700v-52h-369v-238h186q102 0 164.5 -58.5t62.5 -147.5q0 -91 -59 -147.5t-168 -56.5h-242v700h425z" />
    <glyph glyph-name="afii10019" unicode="&#x412;" horiz-adv-x="614" 
d="M537 527q0 -51 -29.5 -94.5t-76.5 -66.5q59 -22 96 -70t37 -108q0 -79 -58.5 -133.5t-146.5 -54.5h-273v700h260q82 0 136.5 -50.5t54.5 -122.5zM142 52h218q61 0 104.5 41.5t43.5 101.5t-43.5 101.5t-104.5 41.5h-218v-286zM481 521q0 53 -40.5 90t-94.5 37h-204v-258
h204q54 0 94.5 39t40.5 92z" />
    <glyph glyph-name="afii10020" unicode="&#x413;" horiz-adv-x="542" 
d="M522 700v-52h-380v-648h-56v700h436z" />
    <glyph glyph-name="afii10021" unicode="&#x414;" horiz-adv-x="714" 
d="M72 0v-154h-56v206h66q49 90 76.5 199.5t27.5 280.5v168h412v-648h86v-206h-56v154h-556zM542 52v596h-300v-116q0 -176 -26.5 -285.5t-71.5 -194.5h398z" />
    <glyph glyph-name="afii10022" unicode="&#x415;" horiz-adv-x="587" 
d="M542 52v-52h-456v700h446v-52h-390v-258h360v-52h-360v-286h400z" />
    <glyph glyph-name="afii10024" unicode="&#x416;" horiz-adv-x="852" 
d="M116 700l199 -310h83v310h56v-310h82l200 310h67l-217 -341l246 -359h-70l-230 338h-78v-338h-56v338h-79l-229 -338h-70l246 360l-217 340h67z" />
    <glyph glyph-name="afii10025" unicode="&#x417;" horiz-adv-x="576" 
d="M281 37q85 0 137 43t52 115q0 71 -47 107t-113 36h-106v52h106q53 0 98 40.5t45 99.5q0 62 -46.5 97.5t-111.5 35.5q-67 0 -110.5 -21.5t-87.5 -67.5l-42 42q51 50 105.5 74.5t134.5 24.5q92 0 153 -49t61 -130q0 -55 -32.5 -101t-94.5 -68q67 -14 105.5 -64t38.5 -112
q0 -88 -70.5 -147t-174.5 -59q-80 0 -138 25t-108 74l42 42q43 -45 90 -67t114 -22z" />
    <glyph glyph-name="afii10026" unicode="&#x418;" horiz-adv-x="694" 
d="M552 0v606l-410 -606h-56v700h56v-607l410 607h56v-700h-56z" />
    <glyph glyph-name="afii10027" unicode="&#x419;" horiz-adv-x="694" 
d="M351 807q81 0 146 31l26 -49q-76 -34 -172 -34t-172 34l26 49q65 -31 146 -31zM552 0v606l-410 -606h-56v700h56v-607l410 607h56v-700h-56z" />
    <glyph glyph-name="afii10028" unicode="&#x41a;" horiz-adv-x="630" 
d="M538 0l-380 364l359 336h72l-358 -336l384 -364h-77zM86 0v700h56v-700h-56z" />
    <glyph glyph-name="afii10029" unicode="&#x41b;" horiz-adv-x="684" 
d="M10 0v52h27q79 0 114 83.5t35 286.5v278h412v-700h-56v648h-300v-226q0 -99 -11 -174.5t-29.5 -121.5t-46 -75t-56 -40t-63.5 -11h-26z" />
    <glyph glyph-name="afii10030" unicode="&#x41c;" horiz-adv-x="788" 
d="M142 700l252 -387l252 387h56v-700h-56v610l-237 -363h-31l-236 363v-610h-56v700h56z" />
    <glyph glyph-name="afii10031" unicode="&#x41d;" horiz-adv-x="684" 
d="M542 0v338h-400v-338h-56v700h56v-310h400v310h56v-700h-56z" />
    <glyph glyph-name="afii10032" unicode="&#x41e;" horiz-adv-x="832" 
d="M416 663q-141 0 -228 -89.5t-87 -223.5q0 -135 87 -224t228 -89t228 89t87 224q0 134 -87 223.5t-228 89.5zM416 -15q-170 0 -270.5 103.5t-100.5 261.5q0 157 100.5 261t270.5 104t270.5 -104t100.5 -261q0 -158 -100.5 -261.5t-270.5 -103.5z" />
    <glyph glyph-name="afii10033" unicode="&#x41f;" horiz-adv-x="684" 
d="M542 0v648h-400v-648h-56v700h512v-700h-56z" />
    <glyph glyph-name="afii10034" unicode="&#x420;" horiz-adv-x="594" 
d="M142 290v-290h-56v700h242q109 0 167.5 -56.5t58.5 -147.5q0 -90 -62 -148t-164 -58h-186zM330 648h-188v-306h188q81 0 124.5 42t43.5 112t-43.5 111t-124.5 41z" />
    <glyph glyph-name="afii10035" unicode="&#x421;" horiz-adv-x="702" 
d="M416 37q138 0 224 89l42 -42q-101 -99 -266 -99q-170 0 -270.5 103.5t-100.5 261.5q0 157 100.5 261t270.5 104q165 0 266 -99l-42 -42q-86 89 -224 89q-141 0 -225.5 -89t-84.5 -224t84.5 -224t225.5 -89z" />
    <glyph glyph-name="afii10036" unicode="&#x422;" horiz-adv-x="562" 
d="M537 700v-52h-228v-648h-56v648h-228v52h512z" />
    <glyph glyph-name="afii10037" unicode="&#x423;" horiz-adv-x="603" 
d="M247 0h-64l86 176l-254 524h65l220 -461l227 461h61z" />
    <glyph glyph-name="afii10038" unicode="&#x424;" horiz-adv-x="794" 
d="M369 0v75h-30q-136 0 -215 82t-79 207q0 124 79.5 206.5t214.5 82.5h30v67h56v-67h30q135 0 214.5 -82.5t79.5 -206.5q0 -125 -79 -207t-215 -82h-30v-75h-56zM455 131q110 0 174 66t64 167q0 100 -64 166.5t-174 66.5h-30v-466h30zM339 131h30v466h-30
q-110 0 -174 -66.5t-64 -166.5q0 -101 64 -167t174 -66z" />
    <glyph glyph-name="afii10039" unicode="&#x425;" horiz-adv-x="628" 
d="M542 0l-228 312l-228 -312h-66l261 357l-251 343h66l218 -298l218 298h66l-251 -343l261 -357h-66z" />
    <glyph glyph-name="afii10040" unicode="&#x426;" horiz-adv-x="714" 
d="M542 52v648h56v-648h86v-206h-56v154h-542v700h56v-648h400z" />
    <glyph glyph-name="afii10041" unicode="&#x427;" horiz-adv-x="619" 
d="M45 496v204h56v-204q0 -92 50 -128.5t137 -36.5q82 0 189 21v348h56v-700h-56v300q-124 -20 -191 -20q-107 0 -174 51t-67 165z" />
    <glyph glyph-name="afii10042" unicode="&#x428;" horiz-adv-x="1060" 
d="M502 52v648h56v-648h360v648h56v-700h-888v700h56v-648h360z" />
    <glyph glyph-name="afii10043" unicode="&#x429;" horiz-adv-x="1090" 
d="M86 0v700h56v-648h360v648h56v-648h360v648h56v-648h86v-206h-56v154h-918z" />
    <glyph glyph-name="afii10044" unicode="&#x42a;" horiz-adv-x="761" 
d="M309 700v-290h186q102 0 164 -58t62 -148q0 -91 -58.5 -147.5t-167.5 -56.5h-242v649h-228v51h284zM309 52h188q81 0 124.5 41t43.5 111t-43.5 112t-124.5 42h-188v-306z" />
    <glyph glyph-name="afii10045" unicode="&#x42b;" horiz-adv-x="788" 
d="M142 52h188q81 0 124.5 41t43.5 111t-43.5 112t-124.5 42h-188v-306zM142 700v-290h186q102 0 164 -58t62 -148q0 -91 -58.5 -147.5t-167.5 -56.5h-242v700h56zM646 0v700h56v-700h-56z" />
    <glyph glyph-name="afii10046" unicode="&#x42c;" horiz-adv-x="594" 
d="M142 52h188q81 0 124.5 41t43.5 111t-43.5 112t-124.5 42h-188v-306zM142 700v-290h186q102 0 164 -58t62 -148q0 -91 -58.5 -147.5t-167.5 -56.5h-242v700h56z" />
    <glyph glyph-name="afii10047" unicode="&#x42d;" horiz-adv-x="707" 
d="M291 37q137 0 221 85t89 216h-437v52h435q-13 120 -96 196.5t-212 76.5q-138 0 -224 -89l-42 42q101 99 266 99q170 0 270.5 -104t100.5 -261q0 -158 -100.5 -261.5t-270.5 -103.5q-165 0 -266 99l42 42q86 -89 224 -89z" />
    <glyph glyph-name="afii10048" unicode="&#x42e;" horiz-adv-x="1042" 
d="M626 -15q-167 0 -266.5 99.5t-104.5 253.5h-113v-338h-56v700h56v-310h115q13 143 111.5 234t257.5 91q170 0 270.5 -104t100.5 -261q0 -158 -100.5 -261.5t-270.5 -103.5zM626 663q-141 0 -228 -89.5t-87 -223.5q0 -135 87 -224t228 -89t228 89t87 224q0 134 -87 223.5
t-228 89.5z" />
    <glyph glyph-name="afii10049" unicode="&#x42f;" horiz-adv-x="608" 
d="M467 0v290h-145l-215 -290h-72l218 291q-91 8 -144.5 65t-53.5 140q0 91 58.5 147.5t167.5 56.5h242v-700h-56zM467 648h-188q-81 0 -124.5 -41t-43.5 -111t43.5 -112t124.5 -42h188v306z" />
    <glyph glyph-name="afii10065" unicode="&#x430;" horiz-adv-x="515" 
d="M201 -15q-77 0 -121.5 39t-44.5 103q0 66 47 103.5t114 48.5q73 11 201 13v51q0 71 -36 97.5t-100 26.5q-90 0 -159 -69l-34 36q83 81 203 81q51 0 87 -14t53.5 -31.5t27 -46t10.5 -43.5t1 -37v-343h-53v97q-88 -112 -196 -112zM201 33q113 0 196 127v84
q-120 -1 -192 -12q-14 -2 -30.5 -7.5t-37.5 -17t-35 -32.5t-14 -48q0 -51 35.5 -72.5t77.5 -21.5z" />
    <glyph glyph-name="afii10066" unicode="&#x431;" horiz-adv-x="602" 
d="M525 677q-43 -11 -92.5 -21t-82 -15.5t-69.5 -14t-60 -17.5t-47.5 -23.5t-39.5 -34t-27.5 -48t-19 -66.5t-8.5 -88q28 74 92 114t141 40q103 0 179 -68.5t76 -189.5q0 -112 -71 -186t-193 -74q-126 0 -197 81.5t-71 231.5q0 62 5 110t13 84.5t23.5 64.5t32 47t43 33
t51 23t62.5 18t71.5 15t83 17t92.5 22zM303 30q93 0 151 61.5t58 153.5q0 101 -62 157.5t-147 56.5t-146.5 -56.5t-61.5 -157.5q0 -93 57 -154t151 -61z" />
    <glyph glyph-name="afii10067" unicode="&#x432;" horiz-adv-x="520" 
d="M455 379q0 -33 -18.5 -64t-49.5 -51q41 -16 64.5 -50t23.5 -75q0 -57 -40 -98t-101 -41h-254v500h242q57 0 95 -35t38 -86zM133 48h186q43 0 71.5 25t28.5 67t-28.5 69t-71.5 27h-186v-188zM402 373q0 36 -27 57.5t-66 21.5h-176v-168h176q38 0 65.5 25.5t27.5 63.5z" />
    <glyph glyph-name="afii10068" unicode="&#x433;" horiz-adv-x="439" 
d="M434 500v-48h-301v-452h-53v500h354z" />
    <glyph glyph-name="afii10069" unicode="&#x434;" horiz-adv-x="590" 
d="M68 0v-141h-53v189h59q31 46 53 137.5t22 195.5v119h338v-452h73v-189h-53v141h-439zM434 48v404h-233v-71q0 -100 -21.5 -194.5t-47.5 -138.5h302z" />
    <glyph glyph-name="afii10070" unicode="&#x435;" horiz-adv-x="583" 
d="M547 270v-11h-458q-1 -8 -1 -22q0 -90 63.5 -146t157.5 -56q45 0 93.5 18.5t79.5 49.5l37 -38q-37 -37 -95 -58.5t-115 -21.5q-116 0 -195 70.5t-79 181.5q0 116 74 197t182 81q123 0 189.5 -73.5t66.5 -171.5zM491 307q-11 67 -62.5 112.5t-137.5 45.5
q-71 0 -123.5 -43.5t-70.5 -114.5h394z" />
    <glyph glyph-name="afii10072" unicode="&#x436;" horiz-adv-x="653" 
d="M300 0v244h-63l-165 -244h-66l184 267l-166 233h67l146 -208h63v208h53v-208h62l147 208h67l-166 -233l184 -267h-66l-166 244h-62v-244h-53z" />
    <glyph glyph-name="afii10073" unicode="&#x437;" horiz-adv-x="468" 
d="M173 284h80q44 0 75.5 28.5t31.5 66.5q0 86 -117 86q-85 0 -143 -68l-37 38q69 80 180 80q89 0 129.5 -37.5t40.5 -92.5q0 -38 -25.5 -72t-66.5 -52q48 -16 75 -50t27 -76q0 -63 -48 -106.5t-147 -43.5q-113 0 -193 80l37 38q68 -68 156 -68q139 0 139 101q0 43 -31 71.5
t-80 28.5h-83v48z" />
    <glyph glyph-name="afii10074" unicode="&#x438;" horiz-adv-x="594" 
d="M133 500v-430l325 430h56v-500h-53v429l-324 -429h-57v500h53z" />
    <glyph glyph-name="afii10075" unicode="&#x439;" horiz-adv-x="594" 
d="M297 636q71 0 130 27l23 -43q-67 -31 -153 -31t-153 31l23 43q59 -27 130 -27zM133 500v-430l325 430h56v-500h-53v429l-324 -429h-57v500h53z" />
    <glyph glyph-name="afii10076" unicode="&#x43a;" horiz-adv-x="498" 
d="M415 0l-264 264l254 236h77l-264 -236l274 -264h-77zM80 500h53v-500h-53v500z" />
    <glyph glyph-name="afii10077" unicode="&#x43b;" horiz-adv-x="573" 
d="M10 0v48h32q50 0 72 55t22 198v199h357v-500h-53v452h-251v-151q0 -301 -147 -301h-32z" />
    <glyph glyph-name="afii10078" unicode="&#x43c;" horiz-adv-x="664" 
d="M332 215l195 285h57v-500h-53v414l-184 -265h-31l-183 265v-414h-53v500h57z" />
    <glyph glyph-name="afii10079" unicode="&#x43d;" horiz-adv-x="591" 
d="M458 235h-325v-235h-53v500h53v-217h325v217h53v-500h-53v235z" />
    <glyph glyph-name="afii10080" unicode="&#x43e;" horiz-adv-x="618" 
d="M309 27q94 0 157.5 65t63.5 158q0 92 -63.5 157.5t-157.5 65.5q-95 0 -158 -65.5t-63 -157.5q0 -93 63 -158t158 -65zM309 -15q-122 0 -198 76.5t-76 188.5t76 188.5t198 76.5t198 -76.5t76 -188.5t-76 -188.5t-198 -76.5z" />
    <glyph glyph-name="afii10081" unicode="&#x43f;" horiz-adv-x="594" 
d="M461 452h-328v-452h-53v500h434v-500h-53v452z" />
    <glyph glyph-name="afii10082" unicode="&#x440;" horiz-adv-x="619" 
d="M322 -15q-111 0 -189 80v-269h-53v704h53v-66q78 81 189 81q108 0 185 -78t77 -187t-77 -187t-185 -78zM310 470q-53 0 -99.5 -24.5t-77.5 -65.5v-260q30 -42 77 -66t100 -24q90 0 154.5 64.5t64.5 155.5q0 90 -64.5 155t-154.5 65z" />
    <glyph glyph-name="afii10083" unicode="&#x441;" horiz-adv-x="522" 
d="M88 250q0 -92 57.5 -153.5t148.5 -61.5q88 0 156 68l37 -38q-80 -80 -193 -80q-110 0 -184.5 80t-74.5 185t74.5 185t184.5 80q113 0 193 -80l-37 -38q-68 68 -156 68q-91 0 -148.5 -61.5t-57.5 -153.5z" />
    <glyph glyph-name="afii10084" unicode="&#x442;" horiz-adv-x="439" 
d="M434 500v-48h-188v-452h-53v452h-188v48h429z" />
    <glyph glyph-name="afii10085" unicode="&#x443;" horiz-adv-x="488" 
d="M493 500l-298 -704h-59l86 205l-212 499h61l180 -430l183 430h59z" />
    <glyph glyph-name="afii10086" unicode="&#x444;" horiz-adv-x="707" 
d="M410 -15h-30v-189h-53v189h-30q-108 0 -185 78t-77 187t77 187t185 78h30v195h53v-195h30q108 0 185 -78t77 -187t-77 -187t-185 -78zM398 30q90 0 154.5 64.5t64.5 155.5q0 90 -64.5 155t-154.5 65h-18v-440h18zM309 470q-90 0 -154.5 -65t-64.5 -155q0 -91 64.5 -155.5
t154.5 -64.5h18v440h-18z" />
    <glyph glyph-name="afii10087" unicode="&#x445;" horiz-adv-x="508" 
d="M426 0l-172 209l-172 -209h-67l205 250l-205 250h67l172 -209l172 209h67l-206 -250l206 -250h-67z" />
    <glyph glyph-name="afii10088" unicode="&#x446;" horiz-adv-x="614" 
d="M133 48h328v452h53v-452h73v-189h-53v141h-454v500h53v-452z" />
    <glyph glyph-name="afii10089" unicode="&#x447;" horiz-adv-x="510" 
d="M35 354v146h53v-146q0 -118 134 -118q72 0 155 15v249h53v-500h-53v202q-90 -14 -157 -14q-87 0 -136 41t-49 125z" />
    <glyph glyph-name="afii10090" unicode="&#x448;" horiz-adv-x="815" 
d="M133 48h248v452h53v-452h248v452h53v-500h-655v500h53v-452z" />
    <glyph glyph-name="afii10091" unicode="&#x449;" horiz-adv-x="838" 
d="M133 48h248v452h53v-452h248v452h53v-452h73v-189h-53v141h-675v500h53v-452z" />
    <glyph glyph-name="afii10092" unicode="&#x44a;" horiz-adv-x="605" 
d="M15 500h221v-194h174q75 0 117.5 -46t42.5 -107t-42.5 -107t-117.5 -46h-227v452h-168v48zM236 48h175q44 0 74 28.5t30 76.5t-30 76.5t-74 28.5h-175v-210z" />
    <glyph glyph-name="afii10093" unicode="&#x44b;" horiz-adv-x="676" 
d="M133 306h174q75 0 117.5 -46t42.5 -107t-42.5 -107t-117.5 -46h-227v500h53v-194zM133 48h175q44 0 74 28.5t30 76.5t-30 76.5t-74 28.5h-175v-210zM543 0v500h53v-500h-53z" />
    <glyph glyph-name="afii10094" unicode="&#x44c;" horiz-adv-x="512" 
d="M133 306h184q75 0 117.5 -46t42.5 -107t-42.5 -107t-117.5 -46h-237v500h53v-194zM133 48h185q44 0 74 28.5t30 76.5t-30 76.5t-74 28.5h-185v-210z" />
    <glyph glyph-name="afii10095" unicode="&#x44d;" horiz-adv-x="517" 
d="M146 224v48h282q-8 84 -64.5 138.5t-140.5 54.5q-88 0 -156 -68l-37 38q80 80 193 80q110 0 184.5 -80t74.5 -185t-74.5 -185t-184.5 -80q-113 0 -193 80l37 38q68 -68 156 -68q84 0 140 53t64 136h-281z" />
    <glyph glyph-name="afii10096" unicode="&#x44e;" horiz-adv-x="808" 
d="M499 -15q-118 0 -193 71.5t-81 177.5h-92v-234h-53v500h53v-218h94q11 100 85 166.5t187 66.5q122 0 198 -76.5t76 -188.5t-76 -188.5t-198 -76.5zM499 27q94 0 157.5 65t63.5 158q0 92 -63.5 157.5t-157.5 65.5q-95 0 -158 -65.5t-63 -157.5q0 -93 63 -158t158 -65z" />
    <glyph glyph-name="afii10097" unicode="&#x44f;" horiz-adv-x="490" 
d="M357 194h-117l-137 -194h-68l142 194q-66 6 -104 51t-38 102q0 60 42.5 106.5t115.5 46.5h217v-500h-53v194zM357 452h-165q-44 0 -74 -28.5t-30 -76.5t30 -76.5t74 -28.5h165v210z" />
    <glyph glyph-name="afii10071" unicode="&#x451;" horiz-adv-x="582" 
d="M547 270v-11h-458q-1 -8 -1 -22q0 -90 63.5 -146t157.5 -56q45 0 93.5 18.5t79.5 49.5l37 -38q-37 -37 -95 -58.5t-115 -21.5q-116 0 -195 70.5t-79 181.5q0 116 74 197t182 81q123 0 189.5 -73.5t66.5 -171.5zM491 307q-11 67 -62.5 112.5t-137.5 45.5
q-71 0 -123.5 -43.5t-70.5 -114.5h394zM164 629q0 18 12 30.5t30 12.5t30.5 -12.5t12.5 -30.5t-12.5 -30t-30.5 -12t-30 12t-12 30zM358 629q0 18 12 30.5t30 12.5t30.5 -12.5t12.5 -30.5t-12.5 -30t-30.5 -12t-30 12t-12 30z" />
    <glyph glyph-name="afii10099" unicode="&#x452;" horiz-adv-x="599" 
d="M374 623v-48h-221v-174q32 46 87 72.5t112 26.5q78 0 130 -47.5t52 -153.5v-504h-53v504q0 82 -40 119t-101 37q-52 0 -104.5 -30.5t-82.5 -83.5v-341h-53v575h-120v48h120v87h53v-87h221z" />
    <glyph glyph-name="afii10100" unicode="&#x453;" horiz-adv-x="439" 
d="M434 500v-48h-301v-452h-53v500h354zM160 595l84 122h78l-120 -122h-42z" />
    <glyph glyph-name="afii10101" unicode="&#x454;" horiz-adv-x="538" 
d="M315 459q-86 0 -151 -53t-75 -134h297v-48h-297q9 -82 74.5 -135.5t151.5 -53.5q88 0 156 68l37 -38q-80 -80 -193 -80q-115 0 -197.5 75t-82.5 187t82.5 187t197.5 75q113 0 193 -80l-37 -38q-68 68 -156 68z" />
    <glyph glyph-name="afii10102" unicode="&#x455;" horiz-adv-x="452" 
d="M364 136q0 38 -31.5 59.5t-76 31.5t-89 22t-76 43t-31.5 84q0 56 42 97.5t128 41.5q108 0 177 -80l-37 -38q-58 68 -140 68q-52 0 -84.5 -21.5t-32.5 -64.5q0 -35 31.5 -56t77 -31.5t90.5 -23.5t76.5 -44t31.5 -82q0 -64 -48 -110.5t-147 -46.5q-113 0 -193 80l37 38
q68 -68 156 -68q139 0 139 101z" />
    <glyph glyph-name="afii10103" unicode="&#x456;" horiz-adv-x="213" 
d="M80 0v500h53v-500h-53zM64 629q0 18 12 30.5t30 12.5t30.5 -12.5t12.5 -30.5t-12.5 -30t-30.5 -12t-30 12t-12 30z" />
    <glyph glyph-name="afii10104" unicode="&#x457;" horiz-adv-x="213" 
d="M80 0v500h53v-500h-53zM135 635q0 18 12 30.5t30 12.5t30.5 -12.5t12.5 -30.5t-12.5 -30t-30.5 -12t-30 12t-12 30zM-7 635q0 18 12 30.5t30 12.5t30.5 -12.5t12.5 -30.5t-12.5 -30t-30.5 -12t-30 12t-12 30z" />
    <glyph glyph-name="afii10105" unicode="&#x458;" horiz-adv-x="213" 
d="M80 -204v704h53v-704h-53zM64 629q0 18 12 30.5t30 12.5t30.5 -12.5t12.5 -30.5t-12.5 -30t-30.5 -12t-30 12t-12 30z" />
    <glyph glyph-name="afii10106" unicode="&#x459;" horiz-adv-x="822" 
d="M473 306h154q75 0 117.5 -46t42.5 -107t-42.5 -107t-117.5 -46h-207v452h-231v-151q0 -301 -147 -301h-32v48h32q50 0 72 55t22 198v199h337v-194zM473 48h155q44 0 74 28.5t30 76.5t-30 76.5t-74 28.5h-155v-210z" />
    <glyph glyph-name="afii10107" unicode="&#x45a;" horiz-adv-x="840" 
d="M491 294h154q75 0 117.5 -43.5t42.5 -103.5t-42.5 -103.5t-117.5 -43.5h-207v245h-305v-245h-53v500h53v-207h305v207h53v-206zM491 48h155q45 0 74.5 25.5t29.5 73.5t-29.5 73.5t-74.5 25.5h-155v-198z" />
    <glyph glyph-name="afii10108" unicode="&#x45b;" horiz-adv-x="599" 
d="M374 623v-48h-221v-174q32 46 87 72.5t112 26.5q78 0 130 -47.5t52 -153.5v-299h-53v299q0 82 -40 119t-101 37q-52 0 -104.5 -30.5t-82.5 -83.5v-341h-53v575h-120v48h120v87h53v-87h221z" />
    <glyph glyph-name="afii10109" unicode="&#x45c;" horiz-adv-x="498" 
d="M415 0l-264 264l254 236h77l-264 -236l274 -264h-77zM80 500h53v-500h-53v500zM215 595l84 122h78l-120 -122h-42z" />
    <glyph glyph-name="afii10110" unicode="&#x45e;" horiz-adv-x="488" 
d="M493 500l-298 -704h-59l86 205l-212 499h61l180 -430l183 430h59zM251 593q-56 0 -92.5 33t-40.5 91h39q19 -73 94 -73t94 73h39q-4 -58 -40.5 -91t-92.5 -33z" />
    <glyph glyph-name="afii10193" unicode="&#x45f;" horiz-adv-x="594" 
d="M133 48h328v452h53v-500h-190v-141h-53v141h-191v500h53v-452z" />
    <glyph glyph-name="afii10050" unicode="&#x490;" horiz-adv-x="542" 
d="M522 648h-380v-648h-56v700h383v124h53v-176z" />
    <glyph glyph-name="afii10098" unicode="&#x491;" horiz-adv-x="439" 
d="M434 618v-166h-301v-452h-53v500h301v118h53z" />
    <glyph glyph-name="endash" unicode="&#x2013;" horiz-adv-x="558" 
d="M35 271v37h488v-37h-488z" />
    <glyph glyph-name="emdash" unicode="&#x2014;" horiz-adv-x="858" 
d="M35 271v37h788v-37h-788z" />
    <glyph glyph-name="quoteleft" unicode="&#x2018;" horiz-adv-x="208" 
d="M167 710l-39 -202h-83l79 202h43z" />
    <glyph glyph-name="quoteright" unicode="&#x2019;" horiz-adv-x="208" 
d="M41 508l39 202h83l-79 -202h-43z" />
    <glyph glyph-name="quotesinglbase" unicode="&#x201a;" horiz-adv-x="203" 
d="M35 -148l39 232h83l-79 -232h-43z" />
    <glyph glyph-name="quotedblleft" unicode="&#x201c;" horiz-adv-x="380" 
d="M339 710l-39 -202h-83l79 202h43zM167 710l-39 -202h-83l79 202h43z" />
    <glyph glyph-name="quotedblright" unicode="&#x201d;" horiz-adv-x="380" 
d="M41 508l39 202h83l-79 -202h-43zM213 508l39 202h83l-79 -202h-43z" />
    <glyph glyph-name="quotedblbase" unicode="&#x201e;" horiz-adv-x="374" 
d="M35 -118l39 202h83l-79 -202h-43zM207 -118l39 202h83l-79 -202h-43z" />
    <glyph glyph-name="dagger" unicode="&#x2020;" horiz-adv-x="410" 
d="M176 -108l12 546l-165 -7v51l164 -7l-9 225h58l-9 -225l164 7v-51l-165 7l15 -546h-65z" />
    <glyph glyph-name="daggerdbl" unicode="&#x2021;" horiz-adv-x="422" 
d="M188 292v8l12 138l-165 -7v51l164 -7l-9 225h58l-9 -225l164 7v-51l-165 7l14 -138v-8l-14 -138l165 7v-51l-164 7l9 -225h-58l9 225l-164 -7v51l165 -7z" />
    <glyph glyph-name="bullet" unicode="&#x2022;" horiz-adv-x="470" 
d="M235 228q-51 0 -87.5 36t-36.5 87v2q0 50 37.5 86.5t86.5 36.5t86.5 -36.5t37.5 -86.5v-2q0 -51 -36.5 -87t-87.5 -36z" />
    <glyph glyph-name="ellipsis" unicode="&#x2026;" horiz-adv-x="759" 
d="M80 36q0 20 13.5 33.5t32.5 13.5q20 0 33.5 -13.5t13.5 -33.5q0 -19 -13.5 -32.5t-33.5 -13.5t-33 13t-13 33zM333 36q0 20 13.5 33.5t32.5 13.5t33 -13.5t14 -33.5q0 -19 -13.5 -32.5t-33.5 -13.5q-19 0 -32.5 13t-13.5 33zM586 36q0 20 13.5 33.5t32.5 13.5
q20 0 33.5 -13.5t13.5 -33.5q0 -19 -13.5 -32.5t-33.5 -13.5t-33 13t-13 33z" />
    <glyph glyph-name="perthousand" unicode="&#x2030;" horiz-adv-x="1029" 
d="M832 0q-61 0 -99 38.5t-38 94.5t38 94t99 38t99 -38.5t38 -93.5q0 -56 -38 -94.5t-99 -38.5zM832 52q37 0 61 23.5t24 57.5t-23.5 57t-61.5 23t-61.5 -23t-23.5 -57t23.5 -57.5t61.5 -23.5zM172 435q-61 0 -99 38.5t-38 94.5t38 94t99 38t99 -38.5t38 -93.5
q0 -56 -38 -94.5t-99 -38.5zM172 487q37 0 61 23.5t24 57.5t-23.5 57t-61.5 23t-61.5 -23t-23.5 -57t23.5 -57.5t61.5 -23.5zM101 0h-66l548 700h66zM512 0q-61 0 -99 38.5t-38 94.5t38 94t99 38t99 -38.5t38 -93.5q0 -56 -38 -94.5t-99 -38.5zM512 52q37 0 61 23.5t24 57.5
t-23.5 57t-61.5 23t-61.5 -23t-23.5 -57t23.5 -57.5t61.5 -23.5z" />
    <glyph glyph-name="guilsinglleft" unicode="&#x2039;" horiz-adv-x="301" 
d="M225 24l-180 207v8l180 207l31 -22l-137 -188l137 -190z" />
    <glyph glyph-name="guilsinglright" unicode="&#x203a;" horiz-adv-x="301" 
d="M256 231l-180 -207l-31 22l137 190l-137 188l31 22l180 -207v-8z" />
    <glyph glyph-name="fraction" unicode="&#x2044;" horiz-adv-x="734" 
d="M126 0h-66l548 700h66z" />
    <glyph glyph-name="Euro" unicode="&#x20ac;" horiz-adv-x="763" 
d="M477 37q138 0 224 89l42 -42q-101 -99 -266 -99q-145 0 -240.5 76t-121.5 201h-95v52h87q-1 12 -1 36q0 27 2 41h-88v52h96q28 122 123 197t238 75q165 0 266 -99l-42 -42q-86 89 -224 89q-115 0 -193.5 -60.5t-104.5 -159.5h436v-52h-446q-2 -26 -2 -41q0 -12 2 -36h446
v-52h-438q25 -102 104.5 -163.5t195.5 -61.5z" />
    <glyph glyph-name="afii61352" unicode="&#x2116;" horiz-adv-x="979" 
d="M664 334v53h275v-53h-275zM142 606v-606h-56v700h56l400 -607v607h56v-700h-56zM801 435q-61 0 -99 38.5t-38 94.5t38 94t99 38t99 -38.5t38 -93.5q0 -56 -38 -94.5t-99 -38.5zM801 487q37 0 61 23.5t24 57.5t-23.5 57t-61.5 23t-61.5 -23t-23.5 -57t23.5 -57.5
t61.5 -23.5z" />
    <glyph glyph-name="trademark" unicode="&#x2122;" horiz-adv-x="690" 
d="M333 392v308h37l120 -183l120 183h36v-308h-35v246l-119 -178h-5l-119 178v-246h-35zM127 392v274h-101v34h237v-34h-101v-274h-35z" />
    <glyph glyph-name="minus" unicode="&#x2212;" horiz-adv-x="640" 
d="M572 263h-504v48h504v-48z" />
    <glyph glyph-name="infinity" unicode="&#x221e;" horiz-adv-x="700" 
d="M510 454q69 0 114.5 -46.5t45.5 -120.5t-47 -120.5t-113 -46.5q-52 0 -88.5 31t-71.5 87q-35 -56 -72 -87t-88 -31q-66 0 -113 46.5t-47 120.5t45.5 120.5t114.5 46.5q51 0 88 -31t72 -87q35 56 71.5 87t88.5 31zM510 176q48 0 78 29.5t30 81.5q0 48 -29.5 79.5
t-78.5 31.5q-39 0 -68 -28t-62 -83q33 -55 62 -83t68 -28zM190 176q39 0 68 28.5t62 82.5q-33 54 -62 82.5t-68 28.5q-49 0 -78.5 -31.5t-29.5 -79.5q0 -52 30 -81.5t78 -29.5z" />
    <glyph glyph-name="approxequal" unicode="&#x2248;" horiz-adv-x="640" 
d="M68 149v51q48 48 106 48q49 0 145.5 -49t144.5 -49q57 0 107 50v-51q-50 -50 -107 -50q-48 0 -144.5 49t-145.5 49q-58 0 -106 -48zM68 374v51q48 48 106 48q49 0 145.5 -49t144.5 -49q57 0 107 50v-51q-50 -50 -107 -50q-48 0 -144.5 49t-145.5 49q-58 0 -106 -48z" />
    <glyph glyph-name="notequal" unicode="&#x2260;" horiz-adv-x="640" 
d="M68 374v51h278l97 184l45 -26l-84 -158h167v-51h-194l-92 -174h286v-51h-313l-83 -157l-44 25l69 132h-132v51h159l92 174h-251z" />
    <glyph glyph-name="lessequal" unicode="&#x2264;" horiz-adv-x="640" 
d="M547 91l-464 199v40l464 199v-54l-383 -164l383 -166v-54zM547 0h-464v48h464v-48z" />
    <glyph glyph-name="greaterequal" unicode="&#x2265;" horiz-adv-x="640" 
d="M557 290l-464 -199v54l383 166l-383 164v54l464 -199v-40zM557 0h-464v48h464v-48z" />
    <glyph glyph-name="lozenge" unicode="&#x25ca;" horiz-adv-x="520" 
d="M229 0l-189 350l189 350h62l189 -350l-189 -350h-62zM259 43l168 307l-168 307l-168 -307z" />
    <glyph glyph-name="zerosmall" unicode="&#xf326;" horiz-adv-x="440" 
d="M390 270q0 -282 -169 -282q-167 0 -167 282q0 280 167 280q169 0 169 -280zM108 270q0 -132 29.5 -181t83.5 -49q116 0 116 230q0 229 -116 229q-54 0 -83.5 -49t-29.5 -180z" />
    <glyph glyph-name="onesmall" unicode="&#xf327;" horiz-adv-x="440" 
d="M410 51v-51h-351v51h149v423l-121 -66l-26 43l174 95h27v-495h148z" />
    <glyph glyph-name="twosmall" unicode="&#xf328;" horiz-adv-x="440" 
d="M111 420l-42 32q36 47 73 72.5t93 25.5q71 0 111.5 -39.5t40.5 -105.5q0 -63 -42.5 -124.5t-151.5 -179.5l-46 -50h245v-51h-326v35l78 85q60 66 84.5 94t55 68t40.5 67t10 56q0 42 -27 68t-72 26q-39 0 -66.5 -18.5t-57.5 -60.5z" />
    <glyph glyph-name="threesmall" unicode="&#xf329;" horiz-adv-x="440" 
d="M217 40q61 0 93.5 33t32.5 87q0 45 -29.5 71.5t-68.5 26.5q-23 0 -62 -13l-12 49l40 10q47 12 80.5 43.5t33.5 72.5q0 36 -23 57.5t-67 21.5q-39 0 -65.5 -19t-58.5 -60l-41 31q67 99 163 99q66 0 106 -35.5t40 -89.5q0 -86 -82 -130q46 -15 73 -52.5t27 -81.5
q0 -72 -49.5 -122.5t-130.5 -50.5q-57 0 -90 19.5t-73 62.5l43 38q30 -36 57 -52t63 -16z" />
    <glyph glyph-name="foursmall" unicode="&#xf32a;" horiz-adv-x="440" 
d="M332 0h-54v150h-245l-8 40l278 356h29v-345h98v-51h-98v-150zM278 434l-182 -233h182v233z" />
    <glyph glyph-name="fivesmall" unicode="&#xf32b;" horiz-adv-x="440" 
d="M147 488l-20 -156q41 23 106 23q79 0 121.5 -49t42.5 -126q0 -79 -47.5 -135.5t-132.5 -56.5q-57 0 -90 19.5t-73 62.5l43 38q30 -36 57 -52t63 -16q64 0 95 38.5t31 100.5t-30.5 94t-80.5 32q-80 0 -119 -42l-41 18l34 258h279v-51h-238z" />
    <glyph glyph-name="sixsmall" unicode="&#xf32c;" horiz-adv-x="440" 
d="M237 499q-126 0 -131 -193q40 57 131 57q60 0 106 -44t46 -137q0 -91 -51.5 -142.5t-116.5 -51.5q-87 0 -127 59t-40 207q0 89 14 149.5t40.5 91.5t57 43t71.5 12q40 0 70.5 -13t69.5 -50l-35 -41q-49 53 -105 53zM109 182q0 -69 32.5 -105.5t79.5 -36.5q46 0 81 35
t35 107q0 68 -30.5 99t-68.5 31q-20 0 -39 -5t-41 -17.5t-35.5 -40t-13.5 -67.5z" />
    <glyph glyph-name="sevensmall" unicode="&#xf32d;" horiz-adv-x="440" 
d="M406 505l-217 -505h-54l210 488h-289v51h350v-34z" />
    <glyph glyph-name="eightsmall" unicode="&#xf32e;" horiz-adv-x="440" 
d="M372 410q0 -47 -22.5 -74.5t-67.5 -50.5q50 -23 78.5 -55t28.5 -84q0 -71 -45 -114.5t-123 -43.5q-77 0 -122 43.5t-45 114.5q0 51 28.5 83t78.5 56q-43 22 -66 50.5t-23 74.5q0 64 41 102t108 38q68 0 109.5 -38t41.5 -102zM336 146q0 22 -8.5 38.5t-27 30t-34.5 22
t-45 20.5q-30 -14 -44 -21t-33.5 -21t-27.5 -31t-8 -38q0 -47 30.5 -76.5t82.5 -29.5q55 0 85 29t30 77zM125 410q0 -35 24.5 -56.5t71.5 -42.5q48 21 72.5 42.5t24.5 56.5q0 44 -27.5 66.5t-69.5 22.5q-41 0 -68.5 -22.5t-27.5 -66.5z" />
    <glyph glyph-name="ninesmall" unicode="&#xf32f;" horiz-adv-x="440" 
d="M207 40q126 0 131 193q-44 -57 -132 -57q-62 0 -107 40.5t-45 133.5q0 94 53 147t114 53q88 0 128 -63t40 -203q0 -89 -14 -149.5t-40.5 -91.5t-57 -43t-71.5 -12q-40 0 -70 13.5t-69 50.5l34 39q47 -51 106 -51zM335 350q0 77 -34 113t-79 36q-46 0 -80.5 -36.5
t-34.5 -112.5q0 -68 29.5 -95.5t69.5 -27.5q129 0 129 123z" />
    <glyph glyph-name="afii10017small" unicode="&#xf350;" horiz-adv-x="533" 
d="M295 543l223 -543h-55l-65 154h-264l-64 -154h-55l223 543h57zM267 476l-112 -271h224q-14 34 -52.5 126t-59.5 145z" />
    <glyph glyph-name="afii10018small" unicode="&#xf351;" horiz-adv-x="490" 
d="M129 51h143q61 0 92 29t31 80t-31 81t-92 30h-143v-220zM419 543v-51h-290v-170h141q83 0 133.5 -46t50.5 -116q0 -71 -48 -115.5t-136 -44.5h-195v543h344z" />
    <glyph glyph-name="afii10019small" unicode="&#xf352;" horiz-adv-x="501" 
d="M440 405q0 -36 -21 -68.5t-54 -52.5q42 -18 68.5 -55t26.5 -81q0 -62 -47 -105t-119 -43h-219v543h209q67 0 111.5 -40t44.5 -98zM129 51h166q46 0 78.5 29.5t32.5 72.5t-32.5 73.5t-78.5 30.5h-166v-206zM386 401q0 37 -30.5 64t-71.5 27h-155v-184h155q41 0 71.5 27
t30.5 66z" />
    <glyph glyph-name="afii10020small" unicode="&#xf353;" horiz-adv-x="443" 
d="M428 543v-51h-299v-492h-54v543h353z" />
    <glyph glyph-name="afii10021small" unicode="&#xf354;" horiz-adv-x="581" 
d="M74 0v-117h-54v168h55q79 143 79 358v134h333v-492h68v-168h-54v117h-427zM434 51v441h-226v-83q0 -220 -74 -358h300z" />
    <glyph glyph-name="afii10022small" unicode="&#xf355;" horiz-adv-x="479" 
d="M444 51v-51h-369v543h361v-51h-307v-184h283v-51h-283v-206h315z" />
    <glyph glyph-name="afii10024small" unicode="&#xf356;" horiz-adv-x="692" 
d="M106 543l157 -235h58v235h54v-235h58l157 235h64l-174 -265l197 -278h-66l-181 257h-55v-257h-54v257h-56l-179 -257h-67l197 279l-175 264h65z" />
    <glyph glyph-name="afii10025small" unicode="&#xf357;" horiz-adv-x="469" 
d="M231 40q64 0 104 31t40 82t-35.5 77.5t-85.5 26.5h-89v51h89q40 0 73.5 29t33.5 71q0 44 -35 69t-84 25q-51 0 -85.5 -16t-69.5 -51l-41 38q43 41 87.5 61t108.5 20q74 0 123.5 -39t49.5 -103q0 -39 -22 -73t-63 -54q46 -15 72.5 -52.5t26.5 -82.5q0 -69 -57 -115.5
t-141 -46.5q-114 0 -201 82l42 38q68 -68 159 -68z" />
    <glyph glyph-name="afii10026small" unicode="&#xf358;" horiz-adv-x="570" 
d="M442 0v449l-316 -449h-51v543h54v-451l316 451h50v-543h-53z" />
    <glyph glyph-name="afii10027small" unicode="&#xf359;" horiz-adv-x="570" 
d="M289 623q61 0 117 25l24 -48q-64 -28 -141 -28q-78 0 -144 29l27 47q55 -25 117 -25zM442 0v449l-316 -449h-51v543h54v-451l316 451h50v-543h-53z" />
    <glyph glyph-name="afii10028small" unicode="&#xf35a;" horiz-adv-x="515" 
d="M434 0l-305 282l289 261h71l-287 -261l308 -282h-76zM75 0v543h54v-543h-54z" />
    <glyph glyph-name="afii10029small" unicode="&#xf35b;" horiz-adv-x="557" 
d="M15 0v51h26q60 0 86.5 62t26.5 212v218h333v-543h-53v492h-226v-167q0 -182 -45.5 -253.5t-122.5 -71.5h-25z" />
    <glyph glyph-name="afii10030small" unicode="&#xf35c;" horiz-adv-x="645" 
d="M127 543l195 -291l197 291h51v-543h-54v451l-180 -264h-28l-178 264v-451h-55v543h52z" />
    <glyph glyph-name="afii10031small" unicode="&#xf35d;" horiz-adv-x="562" 
d="M434 0v257h-305v-257h-54v543h54v-235h305v235h53v-543h-53z" />
    <glyph glyph-name="afii10032small" unicode="&#xf35e;" horiz-adv-x="646" 
d="M40 271q0 121 77.5 202t205.5 81t205.5 -81t77.5 -202t-77.5 -202t-205.5 -81t-205.5 81t-77.5 202zM94 271q0 -98 64.5 -164.5t164.5 -66.5t164.5 66.5t64.5 164.5t-64.5 164.5t-164.5 66.5t-164.5 -66.5t-64.5 -164.5z" />
    <glyph glyph-name="afii10033small" unicode="&#xf35f;" horiz-adv-x="562" 
d="M434 0v492h-305v-492h-54v543h412v-543h-53z" />
    <glyph glyph-name="afii10034small" unicode="&#xf360;" horiz-adv-x="485" 
d="M129 220v-220h-54v543h195q88 0 135.5 -45t47.5 -117q0 -70 -50 -115.5t-133 -45.5h-141zM272 492h-143v-221h143q61 0 93.5 30.5t32.5 79.5q0 51 -32.5 81t-93.5 30z" />
    <glyph glyph-name="afii10035small" unicode="&#xf361;" horiz-adv-x="555" 
d="M329 40q102 0 170 68l40 -38q-85 -82 -210 -82q-133 0 -211 80.5t-78 202.5t78 202.5t211 80.5q126 0 210 -81l-40 -38q-67 67 -170 67q-107 0 -171 -65.5t-64 -165.5t64 -165.5t171 -65.5z" />
    <glyph glyph-name="afii10036small" unicode="&#xf362;" horiz-adv-x="442" 
d="M427 543v-51h-179v-492h-55v492h-178v51h412z" />
    <glyph glyph-name="afii10037small" unicode="&#xf363;" horiz-adv-x="497" 
d="M209 0h-62l70 140l-202 403h63l170 -345l177 345h57z" />
    <glyph glyph-name="afii10038small" unicode="&#xf364;" horiz-adv-x="643" 
d="M295 0v57h-19q-109 0 -172.5 64t-63.5 161q0 96 63.5 160t172.5 64h19v51h54v-51h18q109 0 172.5 -64t63.5 -160q0 -97 -63.5 -161t-172.5 -64h-18v-57h-54zM349 111h18q85 0 133.5 48.5t48.5 122.5t-48.5 122t-133.5 48h-18v-341zM276 111h19v341h-19q-85 0 -133.5 -48
t-48.5 -122t48.5 -122.5t133.5 -48.5z" />
    <glyph glyph-name="afii10039small" unicode="&#xf365;" horiz-adv-x="516" 
d="M436 0l-178 234l-177 -234h-66l210 276l-202 267h66l169 -223l170 223h65l-202 -267l210 -276h-65z" />
    <glyph glyph-name="afii10040small" unicode="&#xf366;" horiz-adv-x="581" 
d="M434 51v492h53v-492h68v-168h-54v117h-426v543h55v-492h304z" />
    <glyph glyph-name="afii10041small" unicode="&#xf367;" horiz-adv-x="509" 
d="M40 381v162h54v-162q0 -119 142 -119q63 0 145 15v266h53v-543h-53v226q-98 -14 -146 -14q-86 0 -140.5 40.5t-54.5 128.5z" />
    <glyph glyph-name="afii10042small" unicode="&#xf368;" horiz-adv-x="858" 
d="M403 51v492h53v-492h273v492h54v-543h-708v543h54v-492h274z" />
    <glyph glyph-name="afii10043small" unicode="&#xf369;" horiz-adv-x="880" 
d="M75 0v543h54v-492h273v492h53v-492h273v492h55v-492h67v-168h-54v117h-721z" />
    <glyph glyph-name="afii10044small" unicode="&#xf36a;" horiz-adv-x="617" 
d="M260 543v-221h142q83 0 133 -46t50 -116q0 -71 -47.5 -115.5t-135.5 -44.5h-196v492h-179v51h233zM260 51h144q61 0 94 29.5t33 79.5t-33 80.5t-94 30.5h-144v-220z" />
    <glyph glyph-name="afii10045small" unicode="&#xf36b;" horiz-adv-x="645" 
d="M130 51h142q62 0 94.5 29.5t32.5 79.5t-32.5 80.5t-94.5 30.5h-142v-220zM130 543v-221h140q83 0 133 -46t50 -116q0 -71 -47.5 -115.5t-135.5 -44.5h-195v543h55zM516 0v543h54v-543h-54z" />
    <glyph glyph-name="afii10046small" unicode="&#xf36c;" horiz-adv-x="485" 
d="M129 51h143q61 0 93.5 29.5t32.5 79.5t-32.5 80.5t-93.5 30.5h-143v-220zM129 543v-221h141q83 0 133 -46t50 -116q0 -71 -47.5 -115.5t-135.5 -44.5h-195v543h54z" />
    <glyph glyph-name="afii10047small" unicode="&#xf36d;" horiz-adv-x="573" 
d="M236 40q103 0 168 61.5t71 155.5h-344v51h341q-11 85 -75 139.5t-161 54.5q-106 0 -175 -67l-41 38q84 81 216 81q136 0 216.5 -81t80.5 -202t-80.5 -202t-216.5 -81q-131 0 -216 82l41 38q70 -68 175 -68z" />
    <glyph glyph-name="afii10048small" unicode="&#xf36e;" horiz-adv-x="814" 
d="M131 543v-235h79q12 107 88 176.5t193 69.5q128 0 205.5 -81t77.5 -202t-77.5 -202t-205.5 -81q-124 0 -201 76.5t-82 192.5h-77v-257h-55v543h55zM262 271q0 -98 64.5 -164.5t164.5 -66.5t164.5 66.5t64.5 164.5t-64.5 164.5t-164.5 66.5t-164.5 -66.5t-64.5 -164.5z
" />
    <glyph glyph-name="afii10049small" unicode="&#xf36f;" horiz-adv-x="501" 
d="M373 0v220h-108l-169 -220h-71l173 221q-69 10 -109.5 53.5t-40.5 106.5q0 72 47.5 117t135.5 45h195v-543h-53zM373 492h-144q-62 0 -94.5 -30t-32.5 -81q0 -49 32.5 -79.5t94.5 -30.5h144v221z" />
    <glyph glyph-name="afii10023small" unicode="&#xf371;" horiz-adv-x="479" 
d="M444 51v-51h-369v543h361v-51h-307v-184h283v-51h-283v-206h315zM301 612q0 16 11 27t27 11t27.5 -11t11.5 -27t-11.5 -27t-27.5 -11t-27 11t-11 27zM149 612q0 16 10.5 27t27.5 11q16 0 27 -11t11 -27t-11 -27t-27 -11q-17 0 -27.5 11t-10.5 27z" />
    <glyph glyph-name="afii10051small" unicode="&#xf372;" horiz-adv-x="613" 
d="M428 543v-51h-188v-176q98 14 146 14q86 0 140.5 -40.5t54.5 -129.5v-14q0 -76 -40.5 -117.5t-100.5 -41.5q-73 0 -137 64l34 36q45 -50 100 -50q38 0 64 28t26 83v12q0 67 -38 93t-105 26q-70 0 -144 -15v-264h-54v492h-171v51h413z" />
    <glyph glyph-name="afii10052small" unicode="&#xf373;" horiz-adv-x="443" 
d="M428 543v-51h-299v-492h-54v543h353zM170 603l74 104h77l-107 -104h-44z" />
    <glyph glyph-name="afii10053small" unicode="&#xf374;" horiz-adv-x="573" 
d="M337 40q105 0 175 68l41 -38q-87 -82 -216 -82q-136 0 -216.5 80.5t-80.5 202.5t80.5 202.5t216.5 80.5q130 0 216 -81l-41 -38q-69 67 -175 67q-98 0 -161.5 -54.5t-75.5 -139.5h341v-51h-343q5 -94 69.5 -155.5t169.5 -61.5z" />
    <glyph glyph-name="afii10054small" unicode="&#xf375;" horiz-adv-x="468" 
d="M378 150q0 39 -33.5 62t-81.5 35t-96 26.5t-81.5 48.5t-33.5 90q0 64 53 103t128 39q58 0 97 -19.5t83 -61.5l-39 -38q-37 34 -68.5 50.5t-72.5 16.5q-53 0 -90 -23t-37 -67q0 -38 33.5 -61t82 -34.5t96.5 -26t81.5 -49.5t33.5 -91q0 -69 -57 -115.5t-141 -46.5
q-118 0 -203 82l40 38q71 -68 163 -68q63 0 103 31t40 79z" />
    <glyph glyph-name="afii10055small" unicode="&#xf376;" horiz-adv-x="204" 
d="M75 0v543h54v-543h-54z" />
    <glyph glyph-name="afii10056small" unicode="&#xf377;" horiz-adv-x="204" 
d="M75 0v543h54v-543h-54zM119 639q0 16 11 27t27 11t27.5 -11t11.5 -27t-11 -27t-28 -11q-16 0 -27 11t-11 27zM7 639q0 16 10.5 27t27.5 11q16 0 27 -11t11 -27q0 -17 -10.5 -27.5t-27.5 -10.5t-27.5 10.5t-10.5 27.5z" />
    <glyph glyph-name="afii10057small" unicode="&#xf378;" horiz-adv-x="320" 
d="M197 134v409h53v-409q0 -70 -35 -108t-104 -38q-57 0 -108 51l37 36q37 -35 71 -35q86 0 86 94z" />
    <glyph glyph-name="afii10058small" unicode="&#xf379;" horiz-adv-x="813" 
d="M472 543v-221h126q83 0 133 -46t50 -116q0 -71 -47.5 -115.5t-135.5 -44.5h-179v492h-210v-167q0 -95 -13.5 -161t-37.5 -100.5t-52 -49t-64 -14.5h-26v51h27q59 0 85.5 62t26.5 212v218h317zM472 51h128q62 0 94.5 29.5t32.5 79.5t-32.5 80.5t-94.5 30.5h-128v-220z" />
    <glyph glyph-name="afii10059small" unicode="&#xf37a;" horiz-adv-x="812" 
d="M419 0v260h-290v-260h-54v543h54v-232h290v232h53v-232h125q84 0 133.5 -43.5t49.5 -113.5q0 -71 -47 -112.5t-136 -41.5h-178zM472 51h127q63 0 95 27t32 76q0 50 -32.5 78t-94.5 28h-127v-209z" />
    <glyph glyph-name="afii10060small" unicode="&#xf37b;" horiz-adv-x="615" 
d="M428 543v-51h-188v-176q98 14 146 14q86 0 140.5 -40.5t54.5 -129.5v-160h-54v160q0 67 -38 93t-105 26q-70 0 -144 -15v-264h-54v492h-171v51h413z" />
    <glyph glyph-name="afii10061small" unicode="&#xf37c;" horiz-adv-x="515" 
d="M434 0l-305 282l289 261h71l-287 -261l308 -282h-76zM75 0v543h54v-543h-54zM191 603l74 104h77l-107 -104h-44z" />
    <glyph glyph-name="afii10062small" unicode="&#xf37e;" horiz-adv-x="496" 
d="M208 0h-62l70 138l-201 405h62l170 -345l177 345h57zM247 623q62 0 117 25l26 -48q-65 -28 -143 -28q-77 0 -144 28l27 48q55 -25 117 -25z" />
    <glyph glyph-name="afii10145small" unicode="&#xf37f;" horiz-adv-x="562" 
d="M434 51v492h53v-543h-179v-117h-54v117h-179v543h54v-492h305z" />
    <glyph glyph-name="afii10050small" unicode="&#xf393;" horiz-adv-x="443" 
d="M428 492h-299v-492h-54v543h301v93h52v-144z" />
    <glyph glyph-name="afii61352small" unicode="&#xf3cf;" horiz-adv-x="793" 
d="M131 451v-451h-54v543h51l306 -451v451h52v-543h-49zM641 384q27 0 44 16t17 40q0 23 -17 38.5t-44 15.5q-28 0 -45 -15.5t-17 -38.5q0 -24 17 -40t45 -16zM641 333q-50 0 -81.5 31t-31.5 76q0 43 31.5 74t81.5 31q49 0 80 -31t31 -74q0 -45 -31 -76t-80 -31zM528 238v51
h224v-51h-224z" />
    <glyph glyph-name="sterlingsmall" unicode="&#xf628;" horiz-adv-x="440" 
d="M417 0h-326v271h-68v51h68v46q0 85 43 135.5t122 50.5q58 0 94 -22t70 -65l-40 -30q-30 34 -56 50t-69 16q-111 0 -111 -134v-47h197v-51h-197v-220h273v-51z" />
    <glyph glyph-name="yensmall" unicode="&#xf629;" horiz-adv-x="440" 
d="M6 539h59l154 -266l157 266h58l-160 -269h122v-52h-149v-46h149v-51h-149v-121h-54v121h-148v51h148v47h-148v51h120z" />
    <glyph glyph-name="Eurosmall" unicode="&#xf630;" horiz-adv-x="620" 
d="M388 40q105 0 176 68l39 -38q-85 -82 -215 -82q-114 0 -190 58.5t-99 152.5h-76v51h68q-1 7 -1 23q0 15 1 23h-68v52h77q24 92 100 149t188 57q131 0 215 -81l-39 -38q-70 67 -176 67q-85 0 -145.5 -42.5t-82.5 -111.5h341v-52h-352q0 -1 -0.5 -3t-0.5 -7.5v-14.5
q0 -13 1 -21h352v-51h-342q20 -73 80 -116t149 -43z" />
    <glyph glyph-name="Amacronsmall" unicode="&#xf66e;" horiz-adv-x="533" 
d="M295 543l223 -543h-55l-65 154h-264l-64 -154h-55l223 543h57zM267 476l-112 -271h224zM117 600v53h300v-53h-300z" />
    <glyph glyph-name="Aogoneksmall" unicode="&#xf66f;" horiz-adv-x="533" 
d="M525 -163q-54 0 -91 20.5t-37 63.5q0 51 66 79l-65 154h-264l-64 -154h-55l223 543h57l223 -543q-73 -36 -73 -77q0 -25 21.5 -40.5t58.5 -15.5v-30zM267 476l-112 -271h224z" />
    <glyph glyph-name="Cacutesmall" unicode="&#xf671;" horiz-adv-x="555" 
d="M417 728l-138 -133h-42l88 133h92zM329 40q102 0 170 68l40 -38q-85 -82 -210 -82q-133 0 -211 80.5t-78 202.5t78 202.5t211 80.5q126 0 210 -81l-40 -38q-67 67 -170 67q-106 0 -169.5 -65.5t-63.5 -165.5t63.5 -165.5t169.5 -65.5z" />
    <glyph glyph-name="Ccaronsmall" unicode="&#xf672;" horiz-adv-x="555" 
d="M307 595l-100 122h47l74 -68l74 68h45l-100 -122h-40zM329 40q102 0 170 68l40 -38q-85 -82 -210 -82q-133 0 -211 80.5t-78 202.5t78 202.5t211 80.5q126 0 210 -81l-40 -38q-67 67 -170 67q-106 0 -169.5 -65.5t-63.5 -165.5t63.5 -165.5t169.5 -65.5z" />
    <glyph glyph-name="Dcaronsmall" unicode="&#xf675;" horiz-adv-x="587" 
d="M237 595l-100 122h47l74 -68l74 68h45l-100 -122h-40zM129 51h139q111 0 168 59.5t57 160.5t-57 161t-168 60h-139v-441zM268 0h-193v543h193q135 0 207 -75t72 -197t-72 -196.5t-207 -74.5z" />
    <glyph glyph-name="Ecaronsmall" unicode="&#xf678;" horiz-adv-x="479" 
d="M444 51v-51h-369v543h361v-51h-307v-184h283v-51h-283v-206h315zM230 595l-100 122h47l74 -68l74 68h45l-100 -122h-40z" />
    <glyph glyph-name="Edotaccentsmall" unicode="&#xf679;" horiz-adv-x="479" 
d="M444 51v-51h-369v543h361v-51h-307v-184h283v-51h-283v-206h315zM217 635q0 18 12 30.5t30 12.5t30.5 -12.5t12.5 -30.5t-12.5 -30t-30.5 -12t-30 12t-12 30z" />
    <glyph glyph-name="Emacronsmall" unicode="&#xf67a;" horiz-adv-x="479" 
d="M444 51v-51h-369v543h361v-51h-307v-184h283v-51h-283v-206h315zM100 600v53h300v-53h-300z" />
    <glyph glyph-name="Eogoneksmall" unicode="&#xf67c;" horiz-adv-x="479" 
d="M451 -163q-54 0 -91 20.5t-37 63.5q0 50 65 79h-313v543h361v-51h-307v-184h283v-51h-283v-206h315v-51q-73 -36 -73 -77q0 -25 21.5 -40.5t58.5 -15.5v-30z" />
    <glyph glyph-name="Imacronsmall" unicode="&#xf685;" horiz-adv-x="204" 
d="M75 0v543h54v-543h-54zM1 600v51h193v-51h-193z" />
    <glyph glyph-name="Iogoneksmall" unicode="&#xf686;" horiz-adv-x="204" 
d="M136 -163q-54 0 -91 20.5t-37 63.5q0 50 67 79v543h54v-543q-73 -36 -73 -77q0 -25 21.5 -40.5t58.5 -15.5v-30z" />
    <glyph glyph-name="Lacutesmall" unicode="&#xf68a;" horiz-adv-x="456" 
d="M75 0v543h54v-492h307v-51h-361zM308 728l-138 -133h-42l88 133h92z" />
    <glyph glyph-name="Lcaronsmall" unicode="&#xf68b;" horiz-adv-x="456" 
d="M75 0v543h54v-492h307v-51h-361zM221 355l32 188h67l-64 -188h-35z" />
    <glyph glyph-name="Nacutesmall" unicode="&#xf68e;" horiz-adv-x="574" 
d="M128 450v-450h-53v543h51l320 -451v451h53v-543h-50zM404 728l-138 -133h-42l88 133h92z" />
    <glyph glyph-name="Ncaronsmall" unicode="&#xf68f;" horiz-adv-x="574" 
d="M128 450v-450h-53v543h51l320 -451v451h53v-543h-50zM264 595l-100 122h47l74 -68l74 68h45l-100 -122h-40z" />
    <glyph glyph-name="Ohungarumlautsmall" unicode="&#xf692;" horiz-adv-x="646" 
d="M517 728l-138 -133h-42l88 133h92zM365 728l-138 -133h-42l88 133h92zM40 271q0 121 77.5 202t205.5 81t205.5 -81t77.5 -202t-77.5 -202t-205.5 -81t-205.5 81t-77.5 202zM94 271q0 -98 64.5 -164.5t164.5 -66.5t164.5 66.5t64.5 164.5t-64.5 164.5t-164.5 66.5
t-164.5 -66.5t-64.5 -164.5z" />
    <glyph glyph-name="Omacronsmall" unicode="&#xf693;" horiz-adv-x="646" 
d="M171 600v53h300v-53h-300zM40 271q0 121 77.5 202t205.5 81t205.5 -81t77.5 -202t-77.5 -202t-205.5 -81t-205.5 81t-77.5 202zM94 271q0 -98 64.5 -164.5t164.5 -66.5t164.5 66.5t64.5 164.5t-64.5 164.5t-164.5 66.5t-164.5 -66.5t-64.5 -164.5z" />
    <glyph glyph-name="Racutesmall" unicode="&#xf695;" horiz-adv-x="500" 
d="M129 220v-220h-54v543h195q88 0 135.5 -45t47.5 -117q0 -63 -40 -107t-110 -53l172 -221h-70l-169 220h-107zM272 492h-143v-221h143q61 0 94 30.5t33 79.5q0 51 -33 81t-94 30zM339 728l-138 -133h-42l88 133h92z" />
    <glyph glyph-name="Rcaronsmall" unicode="&#xf696;" horiz-adv-x="500" 
d="M129 220v-220h-54v543h195q88 0 135.5 -45t47.5 -117q0 -63 -40 -107t-110 -53l172 -221h-70l-169 220h-107zM272 492h-143v-221h143q61 0 94 30.5t33 79.5q0 51 -33 81t-94 30zM229 595l-100 122h47l74 -68l74 68h45l-100 -122h-40z" />
    <glyph glyph-name="Sacutesmall" unicode="&#xf698;" horiz-adv-x="468" 
d="M379 150q0 39 -33.5 62t-81.5 34.5t-96.5 26t-82 49t-33.5 90.5q0 64 53 103t129 39q57 0 96 -19.5t84 -61.5l-41 -38q-69 67 -139 67q-53 0 -90.5 -23t-37.5 -67q0 -38 33.5 -61t82 -34.5t96.5 -26t81.5 -49.5t33.5 -91q0 -69 -57 -115.5t-141 -46.5q-116 0 -203 82
l42 38q68 -68 161 -68q64 0 104 31t40 79zM354 728l-138 -133h-42l88 133h92z" />
    <glyph glyph-name="Tcaronsmall" unicode="&#xf69d;" horiz-adv-x="442" 
d="M427 543v-51h-179v-492h-55v492h-178v51h412zM199 595l-100 122h47l74 -68l74 68h45l-100 -122h-40z" />
    <glyph glyph-name="Uhungarumlautsmall" unicode="&#xf6a0;" horiz-adv-x="553" 
d="M70 186v357h54v-357q0 -63 42 -104.5t111 -41.5q68 0 110 41.5t42 104.5v357h54v-357q0 -85 -56 -141.5t-150 -56.5q-95 0 -151 56.5t-56 141.5zM470 728l-138 -133h-42l88 133h92zM318 728l-138 -133h-42l88 133h92z" />
    <glyph glyph-name="Umacronsmall" unicode="&#xf6a1;" horiz-adv-x="553" 
d="M70 186v357h54v-357q0 -63 42 -104.5t111 -41.5q68 0 110 41.5t42 104.5v357h54v-357q0 -85 -56 -141.5t-150 -56.5q-95 0 -151 56.5t-56 141.5zM124 600v53h300v-53h-300z" />
    <glyph glyph-name="Uogoneksmall" unicode="&#xf6a2;" horiz-adv-x="553" 
d="M361 -163q-54 0 -91 20.5t-37 63.5q0 42 42 67q-94 1 -149.5 57t-55.5 141v357h54v-357q0 -63 42 -104.5t111 -41.5q68 0 110 41.5t42 104.5v357h54v-357q0 -66 -34.5 -116t-95.5 -70q-72 -36 -72 -77q0 -25 21.5 -40.5t58.5 -15.5v-30z" />
    <glyph glyph-name="Uringsmall" unicode="&#xf6a3;" horiz-adv-x="553" 
d="M70 186v357h54v-357q0 -63 42 -104.5t111 -41.5q68 0 110 41.5t42 104.5v357h54v-357q0 -85 -56 -141.5t-150 -56.5q-95 0 -151 56.5t-56 141.5zM274 595q-39 0 -68.5 27.5t-29.5 65.5t29.5 65.5t68.5 27.5t68.5 -27.5t29.5 -65.5t-29.5 -65.5t-68.5 -27.5zM274 627
q25 0 43.5 18t18.5 43t-18.5 43t-43.5 18t-43.5 -18t-18.5 -43t18.5 -43t43.5 -18z" />
    <glyph glyph-name="Zacutesmall" unicode="&#xf6ab;" horiz-adv-x="485" 
d="M442 543v-48l-332 -444h338v-51h-406v48l332 444h-324v51h392zM353 728l-138 -133h-42l88 133h92z" />
    <glyph glyph-name="Zdotaccentsmall" unicode="&#xf6ac;" horiz-adv-x="485" 
d="M442 543v-48l-332 -444h338v-51h-406v48l332 444h-324v51h392zM200 635q0 18 12 30.5t30 12.5t30.5 -12.5t12.5 -30.5t-12.5 -30t-30.5 -12t-30 12t-12 30z" />
    <glyph glyph-name="commaaccent" unicode="&#xf6c3;" horiz-adv-x="250" 
d="M68 -286l35 209h75l-71 -209h-39z" />
    <glyph glyph-name="Lslashsmall" unicode="&#xf6f9;" horiz-adv-x="456" 
d="M23 170v52l52 47v274h54v-225l115 105v-52l-115 -105v-215h307v-51h-361v217z" />
    <glyph glyph-name="OEsmall" unicode="&#xf6fa;" horiz-adv-x="803" 
d="M768 51v-51h-354q-38 -8 -85 -8q-138 0 -213.5 76t-75.5 203t75.5 203t213.5 76q52 0 84 -7h347v-51h-298v-184h275v-51h-275v-206h306zM329 43q47 0 78 8v439q-35 8 -78 8q-110 0 -170.5 -61.5t-60.5 -165.5q0 -105 60.5 -166.5t170.5 -61.5z" />
    <glyph glyph-name="Scaronsmall" unicode="&#xf6fd;" horiz-adv-x="468" 
d="M378 150q0 39 -33.5 62t-81.5 35t-96 26.5t-81.5 48.5t-33.5 90q0 64 53 103t128 39q58 0 97 -19.5t83 -61.5l-39 -38q-37 34 -68.5 50.5t-72.5 16.5q-53 0 -90 -23t-37 -67q0 -38 33.5 -61t82 -34.5t96.5 -26t81.5 -49.5t33.5 -91q0 -69 -57 -115.5t-141 -46.5
q-118 0 -203 82l40 38q71 -68 163 -68q63 0 103 31t40 79zM217 603l-88 104h50l57 -50l57 50h48l-88 -104h-36z" />
    <glyph glyph-name="Zcaronsmall" unicode="&#xf6ff;" horiz-adv-x="485" 
d="M441 543v-48l-331 -444h338v-51h-406v48l332 444h-324v51h391zM224 603l-88 104h49l57 -50l57 50h49l-88 -104h-36z" />
    <glyph glyph-name="zero.onum" unicode="&#xf730;" 
d="M60 250q0 134 60 199.5t148 65.5t148 -65.5t60 -199.5t-60 -199.5t-148 -65.5t-148 65.5t-60 199.5zM116 250q0 -110 42 -161.5t110 -51.5t110 51.5t42 161.5t-42 161.5t-110 51.5t-110 -51.5t-42 -161.5z" />
    <glyph glyph-name="one.onum" unicode="&#xf731;" 
d="M502 52v-52h-436v52h190v386l-159 -90l-26 46l214 121h27v-463h190z" />
    <glyph glyph-name="two.onum" unicode="&#xf732;" 
d="M125 360l-43 34q44 59 88.5 90t114.5 31q87 0 137.5 -47t50.5 -118q0 -76 -58.5 -135.5t-225.5 -162.5h291v-52h-405v35q198 127 228 148q88 65 107 120q7 22 7 47q0 51 -36 82t-96 31q-51 0 -86.5 -24t-73.5 -79z" />
    <glyph glyph-name="three.onum" unicode="&#xf733;" 
d="M261 -167q81 0 125 47t44 122q0 63 -40.5 101.5t-92.5 38.5q-31 0 -74 -14l-13 48l45 12q63 17 107 60.5t44 101.5q0 52 -31 82.5t-90 30.5q-52 0 -86.5 -24.5t-73.5 -78.5l-43 34q82 121 201 121q82 0 130.5 -45t48.5 -114q0 -55 -30.5 -101.5t-91.5 -73.5
q67 -12 106.5 -63.5t39.5 -114.5q0 -92 -62 -157t-163 -65q-70 0 -110.5 24t-86.5 77l43 40q38 -48 72.5 -68.5t81.5 -20.5z" />
    <glyph glyph-name="four.onum" unicode="&#xf734;" 
d="M402 -204h-56v204h-315l-7 43l351 472h27v-463h127v-52h-127v-204zM346 394l-253 -342h253v342z" />
    <glyph glyph-name="five.onum" unicode="&#xf735;" 
d="M168 448l-29 -228q61 37 143 37q98 0 151 -64t53 -164q0 -102 -59.5 -175t-165.5 -73q-70 0 -110.5 24t-86.5 77l43 40q38 -48 72.5 -68.5t81.5 -20.5q86 0 127.5 54.5t41.5 140.5q0 85 -41.5 131t-107.5 46q-104 0 -155 -55l-42 20l41 330h345v-52h-302z" />
    <glyph glyph-name="six.onum" unicode="&#xf736;" 
d="M287 663q-82 0 -127.5 -65t-45.5 -221q49 90 174 90q34 0 65.5 -12.5t60 -38t45.5 -73t17 -110.5q0 -116 -63.5 -182t-144.5 -66q-110 0 -159 76t-49 269q0 116 17.5 195t50.5 119t71 55.5t89 15.5t88 -16t81 -60l-35 -42q-59 66 -135 66zM117 233q0 -95 43.5 -145.5
t106.5 -50.5q61 0 107.5 49t46.5 147q0 95 -40.5 138.5t-91.5 43.5q-26 0 -52 -7t-55 -24.5t-47 -56.5t-18 -94z" />
    <glyph glyph-name="seven.onum" unicode="&#xf737;" 
d="M477 465l-275 -669h-56l269 652h-373v52h435v-35z" />
    <glyph glyph-name="eight.onum" unicode="&#xf738;" 
d="M454 537q0 -61 -33 -99t-93 -68q70 -33 109 -74t39 -111q0 -90 -56 -145t-152 -55t-152 55t-56 145q0 70 38.5 111t108.5 74q-59 30 -92 68t-33 99q0 81 51.5 129.5t134.5 48.5t134.5 -48.5t51.5 -129.5zM420 185q0 31 -11.5 55.5t-36.5 43.5t-46 30t-58 28
q-37 -17 -58 -28t-46 -30t-36.5 -43.5t-11.5 -55.5q0 -66 40.5 -107t111.5 -41q73 0 112.5 40.5t39.5 107.5zM138 537q0 -50 33 -80.5t97 -59.5q64 30 97 60t33 80q0 62 -37 94t-93 32t-93 -32t-37 -94z" />
    <glyph glyph-name="nine.onum" unicode="&#xf739;" 
d="M249 -167q82 0 127.5 66.5t45.5 223.5q-49 -90 -174 -90q-35 0 -66 11t-59.5 34.5t-45.5 69.5t-17 109q0 121 66 189.5t142 68.5q108 0 158 -82t50 -263q0 -94 -12 -163.5t-32 -112t-50 -68.5t-62 -35.5t-72 -9.5q-51 0 -88 16t-81 60l35 42q59 -66 135 -66zM419 257
q0 106 -45.5 156t-104.5 50q-61 0 -107.5 -50.5t-46.5 -155.5q0 -94 39.5 -133t92.5 -39q21 0 40.5 2.5t45 13t43.5 28t30.5 50.5t12.5 78z" />
    <glyph glyph-name="Asmall" unicode="&#xf761;" horiz-adv-x="533" 
d="M295 543l223 -543h-55l-65 154h-264l-64 -154h-55l223 543h57zM267 476l-112 -271h224q-14 34 -52.5 126t-59.5 145z" />
    <glyph glyph-name="Bsmall" unicode="&#xf762;" horiz-adv-x="501" 
d="M440 405q0 -36 -21 -68.5t-54 -52.5q42 -18 68.5 -55t26.5 -81q0 -62 -47 -105t-119 -43h-219v543h209q67 0 111.5 -40t44.5 -98zM129 51h166q46 0 78.5 29.5t32.5 72.5t-32.5 73.5t-78.5 30.5h-166v-206zM386 401q0 37 -30.5 64t-71.5 27h-155v-184h155q41 0 71.5 27
t30.5 66z" />
    <glyph glyph-name="Csmall" unicode="&#xf763;" horiz-adv-x="555" 
d="M329 40q102 0 170 68l40 -38q-85 -82 -210 -82q-133 0 -211 80.5t-78 202.5t78 202.5t211 80.5q126 0 210 -81l-40 -38q-67 67 -170 67q-106 0 -169.5 -65.5t-63.5 -165.5t63.5 -165.5t169.5 -65.5z" />
    <glyph glyph-name="Dsmall" unicode="&#xf764;" horiz-adv-x="587" 
d="M129 51h139q111 0 168 59.5t57 160.5t-57 161t-168 60h-139v-441zM268 0h-193v543h193q135 0 207 -75t72 -197t-72 -196.5t-207 -74.5z" />
    <glyph glyph-name="Esmall" unicode="&#xf765;" horiz-adv-x="479" 
d="M444 51v-51h-369v543h361v-51h-307v-184h283v-51h-283v-206h315z" />
    <glyph glyph-name="Fsmall" unicode="&#xf766;" horiz-adv-x="468" 
d="M412 300v-51h-283v-249h-54v543h361v-51h-307v-192h283z" />
    <glyph glyph-name="Gsmall" unicode="&#xf767;" horiz-adv-x="577" 
d="M266 226v51h277v-209q-86 -80 -214 -80q-136 0 -212.5 80t-76.5 203t76.5 203t212.5 80q97 0 174 -47l-33 -45q-60 40 -141 40q-108 0 -169.5 -65t-61.5 -166t61.5 -166t169.5 -65q98 0 163 55v131h-226z" />
    <glyph glyph-name="Hsmall" unicode="&#xf768;" horiz-adv-x="562" 
d="M433 0v257h-304v-257h-54v543h54v-235h304v235h54v-543h-54z" />
    <glyph glyph-name="Ismall" unicode="&#xf769;" horiz-adv-x="204" 
d="M75 0v543h54v-543h-54z" />
    <glyph glyph-name="Jsmall" unicode="&#xf76a;" horiz-adv-x="320" 
d="M197 134v409h53v-409q0 -70 -35 -108t-104 -38q-57 0 -108 51l37 36q37 -35 71 -35q86 0 86 94z" />
    <glyph glyph-name="Ksmall" unicode="&#xf76b;" horiz-adv-x="515" 
d="M434 0l-305 282l289 261h71l-287 -261l308 -282h-76zM75 0v543h54v-543h-54z" />
    <glyph glyph-name="Lsmall" unicode="&#xf76c;" horiz-adv-x="456" 
d="M75 0v543h54v-492h307v-51h-361z" />
    <glyph glyph-name="Msmall" unicode="&#xf76d;" horiz-adv-x="645" 
d="M127 541l195 -289l197 289h51v-541h-54v450l-180 -263h-28l-178 263v-450h-55v541h52z" />
    <glyph glyph-name="Nsmall" unicode="&#xf76e;" horiz-adv-x="574" 
d="M128 450v-450h-53v543h51l320 -451v451h53v-543h-50z" />
    <glyph glyph-name="Osmall" unicode="&#xf76f;" horiz-adv-x="646" 
d="M40 271q0 121 77.5 202t205.5 81t205.5 -81t77.5 -202t-77.5 -202t-205.5 -81t-205.5 81t-77.5 202zM94 271q0 -98 64.5 -164.5t164.5 -66.5t164.5 66.5t64.5 164.5t-64.5 164.5t-164.5 66.5t-164.5 -66.5t-64.5 -164.5z" />
    <glyph glyph-name="Psmall" unicode="&#xf770;" horiz-adv-x="485" 
d="M129 220v-220h-54v543h195q88 0 135.5 -45t47.5 -117q0 -70 -50 -115.5t-133 -45.5h-141zM272 492h-143v-221h143q61 0 93.5 30.5t32.5 79.5q0 51 -32.5 81t-93.5 30z" />
    <glyph glyph-name="Qsmall" unicode="&#xf771;" horiz-adv-x="646" 
d="M40 271q0 121 77.5 202t205.5 81t205.5 -81t77.5 -202q0 -120 -75 -200l77 -64l-33 -37l-83 68q-70 -50 -169 -50q-128 0 -205.5 81t-77.5 202zM94 271q0 -98 64.5 -164.5t164.5 -66.5q71 0 126 35l-121 101l33 38l127 -107q64 67 64 164q0 98 -64.5 164.5t-164.5 66.5
t-164.5 -66.5t-64.5 -164.5z" />
    <glyph glyph-name="Rsmall" unicode="&#xf772;" horiz-adv-x="500" 
d="M129 220v-220h-54v543h195q88 0 135.5 -45t47.5 -117q0 -63 -40 -107t-110 -53l172 -221h-70l-169 220h-107zM272 492h-143v-221h143q61 0 94 30.5t33 79.5q0 51 -33 81t-94 30z" />
    <glyph glyph-name="Ssmall" unicode="&#xf773;" horiz-adv-x="468" 
d="M379 150q0 39 -33.5 62t-81.5 34.5t-96.5 26t-82 49t-33.5 90.5q0 64 53 103t129 39q57 0 96 -19.5t84 -61.5l-41 -38q-69 67 -139 67q-53 0 -90.5 -23t-37.5 -67q0 -38 33.5 -61t82 -34.5t96.5 -26t81.5 -49.5t33.5 -91q0 -69 -57 -115.5t-141 -46.5q-116 0 -203 82
l42 38q68 -68 161 -68q64 0 104 31t40 79z" />
    <glyph glyph-name="Tsmall" unicode="&#xf774;" horiz-adv-x="442" 
d="M427 543v-51h-179v-492h-55v492h-178v51h412z" />
    <glyph glyph-name="Usmall" unicode="&#xf775;" horiz-adv-x="553" 
d="M70 186v357h54v-357q0 -63 42 -104.5t111 -41.5q68 0 110 41.5t42 104.5v357h54v-357q0 -85 -56 -141.5t-150 -56.5q-95 0 -151 56.5t-56 141.5z" />
    <glyph glyph-name="Vsmall" unicode="&#xf776;" horiz-adv-x="533" 
d="M238 0l-223 543h55l197 -478l196 478h55l-223 -543h-57z" />
    <glyph glyph-name="Wsmall" unicode="&#xf777;" horiz-adv-x="767" 
d="M409 543l145 -459l143 459h55l-170 -543h-58l-140 449l-141 -449h-58l-170 543h55l144 -459l144 459h51z" />
    <glyph glyph-name="Xsmall" unicode="&#xf778;" horiz-adv-x="516" 
d="M436 0l-178 234l-177 -234h-66l210 276l-202 267h66l169 -223l170 223h65l-202 -267l210 -276h-65z" />
    <glyph glyph-name="Ysmall" unicode="&#xf779;" horiz-adv-x="499" 
d="M5 543h61l183 -291l185 291h60l-218 -342v-201h-54v199z" />
    <glyph glyph-name="Zsmall" unicode="&#xf77a;" horiz-adv-x="485" 
d="M442 543v-48l-332 -444h338v-51h-406v48l332 444h-324v51h392z" />
    <glyph glyph-name="Agravesmall" unicode="&#xf7e0;" horiz-adv-x="533" 
d="M295 543l223 -543h-55l-65 154h-264l-64 -154h-55l223 543h57zM267 476l-112 -271h224zM240 707l74 -104h-43l-107 104h76z" />
    <glyph glyph-name="Aacutesmall" unicode="&#xf7e1;" horiz-adv-x="533" 
d="M295 543l223 -543h-55l-65 154h-264l-64 -154h-55l223 543h57zM267 476l-112 -271h224zM219 603l73 104h76l-106 -104h-43z" />
    <glyph glyph-name="Acircumflexsmall" unicode="&#xf7e2;" horiz-adv-x="533" 
d="M295 543l223 -543h-55l-65 154h-264l-64 -154h-55l223 543h57zM267 476l-112 -271h224zM160 603l89 104h35l89 -104h-50l-57 50l-57 -50h-49z" />
    <glyph glyph-name="Atildesmall" unicode="&#xf7e3;" horiz-adv-x="533" 
d="M295 543l223 -543h-55l-65 154h-264l-64 -154h-55l223 543h57zM267 476l-112 -271h224zM180 595l-36 9q13 46 29.5 63.5t43.5 17.5q13 0 55 -17q32 -14 45 -14q12 0 19.5 8t16.5 31l37 -9q-12 -46 -29 -63.5t-44 -17.5q-14 0 -55 16q-34 15 -45 15q-12 0 -19.5 -8.5
t-17.5 -30.5z" />
    <glyph glyph-name="Adieresissmall" unicode="&#xf7e4;" horiz-adv-x="533" 
d="M295 543l223 -543h-55l-65 154h-264l-64 -154h-55l223 543h57zM267 476l-112 -271h224q-14 34 -52.5 126t-59.5 145zM292 639q0 16 11.5 27t27.5 11t27 -11t11 -27t-11 -27t-27 -11q-17 0 -28 11t-11 27zM164 639q0 16 11 27t27 11t27.5 -11t11.5 -27t-11 -27t-28 -11
q-16 0 -27 10.5t-11 27.5z" />
    <glyph glyph-name="Aringsmall" unicode="&#xf7e5;" horiz-adv-x="533" 
d="M295 543l223 -543h-55l-65 154h-264l-64 -154h-55l223 543h57zM267 476l-112 -271h224zM267 586q-34 0 -58 22.5t-24 55.5q0 31 24 53.5t58 22.5q33 0 57 -22.5t24 -54.5t-24 -54.5t-57 -22.5zM267 622q17 0 30.5 12t13.5 30q0 16 -13.5 28t-30.5 12q-18 0 -31.5 -12
t-13.5 -29t13.5 -29t31.5 -12z" />
    <glyph glyph-name="AEsmall" unicode="&#xf7e6;" horiz-adv-x="788" 
d="M753 51v-51h-359v154h-224l-101 -154h-64l356 543h384v-51h-298v-184h275v-51h-275v-206h306zM204 205h190v289z" />
    <glyph glyph-name="Ccedillasmall" unicode="&#xf7e7;" horiz-adv-x="555" 
d="M329 40q102 0 170 68l40 -38q-85 -82 -210 -82q-13 0 -20 1l-11 -17h7q32 0 51 -18t19 -42q0 -27 -23.5 -48t-64.5 -21q-36 0 -82 19l17 34q25 -14 61 -14q17 0 31 6.5t14 20.5q0 13 -12 19.5t-27 6.5q-9 0 -39 -7l-18 17l35 48q-106 18 -166.5 94.5t-60.5 183.5
q0 122 78 202.5t211 80.5q126 0 210 -81l-40 -38q-67 67 -170 67q-106 0 -169.5 -65.5t-63.5 -165.5t63.5 -165.5t169.5 -65.5z" />
    <glyph glyph-name="Egravesmall" unicode="&#xf7e8;" horiz-adv-x="479" 
d="M444 51v-51h-369v543h361v-51h-307v-184h283v-51h-283v-206h315zM242 707l74 -104h-43l-107 104h76z" />
    <glyph glyph-name="Eacutesmall" unicode="&#xf7e9;" horiz-adv-x="479" 
d="M444 51v-51h-369v543h361v-51h-307v-184h283v-51h-283v-206h315zM169 603l74 104h76l-106 -104h-44z" />
    <glyph glyph-name="Ecircumflexsmall" unicode="&#xf7ea;" horiz-adv-x="479" 
d="M444 51v-51h-369v543h361v-51h-307v-184h283v-51h-283v-206h315zM135 603l89 104h36l88 -104h-49l-57 50q-8 -6 -27 -24t-30 -26h-50z" />
    <glyph glyph-name="Edieresissmall" unicode="&#xf7eb;" horiz-adv-x="479" 
d="M444 51v-51h-369v543h361v-51h-307v-184h283v-51h-283v-206h315zM269 639q0 16 10.5 27t26.5 11t27.5 -11t11.5 -27t-11 -27t-28 -11q-16 0 -26.5 10.5t-10.5 27.5zM140 639q0 16 11 27t27 11t27.5 -11t11.5 -27t-11 -27t-28 -11q-16 0 -27 11t-11 27z" />
    <glyph glyph-name="Igravesmall" unicode="&#xf7ec;" horiz-adv-x="204" 
d="M75 0v543h54v-543h-54zM79 707l74 -104h-44l-106 104h76z" />
    <glyph glyph-name="Iacutesmall" unicode="&#xf7ed;" horiz-adv-x="204" 
d="M75 0v543h54v-543h-54zM50 603l74 104h76l-107 -104h-43z" />
    <glyph glyph-name="Icircumflexsmall" unicode="&#xf7ee;" horiz-adv-x="204" 
d="M75 0v543h54v-543h-54zM-6 603l89 104h36l88 -104h-50l-57 50l-57 -50h-49z" />
    <glyph glyph-name="Idieresissmall" unicode="&#xf7ef;" horiz-adv-x="204" 
d="M75 0v543h54v-543h-54zM127 639q0 16 11 27t27 11t27 -11t11 -27q0 -17 -10.5 -27.5t-27.5 -10.5t-27.5 10.5t-10.5 27.5zM-1 639q0 16 11 27t27 11t27.5 -11t11.5 -27t-11 -27t-28 -11t-27.5 10.5t-10.5 27.5z" />
    <glyph glyph-name="Ethsmall" unicode="&#xf7f0;" horiz-adv-x="587" 
d="M-1 254v51h76v238h193q135 0 207 -75t72 -197t-72 -196.5t-207 -74.5h-193v254h-76zM129 51h139q110 0 167.5 60t57.5 160q0 101 -57.5 161t-167.5 60h-139v-187h116v-51h-116v-203z" />
    <glyph glyph-name="Ntildesmall" unicode="&#xf7f1;" horiz-adv-x="574" 
d="M200 595l-36 9q12 45 29 63t43 18q14 0 51 -15.5t50 -15.5q12 0 19.5 8t16.5 31l37 -9q-13 -46 -30 -63.5t-43 -17.5q-18 0 -54.5 15.5t-46.5 15.5q-11 0 -18.5 -8.5t-17.5 -30.5zM128 450v-450h-53v543h51l320 -451v451h53v-543h-50z" />
    <glyph glyph-name="Ogravesmall" unicode="&#xf7f2;" horiz-adv-x="646" 
d="M318 707l74 -104h-44l-106 104h76zM40 271q0 121 77.5 202t205.5 81t205.5 -81t77.5 -202t-77.5 -202t-205.5 -81t-205.5 81t-77.5 202zM94 271q0 -98 64.5 -164.5t164.5 -66.5t164.5 66.5t64.5 164.5t-64.5 164.5t-164.5 66.5t-164.5 -66.5t-64.5 -164.5z" />
    <glyph glyph-name="Oacutesmall" unicode="&#xf7f3;" horiz-adv-x="646" 
d="M254 603l74 104h76l-106 -104h-44zM40 271q0 121 77.5 202t205.5 81t205.5 -81t77.5 -202t-77.5 -202t-205.5 -81t-205.5 81t-77.5 202zM94 271q0 -98 64.5 -164.5t164.5 -66.5t164.5 66.5t64.5 164.5t-64.5 164.5t-164.5 66.5t-164.5 -66.5t-64.5 -164.5z" />
    <glyph glyph-name="Ocircumflexsmall" unicode="&#xf7f4;" horiz-adv-x="646" 
d="M217 603l89 104h36l88 -104h-50l-57 50l-57 -50h-49zM40 271q0 121 77.5 202t205.5 81t205.5 -81t77.5 -202t-77.5 -202t-205.5 -81t-205.5 81t-77.5 202zM94 271q0 -98 64.5 -164.5t164.5 -66.5t164.5 66.5t64.5 164.5t-64.5 164.5t-164.5 66.5t-164.5 -66.5
t-64.5 -164.5z" />
    <glyph glyph-name="Otildesmall" unicode="&#xf7f5;" horiz-adv-x="646" 
d="M238 595l-38 9q13 45 30.5 63t43.5 18q13 0 50 -15.5t50 -15.5t20.5 8t16.5 31l36 -9q-12 -46 -29 -63.5t-44 -17.5q-17 0 -53.5 15.5t-46.5 15.5q-12 0 -19.5 -8t-16.5 -31zM40 271q0 121 77.5 202t205.5 81t205.5 -81t77.5 -202t-77.5 -202t-205.5 -81t-205.5 81
t-77.5 202zM94 271q0 -98 64.5 -164.5t164.5 -66.5t164.5 66.5t64.5 164.5t-64.5 164.5t-164.5 66.5t-164.5 -66.5t-64.5 -164.5z" />
    <glyph glyph-name="Odieresissmall" unicode="&#xf7f6;" horiz-adv-x="646" 
d="M349 639q0 16 10.5 27t27.5 11q16 0 27 -11t11 -27q0 -17 -10.5 -27.5t-27.5 -10.5t-27.5 10.5t-10.5 27.5zM221 639q0 16 10.5 27t26.5 11q17 0 28.5 -11t11.5 -27t-11.5 -27t-28.5 -11q-16 0 -26.5 11t-10.5 27zM40 271q0 121 77.5 202t205.5 81t205.5 -81t77.5 -202
t-77.5 -202t-205.5 -81t-205.5 81t-77.5 202zM94 271q0 -98 64.5 -164.5t164.5 -66.5t164.5 66.5t64.5 164.5t-64.5 164.5t-164.5 66.5t-164.5 -66.5t-64.5 -164.5z" />
    <glyph glyph-name="Oslashsmall" unicode="&#xf7f8;" horiz-adv-x="646" 
d="M40 271q0 121 77.5 202t205.5 81q101 0 174 -54l38 43h61l-65 -73q75 -80 75 -199q0 -121 -77.5 -202t-205.5 -81q-102 0 -175 54l-37 -42h-60l64 72q-75 80 -75 199zM552 271q0 94 -58 158l-309 -346q61 -43 138 -43q100 0 164.5 66.5t64.5 164.5zM94 271q0 -94 58 -158
l308 346q-61 43 -137 43q-100 0 -164.5 -66.5t-64.5 -164.5z" />
    <glyph glyph-name="Ugravesmall" unicode="&#xf7f9;" horiz-adv-x="553" 
d="M70 186v357h54v-357q0 -63 42 -104.5t111 -41.5q68 0 110 41.5t42 104.5v357h53v-357q0 -85 -55.5 -141.5t-149.5 -56.5q-95 0 -151 56.5t-56 141.5zM271 707l73 -104h-44l-106 104h77z" />
    <glyph glyph-name="Uacutesmall" unicode="&#xf7fa;" horiz-adv-x="553" 
d="M70 186v357h54v-357q0 -63 42 -104.5t111 -41.5q68 0 110 41.5t42 104.5v357h53v-357q0 -85 -55.5 -141.5t-149.5 -56.5q-95 0 -151 56.5t-56 141.5zM208 603l74 104h75l-106 -104h-43z" />
    <glyph glyph-name="Ucircumflexsmall" unicode="&#xf7fb;" horiz-adv-x="553" 
d="M70 186v357h54v-357q0 -63 42 -104.5t111 -41.5q68 0 110 41.5t42 104.5v357h53v-357q0 -85 -55.5 -141.5t-149.5 -56.5q-95 0 -151 56.5t-56 141.5zM169 603l90 104h35l89 -104h-50l-57 50l-57 -50h-50z" />
    <glyph glyph-name="Udieresissmall" unicode="&#xf7fc;" horiz-adv-x="553" 
d="M70 186v357h54v-357q0 -63 42 -104.5t111 -41.5q68 0 110 41.5t42 104.5v357h53v-357q0 -85 -55.5 -141.5t-149.5 -56.5q-95 0 -151 56.5t-56 141.5zM302 639q0 16 11 27t27 11t27.5 -11t11.5 -27t-11 -27t-28 -11q-16 0 -27 10.5t-11 27.5zM173 639q0 16 11.5 27
t27.5 11t27 -11t11 -27t-11 -27t-27 -11q-17 0 -28 11t-11 27z" />
    <glyph glyph-name="Yacutesmall" unicode="&#xf7fd;" horiz-adv-x="499" 
d="M5 543h61l183 -291l185 291h60l-218 -342v-201h-54v199zM179 603l76 104h75l-106 -104h-45z" />
    <glyph glyph-name="Thornsmall" unicode="&#xf7fe;" horiz-adv-x="431" 
d="M75 0v543h54v-82h42q111 0 173.5 -48t62.5 -131t-62.5 -131.5t-173.5 -48.5h-42v-102h-54zM353 282q0 60 -48 94.5t-134 34.5h-42v-259h42q85 0 133.5 35.5t48.5 94.5z" />
    <glyph glyph-name="Ydieresissmall" unicode="&#xf7ff;" horiz-adv-x="499" 
d="M5 543h61l183 -291l185 291h60l-218 -342v-201h-54v199zM275 639q0 16 11 27t27 11t27.5 -11t11.5 -27t-11.5 -27t-27.5 -11q-17 0 -27.5 10.5t-10.5 27.5zM147 639q0 16 11 27t27 11t27 -11t11 -27q0 -17 -10.5 -27.5t-27.5 -10.5t-27.5 10.5t-10.5 27.5z" />
    <glyph glyph-name="parenleftsmall" unicode="&#xfe59;" horiz-adv-x="331" 
d="M277 -104l-5 -1q-222 121 -222 334q0 214 225 337l22 -34q-194 -115 -194 -303q0 -187 194 -302z" />
    <glyph glyph-name="parenrightsmall" unicode="&#xfe5a;" horiz-adv-x="331" 
d="M62 -107l-22 34q194 116 194 302q0 187 -194 303l22 34q225 -123 225 -337t-225 -336z" />
    <glyph glyph-name="braceleftsmall" unicode="&#xfe5b;" horiz-adv-x="325" 
d="M308 -87l-8 -35q-49 10 -78 21.5t-43 30.5t-18 38t-4 54v94q0 42 -19 65.5t-54 23.5h-32v41h32q35 0 54 24t19 66v93q0 35 4 54t18 38t43 30.5t78 21.5l8 -34q-71 -22 -86.5 -40t-15.5 -74v-91q0 -50 -13.5 -74.5t-48.5 -33.5q62 -24 62 -109v-90q0 -56 15.5 -74
t86.5 -40z" />
    <glyph glyph-name="bracerightsmall" unicode="&#xfe5c;" horiz-adv-x="325" 
d="M58 -122l-7 36q71 21 86.5 39t15.5 74v90q0 83 62 109q-35 9 -48.5 33.5t-13.5 74.5v91q0 56 -15.5 74t-86.5 39l7 35q49 -10 77.5 -21.5t43 -30.5t18 -38t3.5 -54v-93q0 -42 19.5 -66t54.5 -24h33v-41h-33q-35 0 -54.5 -23.5t-19.5 -65.5v-94q0 -35 -3.5 -54t-18 -38
t-43 -30.5t-77.5 -21.5z" />
    <glyph glyph-name="bracketleftsmall" unicode="&#xfe5d;" horiz-adv-x="228" 
d="M77 -121v693h144v-44h-95v-605h95v-44h-144z" />
    <glyph glyph-name="bracketrightsmall" unicode="&#xfe5e;" horiz-adv-x="228" 
d="M158 572v-693h-144v44h95v605h-95v44h144z" />
    <glyph glyph-name="numbersignsmall" unicode="&#xfe5f;" horiz-adv-x="570" 
d="M115 0l25 141h-94v46h102l29 167h-99v47h109l23 138h48l-24 -138h152l24 138h47l-24 -138h93v-47h-101l-29 -167h99v-46h-109l-24 -141h-48l25 141h-152l-24 -141h-48zM197 187h150l29 167h-150z" />
    <glyph glyph-name="ampersandsmall" unicode="&#xfe60;" horiz-adv-x="506" 
d="M406 264h62q-41 -92 -75 -154l108 -110h-74l-66 66q-65 -78 -157 -78q-81 0 -125.5 42.5t-44.5 108.5q0 50 30.5 81.5t85.5 58.5q-27 27 -40.5 43t-27 43.5t-13.5 54.5q0 52 43.5 91t109.5 39q65 0 101 -35t36 -90q0 -58 -32 -93t-90 -64l116 -118q18 30 53 114zM204 40
q71 0 119 64l-136 138q-48 -24 -73.5 -47t-25.5 -57q0 -45 32 -71.5t84 -26.5zM122 420q0 -17 11.5 -37.5t24.5 -34.5t42 -43q51 26 78 52t27 68q0 35 -22.5 54.5t-62.5 19.5q-45 0 -71.5 -22.5t-26.5 -56.5z" />
    <glyph glyph-name="dollarsmall" unicode="&#xfe69;" horiz-adv-x="439" 
d="M198 -75v65q-93 9 -168 79l42 38q57 -57 126 -65v218q-34 10 -56.5 19.5t-46 26.5t-35 43.5t-11.5 62.5q0 56 42 92.5t107 45.5v65h52v-64q32 -2 59.5 -13.5t44 -25t47.5 -42.5l-41 -38q-33 33 -56 48t-54 19v-193q36 -10 59.5 -19.5t49.5 -27t39 -44.5t13 -65
q0 -67 -43.5 -111.5t-117.5 -49.5v-64h-52zM357 150q0 39 -27.5 59.5t-79.5 35.5v-204q53 4 80 33t27 76zM103 412q0 -36 24.5 -56t70.5 -34v176q-42 -6 -68.5 -28t-26.5 -58z" />
    <glyph glyph-name="musmall" horiz-adv-x="439" 
d="M31 172h60v47h-60v51h60v269h138q87 0 134.5 -44t47.5 -116q0 -69 -49.5 -114.5t-130.5 -45.5h-87v-47h170v-51h-170v-121h-53v121h-60v51zM231 488h-87v-218h87q61 0 93.5 29.5t32.5 79.5t-32.5 79.5t-93.5 29.5z" />
    <glyph glyph-name="afii10029small.alt" horiz-adv-x="530" 
d="M460 0l-195 477l-195 -477h-55l222 543h56l222 -543h-55z" />
    <glyph glyph-name="sectionsmall" horiz-adv-x="515" 
d="M411 253q0 -31 -18 -59.5t-53 -45.5q32 -26 32 -73q0 -45 -34 -77.5t-104 -32.5q-88 0 -145 65l36 37q46 -53 109 -53q39 0 63 14.5t24 44.5q0 19 -16.5 32.5t-34.5 19.5t-52 14q-26 6 -42.5 10.5t-38 14t-34 21t-21.5 30t-9 41.5q0 31 18 59.5t54 44.5q-36 29 -36 76
q0 44 31 76t99 32q44 0 76.5 -15t65.5 -51l-38 -37q-44 50 -106 50q-31 0 -52 -13.5t-21 -41.5q0 -19 16.5 -32t34 -19t52.5 -14q27 -6 42 -10.5t37.5 -14t34.5 -21t21 -30t9 -42.5zM357 253q0 13 -7 24t-16.5 17.5t-25.5 12.5t-26.5 8.5t-28.5 6t-23 4.5q-47 0 -75 -19.5
t-28 -50.5q0 -16 8 -27.5t29 -20t38.5 -13t55.5 -12.5q99 3 99 70z" />
    <glyph glyph-name="afii10037.alt" horiz-adv-x="586" 
d="M571 700l-213 -563q-28 -74 -67.5 -113t-109.5 -39q-71 0 -128 59l38 38q46 -44 90 -44q45 0 72.5 26t49.5 85l-288 551h62l255 -489l178 489h61z" />
    <glyph glyph-name="afii10065.alt" horiz-adv-x="619" 
d="M539 0h-53v65q-78 -80 -189 -80q-108 0 -185 78t-77 187t77 187t185 78q111 0 189 -81v66h53v-500zM309 30q53 0 99.5 24t77.5 66v260q-31 41 -78 65.5t-99 24.5q-90 0 -153.5 -65t-63.5 -155q0 -91 63.5 -155.5t153.5 -64.5z" />
    <glyph glyph-name="afii10058small.alt" horiz-adv-x="757" 
d="M293 543l91 -223h159q82 0 132 -45.5t50 -115.5q0 -71 -47 -115t-135 -44h-83l-195 477l-195 -477h-55l222 543h56zM544 270h-140l91 -219h49q61 0 94 29.5t33 78.5q0 50 -33 80.5t-94 30.5z" />
    <glyph glyph-name="uni0122small" horiz-adv-x="577" 
d="M274 226v51h277v-209q-86 -80 -214 -80q-136 0 -216.5 80.5t-80.5 202.5t80.5 202.5t216.5 80.5q97 0 174 -47l-33 -45q-60 40 -141 40q-109 0 -174 -65.5t-65 -165.5t65 -165.5t174 -65.5q98 0 163 55v131h-226zM270 -286l35 209h75l-71 -209h-39z" />
    <glyph glyph-name="afii10037small.alt" horiz-adv-x="482" 
d="M469 543l-172 -436q-23 -57 -52 -88t-81 -31q-53 0 -102 48l32 38q31 -34 70 -34q31 0 45.5 16.5t33.5 61.5l-230 425h59l198 -366q13 33 63.5 165.5t76.5 200.5h59z" />
    <glyph glyph-name="a.alt" horiz-adv-x="619" 
d="M539 0h-53v64q-76 -79 -186 -79q-109 0 -187 78t-78 187t78 187t187 78t186 -80v65h53v-500zM300 30q53 0 103.5 25t82.5 66v258q-32 41 -82.5 66t-103.5 25q-89 0 -150.5 -65t-61.5 -155q0 -91 61.5 -155.5t150.5 -64.5z" />
    <glyph glyph-name="uni0145small" horiz-adv-x="574" 
d="M128 450v-450h-53v543h51l320 -451v451h53v-543h-50zM228 -286l35 209h75l-71 -209h-39z" />
    <glyph glyph-name="agrave.alt" horiz-adv-x="619" 
d="M539 0h-53v65q-78 -80 -189 -80q-108 0 -185 78t-77 187t77 187t185 78q111 0 189 -81v66h53v-500zM309 30q53 0 99.5 24t77.5 66v260q-31 41 -78 65.5t-99 24.5q-90 0 -153.5 -65t-63.5 -155q0 -91 63.5 -155.5t153.5 -64.5zM300 717l84 -122h-42l-120 122h78z" />
    <glyph glyph-name="aacute.alt" horiz-adv-x="619" 
d="M539 0h-53v65q-78 -80 -189 -80q-108 0 -185 78t-77 187t77 187t185 78q111 0 189 -81v66h53v-500zM309 30q53 0 99.5 24t77.5 66v260q-31 41 -78 65.5t-99 24.5q-90 0 -153.5 -65t-63.5 -155q0 -91 63.5 -155.5t153.5 -64.5zM235 595l84 122h78l-120 -122h-42z" />
    <glyph glyph-name="acircumflex.alt" horiz-adv-x="619" 
d="M539 0h-53v65q-78 -80 -189 -80q-108 0 -185 78t-77 187t77 187t185 78q111 0 189 -81v66h53v-500zM309 30q53 0 99.5 24t77.5 66v260q-31 41 -78 65.5t-99 24.5q-90 0 -153.5 -65t-63.5 -155q0 -91 63.5 -155.5t153.5 -64.5zM189 595l100 122h40l100 -122h-47l-74 68
l-74 -68h-45z" />
    <glyph glyph-name="afii10021small.alt" horiz-adv-x="581" 
d="M21 51h51l187 492h56l187 -492h50v-167h-53v116h-424v-116h-54v167zM288 476l-161 -425h320z" />
    <glyph glyph-name="uni0156small" horiz-adv-x="500" 
d="M129 220v-220h-54v543h195q88 0 135.5 -45t47.5 -117q0 -63 -40 -107t-110 -53l172 -221h-70l-169 220h-107zM272 492h-143v-221h143q61 0 94 30.5t33 79.5q0 51 -33 81t-94 30zM178 -286l35 209h75l-71 -209h-39z" />
    <glyph glyph-name="adieresis.alt" horiz-adv-x="619" 
d="M539 0h-53v65q-78 -80 -189 -80q-108 0 -185 78t-77 187t77 187t185 78q111 0 189 -81v66h53v-500zM309 30q53 0 99.5 24t77.5 66v260q-31 41 -78 65.5t-99 24.5q-90 0 -153.5 -65t-63.5 -155q0 -91 63.5 -155.5t153.5 -64.5zM348 635q0 18 12 30.5t30 12.5t30.5 -12.5
t12.5 -30.5t-12.5 -30t-30.5 -12t-30 12t-12 30zM185 635q0 18 12 30.5t30 12.5t30.5 -12.5t12.5 -30.5t-12.5 -30t-30.5 -12t-30 12t-12 30z" />
    <glyph glyph-name="aring.alt" horiz-adv-x="619" 
d="M539 0h-53v65q-78 -80 -189 -80q-108 0 -185 78t-77 187t77 187t185 78q111 0 189 -81v66h53v-500zM309 30q53 0 99.5 24t77.5 66v260q-31 41 -78 65.5t-99 24.5q-90 0 -153.5 -65t-63.5 -155q0 -91 63.5 -155.5t153.5 -64.5zM309 573q-39 0 -68.5 28t-29.5 67
q0 38 29.5 65.5t68.5 27.5t68.5 -28t29.5 -67q0 -38 -29.5 -65.5t-68.5 -27.5zM309 605q25 0 43.5 18.5t18.5 44.5q0 25 -18.5 43t-43.5 18q-26 0 -44 -18.5t-18 -44.5q0 -25 18.5 -43t43.5 -18z" />
    <glyph glyph-name="ae.alt" horiz-adv-x="1028" 
d="M760 -15q-142 0 -221 98v-83h-53v65q-78 -80 -189 -80q-108 0 -185 78t-77 187t77 187t185 78q111 0 189 -81v66h53v-92q35 50 88 78.5t115 28.5q123 0 189.5 -73.5t66.5 -171.5v-11h-458q-1 -4 -1 -13q0 -96 63.5 -153.5t157.5 -57.5q45 0 93.5 18.5t79.5 49.5l37 -38
q-37 -37 -95 -58.5t-115 -21.5zM309 30q53 0 99.5 24t77.5 66v260q-31 41 -78 65.5t-99 24.5q-90 0 -153.5 -65t-63.5 -155q0 -91 63.5 -155.5t153.5 -64.5zM942 307q-11 67 -62.5 112.5t-137.5 45.5q-71 0 -123.5 -43.5t-70.5 -114.5h394z" />
    <glyph glyph-name="afii10058.alt" horiz-adv-x="947" 
d="M357 700l115 -290h209q102 0 164 -58t62 -148q0 -91 -58.5 -147.5t-167.5 -56.5h-102l-254 639l-254 -639h-56l278 700h64zM683 358h-190l121 -306h69q81 0 124.5 41t43.5 111t-43.5 112t-124.5 42z" />
    <glyph glyph-name="afii10021.alt" horiz-adv-x="698" 
d="M71 0v-154h-56v206h63l239 648h64l239 -648h63v-206h-56v154h-556zM349 639l-215 -587h430z" />
    <glyph glyph-name="afii10029.alt" horiz-adv-x="650" 
d="M579 0l-254 639l-254 -639h-56l278 700h64l278 -700h-56z" />
    <glyph glyph-name="afii10069.alt" horiz-adv-x="575" 
d="M15 48h59l183 452h61l182 -452h60v-189h-53v141h-439v-141h-53v189zM288 435l-153 -387h306z" />
    <glyph glyph-name="afii10077.alt" horiz-adv-x="507" 
d="M10 0l213 500h61l213 -500h-59l-184 435l-183 -435h-61z" />
    <glyph glyph-name="afii10106.alt" horiz-adv-x="750" 
d="M10 0l213 500h61l82 -194h189q75 0 117.5 -46t42.5 -107t-42.5 -107t-117.5 -46h-117l-184 435l-183 -435h-61zM556 258h-169l89 -210h80q44 0 74 28.5t30 76.5t-30 76.5t-74 28.5z" />
    <glyph glyph-name="uni0136small" horiz-adv-x="515" 
d="M434 0l-305 282l289 261h71l-287 -261l308 -282h-76zM75 0v543h54v-543h-54zM198 -286l35 209h75l-71 -209h-39z" />
    <glyph glyph-name="amacron.alt" horiz-adv-x="619" 
d="M539 0h-53v64q-76 -79 -186 -79q-109 0 -187 78t-78 187t78 187t187 78t186 -80v65h53v-500zM300 30q53 0 103.5 25t82.5 66v258q-32 41 -82.5 66t-103.5 25q-89 0 -150.5 -65t-61.5 -155q0 -91 61.5 -155.5t150.5 -64.5zM150 600v53h300v-53h-300z" />
    <glyph glyph-name="aogonek.alt" horiz-adv-x="619" 
d="M539 500v-500q-73 -36 -73 -77q0 -25 21.5 -40.5t58.5 -15.5v-30q-54 0 -91 20.5t-37 63.5q0 49 68 79v64q-76 -79 -186 -79q-109 0 -187 78t-78 187t78 187t187 78t186 -80v65h53zM300 30q53 0 103.5 25t82.5 66v258q-32 41 -82.5 66t-103.5 25q-89 0 -150.5 -65
t-61.5 -155q0 -91 61.5 -155.5t150.5 -64.5z" />
    <glyph glyph-name="uni013Bsmall" horiz-adv-x="456" 
d="M75 0v543h54v-492h307v-51h-361zM208 -286l35 209h75l-71 -209h-39z" />
    <glyph glyph-name="afii10085.alt" horiz-adv-x="488" 
d="M493 500l-298 -704h-59l86 205l-212 499h61l180 -430l183 430h59z" />
    <glyph glyph-name="asmall.alt" horiz-adv-x="533" 
d="M295 543l223 -543h-55l-65 154h-264l-64 -154h-55l223 543h57zM267 476l-112 -271h224q-14 34 -52.5 126t-59.5 145z" />
    <glyph glyph-name="aacutesmall.alt" horiz-adv-x="533" 
d="M295 543l223 -543h-55l-65 154h-264l-64 -154h-55l223 543h57zM267 476l-112 -271h224zM219 603l73 104h76l-106 -104h-43z" />
    <glyph glyph-name="agravesmall.alt" horiz-adv-x="533" 
d="M295 543l223 -543h-55l-65 154h-264l-64 -154h-55l223 543h57zM267 476l-112 -271h224zM240 707l74 -104h-43l-107 104h76z" />
    <glyph glyph-name="acircumflexsmall.alt" horiz-adv-x="533" 
d="M295 543l223 -543h-55l-65 154h-264l-64 -154h-55l223 543h57zM267 476l-112 -271h224zM160 603l89 104h35l89 -104h-50l-57 50l-57 -50h-49z" />
    <glyph glyph-name="adieresissmall.alt" horiz-adv-x="533" 
d="M295 543l223 -543h-55l-65 154h-264l-64 -154h-55l223 543h57zM267 476l-112 -271h224q-14 34 -52.5 126t-59.5 145zM292 639q0 16 11.5 27t27.5 11t27 -11t11 -27t-11 -27t-27 -11q-17 0 -28 11t-11 27zM164 639q0 16 11 27t27 11t27.5 -11t11.5 -27t-11 -27t-28 -11
q-16 0 -27 10.5t-11 27.5z" />
    <glyph glyph-name="atildesmall.alt" horiz-adv-x="533" 
d="M295 543l223 -543h-55l-65 154h-264l-64 -154h-55l223 543h57zM267 476l-112 -271h224zM180 595l-36 9q13 46 29.5 63.5t43.5 17.5q13 0 55 -17q32 -14 45 -14q12 0 19.5 8t16.5 31l37 -9q-12 -46 -29 -63.5t-44 -17.5q-14 0 -55 16q-34 15 -45 15q-12 0 -19.5 -8.5
t-17.5 -30.5z" />
    <glyph glyph-name="aringsmall.alt" horiz-adv-x="533" 
d="M295 543l223 -543h-55l-65 154h-264l-64 -154h-55l223 543h57zM267 476l-112 -271h224zM267 586q-34 0 -58 22.5t-24 55.5q0 31 24 53.5t58 22.5q33 0 57 -22.5t24 -54.5t-24 -54.5t-57 -22.5zM267 622q17 0 30.5 12t13.5 30q0 16 -13.5 28t-30.5 12q-18 0 -31.5 -12
t-13.5 -29t13.5 -29t31.5 -12z" />
    <glyph glyph-name="amacronsmall.alt" horiz-adv-x="533" 
d="M295 543l223 -543h-55l-65 154h-264l-64 -154h-55l223 543h57zM267 476l-112 -271h224q-14 34 -52.5 126t-59.5 145zM117 600v53h300v-53h-300z" />
    <glyph glyph-name="aogoneksmall.alt" horiz-adv-x="534" 
d="M526 -163q-54 0 -91 20.5t-37 63.5q0 51 66 79l-65 154h-264l-64 -154h-55l223 543h57l223 -543q-73 -36 -73 -77q0 -25 21.5 -40.5t58.5 -15.5v-30zM268 476l-112 -271h224q-14 34 -52.5 126t-59.5 145z" />
    <glyph glyph-name="aesmall.alt" horiz-adv-x="788" 
d="M753 51v-51h-359v154h-224l-101 -154h-64l356 543h384v-51h-298v-184h275v-51h-275v-206h306zM204 205h190v289z" />
    <glyph glyph-name="afii10065small.alt" horiz-adv-x="533" 
d="M295 543l223 -543h-55l-65 154h-264l-64 -154h-55l223 543h57zM267 476l-112 -271h224q-14 34 -52.5 126t-59.5 145z" />
    <glyph glyph-name="ordfeminine.alt" horiz-adv-x="463" 
d="M411 321h-47v39q-56 -49 -128 -49q-79 0 -134 56t-55 136q0 79 55.5 135.5t133.5 56.5q72 0 128 -49v39h47v-364zM244 354q76 0 120 59v179q-46 60 -120 60q-61 0 -104.5 -44t-43.5 -105t43.5 -105t104.5 -44z" />
    <glyph glyph-name="atilde.alt" horiz-adv-x="619" 
d="M539 0h-53v65q-78 -80 -189 -80q-108 0 -185 78t-77 187t77 187t185 78q111 0 189 -81v66h53v-500zM309 30q53 0 99.5 24t77.5 66v260q-31 41 -78 65.5t-99 24.5q-90 0 -153.5 -65t-63.5 -155q0 -91 63.5 -155.5t153.5 -64.5zM195 586l-34 9q14 52 33.5 72.5t50.5 20.5
q19 0 65 -20.5t63 -20.5q18 0 28.5 10.5t21.5 39.5l34 -9q-14 -52 -33.5 -72.5t-50.5 -20.5q-19 0 -65 20.5t-63 20.5q-18 0 -28.5 -10.5t-21.5 -39.5z" />
    </font>
</defs>
</svg>
