<?xml version="1.0" standalone="no"?>
<!DOCTYPE svg PUBLIC "-//W3C//DTD SVG 1.1//EN" "http://www.w3.org/Graphics/SVG/1.1/DTD/svg11.dtd" >
<svg xmlns="http://www.w3.org/2000/svg" xmlns:xlink="http://www.w3.org/1999/xlink" version="1.1">
<metadata>
Created by FontForge 20150318 at Thu Jun  4 09:16:48 2015
 By uniteet7
Copyright (c) 2012 by Letterhead Studio Moscow. All rights reserved.
</metadata>
<defs>
<font id="RedRingBold" horiz-adv-x="619" >
  <font-face 
    font-family="RedRingBold"
    font-weight="700"
    font-stretch="normal"
    units-per-em="1000"
    panose-1="2 11 7 4 2 2 2 2 2 4"
    ascent="770"
    descent="-230"
    x-height="500"
    cap-height="700"
    bbox="-81 -315 1141 1002"
    underline-thickness="50"
    underline-position="-50"
    unicode-range="U+0020-FE69"
  />
<missing-glyph horiz-adv-x="135" 
 />
    <glyph glyph-name="fi" unicode="fi" horiz-adv-x="683" 
d="M483 0v377h-222v-377h-150v377h-96v123h96q0 101 53.5 158t127.5 57q69 0 122 -23v-115q-40 15 -86 15q-67 0 -67 -92h372v-500h-150zM479 631q0 32 23.5 55.5t55.5 23.5t56 -23.5t24 -55.5q0 -33 -23.5 -56.5t-56.5 -23.5q-32 0 -55.5 23.5t-23.5 56.5z" />
    <glyph glyph-name="fl" unicode="fl" horiz-adv-x="679" 
d="M261 500h218v210h150v-710h-150v377h-218v-377h-150v377h-96v123h96q0 101 53.5 158t127.5 57q69 0 122 -23v-115q-40 15 -86 15q-67 0 -67 -92z" />
    <glyph glyph-name=".notdef" horiz-adv-x="135" 
 />
    <glyph glyph-name=".null" horiz-adv-x="0" 
 />
    <glyph glyph-name="nonmarkingreturn" horiz-adv-x="333" 
 />
    <glyph glyph-name="space" unicode=" " horiz-adv-x="250" 
 />
    <glyph glyph-name="exclam" unicode="!" horiz-adv-x="313" 
d="M80 220l-43 480h216l-44 -480h-129zM55 79q0 38 26 64.5t64 26.5q37 0 64 -27t27 -64q0 -38 -26.5 -63.5t-64.5 -25.5t-64 25.5t-26 63.5z" />
    <glyph glyph-name="quotedbl" unicode="&#x22;" horiz-adv-x="371" 
d="M231 446l-14 254h131l-44 -254h-73zM37 446l-14 254h130l-43 -254h-73z" />
    <glyph glyph-name="numbersign" unicode="#" horiz-adv-x="701" 
d="M125 0l27 157h-102v106h119l32 177h-111v106h128l27 154h106l-27 -154h120l26 154h107l-27 -154h101v-106h-118l-31 -177h109v-106h-127l-26 -157h-108l27 157h-118l-27 -157h-107zM276 263h119l31 177h-118z" />
    <glyph glyph-name="dollar" unicode="$" horiz-adv-x="610" 
d="M251 -100v89q-118 15 -214 81l69 127q40 -27 98.5 -45t106.5 -18q98 0 98 72q0 25 -26 41.5t-64.5 25t-84 25t-84 38t-64.5 66.5t-26 109q0 76 50 131.5t141 68.5v89h126v-91q89 -16 172 -73l-70 -117q-82 56 -182 56q-36 0 -61.5 -16.5t-25.5 -47.5q0 -29 37.5 -47
t90.5 -31.5t106.5 -34t91 -69.5t37.5 -123q0 -73 -55.5 -133t-140.5 -79v-94h-126z" />
    <glyph glyph-name="percent" unicode="%" horiz-adv-x="742" 
d="M199 403q-67 0 -108 43t-41 105t41 105t108 43q66 0 107.5 -43t41.5 -105t-41.5 -105t-107.5 -43zM199 485q29 0 48 19t19 47q0 27 -19 46t-48 19t-47.5 -18.5t-18.5 -46.5t18.5 -47t47.5 -19zM169 0h-119l523 700h119zM543 0q-67 0 -108 42.5t-41 105.5q0 62 41 104.5
t108 42.5q66 0 107.5 -42.5t41.5 -104.5q0 -63 -41.5 -105.5t-107.5 -42.5zM543 82q29 0 48 19.5t19 46.5q0 28 -19 46.5t-48 18.5q-30 0 -48 -18.5t-18 -46.5q0 -27 18 -46.5t48 -19.5z" />
    <glyph glyph-name="ampersand" unicode="&#x26;" horiz-adv-x="733" 
d="M703 335q-96 -165 -120 -200l130 -135h-196l-44 45q-88 -60 -195 -60q-121 0 -184.5 58t-63.5 151q0 58 37 96.5t103 73.5q-79 90 -79 159q0 76 66.5 134t178.5 58q109 0 164.5 -53t55.5 -135q0 -65 -44.5 -107t-125.5 -80l97 -101q19 30 51 96h169zM300 100q45 0 88 34
l-132 139q-60 -39 -60 -87q0 -41 27.5 -63.5t76.5 -22.5zM240 522q0 -20 16 -42t49 -57q49 24 74.5 48t25.5 56t-21.5 49t-56.5 17q-40 0 -63.5 -19.5t-23.5 -51.5z" />
    <glyph glyph-name="quotesingle" unicode="'" horiz-adv-x="233" 
d="M71 446l-14 254h130l-43 -254h-73z" />
    <glyph glyph-name="parenleft" unicode="(" horiz-adv-x="419" 
d="M399 -88l-60 -84q-299 149 -299 469t299 469l60 -84q-216 -132 -216 -385q0 -110 50 -212.5t166 -172.5z" />
    <glyph glyph-name="parenright" unicode=")" horiz-adv-x="419" 
d="M80 -172l-60 84q216 131 216 385q0 253 -216 385l60 84q299 -149 299 -469t-299 -469z" />
    <glyph glyph-name="asterisk" unicode="*" horiz-adv-x="437" 
d="M164 332l28 141l-112 -92l-57 94l144 49l-144 50l57 93l112 -91l-28 141h108l-28 -141l114 91l56 -93l-143 -50l143 -49l-56 -93l-114 91l29 -141h-109z" />
    <glyph glyph-name="plus" unicode="+" horiz-adv-x="640" 
d="M262 24v206h-208v113h208v206h115v-206h208v-113h-208v-206h-115z" />
    <glyph glyph-name="comma" unicode="," horiz-adv-x="311" 
d="M47 -148l35 311h175l-108 -311h-102z" />
    <glyph glyph-name="hyphen" unicode="-" horiz-adv-x="384" 
d="M50 221v129h297v-129h-297z" />
    <glyph glyph-name="period" unicode="." horiz-adv-x="277" 
d="M60 79q0 38 26 64.5t63 26.5t64 -27t27 -64q0 -38 -26.5 -63.5t-64.5 -25.5t-63.5 25.5t-25.5 63.5z" />
    <glyph glyph-name="slash" unicode="/" horiz-adv-x="454" 
d="M119 -100h-119l334 850h120z" />
    <glyph glyph-name="zero" unicode="0" 
d="M570 350q0 -171 -69.5 -268t-191.5 -97t-191 97t-69 268q0 170 69.5 267.5t190.5 97.5q122 0 191.5 -97.5t69.5 -267.5zM221 350q0 -106 23 -164.5t65 -58.5q40 0 64.5 59.5t24.5 163.5t-24.5 163t-64.5 59q-42 0 -65 -58.5t-23 -163.5z" />
    <glyph glyph-name="one" unicode="1" 
d="M570 155v-155h-494v155h160v348l-120 -68l-67 119l275 156h85v-555h161z" />
    <glyph glyph-name="two" unicode="2" 
d="M132 500l-75 111q48 48 116.5 76t138.5 28q114 0 174 -61t60 -153q0 -81 -55.5 -153t-186.5 -192h256v-156h-496v130q44 42 94.5 88.5t76.5 70t55 52t42 43.5t25 34t15.5 34.5t3.5 35.5q0 31 -22.5 58t-63.5 27q-81 0 -158 -73z" />
    <glyph glyph-name="three" unicode="3" 
d="M284 127q37 0 58 24.5t21 63.5q0 35 -21.5 59t-44.5 24q-38 0 -89 -14l-28 107l73 19q44 11 83 36.5t39 60.5q0 31 -21 49.5t-54 18.5q-87 0 -166 -58l-64 113q110 85 234 85q113 0 169.5 -51t56.5 -130q0 -54 -33.5 -100t-95.5 -70q73 -17 109.5 -63t36.5 -109
q0 -89 -74.5 -148t-195.5 -59q-66 0 -114 19t-105 60l69 119q79 -56 157 -56z" />
    <glyph glyph-name="four" unicode="4" 
d="M489 0h-173v156h-280l-19 105l321 449h151v-435h110v-119h-110v-156zM316 506l-161 -231h161v231z" />
    <glyph glyph-name="five" unicode="5" 
d="M246 543l-16 -120q45 23 115 23q97 0 153 -62.5t56 -153.5q0 -98 -69 -171.5t-197 -73.5q-66 0 -116.5 19.5t-106.5 59.5l69 119q77 -56 154 -56q41 0 68 27t27 76q0 43 -24 68t-65 25q-55 0 -105 -26l-99 36l47 367h396v-157h-287z" />
    <glyph glyph-name="six" unicode="6" 
d="M546 642l-62 -108q-63 52 -129 52q-132 0 -132 -163q53 46 140 46t147 -63t60 -163q0 -123 -71.5 -190.5t-189.5 -67.5q-260 0 -260 359q0 180 69.5 275.5t210.5 95.5q113 0 217 -73zM222 281q0 -154 96 -154q35 0 62 29t27 82q0 51 -23.5 80t-58.5 29q-79 0 -103 -66z
" />
    <glyph glyph-name="seven" unicode="7" 
d="M559 569l-231 -569h-186l227 536h-315v164h505v-131z" />
    <glyph glyph-name="eight" unicode="8" 
d="M554 521q0 -123 -112 -170q60 -28 94 -68.5t34 -108.5q0 -90 -68.5 -139.5t-192.5 -49.5q-123 0 -191.5 49.5t-68.5 139.5q0 69 34 109.5t94 67.5q-109 49 -109 170q0 81 65 137.5t176 56.5q114 0 179.5 -56.5t65.5 -137.5zM398 209q0 39 -23 61.5t-66 40.5
q-43 -17 -65.5 -40t-22.5 -62q0 -40 22.5 -64t65.5 -24q44 0 66.5 24t22.5 64zM231 499q0 -34 20 -56t58 -41q38 19 58 41t20 56q0 35 -21 57t-57 22t-57 -22t-21 -57z" />
    <glyph glyph-name="nine" unicode="9" 
d="M73 58l62 108q63 -52 129 -52q132 0 132 163q-53 -46 -140 -46t-147 63t-60 163q0 123 71.5 190.5t189.5 67.5q260 0 260 -359q0 -180 -69.5 -275.5t-210.5 -95.5q-113 0 -217 73zM397 419q0 154 -96 154q-35 0 -62 -29t-27 -82q0 -51 23.5 -80t58.5 -29q79 0 103 66z
" />
    <glyph glyph-name="colon" unicode=":" horiz-adv-x="300" 
d="M60 412q0 38 26 64.5t63 26.5t64 -26.5t27 -64.5t-26.5 -64t-64.5 -26t-63.5 26t-25.5 64zM60 79q0 38 26 64.5t63 26.5t64 -27t27 -64q0 -38 -26.5 -63.5t-64.5 -25.5t-63.5 25.5t-25.5 63.5z" />
    <glyph glyph-name="semicolon" unicode=";" horiz-adv-x="310" 
d="M80 412q0 38 25.5 64.5t63.5 26.5q37 0 64 -26.5t27 -64.5t-26.5 -64t-64.5 -26t-63.5 26t-25.5 64zM47 -148l35 311h175l-108 -311h-102z" />
    <glyph glyph-name="less" unicode="&#x3c;" horiz-adv-x="630" 
d="M574 5l-519 213v111l519 214v-115l-385 -154l385 -154v-115z" />
    <glyph glyph-name="equal" unicode="=" horiz-adv-x="630" 
d="M50 344v113h530v-113h-530zM50 108v113h530v-113h-530z" />
    <glyph glyph-name="greater" unicode="&#x3e;" horiz-adv-x="640" 
d="M60 5v115l385 153l-385 155v115l519 -214v-111z" />
    <glyph glyph-name="question" unicode="?" horiz-adv-x="561" 
d="M521 533q0 -43 -19.5 -77.5t-48 -58.5l-57 -48t-50.5 -56.5t-26 -72.5h-129q0 38 4 62q4 47 21 80.5t39 51.5t43 32.5t35.5 32t14.5 40.5q0 33 -24 50t-64 17q-81 0 -154 -70l-66 110q102 89 239 89q112 0 177 -50.5t65 -131.5zM165 79q0 38 26 64.5t63 26.5
q38 0 64.5 -27t26.5 -64q0 -38 -26.5 -63.5t-64.5 -25.5t-63.5 25.5t-25.5 63.5z" />
    <glyph glyph-name="at" unicode="@" horiz-adv-x="994" 
d="M680 0h-91v58q-20 -32 -57 -51t-76 -19q-98 0 -156.5 68.5t-58.5 170.5t58.5 171t156.5 69q39 0 76 -20t57 -53v59h138v-355q55 16 86 73.5t31 125.5q0 57 -18 104.5t-56.5 87.5t-107.5 62.5t-164 22.5q-154 0 -253.5 -100t-99.5 -245q0 -143 102 -229t273 -86v-94
q-210 0 -340 113.5t-130 295.5q0 185 126 312t322 127q111 0 198.5 -30.5t140.5 -82.5t80 -116t27 -136q0 -127 -76 -215t-188 -88zM499 114q53 0 90 44v137q-36 44 -90 44q-46 0 -79.5 -33.5t-33.5 -78.5q0 -46 33.5 -79.5t79.5 -33.5z" />
    <glyph glyph-name="A" unicode="A" horiz-adv-x="711" 
d="M455 700l248 -700h-173l-43 119h-263l-42 -119h-174l249 700h198zM355 495l-85 -239h171z" />
    <glyph glyph-name="B" unicode="B" horiz-adv-x="649" 
d="M582 527q0 -51 -29.5 -94.5t-76.5 -66.5q59 -22 96 -70t37 -108q0 -79 -58.5 -133.5t-146.5 -54.5h-337v700h260q30 0 84 -4q74 -5 122.5 -53.5t48.5 -115.5zM239 132h112q35 0 60 23.5t25 57.5t-25 57.5t-60 23.5h-112v-162zM421 493q0 31 -23.5 52.5t-54.5 21.5h-104
v-150h104q31 0 54.5 22t23.5 54z" />
    <glyph glyph-name="C" unicode="C" horiz-adv-x="691" 
d="M421 145q109 0 191 56l69 -138q-111 -78 -260 -78q-170 0 -270.5 103.5t-100.5 261.5q0 157 100.5 261t270.5 104q148 0 260 -79l-69 -138q-82 56 -191 56q-88 0 -142.5 -59.5t-54.5 -144.5t54.5 -145t142.5 -60z" />
    <glyph glyph-name="D" unicode="D" horiz-adv-x="737" 
d="M239 171h104q85 0 134.5 49t49.5 128q0 80 -49.5 130t-134.5 50h-104v-357zM343 0h-276v700h276q165 0 261 -99t96 -251q0 -153 -96 -251.5t-261 -98.5z" />
    <glyph glyph-name="E" unicode="E" horiz-adv-x="594" 
d="M554 151v-151h-487v700h484v-152h-312v-121h251v-144h-251v-132h315z" />
    <glyph glyph-name="F" unicode="F" horiz-adv-x="584" 
d="M516 409v-156h-277v-253h-172v700h484v-156h-312v-135h277z" />
    <glyph glyph-name="G" unicode="G" horiz-adv-x="732" 
d="M343 267v119h339v-315q-126 -86 -274 -86q-170 0 -270.5 103.5t-100.5 261.5q0 157 100.5 261t270.5 104q133 0 245 -67l-67 -139q-75 43 -169 43t-150 -56.5t-56 -145.5q0 -85 54.5 -145t142.5 -60q56 0 102 24v98h-167z" />
    <glyph glyph-name="H" unicode="H" horiz-adv-x="735" 
d="M495 0v283h-256v-283h-172v700h172v-261h256v261h173v-700h-173z" />
    <glyph glyph-name="I" unicode="I" horiz-adv-x="306" 
d="M67 0v700h172v-700h-172z" />
    <glyph glyph-name="J" unicode="J" horiz-adv-x="486" 
d="M246 214v486h173v-465q0 -250 -204 -250q-122 0 -212 75l69 115q55 -41 106 -41q32 0 50 22.5t18 57.5z" />
    <glyph glyph-name="K" unicode="K" horiz-adv-x="712" 
d="M486 0l-242 356l232 344h199l-239 -344l265 -356h-215zM67 0v700h172v-700h-172z" />
    <glyph glyph-name="L" unicode="L" horiz-adv-x="565" 
d="M67 0v700h172v-545h306v-155h-478z" />
    <glyph glyph-name="M" unicode="M" horiz-adv-x="845" 
d="M234 699l188 -303l188 303h168v-699h-158v459l-166 -271h-64l-165 271v-459h-158v699h167z" />
    <glyph glyph-name="N" unicode="N" horiz-adv-x="739" 
d="M239 410v-410h-172v700h172l260 -412v412h173v-700h-173z" />
    <glyph glyph-name="O" unicode="O" horiz-adv-x="816" 
d="M408 547q-89 0 -144 -56.5t-55 -140.5q0 -86 55 -142t144 -56t144 56t55 142q0 84 -55 140.5t-144 56.5zM408 -15q-170 0 -270.5 103.5t-100.5 261.5q0 157 100.5 261t270.5 104t270.5 -104t100.5 -261q0 -158 -100.5 -261.5t-270.5 -103.5z" />
    <glyph glyph-name="P" unicode="P" horiz-adv-x="643" 
d="M239 219v-219h-172v700h299q108 0 177.5 -70t69.5 -172q0 -101 -70.5 -170t-176.5 -69h-127zM351 544h-112v-170h112q40 0 64.5 24t24.5 61t-24.5 61t-64.5 24z" />
    <glyph glyph-name="Q" unicode="Q" horiz-adv-x="816" 
d="M607 350q0 84 -55 140.5t-144 56.5t-144 -56.5t-55 -140.5q0 -86 55 -142t144 -56t144 56t55 142zM820 53l-110 -131l-124 101q-84 -38 -178 -38q-170 0 -270.5 103.5t-100.5 261.5q0 157 100.5 261t270.5 104t270.5 -104t100.5 -261q0 -123 -63 -211z" />
    <glyph glyph-name="R" unicode="R" horiz-adv-x="654" 
d="M239 219v-219h-172v700h299q108 0 176.5 -70t68.5 -173q0 -71 -38.5 -128.5t-103.5 -84.5l150 -244h-177l-136 219h-67zM351 544h-112v-170h112q40 0 64.5 24t24.5 61t-24.5 61t-64.5 24z" />
    <glyph glyph-name="S" unicode="S" horiz-adv-x="608" 
d="M410 206q0 25 -26 41.5t-65.5 25t-85 25t-85 38t-65.5 66.5t-26 109q0 88 64.5 146t180.5 58q134 0 246 -79l-70 -117q-82 56 -184 56q-37 0 -62.5 -16.5t-25.5 -47.5q0 -22 20.5 -37t53 -24.5t71.5 -19.5t78.5 -26t72 -39t53 -63.5t20.5 -95.5q0 -88 -81.5 -154.5
t-193.5 -66.5q-144 0 -267 85l69 127q39 -27 98 -45t107 -18q46 0 74.5 19.5t28.5 52.5z" />
    <glyph glyph-name="T" unicode="T" horiz-adv-x="616" 
d="M593 700v-156h-199v-544h-173v544h-198v156h570z" />
    <glyph glyph-name="U" unicode="U" horiz-adv-x="718" 
d="M359 -15q-138 0 -219 83.5t-81 211.5v420h172v-428q0 -53 36.5 -90.5t91.5 -37.5t91.5 37.5t36.5 90.5v428h172v-420q0 -128 -81 -211.5t-219 -83.5z" />
    <glyph glyph-name="V" unicode="V" horiz-adv-x="711" 
d="M257 0l-249 700h181l166 -489l168 489h180l-248 -700h-198z" />
    <glyph glyph-name="W" unicode="W" horiz-adv-x="1046" 
d="M606 700l128 -423l124 423h180l-212 -700h-174l-129 425l-129 -425h-174l-212 700h181l123 -423l128 423h166z" />
    <glyph glyph-name="X" unicode="X" horiz-adv-x="746" 
d="M523 0l-150 209l-150 -209h-210l255 357l-245 343h210l140 -196l140 196h210l-246 -343l256 -357h-210z" />
    <glyph glyph-name="Y" unicode="Y" horiz-adv-x="722" 
d="M5 700h192l164 -295l164 295h192l-270 -459v-241h-172v241z" />
    <glyph glyph-name="Z" unicode="Z" horiz-adv-x="616" 
d="M572 700v-120l-306 -425h320v-155h-556v119l306 425h-296v156h532z" />
    <glyph glyph-name="bracketleft" unicode="[" horiz-adv-x="348" 
d="M49 -175v934h279v-116h-137v-702h137v-116h-279z" />
    <glyph glyph-name="backslash" unicode="\" horiz-adv-x="454" 
d="M454 -100h-120l-334 850h119z" />
    <glyph glyph-name="bracketright" unicode="]" horiz-adv-x="338" 
d="M298 759v-934h-278v116h137v702h-137v116h278z" />
    <glyph glyph-name="asciicircum" unicode="^" horiz-adv-x="561" 
d="M35 383l202 320h88l201 -320h-132l-114 182l-114 -182h-131z" />
    <glyph glyph-name="underscore" unicode="_" horiz-adv-x="745" 
d="M50 -192v117h665v-117h-665z" />
    <glyph glyph-name="grave" unicode="`" horiz-adv-x="500" 
d="M242 573l-160 184h172l95 -184h-107z" />
    <glyph glyph-name="a" unicode="a" horiz-adv-x="577" 
d="M203 -15q-80 0 -126 36.5t-46 105.5q0 51 26 86t76 52.5t107.5 24t136.5 6.5v25q0 80 -95 80q-38 0 -82.5 -14.5t-77.5 -38.5l-73 86q96 81 239 81q113 0 176 -43.5t63 -128.5v-343h-150v73q-38 -44 -84.5 -66t-89.5 -22zM262 89q63 0 115 73v60q-42 -1 -65 -3t-54.5 -9
t-46.5 -24t-15 -43q0 -25 18 -39.5t48 -14.5z" />
    <glyph glyph-name="b" unicode="b" horiz-adv-x="612" 
d="M346 -15q-44 0 -84 21.5t-62 58.5v-65h-150v710h150v-276q22 37 62 58.5t84 21.5q107 0 171 -76.5t64 -187.5q0 -113 -64.5 -189t-170.5 -76zM299 374q-59 0 -99 -50v-150q39 -49 99 -49q51 0 87 36.5t36 88.5q0 50 -36.5 87t-86.5 37z" />
    <glyph glyph-name="c" unicode="c" horiz-adv-x="511" 
d="M174 250q0 -53 37 -88.5t91 -35.5q69 0 129 40l66 -109q-77 -72 -203 -72q-110 0 -186.5 78t-76.5 187q0 108 77 186.5t186 78.5q125 0 203 -73l-66 -109q-62 40 -129 40q-52 0 -90 -35.5t-38 -87.5z" />
    <glyph glyph-name="d" unicode="d" horiz-adv-x="611" 
d="M561 0h-150v65q-22 -36 -62 -58t-83 -22q-107 0 -171 76t-64 189q0 112 64 188.5t171 76.5q43 0 83 -22t62 -59v276h150v-710zM313 125q60 0 98 49v151q-38 49 -98 49q-51 0 -87.5 -37t-36.5 -87q0 -52 36.5 -88.5t87.5 -36.5z" />
    <glyph glyph-name="e" unicode="e" horiz-adv-x="581" 
d="M550 255q0 -26 -4 -46h-363q31 -104 137 -104q80 0 141 40l50 -90q-80 -70 -213 -70q-111 0 -189 75.5t-78 185.5q0 111 76.5 190t185.5 79q117 0 187 -69.5t70 -190.5zM410 301q-9 43 -39.5 68t-77.5 25q-42 0 -73.5 -24.5t-41.5 -68.5h232z" />
    <glyph glyph-name="f" unicode="f" horiz-adv-x="426" 
d="M328 592q-24 0 -45.5 -21t-21.5 -71h152v-123h-152v-377h-151v377h-95v123h95q0 102 53 158.5t129 56.5q68 0 121 -23v-115q-38 15 -85 15z" />
    <glyph glyph-name="g" unicode="g" horiz-adv-x="611" 
d="M561 500v-492q0 -62 -22.5 -107.5t-61 -70t-81.5 -36t-92 -11.5q-126 0 -231 68l50 94q86 -48 177 -48q46 0 78.5 29t32.5 82v57q-22 -36 -62 -58t-83 -22q-107 0 -171 76t-64 189q0 112 64 188.5t171 76.5q43 0 83 -22t62 -59v66h150zM313 125q60 0 98 49v151
q-38 49 -98 49q-51 0 -87.5 -37t-36.5 -87q0 -52 36.5 -88.5t87.5 -36.5z" />
    <glyph glyph-name="h" unicode="h" horiz-adv-x="609" 
d="M409 0v267q0 48 -21.5 75.5t-63.5 27.5q-31 0 -68 -27t-56 -67v-276h-150v710h150v-281q66 83 181 83q81 0 129.5 -56t48.5 -145v-311h-150z" />
    <glyph glyph-name="i" unicode="i" horiz-adv-x="250" 
d="M50 0v500h150v-500h-150zM45 631q0 32 24 55.5t56 23.5t55.5 -23.5t23.5 -55.5q0 -33 -23.5 -56.5t-55.5 -23.5q-33 0 -56.5 23.5t-23.5 56.5z" />
    <glyph glyph-name="j" unicode="j" horiz-adv-x="250" 
d="M50 -204v704h150v-704h-150zM45 631q0 32 24 55.5t56 23.5t55.5 -23.5t23.5 -55.5q0 -33 -23.5 -56.5t-55.5 -23.5q-33 0 -56.5 23.5t-23.5 56.5z" />
    <glyph glyph-name="k" unicode="k" horiz-adv-x="569" 
d="M392 0l-182 264l175 236h164l-175 -236l185 -264h-167zM50 710h150v-710h-150v710z" />
    <glyph glyph-name="l" unicode="l" horiz-adv-x="250" 
d="M50 710h150v-710h-150v710z" />
    <glyph glyph-name="m" unicode="m" horiz-adv-x="874" 
d="M512 0h-150v267q0 39 -15 72.5t-50 33.5q-31 0 -58 -24t-39 -65v-284h-150v500h150v-67q55 77 145 77q112 0 149 -93q55 95 170 95q78 0 119 -55t41 -146v-311h-150v267q0 23 -5 45t-20.5 41.5t-39.5 19.5q-31 0 -58 -24t-39 -65v-284z" />
    <glyph glyph-name="n" unicode="n" horiz-adv-x="609" 
d="M409 0v267q0 48 -21.5 75.5t-63.5 27.5q-31 0 -68 -27t-56 -67v-276h-150v500h150v-71q66 83 181 83q81 0 129.5 -56t48.5 -145v-311h-150z" />
    <glyph glyph-name="o" unicode="o" horiz-adv-x="592" 
d="M296 124q51 0 86.5 36.5t35.5 89.5q0 51 -35.5 88t-86.5 37t-86.5 -37t-35.5 -88q0 -53 35 -89.5t87 -36.5zM296 -15q-112 0 -188.5 77.5t-76.5 187.5t76.5 187.5t188.5 77.5t188.5 -77.5t76.5 -187.5t-76.5 -187.5t-188.5 -77.5z" />
    <glyph glyph-name="p" unicode="p" horiz-adv-x="612" 
d="M346 -15q-44 0 -84 21.5t-62 58.5v-269h-150v704h150v-66q24 37 64.5 57.5t87.5 20.5q104 0 166.5 -76t62.5 -186q0 -113 -64.5 -189t-170.5 -76zM299 374q-60 0 -99 -49v-151q39 -49 99 -49q50 0 86.5 37t36.5 88t-36.5 87.5t-86.5 36.5z" />
    <glyph glyph-name="q" unicode="q" horiz-adv-x="611" 
d="M561 -204h-150v269q-22 -36 -62 -58t-83 -22q-108 0 -171.5 76.5t-63.5 188.5t64 188.5t171 76.5q43 0 83 -22t62 -59v66h150v-704zM313 125q60 0 98 49v151q-38 49 -98 49q-51 0 -87.5 -36.5t-36.5 -87.5t36.5 -88t87.5 -37z" />
    <glyph glyph-name="r" unicode="r" horiz-adv-x="375" 
d="M360 512v-140q-56 0 -100 -28t-60 -83v-261h-150v500h150v-93q66 105 160 105z" />
    <glyph glyph-name="s" unicode="s" horiz-adv-x="496" 
d="M330 146q0 18 -21 28.5t-52 14.5t-67.5 14t-67.5 24t-52 47.5t-21 82.5q0 69 54.5 113.5t155.5 44.5q114 0 199 -75l-63 -89q-63 52 -136 52q-34 0 -54.5 -12t-20.5 -33t29.5 -33t71 -20t83.5 -21t71.5 -45.5t29.5 -83.5q0 -82 -58 -126t-158 -44q-132 0 -226 80l61 93
q84 -63 165 -63q34 0 55.5 14t21.5 37z" />
    <glyph glyph-name="t" unicode="t" horiz-adv-x="431" 
d="M256 377v-190q0 -38 19 -56.5t49 -18.5q45 0 85 15v-115q-52 -22 -136 -22q-167 0 -167 176v211h-95v123h95v117h150v-117h153v-123h-153z" />
    <glyph glyph-name="u" unicode="u" horiz-adv-x="609" 
d="M200 500v-268q0 -47 21.5 -75t63.5 -28q31 0 68 27t56 67v277h150v-500h-150v70q-66 -81 -181 -81q-81 0 -129.5 55t-48.5 145v311h150z" />
    <glyph glyph-name="v" unicode="v" horiz-adv-x="602" 
d="M218 0l-211 500h164l130 -327l131 327h163l-211 -500h-166z" />
    <glyph glyph-name="w" unicode="w" horiz-adv-x="826" 
d="M483 500l94 -286l90 286h152l-165 -500h-146l-95 287l-95 -287h-146l-165 500h152l90 -286l94 286h140z" />
    <glyph glyph-name="x" unicode="x" horiz-adv-x="601" 
d="M399 0l-99 152l-99 -152h-190l187 253l-181 247h191l92 -153l93 153h190l-195 -247l202 -253h-191z" />
    <glyph glyph-name="y" unicode="y" horiz-adv-x="601" 
d="M594 500l-310 -704h-151l86 205l-212 499h164l126 -315l134 315h163z" />
    <glyph glyph-name="z" unicode="z" horiz-adv-x="537" 
d="M260 129h247v-129h-477v95l234 275h-226v130h458v-96z" />
    <glyph glyph-name="braceleft" unicode="{" horiz-adv-x="432" 
d="M417 -86l-18 -101q-106 21 -161 50t-73 68t-18 106v44q0 36 -2.5 60.5t-9 49t-21.5 37t-38 12.5h-36v99h36q34 0 52.5 24.5t18.5 67.5v134q0 87 50.5 129.5t201.5 72.5l18 -100q-88 -28 -107 -48.5t-19 -80.5v-112q0 -99 -102 -136q102 -37 102 -137v-125q0 -49 21 -68.5
t105 -45.5z" />
    <glyph glyph-name="bar" unicode="|" horiz-adv-x="313" 
d="M90 -128v886h133v-886h-133z" />
    <glyph glyph-name="braceright" unicode="}" horiz-adv-x="432" 
d="M33 -187l-18 101q88 27 107 47.5t19 79.5v112q0 100 102 137q-102 37 -102 136v126q0 50 -20.5 69t-105.5 46l18 100q151 -30 201.5 -72.5t50.5 -129.5v-134q0 -43 19.5 -67.5t51.5 -24.5h36v-99h-36q-41 0 -56 -32t-15 -94v-89q0 -63 -19 -99.5t-73.5 -64t-159.5 -48.5z
" />
    <glyph glyph-name="asciitilde" unicode="~" horiz-adv-x="640" 
d="M55 226v114q58 53 127 53q47 0 138.5 -34t137.5 -34q69 0 127 55v-114q-59 -56 -129 -56q-48 0 -139 34t-137 34q-69 0 -125 -52z" />
    <glyph glyph-name="uni00A0" unicode="&#xa0;" horiz-adv-x="250" 
 />
    <glyph glyph-name="exclamdown" unicode="&#xa1;" horiz-adv-x="336" 
d="M78 567q0 38 26 64t64 26t64.5 -26t26.5 -64q0 -37 -26.5 -64t-64.5 -27t-64 26.5t-26 64.5zM60 -52l43 478h129l44 -478h-216z" />
    <glyph glyph-name="cent" unicode="&#xa2;" 
d="M191 -6l25 126q-64 34 -102 97t-38 137q0 101 68.5 178.5t169.5 87.5l17 86h130l-19 -98q54 -17 101 -59l-67 -109q-62 40 -129 40q-52 0 -90 -37t-38 -89q0 -53 37 -88t91 -35q68 0 129 39l67 -109q-78 -72 -203 -72l-19 -95h-130z" />
    <glyph glyph-name="sterling" unicode="&#xa3;" 
d="M570 0h-448v323h-72v119h72v52q0 112 59.5 169t166.5 57q117 0 219 -77l-48 -94q-81 47 -157 47q-42 0 -69.5 -27.5t-27.5 -73.5v-53h217v-119h-217v-191h305v-132z" />
    <glyph glyph-name="yen" unicode="&#xa5;" 
d="M5 700h192l112 -317l113 317h192l-166 -343h140v-100h-188l-4 -17v-37h192v-99h-192v-104h-173v104h-191v99h191v37l-4 17h-187v100h139z" />
    <glyph glyph-name="brokenbar" unicode="&#xa6;" horiz-adv-x="313" 
d="M90 -128v358h133v-358h-133zM90 400v358h133v-358h-133z" />
    <glyph glyph-name="section" unicode="&#xa7;" 
d="M578 328q0 -86 -91 -131q30 -35 30 -83q0 -62 -57 -111.5t-165 -49.5q-110 0 -196 51l30 102q79 -42 168 -42q29 0 45 12.5t16 33.5q0 19 -20 31.5t-73 21.5q-34 6 -53.5 10.5t-50 13.5t-48.5 20.5t-36.5 28.5t-27 41t-8.5 55q0 87 91 130q-29 35 -29 86q0 62 55.5 110.5
t161.5 48.5q110 0 195 -52l-30 -102q-82 41 -167 41q-26 0 -41.5 -13t-15.5 -32q0 -20 20 -32t74 -21q35 -6 53.5 -10.5t49.5 -13t48.5 -20t36 -28.5t27 -41t8.5 -55zM420 328q0 11 -9 20t-27 15.5t-31 10.5t-36.5 9t-28.5 6q-40 -1 -64 -17.5t-24 -39.5q0 -39 132 -62
q88 3 88 58z" />
    <glyph glyph-name="dieresis" unicode="&#xa8;" horiz-adv-x="560" 
d="M321 635q0 32 21 54t53 22t54 -22t22 -54t-22 -53.5t-54 -21.5t-53 21.5t-21 53.5zM106 635q0 32 21.5 54t53.5 22q31 0 53 -22t22 -54t-21.5 -53.5t-53.5 -21.5t-53.5 21.5t-21.5 53.5z" />
    <glyph glyph-name="copyright" unicode="&#xa9;" horiz-adv-x="822" 
d="M310 355q0 -47 30.5 -80.5t74.5 -33.5t86 38l64 -64q-37 -35 -71 -50.5t-80 -15.5q-84 0 -141.5 60.5t-57.5 145.5t57.5 145t141.5 60q46 0 80 -15.5t71 -50.5l-64 -64q-42 38 -86 38q-43 0 -74 -33t-31 -80zM411 715q151 0 256 -108t105 -257t-105 -257t-256 -108
t-256 108t-105 257t105 257t256 108zM411 51q125 0 209 87.5t84 211.5q0 123 -84 210.5t-209 87.5t-209.5 -87.5t-84.5 -210.5q0 -124 84.5 -211.5t209.5 -87.5z" />
    <glyph glyph-name="ordfeminine" unicode="&#xaa;" horiz-adv-x="459" 
d="M175 316q-58 0 -91.5 26.5t-33.5 75.5q0 37 19.5 62.5t56 38.5t77.5 18t95 5v15q0 56 -66 56q-64 0 -115 -38l-54 64q70 58 177 58q80 0 124.5 -31.5t44.5 -92.5v-247h-111v51q-52 -61 -123 -61zM218 394q44 0 80 51v40q-127 0 -127 -54q0 -37 47 -37z" />
    <glyph glyph-name="guillemotleft" unicode="&#xab;" horiz-adv-x="560" 
d="M476 13l-210 212v20l210 212l59 -54l-122 -167l122 -169zM246 13l-211 212v20l211 212l59 -54l-123 -167l123 -169z" />
    <glyph glyph-name="logicalnot" unicode="&#xac;" horiz-adv-x="469" 
d="M50 221v124h369v-253h-88v129h-281z" />
    <glyph glyph-name="uni00AD" unicode="&#xad;" horiz-adv-x="384" 
d="M50 221v129h297v-129h-297z" />
    <glyph glyph-name="registered" unicode="&#xae;" horiz-adv-x="822" 
d="M411 715q151 0 256 -108t105 -257t-105 -257t-256 -108t-256 108t-105 257t105 257t256 108zM411 51q125 0 209 87.5t84 211.5q0 123 -84 210.5t-209 87.5t-209.5 -87.5t-84.5 -210.5q0 -124 84.5 -211.5t209.5 -87.5zM374 280v-120h-99v387h166q60 0 100 -39t40 -95
q0 -40 -22.5 -72t-59.5 -47l82 -134h-101l-74 120h-32zM433 459h-59v-90h59q22 0 35.5 13t13.5 31q0 19 -13.5 32.5t-35.5 13.5z" />
    <glyph glyph-name="macron" unicode="&#xaf;" horiz-adv-x="500" 
d="M85 578v96h329v-96h-329z" />
    <glyph glyph-name="degree" unicode="&#xb0;" horiz-adv-x="430" 
d="M215 398q-65 0 -115 48t-50 112q0 63 50 111t115 48t115 -48t50 -111q0 -64 -50 -112t-115 -48zM215 484q31 0 52 22t21 52q0 29 -21 51.5t-52 22.5t-52 -22.5t-21 -51.5q0 -30 21 -52t52 -22z" />
    <glyph glyph-name="plusminus" unicode="&#xb1;" horiz-adv-x="640" 
d="M262 139v149h-208v112h208v149h115v-149h208v-112h-208v-149h-115zM578 0h-520v112h520v-112z" />
    <glyph glyph-name="twosuperior" unicode="&#xb2;" horiz-adv-x="379" 
d="M95 596l-45 63q27 27 66 43t77 16q63 0 96.5 -34t33.5 -83q0 -76 -128 -185h134v-89h-274v73q22 21 50 46.5t41 37.5t29.5 28t23 24.5t13.5 19t9 19t2 18.5q0 16 -11 29.5t-32 13.5q-44 0 -85 -40z" />
    <glyph glyph-name="threesuperior" unicode="&#xb3;" horiz-adv-x="370" 
d="M176 401q17 0 29 16t12 33q0 21 -11.5 30t-23.5 9q-16 0 -50 -9l-16 61q5 1 17.5 4.5t20 6l19.5 6.5t19 8t14.5 10t11 13.5t3.5 15.5q0 15 -10 24t-27 9q-46 0 -89 -32l-39 64q59 48 131 48q63 0 93.5 -27.5t30.5 -71.5q0 -62 -68 -93q77 -21 77 -93q0 -48 -40.5 -80.5
t-107.5 -32.5q-60 0 -122 44l40 68q39 -31 86 -31z" />
    <glyph glyph-name="acute" unicode="&#xb4;" horiz-adv-x="500" 
d="M368 757l-160 -184h-107l95 184h172z" />
    <glyph glyph-name="mu" unicode="&#xb5;" 
d="M10 215h68v48h-68v111h68v326h254q113 0 190 -61t77 -162q0 -99 -79 -156.5t-187 -57.5h-82v-48h200v-111h-200v-104h-173v104h-68v111zM336 544h-85v-170h85q41 0 65.5 24t24.5 61t-24.5 61t-65.5 24z" />
    <glyph glyph-name="paragraph" unicode="&#xb6;" horiz-adv-x="677" 
d="M510 575h-68v-736h-112v394h-6q-116 0 -195 66t-79 167q0 100 73 167t186 67h298v-861h-97v736z" />
    <glyph glyph-name="periodcentered" unicode="&#xb7;" horiz-adv-x="301" 
d="M60 335q0 38 26 64.5t64 26.5t64.5 -27t26.5 -64q0 -38 -26.5 -64t-64.5 -26t-64 26t-26 64z" />
    <glyph glyph-name="cedilla" unicode="&#xb8;" horiz-adv-x="500" 
d="M311 9l-46 -67q15 4 32 4q33 0 55 -19.5t22 -51.5q0 -41 -36 -68.5t-100 -27.5q-67 0 -117 22l18 51q32 -12 80 -12q23 0 38.5 9t15.5 24q0 13 -10 20.5t-25 7.5q-13 0 -33 -6l-35 28l54 86h87z" />
    <glyph glyph-name="onesuperior" unicode="&#xb9;" horiz-adv-x="388" 
d="M338 431v-89h-273v89h87v182l-62 -36l-40 67l152 87h50v-300h86z" />
    <glyph glyph-name="ordmasculine" unicode="&#xba;" horiz-adv-x="481" 
d="M240 419q36 0 61 25.5t25 62.5q0 36 -25 61.5t-61 25.5t-61 -25.5t-25 -61.5q0 -37 25 -62.5t61 -25.5zM240 316q-80 0 -135 56t-55 135t55 135t135 56q81 0 136 -56t55 -135t-55 -135t-136 -56z" />
    <glyph glyph-name="guillemotright" unicode="&#xbb;" horiz-adv-x="560" 
d="M295 225l-211 -212l-59 54l123 169l-123 167l59 54l211 -212v-20zM525 225l-211 -212l-58 54l122 169l-122 167l58 54l211 -212v-20z" />
    <glyph glyph-name="onequarter" unicode="&#xbc;" horiz-adv-x="897" 
d="M338 417v-89h-274v89h87v181l-62 -36l-39 68l150 86h52v-299h86zM787 0h-99v83h-151l-11 60l175 245h86v-236h60v-69h-60v-83zM688 269l-82 -117h82v117zM285 0h-119l522 700h120z" />
    <glyph glyph-name="onehalf" unicode="&#xbd;" horiz-adv-x="917" 
d="M284 0h-116l523 701h116zM633 268l-44 63q26 27 65 43t77 16q63 0 96.5 -34t33.5 -83q0 -24 -9.5 -47.5t-31.5 -49.5t-38.5 -42.5t-48.5 -45.5h134v-88h-274v72q22 21 50.5 46.5t41.5 37.5t29.5 28t23 24.5t13.5 19t9 19t2 18.5q0 16 -11 29.5t-32 13.5q-43 0 -86 -40z
M338 417v-89h-274v89h87v181l-62 -36l-39 68l150 86h52v-299h86z" />
    <glyph glyph-name="threequarters" unicode="&#xbe;" horiz-adv-x="869" 
d="M256 0h-116l524 701h116zM176 401q17 0 29 16t12 33q0 21 -11.5 30t-23.5 9q-16 0 -50 -9l-16 61q5 1 17.5 4.5t20 6l19.5 6.5t19 8t14.5 10t11 13.5t3.5 15.5q0 15 -10 24t-27 9q-46 0 -89 -32l-39 64q59 48 131 48q63 0 93.5 -27.5t30.5 -71.5q0 -62 -68 -93
q77 -21 77 -93q0 -48 -40.5 -80.5t-107.5 -32.5q-60 0 -122 44l40 68q39 -31 86 -31zM760 0h-99v83h-151l-12 60l176 245h86v-236h59v-69h-59v-83zM661 269l-82 -117h82v117z" />
    <glyph glyph-name="questiondown" unicode="&#xbf;" horiz-adv-x="551" 
d="M35 116q0 43 19.5 78t48 59l57 48t50.5 56.5t26 72.5h129q0 -34 -3 -63q-6 -46 -23.5 -80t-39.5 -51.5t-42.5 -32t-34.5 -32t-14 -40.5q0 -33 24 -50t64 -17q81 0 154 70l66 -110q-103 -88 -239 -88q-113 0 -177.5 50t-64.5 130zM391 570q0 -38 -26 -64t-63 -26
q-38 0 -64.5 26.5t-26.5 63.5q0 38 26.5 64t64.5 26t63.5 -26t25.5 -64z" />
    <glyph glyph-name="Agrave" unicode="&#xc0;" horiz-adv-x="711" 
d="M455 700l248 -700h-173l-43 119h-263l-42 -119h-174l249 700h198zM355 495l-85 -239h171zM392 773l-160 184h172l95 -184h-107z" />
    <glyph glyph-name="Aacute" unicode="&#xc1;" horiz-adv-x="711" 
d="M455 700l248 -700h-173l-43 119h-263l-42 -119h-174l249 700h198zM355 495l-85 -239h171zM490 957l-160 -184h-107l95 184h172z" />
    <glyph glyph-name="Acircumflex" unicode="&#xc2;" horiz-adv-x="711" 
d="M455 700l248 -700h-173l-43 119h-263l-42 -119h-174l249 700h198zM355 495l-85 -239h171zM149 773l143 181h128l142 -181h-109l-98 94l-97 -94h-109z" />
    <glyph glyph-name="Atilde" unicode="&#xc3;" horiz-adv-x="711" 
d="M455 700l248 -700h-173l-43 119h-263l-42 -119h-174l249 700h198zM355 495l-85 -239h171zM227 786h-71q14 75 47.5 114t80.5 39q27 0 73 -20.5t70 -20.5q36 0 57 50h70q-14 -75 -47.5 -114t-79.5 -39q-27 0 -73 20.5t-70 20.5q-38 0 -57 -50z" />
    <glyph glyph-name="Adieresis" unicode="&#xc4;" horiz-adv-x="711" 
d="M455 700l248 -700h-173l-43 119h-263l-42 -119h-174l249 700h198zM355 495l-85 -239h171zM388 835q0 32 21 54t53 22t54 -22t22 -54t-22 -53.5t-54 -21.5t-53 21.5t-21 53.5zM173 835q0 32 21.5 54t53.5 22q31 0 53 -22t22 -54t-21.5 -53.5t-53.5 -21.5t-53.5 21.5
t-21.5 53.5z" />
    <glyph glyph-name="Aring" unicode="&#xc5;" horiz-adv-x="711" 
d="M455 700l248 -700h-173l-43 119h-263l-42 -119h-174l249 700h198zM355 495l-85 -239h171zM356 770q-49 0 -86 34.5t-37 81.5t37 81.5t86 34.5q48 0 85 -34.5t37 -81.5t-37 -81.5t-85 -34.5zM356 833q21 0 37 15.5t16 37.5t-15.5 38t-37.5 16t-38 -16t-16 -38t16 -37.5
t38 -15.5z" />
    <glyph glyph-name="AE" unicode="&#xc6;" horiz-adv-x="1035" 
d="M990 151v-151h-485v125h-246l-78 -125h-176l441 700h541v-152h-309v-121h248v-144h-248v-132h312zM343 261h162v261z" />
    <glyph glyph-name="Ccedilla" unicode="&#xc7;" horiz-adv-x="691" 
d="M421 145q109 0 191 56l69 -138q-111 -78 -260 -78l-29 -43q15 4 32 4q33 0 55 -19.5t22 -51.5q0 -41 -36 -68.5t-100 -27.5q-67 0 -117 22l18 51q32 -12 80 -12q23 0 38.5 9t15.5 24q0 13 -10 20.5t-25 7.5q-13 0 -33 -6l-35 28l43 69q-135 24 -212.5 122t-77.5 236
q0 157 100.5 261t270.5 104q148 0 260 -79l-69 -138q-82 56 -191 56q-88 0 -142.5 -59.5t-54.5 -144.5t54.5 -145t142.5 -60z" />
    <glyph glyph-name="Egrave" unicode="&#xc8;" horiz-adv-x="594" 
d="M554 151v-151h-487v700h484v-152h-312v-121h251v-144h-251v-132h315zM326 773l-160 184h172l95 -184h-107z" />
    <glyph glyph-name="Eacute" unicode="&#xc9;" horiz-adv-x="594" 
d="M554 151v-151h-487v700h484v-152h-312v-121h251v-144h-251v-132h315zM435 957l-160 -184h-107l95 184h172z" />
    <glyph glyph-name="Ecircumflex" unicode="&#xca;" horiz-adv-x="594" 
d="M554 151v-151h-487v700h484v-152h-312v-121h251v-144h-251v-132h315zM93 773l143 181h128l142 -181h-109l-98 94l-97 -94h-109z" />
    <glyph glyph-name="Edieresis" unicode="&#xcb;" horiz-adv-x="594" 
d="M554 151v-151h-487v700h484v-152h-312v-121h251v-144h-251v-132h315zM332 835q0 32 21 54t53 22t54 -22t22 -54t-22 -53.5t-54 -21.5t-53 21.5t-21 53.5zM117 835q0 32 21.5 54t53.5 22q31 0 53 -22t22 -54t-21.5 -53.5t-53.5 -21.5t-53.5 21.5t-21.5 53.5z" />
    <glyph glyph-name="Igrave" unicode="&#xcc;" horiz-adv-x="306" 
d="M67 0v700h172v-700h-172zM180 773l-160 184h172l95 -184h-107z" />
    <glyph glyph-name="Iacute" unicode="&#xcd;" horiz-adv-x="306" 
d="M67 0v700h172v-700h-172zM287 957l-160 -184h-107l95 184h172z" />
    <glyph glyph-name="Icircumflex" unicode="&#xce;" horiz-adv-x="306" 
d="M67 0v700h172v-700h-172zM-53 773l143 181h128l142 -181h-109l-98 94l-97 -94h-109z" />
    <glyph glyph-name="Idieresis" unicode="&#xcf;" horiz-adv-x="306" 
d="M67 0v700h172v-700h-172zM186 835q0 32 21 54t53 22t54 -22t22 -54t-22 -53.5t-54 -21.5t-53 21.5t-21 53.5zM-29 835q0 32 21.5 54t53.5 22q31 0 53 -22t22 -54t-21.5 -53.5t-53.5 -21.5t-53.5 21.5t-21.5 53.5z" />
    <glyph glyph-name="Eth" unicode="&#xd0;" horiz-adv-x="737" 
d="M0 297v113h67v290h276q165 0 261 -99t96 -251q0 -153 -96 -251.5t-261 -98.5h-276v297h-67zM239 171h104q85 0 134.5 49t49.5 128q0 80 -49.5 130t-134.5 50h-104v-118h124v-113h-124v-126z" />
    <glyph glyph-name="Ntilde" unicode="&#xd1;" horiz-adv-x="739" 
d="M239 410v-410h-172v700h172l260 -412v412h173v-700h-173zM241 786h-71q14 75 47.5 114t80.5 39q27 0 73 -20.5t70 -20.5q36 0 57 50h70q-14 -75 -47.5 -114t-79.5 -39q-27 0 -73 20.5t-70 20.5q-38 0 -57 -50z" />
    <glyph glyph-name="Ograve" unicode="&#xd2;" horiz-adv-x="816" 
d="M408 547q-89 0 -144 -56.5t-55 -140.5q0 -86 55 -142t144 -56t144 56t55 142q0 84 -55 140.5t-144 56.5zM408 -15q-170 0 -270.5 103.5t-100.5 261.5q0 157 100.5 261t270.5 104t270.5 -104t100.5 -261q0 -158 -100.5 -261.5t-270.5 -103.5zM435 773l-160 184h172
l95 -184h-107z" />
    <glyph glyph-name="Oacute" unicode="&#xd3;" horiz-adv-x="816" 
d="M408 547q-89 0 -144 -56.5t-55 -140.5q0 -86 55 -142t144 -56t144 56t55 142q0 84 -55 140.5t-144 56.5zM408 -15q-170 0 -270.5 103.5t-100.5 261.5q0 157 100.5 261t270.5 104t270.5 -104t100.5 -261q0 -158 -100.5 -261.5t-270.5 -103.5zM542 957l-160 -184h-107
l95 184h172z" />
    <glyph glyph-name="Ocircumflex" unicode="&#xd4;" horiz-adv-x="816" 
d="M408 547q-89 0 -144 -56.5t-55 -140.5q0 -86 55 -142t144 -56t144 56t55 142q0 84 -55 140.5t-144 56.5zM408 -15q-170 0 -270.5 103.5t-100.5 261.5q0 157 100.5 261t270.5 104t270.5 -104t100.5 -261q0 -158 -100.5 -261.5t-270.5 -103.5zM202 773l143 181h128
l142 -181h-109l-98 94l-97 -94h-109z" />
    <glyph glyph-name="Otilde" unicode="&#xd5;" horiz-adv-x="816" 
d="M408 547q-89 0 -144 -56.5t-55 -140.5q0 -86 55 -142t144 -56t144 56t55 142q0 84 -55 140.5t-144 56.5zM408 -15q-170 0 -270.5 103.5t-100.5 261.5q0 157 100.5 261t270.5 104t270.5 -104t100.5 -261q0 -158 -100.5 -261.5t-270.5 -103.5zM280 786h-71q14 75 47.5 114
t80.5 39q27 0 73 -20.5t70 -20.5q36 0 57 50h70q-14 -75 -47.5 -114t-79.5 -39q-27 0 -73 20.5t-70 20.5q-38 0 -57 -50z" />
    <glyph glyph-name="Odieresis" unicode="&#xd6;" horiz-adv-x="816" 
d="M408 547q-89 0 -144 -56.5t-55 -140.5q0 -86 55 -142t144 -56t144 56t55 142q0 84 -55 140.5t-144 56.5zM408 -15q-170 0 -270.5 103.5t-100.5 261.5q0 157 100.5 261t270.5 104t270.5 -104t100.5 -261q0 -158 -100.5 -261.5t-270.5 -103.5zM441 835q0 32 21 54t53 22
t54 -22t22 -54t-22 -53.5t-54 -21.5t-53 21.5t-21 53.5zM226 835q0 32 21.5 54t53.5 22q31 0 53 -22t22 -54t-21.5 -53.5t-53.5 -21.5t-53.5 21.5t-21.5 53.5z" />
    <glyph glyph-name="multiply" unicode="&#xd7;" horiz-adv-x="640" 
d="M480 46l-160 160l-158 -159l-82 82l159 158l-160 160l80 80l160 -160l158 159l82 -82l-159 -158l160 -160z" />
    <glyph glyph-name="Oslash" unicode="&#xd8;" horiz-adv-x="816" 
d="M189 0h-134l78 93q-96 101 -96 257q0 157 100.5 261t270.5 104q116 0 203 -53l31 38h134l-86 -103q89 -100 89 -247q0 -158 -100.5 -261.5t-270.5 -103.5q-108 0 -192 46zM607 350q0 59 -32 107l-245 -286q39 -18 83 -18q87 0 140.5 56.5t53.5 140.5zM408 547
q-90 0 -143.5 -57t-53.5 -143q0 -68 36 -116l251 294q-41 22 -90 22z" />
    <glyph glyph-name="Ugrave" unicode="&#xd9;" horiz-adv-x="718" 
d="M359 -15q-138 0 -219 83.5t-81 211.5v420h172v-428q0 -53 36.5 -90.5t91.5 -37.5t91.5 37.5t36.5 90.5v428h172v-420q0 -128 -81 -211.5t-219 -83.5zM386 773l-160 184h172l95 -184h-107z" />
    <glyph glyph-name="Uacute" unicode="&#xda;" horiz-adv-x="718" 
d="M359 -15q-138 0 -219 83.5t-81 211.5v420h172v-428q0 -53 36.5 -90.5t91.5 -37.5t91.5 37.5t36.5 90.5v428h172v-420q0 -128 -81 -211.5t-219 -83.5zM493 957l-160 -184h-107l95 184h172z" />
    <glyph glyph-name="Ucircumflex" unicode="&#xdb;" horiz-adv-x="718" 
d="M359 -15q-138 0 -219 83.5t-81 211.5v420h172v-428q0 -53 36.5 -90.5t91.5 -37.5t91.5 37.5t36.5 90.5v428h172v-420q0 -128 -81 -211.5t-219 -83.5zM153 773l143 181h128l142 -181h-109l-98 94l-97 -94h-109z" />
    <glyph glyph-name="Udieresis" unicode="&#xdc;" horiz-adv-x="718" 
d="M359 -15q-138 0 -219 83.5t-81 211.5v420h172v-428q0 -53 36.5 -90.5t91.5 -37.5t91.5 37.5t36.5 90.5v428h172v-420q0 -128 -81 -211.5t-219 -83.5zM392 835q0 32 21 54t53 22t54 -22t22 -54t-22 -53.5t-54 -21.5t-53 21.5t-21 53.5zM177 835q0 32 21.5 54t53.5 22
q31 0 53 -22t22 -54t-21.5 -53.5t-53.5 -21.5t-53.5 21.5t-21.5 53.5z" />
    <glyph glyph-name="Yacute" unicode="&#xdd;" horiz-adv-x="722" 
d="M5 700h192l164 -295l164 295h192l-270 -459v-241h-172v241zM498 957l-160 -184h-107l95 184h172z" />
    <glyph glyph-name="Thorn" unicode="&#xde;" horiz-adv-x="628" 
d="M67 0v700h173v-102h92q114 0 190 -71t76 -178q0 -106 -75 -175.5t-191 -69.5h-93v-104h-172zM424 350q0 92 -139 92h-46v-183h46q139 0 139 91z" />
    <glyph glyph-name="germandbls" unicode="&#xdf;" horiz-adv-x="652" 
d="M561 524q0 -106 -100 -159q77 -21 114 -66t37 -104q0 -38 -11.5 -70.5t-37.5 -61.5t-76 -46t-119 -17h-94v117h78q54 0 74.5 27t20.5 60q0 82 -173 83v114q66 8 96 42.5t30 79.5q0 30 -24 54.5t-63 24.5q-52 0 -82.5 -35.5t-30.5 -95.5v-471h-150v470q0 112 72.5 180.5
t195.5 68.5q117 0 180 -57t63 -138z" />
    <glyph glyph-name="agrave" unicode="&#xe0;" horiz-adv-x="577" 
d="M203 -15q-80 0 -126 36.5t-46 105.5q0 51 26 86t76 52.5t107.5 24t136.5 6.5v25q0 80 -95 80q-38 0 -82.5 -14.5t-77.5 -38.5l-73 86q96 81 239 81q113 0 176 -43.5t63 -128.5v-343h-150v73q-38 -44 -84.5 -66t-89.5 -22zM262 89q63 0 115 73v60q-42 -1 -65 -3t-54.5 -9
t-46.5 -24t-15 -43q0 -25 18 -39.5t48 -14.5zM315 573l-160 184h172l95 -184h-107z" />
    <glyph glyph-name="aacute" unicode="&#xe1;" horiz-adv-x="577" 
d="M203 -15q-80 0 -126 36.5t-46 105.5q0 51 26 86t76 52.5t107.5 24t136.5 6.5v25q0 80 -95 80q-38 0 -82.5 -14.5t-77.5 -38.5l-73 86q96 81 239 81q113 0 176 -43.5t63 -128.5v-343h-150v73q-38 -44 -84.5 -66t-89.5 -22zM262 89q63 0 115 73v60q-42 -1 -65 -3t-54.5 -9
t-46.5 -24t-15 -43q0 -25 18 -39.5t48 -14.5zM446 757l-160 -184h-107l95 184h172z" />
    <glyph glyph-name="acircumflex" unicode="&#xe2;" horiz-adv-x="577" 
d="M203 -15q-80 0 -126 36.5t-46 105.5q0 51 26 86t76 52.5t107.5 24t136.5 6.5v25q0 80 -95 80q-38 0 -82.5 -14.5t-77.5 -38.5l-73 86q96 81 239 81q113 0 176 -43.5t63 -128.5v-343h-150v73q-38 -44 -84.5 -66t-89.5 -22zM262 89q63 0 115 73v60q-42 -1 -65 -3t-54.5 -9
t-46.5 -24t-15 -43q0 -25 18 -39.5t48 -14.5zM82 573l143 181h128l142 -181h-109l-98 94l-97 -94h-109z" />
    <glyph glyph-name="atilde" unicode="&#xe3;" horiz-adv-x="577" 
d="M203 -15q-80 0 -126 36.5t-46 105.5q0 51 26 86t76 52.5t107.5 24t136.5 6.5v25q0 80 -95 80q-38 0 -82.5 -14.5t-77.5 -38.5l-73 86q96 81 239 81q113 0 176 -43.5t63 -128.5v-343h-150v73q-38 -44 -84.5 -66t-89.5 -22zM262 89q63 0 115 73v60q-42 -1 -65 -3t-54.5 -9
t-46.5 -24t-15 -43q0 -25 18 -39.5t48 -14.5zM161 586h-71q14 75 47.5 114t80.5 39q27 0 73 -20.5t70 -20.5q36 0 57 50h70q-14 -75 -47.5 -114t-79.5 -39q-27 0 -73 20.5t-70 20.5q-38 0 -57 -50z" />
    <glyph glyph-name="adieresis" unicode="&#xe4;" horiz-adv-x="577" 
d="M203 -15q-80 0 -126 36.5t-46 105.5q0 51 26 86t76 52.5t107.5 24t136.5 6.5v25q0 80 -95 80q-38 0 -82.5 -14.5t-77.5 -38.5l-73 86q96 81 239 81q113 0 176 -43.5t63 -128.5v-343h-150v73q-38 -44 -84.5 -66t-89.5 -22zM262 89q63 0 115 73v60q-42 -1 -65 -3t-54.5 -9
t-46.5 -24t-15 -43q0 -25 18 -39.5t48 -14.5zM321 635q0 32 21 54t53 22t54 -22t22 -54t-22 -53.5t-54 -21.5t-53 21.5t-21 53.5zM106 635q0 32 21.5 54t53.5 22q31 0 53 -22t22 -54t-21.5 -53.5t-53.5 -21.5t-53.5 21.5t-21.5 53.5z" />
    <glyph glyph-name="aring" unicode="&#xe5;" horiz-adv-x="577" 
d="M203 -15q-80 0 -126 36.5t-46 105.5q0 51 26 86t76 52.5t107.5 24t136.5 6.5v25q0 80 -95 80q-38 0 -82.5 -14.5t-77.5 -38.5l-73 86q96 81 239 81q113 0 176 -43.5t63 -128.5v-343h-150v73q-38 -44 -84.5 -66t-89.5 -22zM262 89q63 0 115 73v60q-42 -1 -65 -3t-54.5 -9
t-46.5 -24t-15 -43q0 -25 18 -39.5t48 -14.5zM289 570q-49 0 -86 34.5t-37 81.5t37 81.5t86 34.5q48 0 85 -34.5t37 -81.5t-37 -81.5t-85 -34.5zM289 633q21 0 37 15.5t16 37.5t-15.5 38t-37.5 16t-38 -16t-16 -38t16 -37.5t38 -15.5z" />
    <glyph glyph-name="ae" unicode="&#xe6;" horiz-adv-x="932" 
d="M203 -15q-80 0 -126 36.5t-46 105.5q0 43 18 74t48 50t76 30t94 15t110 4v22q0 79 -95 79q-38 0 -82.5 -14.5t-77.5 -38.5l-73 86q96 81 239 81q127 0 192 -65q71 65 164 65q117 0 187 -69.5t70 -190.5q0 -26 -4 -46h-363q21 -51 52.5 -77.5t84.5 -26.5q80 0 141 40
l50 -90q-80 -70 -213 -70q-122 0 -206 94q-105 -94 -240 -94zM262 89q63 0 115 73v64q-33 -1 -52 -2t-47 -5.5t-43.5 -13t-27 -24.5t-11.5 -38q0 -25 18 -39.5t48 -14.5zM761 301q-9 43 -39.5 68t-77.5 25q-42 0 -73.5 -24.5t-41.5 -68.5h232z" />
    <glyph glyph-name="ccedilla" unicode="&#xe7;" horiz-adv-x="518" 
d="M174 249q0 -53 39.5 -88t94.5 -35q69 0 129 40l67 -109q-68 -61 -175 -70l-30 -45q13 4 31 4q34 0 55.5 -19.5t21.5 -51.5q0 -41 -35.5 -68.5t-100.5 -27.5t-117 22l18 51q33 -12 80 -12q24 0 39.5 9t15.5 24q0 28 -35 28q-15 0 -33 -6l-35 28l42 68q-92 17 -153.5 89.5
t-61.5 168.5q0 110 79 187t190 77q125 0 204 -73q-32 -49 -67 -109q-62 40 -129 40q-54 0 -94 -35t-40 -87z" />
    <glyph glyph-name="egrave" unicode="&#xe8;" horiz-adv-x="581" 
d="M550 255q0 -26 -4 -46h-363q31 -104 137 -104q80 0 141 40l50 -90q-80 -70 -213 -70q-111 0 -189 75.5t-78 185.5q0 111 76.5 190t185.5 79q117 0 187 -69.5t70 -190.5zM410 301q-9 43 -39.5 68t-77.5 25q-42 0 -73.5 -24.5t-41.5 -68.5h232zM317 573l-160 184h172
l95 -184h-107z" />
    <glyph glyph-name="eacute" unicode="&#xe9;" horiz-adv-x="581" 
d="M550 255q0 -26 -4 -46h-363q31 -104 137 -104q80 0 141 40l50 -90q-80 -70 -213 -70q-111 0 -189 75.5t-78 185.5q0 111 76.5 190t185.5 79q117 0 187 -69.5t70 -190.5zM410 301q-9 43 -39.5 68t-77.5 25q-42 0 -73.5 -24.5t-41.5 -68.5h232zM464 757l-160 -184h-107
l95 184h172z" />
    <glyph glyph-name="ecircumflex" unicode="&#xea;" horiz-adv-x="581" 
d="M550 255q0 -26 -4 -46h-363q31 -104 137 -104q80 0 141 40l50 -90q-80 -70 -213 -70q-111 0 -189 75.5t-78 185.5q0 111 76.5 190t185.5 79q117 0 187 -69.5t70 -190.5zM410 301q-9 43 -39.5 68t-77.5 25q-42 0 -73.5 -24.5t-41.5 -68.5h232zM84 573l143 181h128
l142 -181h-109l-98 94l-97 -94h-109z" />
    <glyph glyph-name="edieresis" unicode="&#xeb;" horiz-adv-x="581" 
d="M550 255q0 -26 -4 -46h-363q31 -104 137 -104q80 0 141 40l50 -90q-80 -70 -213 -70q-111 0 -189 75.5t-78 185.5q0 111 76.5 190t185.5 79q117 0 187 -69.5t70 -190.5zM410 301q-9 43 -39.5 68t-77.5 25q-42 0 -73.5 -24.5t-41.5 -68.5h232zM323 635q0 32 21 54t53 22
t54 -22t22 -54t-22 -53.5t-54 -21.5t-53 21.5t-21 53.5zM108 635q0 32 21.5 54t53.5 22q31 0 53 -22t22 -54t-21.5 -53.5t-53.5 -21.5t-53.5 21.5t-21.5 53.5z" />
    <glyph glyph-name="igrave" unicode="&#xec;" horiz-adv-x="250" 
d="M50 0v500h150v-500h-150zM152 573l-160 184h172l95 -184h-107z" />
    <glyph glyph-name="iacute" unicode="&#xed;" horiz-adv-x="250" 
d="M50 0v500h150v-500h-150zM269 757l-160 -184h-107l95 184h172z" />
    <glyph glyph-name="icircumflex" unicode="&#xee;" horiz-adv-x="250" 
d="M50 0v500h150v-500h-150zM-81 573l143 181h128l142 -181h-109l-98 94l-97 -94h-109z" />
    <glyph glyph-name="idieresis" unicode="&#xef;" horiz-adv-x="250" 
d="M50 0v500h150v-500h-150zM158 635q0 32 21 54t53 22t54 -22t22 -54t-22 -53.5t-54 -21.5t-53 21.5t-21 53.5zM-57 635q0 32 21.5 54t53.5 22q31 0 53 -22t22 -54t-21.5 -53.5t-53.5 -21.5t-53.5 21.5t-21.5 53.5z" />
    <glyph glyph-name="eth" unicode="&#xf0;" horiz-adv-x="588" 
d="M291 -14q-116 0 -188 72.5t-72 186.5q0 98 68 161t182 63q86 0 148 -50q-17 48 -64.5 82.5t-120.5 65.5l-35 -71l-77 32l32 69l-60 25l41 104l62 -22l32 65l78 -30l-31 -60q132 -50 201.5 -140.5t69.5 -242.5q0 -141 -68 -225.5t-198 -84.5zM295 117q47 0 80 34.5
t33 81.5t-34 80.5t-82 33.5q-47 0 -79 -33.5t-32 -80.5q0 -46 33.5 -81t80.5 -35z" />
    <glyph glyph-name="ntilde" unicode="&#xf1;" horiz-adv-x="609" 
d="M409 0v267q0 48 -21.5 75.5t-63.5 27.5q-31 0 -68 -27t-56 -67v-276h-150v500h150v-71q66 83 181 83q81 0 129.5 -56t48.5 -145v-311h-150zM177 586h-71q14 75 47.5 114t80.5 39q27 0 73 -20.5t70 -20.5q36 0 57 50h70q-14 -75 -47.5 -114t-79.5 -39q-27 0 -73 20.5
t-70 20.5q-38 0 -57 -50z" />
    <glyph glyph-name="ograve" unicode="&#xf2;" horiz-adv-x="592" 
d="M296 124q51 0 86.5 36.5t35.5 89.5q0 51 -35.5 88t-86.5 37t-86.5 -37t-35.5 -88q0 -53 35 -89.5t87 -36.5zM296 -15q-112 0 -188.5 77.5t-76.5 187.5t76.5 187.5t188.5 77.5t188.5 -77.5t76.5 -187.5t-76.5 -187.5t-188.5 -77.5zM323 573l-160 184h172l95 -184h-107z
" />
    <glyph glyph-name="oacute" unicode="&#xf3;" horiz-adv-x="592" 
d="M298 124q52 0 88.5 36.5t36.5 89.5q0 51 -36.5 88t-88.5 37q-51 0 -87.5 -37t-36.5 -88q0 -53 36 -89.5t88 -36.5zM298 -15q-113 0 -190 77.5t-77 187.5t77.5 187.5t189.5 77.5q113 0 190.5 -77.5t77.5 -187.5t-77.5 -187.5t-190.5 -77.5zM468 757l-160 -184h-107l95 184
h172z" />
    <glyph glyph-name="ocircumflex" unicode="&#xf4;" horiz-adv-x="592" 
d="M296 124q51 0 86.5 36.5t35.5 89.5q0 51 -35.5 88t-86.5 37t-86.5 -37t-35.5 -88q0 -53 35 -89.5t87 -36.5zM296 -15q-112 0 -188.5 77.5t-76.5 187.5t76.5 187.5t188.5 77.5t188.5 -77.5t76.5 -187.5t-76.5 -187.5t-188.5 -77.5zM90 573l143 181h128l142 -181h-109
l-98 94l-97 -94h-109z" />
    <glyph glyph-name="otilde" unicode="&#xf5;" horiz-adv-x="592" 
d="M296 124q51 0 86.5 36.5t35.5 89.5q0 51 -35.5 88t-86.5 37t-86.5 -37t-35.5 -88q0 -53 35 -89.5t87 -36.5zM296 -15q-112 0 -188.5 77.5t-76.5 187.5t76.5 187.5t188.5 77.5t188.5 -77.5t76.5 -187.5t-76.5 -187.5t-188.5 -77.5zM168 586h-71q14 75 47.5 114t80.5 39
q27 0 73 -20.5t70 -20.5q36 0 57 50h70q-14 -75 -47.5 -114t-79.5 -39q-27 0 -73 20.5t-70 20.5q-38 0 -57 -50z" />
    <glyph glyph-name="odieresis" unicode="&#xf6;" horiz-adv-x="592" 
d="M296 124q51 0 86.5 36.5t35.5 89.5q0 51 -35.5 88t-86.5 37t-86.5 -37t-35.5 -88q0 -53 35 -89.5t87 -36.5zM296 -15q-112 0 -188.5 77.5t-76.5 187.5t76.5 187.5t188.5 77.5t188.5 -77.5t76.5 -187.5t-76.5 -187.5t-188.5 -77.5zM329 635q0 32 21 54t53 22t54 -22
t22 -54t-22 -53.5t-54 -21.5t-53 21.5t-21 53.5zM114 635q0 32 21.5 54t53.5 22q31 0 53 -22t22 -54t-21.5 -53.5t-53.5 -21.5t-53.5 21.5t-21.5 53.5z" />
    <glyph glyph-name="divide" unicode="&#xf7;" horiz-adv-x="640" 
d="M245 457q0 31 21.5 52.5t52.5 21.5t52.5 -21.5t21.5 -52.5t-21.5 -52.5t-52.5 -21.5t-52.5 21.5t-21.5 52.5zM245 116q0 31 21.5 52.5t52.5 21.5t52.5 -21.5t21.5 -52.5t-21.5 -52.5t-52.5 -21.5t-52.5 21t-21.5 53zM585 230h-531v113h531v-113z" />
    <glyph glyph-name="oslash" unicode="&#xf8;" horiz-adv-x="592" 
d="M130 0h-89l59 70q-69 75 -69 180q0 110 77.5 187.5t189.5 77.5q79 0 142 -41l21 26h89l-57 -68q73 -76 73 -182q0 -110 -77.5 -187.5t-190.5 -77.5q-80 0 -145 41zM298 124q52 0 88 36.5t36 87.5q0 40 -22 71l-155 -181q28 -14 53 -14zM174 250q0 -41 20 -68l153 180
q-24 11 -48 11q-52 0 -88.5 -36t-36.5 -87z" />
    <glyph glyph-name="ugrave" unicode="&#xf9;" horiz-adv-x="609" 
d="M200 500v-268q0 -47 21.5 -75t63.5 -28q31 0 68 27t56 67v277h150v-500h-150v70q-66 -81 -181 -81q-81 0 -129.5 55t-48.5 145v311h150zM331 573l-160 184h172l95 -184h-107z" />
    <glyph glyph-name="uacute" unicode="&#xfa;" horiz-adv-x="609" 
d="M200 500v-268q0 -47 21.5 -75t63.5 -28q31 0 68 27t56 67v277h150v-500h-150v70q-66 -81 -181 -81q-81 0 -129.5 55t-48.5 145v311h150zM484 757l-160 -184h-107l95 184h172z" />
    <glyph glyph-name="ucircumflex" unicode="&#xfb;" horiz-adv-x="609" 
d="M200 500v-268q0 -47 21.5 -75t63.5 -28q31 0 68 27t56 67v277h150v-500h-150v70q-66 -81 -181 -81q-81 0 -129.5 55t-48.5 145v311h150zM98 573l143 181h128l142 -181h-109l-98 94l-97 -94h-109z" />
    <glyph glyph-name="udieresis" unicode="&#xfc;" horiz-adv-x="609" 
d="M200 500v-268q0 -47 21.5 -75t63.5 -28q31 0 68 27t56 67v277h150v-500h-150v70q-66 -81 -181 -81q-81 0 -129.5 55t-48.5 145v311h150zM337 635q0 32 21 54t53 22t54 -22t22 -54t-22 -53.5t-54 -21.5t-53 21.5t-21 53.5zM122 635q0 32 21.5 54t53.5 22q31 0 53 -22
t22 -54t-21.5 -53.5t-53.5 -21.5t-53.5 21.5t-21.5 53.5z" />
    <glyph glyph-name="yacute" unicode="&#xfd;" horiz-adv-x="601" 
d="M594 500l-310 -704h-151l86 205l-212 499h164l126 -315l134 315h163zM456 757l-160 -184h-107l95 184h172z" />
    <glyph glyph-name="thorn" unicode="&#xfe;" horiz-adv-x="611" 
d="M345 -15q-43 0 -83 22t-62 58v-269h-150v914h150v-276q22 37 62 59t83 22q107 0 171 -76.5t64 -188.5q0 -113 -64 -189t-171 -76zM298 374q-60 0 -98 -49v-151q38 -49 98 -49q51 0 87.5 37t36.5 88t-36.5 87.5t-87.5 36.5z" />
    <glyph glyph-name="ydieresis" unicode="&#xff;" horiz-adv-x="601" 
d="M594 500l-310 -704h-151l86 205l-212 499h164l126 -315l134 315h163zM330 635q0 32 21.5 54t53.5 22q31 0 53.5 -22.5t22.5 -53.5q0 -32 -22 -53.5t-54 -21.5t-53.5 21.5t-21.5 53.5zM115 635q0 32 21.5 54t53.5 22t54 -22.5t22 -53.5q0 -32 -22 -53.5t-54 -21.5
t-53.5 21.5t-21.5 53.5z" />
    <glyph glyph-name="Amacron" unicode="&#x100;" horiz-adv-x="711" 
d="M455 700l248 -700h-173l-43 119h-263l-42 -119h-174l249 700h198zM355 495l-85 -239h171zM192 778v96h329v-96h-329z" />
    <glyph glyph-name="amacron" unicode="&#x101;" horiz-adv-x="577" 
d="M203 -15q-80 0 -126 36.5t-46 105.5q0 51 26 86t76 52.5t107.5 24t136.5 6.5v25q0 80 -95 80q-38 0 -82.5 -14.5t-77.5 -38.5l-73 86q96 81 239 81q113 0 176 -43.5t63 -128.5v-343h-150v73q-38 -44 -84.5 -66t-89.5 -22zM262 89q63 0 115 73v60q-42 -1 -65 -3t-54.5 -9
t-46.5 -24t-15 -43q0 -25 18 -39.5t48 -14.5zM124 578v96h329v-96h-329z" />
    <glyph glyph-name="Aogonek" unicode="&#x104;" horiz-adv-x="711" 
d="M721 -192q-32 0 -64.5 4.5t-67.5 15t-56.5 33.5t-21.5 55q0 24 18 47.5t59 36.5h-58l-43 119h-263l-42 -119h-174l249 700h198l248 -700q-76 -25 -76 -68q0 -24 22.5 -43.5t71.5 -21.5v-59zM355 495l-85 -239h171z" />
    <glyph glyph-name="aogonek" unicode="&#x105;" horiz-adv-x="577" 
d="M535 -192q-32 0 -63 4.5t-64 15t-53 33.5t-20 55q0 20 25 45t62 39h-45v73q-38 -44 -84.5 -66t-89.5 -22q-80 0 -126 36.5t-46 105.5q0 51 26 86t76 52.5t107.5 24t136.5 6.5v25q0 80 -95 80q-38 0 -82.5 -14.5t-77.5 -38.5l-73 86q96 81 239 81q113 0 176 -43.5
t63 -128.5v-343q-37 -14 -56.5 -33t-19.5 -35q0 -62 84 -65v-59zM262 89q63 0 115 73v60q-42 -1 -65 -3t-54.5 -9t-46.5 -24t-15 -43q0 -25 18 -39.5t48 -14.5z" />
    <glyph glyph-name="Cacute" unicode="&#x106;" horiz-adv-x="691" 
d="M421 145q109 0 191 56l69 -138q-111 -78 -260 -78q-170 0 -270.5 103.5t-100.5 261.5q0 157 100.5 261t270.5 104q148 0 260 -79l-69 -138q-82 56 -191 56q-88 0 -142.5 -59.5t-54.5 -144.5t54.5 -145t142.5 -60zM586 957l-160 -184h-107l95 184h172z" />
    <glyph glyph-name="cacute" unicode="&#x107;" horiz-adv-x="511" 
d="M174 250q0 -53 37 -88.5t91 -35.5q69 0 129 40l66 -109q-77 -72 -203 -72q-110 0 -186.5 78t-76.5 187q0 108 77 186.5t186 78.5q125 0 203 -73l-66 -109q-62 40 -129 40q-52 0 -90 -35.5t-38 -87.5zM464 757l-160 -184h-107l95 184h172z" />
    <glyph glyph-name="Ccaron" unicode="&#x10c;" horiz-adv-x="691" 
d="M421 145q109 0 191 56l69 -138q-111 -78 -260 -78q-170 0 -270.5 103.5t-100.5 261.5q0 157 100.5 261t270.5 104q148 0 260 -79l-69 -138q-82 56 -191 56q-88 0 -142.5 -59.5t-54.5 -144.5t54.5 -145t142.5 -60zM337 773l-143 181h109l98 -95l98 95h108l-142 -181h-128z
" />
    <glyph glyph-name="ccaron" unicode="&#x10d;" horiz-adv-x="511" 
d="M174 250q0 -53 37 -88.5t91 -35.5q69 0 129 40l66 -109q-77 -72 -203 -72q-110 0 -186.5 78t-76.5 187q0 108 77 186.5t186 78.5q125 0 203 -73l-66 -109q-62 40 -129 40q-52 0 -90 -35.5t-38 -87.5zM197 573l-143 181h109l98 -95l98 95h108l-142 -181h-128z" />
    <glyph glyph-name="Dcaron" unicode="&#x10e;" horiz-adv-x="737" 
d="M239 171h104q85 0 134.5 49t49.5 128q0 80 -49.5 130t-134.5 50h-104v-357zM343 0h-276v700h276q165 0 261 -99t96 -251q0 -153 -96 -251.5t-261 -98.5zM256 773l-143 181h109l98 -95l98 95h108l-142 -181h-128z" />
    <glyph glyph-name="dcaron" unicode="&#x10f;" horiz-adv-x="818" 
d="M561 0h-150v65q-22 -36 -62 -58t-83 -22q-107 0 -171 76t-64 189q0 112 64 188.5t171 76.5q43 0 83 -22t62 -59v276h150v-710zM313 125q60 0 98 49v151q-38 49 -98 49q-51 0 -87.5 -37t-36.5 -87q0 -52 36.5 -88.5t87.5 -36.5zM621 453l31 257h146l-92 -257h-85z" />
    <glyph glyph-name="Emacron" unicode="&#x112;" horiz-adv-x="594" 
d="M554 151v-151h-487v700h484v-152h-312v-121h251v-144h-251v-132h315zM135 778v96h329v-96h-329z" />
    <glyph glyph-name="emacron" unicode="&#x113;" horiz-adv-x="581" 
d="M550 255q0 -26 -4 -46h-363q31 -104 137 -104q80 0 141 40l50 -90q-80 -70 -213 -70q-111 0 -189 75.5t-78 185.5q0 111 76.5 190t185.5 79q117 0 187 -69.5t70 -190.5zM410 301q-9 43 -39.5 68t-77.5 25q-42 0 -73.5 -24.5t-41.5 -68.5h232zM126 578v96h329v-96h-329z
" />
    <glyph glyph-name="Edotaccent" unicode="&#x116;" horiz-adv-x="594" 
d="M554 151v-151h-487v700h484v-152h-312v-121h251v-144h-251v-132h315zM224 835q0 32 21.5 54t53.5 22q31 0 53.5 -22.5t22.5 -53.5q0 -32 -22 -53.5t-54 -21.5t-53.5 21.5t-21.5 53.5z" />
    <glyph glyph-name="edotaccent" unicode="&#x117;" horiz-adv-x="581" 
d="M550 255q0 -26 -4 -46h-363q31 -104 137 -104q80 0 141 40l50 -90q-80 -70 -213 -70q-111 0 -189 75.5t-78 185.5q0 111 76.5 190t185.5 79q117 0 187 -69.5t70 -190.5zM410 301q-9 43 -39.5 68t-77.5 25q-42 0 -73.5 -24.5t-41.5 -68.5h232zM215 635q0 32 21.5 54
t53.5 22t54 -22.5t22 -53.5q0 -32 -22 -53.5t-54 -21.5t-53.5 21.5t-21.5 53.5z" />
    <glyph glyph-name="Eogonek" unicode="&#x118;" horiz-adv-x="594" 
d="M582 -192q-32 0 -64.5 4.5t-67.5 15t-56.5 33.5t-21.5 55q0 19 23 44.5t54 39.5h-382v700h484v-152h-312v-121h251v-144h-251v-132h315v-151q-66 -25 -66 -68q0 -24 22.5 -43.5t71.5 -21.5v-59z" />
    <glyph glyph-name="eogonek" unicode="&#x119;" horiz-adv-x="581" 
d="M456 -192q-32 0 -64.5 4.5t-67.5 15t-56.5 33.5t-21.5 55q0 40 34 70q-105 6 -177 80.5t-72 179.5q0 111 76.5 190t185.5 79q117 0 187 -69.5t70 -190.5q0 -26 -4 -46h-363q31 -104 137 -104q80 0 141 40l50 -90q-46 -40 -106 -56q-43 -29 -43 -67q0 -24 22.5 -43.5
t71.5 -21.5v-59zM410 301q-9 43 -39.5 68t-77.5 25q-42 0 -73.5 -24.5t-41.5 -68.5h232z" />
    <glyph glyph-name="Ecaron" unicode="&#x11a;" horiz-adv-x="594" 
d="M554 151v-151h-487v700h484v-152h-312v-121h251v-144h-251v-132h315zM235 773l-143 181h109l98 -95l98 95h108l-142 -181h-128z" />
    <glyph glyph-name="ecaron" unicode="&#x11b;" horiz-adv-x="581" 
d="M227 573l-143 181h109l98 -95l98 95h108l-142 -181h-128zM550 255q0 -26 -4 -46h-363q31 -104 137 -104q80 0 141 40l50 -90q-80 -70 -213 -70q-111 0 -189 75.5t-78 185.5q0 111 76.5 190t185.5 79q117 0 187 -69.5t70 -190.5zM410 301q-9 43 -39.5 68t-77.5 25
q-42 0 -73.5 -24.5t-41.5 -68.5h232z" />
    <glyph glyph-name="uni0122" unicode="&#x122;" horiz-adv-x="732" 
d="M343 267v119h339v-315q-126 -86 -274 -86q-170 0 -270.5 103.5t-100.5 261.5q0 157 100.5 261t270.5 104q133 0 245 -67l-67 -139q-75 43 -169 43t-150 -56.5t-56 -145.5q0 -85 54.5 -145t142.5 -60q56 0 102 24v98h-167zM306 -315l29 238h142l-88 -238h-83z" />
    <glyph glyph-name="uni0123" unicode="&#x123;" horiz-adv-x="611" 
d="M561 500v-492q0 -62 -22.5 -107.5t-61 -70t-81.5 -36t-92 -11.5q-126 0 -231 68l50 94q86 -48 177 -48q46 0 78.5 29t32.5 82v57q-22 -36 -62 -58t-83 -22q-107 0 -171 76t-64 189q0 112 64 188.5t171 76.5q43 0 83 -22t62 -59v66h150zM313 125q60 0 98 49v151
q-38 49 -98 49q-51 0 -87.5 -37t-36.5 -87q0 -52 36.5 -88.5t87.5 -36.5zM398 839l-29 -238h-142l88 238h83z" />
    <glyph glyph-name="Imacron" unicode="&#x12a;" horiz-adv-x="306" 
d="M67 0v700h172v-700h-172zM0 778v96h307v-96h-307z" />
    <glyph glyph-name="imacron" unicode="&#x12b;" horiz-adv-x="250" 
d="M50 0v500h150v-500h-150zM0 578v96h250v-96h-250z" />
    <glyph glyph-name="Iogonek" unicode="&#x12e;" horiz-adv-x="306" 
d="M67 0v700h172v-700q-46 -29 -46 -68q0 -24 22.5 -43.5t71.5 -21.5v-59q-32 0 -64.5 4.5t-67.5 15t-56.5 33.5t-21.5 55q0 23 14.5 47t42.5 37h-67z" />
    <glyph glyph-name="iogonek" unicode="&#x12f;" horiz-adv-x="250" 
d="M50 0v500h150v-500q-46 -29 -46 -68q0 -24 22.5 -43.5t71.5 -21.5v-59q-32 0 -64.5 4.5t-67.5 15t-56.5 33.5t-21.5 55q0 23 14.5 47t42.5 37h-45zM45 631q0 32 24 55.5t56 23.5t55.5 -23.5t23.5 -55.5q0 -33 -23.5 -56.5t-55.5 -23.5q-33 0 -56.5 23.5t-23.5 56.5z" />
    <glyph glyph-name="dotlessi" unicode="&#x131;" horiz-adv-x="250" 
d="M50 0v500h150v-500h-150z" />
    <glyph glyph-name="uni0136" unicode="&#x136;" horiz-adv-x="712" 
d="M240 -315l30 238h142l-89 -238h-83zM486 0l-242 356l232 344h199l-239 -344l265 -356h-215zM67 0v700h172v-700h-172z" />
    <glyph glyph-name="uni0137" unicode="&#x137;" horiz-adv-x="569" 
d="M190 -315l30 238h142l-89 -238h-83zM392 0l-182 264l175 236h164l-175 -236l185 -264h-167zM50 710h150v-710h-150v710z" />
    <glyph glyph-name="Lacute" unicode="&#x139;" horiz-adv-x="565" 
d="M67 0v700h172v-545h306v-155h-478zM390 957l-159 -184h-108l96 184h171z" />
    <glyph glyph-name="lacute" unicode="&#x13a;" horiz-adv-x="250" 
d="M50 710h150v-710h-150v710zM285 957l-159 -184h-108l96 184h171z" />
    <glyph glyph-name="uni013B" unicode="&#x13b;" horiz-adv-x="565" 
d="M67 0v700h172v-545h306v-155h-478zM179 -315l29 238h143l-89 -238h-83z" />
    <glyph glyph-name="uni013C" unicode="&#x13c;" horiz-adv-x="250" 
d="M50 710h150v-710h-150v710zM27 -315l30 238h142l-89 -238h-83z" />
    <glyph glyph-name="Lcaron" unicode="&#x13d;" horiz-adv-x="565" 
d="M67 0v700h172v-545h306v-155h-478zM331 443l31 257h145l-91 -257h-85z" />
    <glyph glyph-name="lcaron" unicode="&#x13e;" horiz-adv-x="453" 
d="M58 710h150v-710h-150v710zM275 453l31 257h146l-92 -257h-85z" />
    <glyph glyph-name="Lslash" unicode="&#x141;" horiz-adv-x="565" 
d="M5 168v114l62 48v370h172v-241l130 103v-114l-130 -103v-190h306v-155h-478v216z" />
    <glyph glyph-name="lslash" unicode="&#x142;" horiz-adv-x="250" 
d="M-8 183v113l58 51v363h150v-234l82 71v-113l-82 -71v-363h-150v234z" />
    <glyph glyph-name="Nacute" unicode="&#x143;" horiz-adv-x="739" 
d="M239 410v-410h-172v700h172l260 -412v412h173v-700h-173zM528 957l-159 -184h-108l96 184h171z" />
    <glyph glyph-name="nacute" unicode="&#x144;" horiz-adv-x="609" 
d="M409 0v267q0 47 -22 75t-64 28q-32 0 -69 -27t-54 -67v-276h-150v500h150v-71q66 83 180 83q81 0 130 -56t49 -145v-311h-150zM452 757l-159 -184h-108l96 184h171z" />
    <glyph glyph-name="uni0145" unicode="&#x145;" horiz-adv-x="739" 
d="M239 410v-410h-172v700h172l260 -412v412h173v-700h-173zM266 -315l29 238h142l-88 -238h-83z" />
    <glyph glyph-name="uni0146" unicode="&#x146;" horiz-adv-x="609" 
d="M409 0v267q0 47 -22 75t-64 28q-32 0 -69 -27t-54 -67v-276h-150v500h150v-71q66 83 180 83q81 0 130 -56t49 -145v-311h-150zM212 -315l30 238h142l-89 -238h-83z" />
    <glyph glyph-name="Ncaron" unicode="&#x147;" horiz-adv-x="739" 
d="M239 410v-410h-172v700h172l260 -412v412h173v-700h-173q-229 360 -260 410zM305 773l-143 181h109l98 -95l98 95h108l-142 -181h-128z" />
    <glyph glyph-name="ncaron" unicode="&#x148;" horiz-adv-x="609" 
d="M409 0v267q0 47 -22 75t-64 28q-32 0 -69 -27t-54 -67v-276h-150v500h150v-71q66 83 180 83q81 0 130 -56t49 -145v-311h-150zM236 573l-143 181h109l98 -95l98 95h108l-142 -181h-128z" />
    <glyph glyph-name="Omacron" unicode="&#x14c;" horiz-adv-x="816" 
d="M408 547q-89 0 -144 -56.5t-55 -140.5q0 -86 55 -142t144 -56t144 56t55 142q0 84 -55 140.5t-144 56.5zM408 -15q-170 0 -270.5 103.5t-100.5 261.5q0 157 100.5 261t270.5 104t270.5 -104t100.5 -261q0 -158 -100.5 -261.5t-270.5 -103.5zM244 778v96h329v-96h-329z
" />
    <glyph glyph-name="omacron" unicode="&#x14d;" horiz-adv-x="592" 
d="M296 124q51 0 86.5 36.5t35.5 89.5q0 51 -35.5 88t-86.5 37t-86.5 -37t-35.5 -88q0 -53 35 -89.5t87 -36.5zM296 -15q-112 0 -188.5 77.5t-76.5 187.5t76.5 187.5t188.5 77.5t188.5 -77.5t76.5 -187.5t-76.5 -187.5t-188.5 -77.5zM131 578v96h329v-96h-329z" />
    <glyph glyph-name="Ohungarumlaut" unicode="&#x150;" horiz-adv-x="816" 
d="M408 547q-89 0 -144 -56.5t-55 -140.5q0 -86 55 -142t144 -56t144 56t55 142q0 84 -55 140.5t-144 56.5zM408 -15q-170 0 -270.5 103.5t-100.5 261.5q0 157 100.5 261t270.5 104t270.5 -104t100.5 -261q0 -158 -100.5 -261.5t-270.5 -103.5zM680 957l-160 -184h-107
l95 184h172zM464 957l-160 -184h-107l95 184h172z" />
    <glyph glyph-name="ohungarumlaut" unicode="&#x151;" horiz-adv-x="592" 
d="M296 124q51 0 86.5 36.5t35.5 89.5q0 51 -35.5 88t-86.5 37t-86.5 -37t-35.5 -88q0 -53 35 -89.5t87 -36.5zM296 -15q-112 0 -188.5 77.5t-76.5 187.5t76.5 187.5t188.5 77.5t188.5 -77.5t76.5 -187.5t-76.5 -187.5t-188.5 -77.5zM558 757l-160 -184h-107l95 184h172z
M342 757l-160 -184h-107l95 184h172z" />
    <glyph glyph-name="OE" unicode="&#x152;" horiz-adv-x="1073" 
d="M1033 151v-151h-484v9q-71 -22 -143 -22q-171 0 -270 102t-99 261q0 158 99.5 260.5t269.5 102.5q79 0 142 -24v11h482v-152h-309v-121h248v-144h-248v-132h312zM211 350q0 -87 46 -140t125 -53t125.5 53t46.5 140t-46.5 140t-125.5 53t-125 -53t-46 -140z" />
    <glyph glyph-name="oe" unicode="&#x153;" horiz-adv-x="975" 
d="M692 -15q-60 0 -111.5 24t-85.5 66q-75 -90 -197 -90q-113 0 -190 78t-77 187q0 110 77.5 187.5t189.5 77.5q123 0 198 -93q75 93 191 93q118 0 187.5 -70.5t69.5 -189.5q0 -26 -4 -46h-363q13 -53 51 -78.5t86 -25.5q80 0 141 40q8 -15 25 -45t25 -45q-80 -70 -213 -70z
M298 124q52 0 88.5 37.5t36.5 90.5q0 50 -36.5 86.5t-88.5 36.5q-51 0 -87.5 -37t-36.5 -88q0 -53 36 -89.5t88 -36.5zM804 301q-9 43 -39.5 68t-77.5 25q-42 0 -73.5 -24.5t-41.5 -68.5h232z" />
    <glyph glyph-name="Racute" unicode="&#x154;" horiz-adv-x="654" 
d="M239 219v-219h-172v700h299q108 0 176.5 -70t68.5 -173q0 -71 -38.5 -128.5t-103.5 -84.5l150 -244h-177l-136 219h-67zM351 544h-112v-170h112q40 0 64.5 24t24.5 61t-24.5 61t-64.5 24zM475 957l-160 -184h-107l95 184h172z" />
    <glyph glyph-name="racute" unicode="&#x155;" horiz-adv-x="375" 
d="M360 512v-140q-56 0 -100 -28t-60 -83v-261h-150v500h150v-93q66 105 160 105zM341 757l-159 -184h-108l95 184h172z" />
    <glyph glyph-name="uni0156" unicode="&#x156;" horiz-adv-x="654" 
d="M239 219v-219h-172v700h299q108 0 176.5 -70t68.5 -173q0 -71 -38.5 -128.5t-103.5 -84.5l150 -244h-177l-136 219h-67zM351 544h-112v-170h112q40 0 64.5 24t24.5 61t-24.5 61t-64.5 24zM220 -315l30 238h142l-89 -238h-83z" />
    <glyph glyph-name="uni0157" unicode="&#x157;" horiz-adv-x="375" 
d="M368 512v-140q-56 0 -100 -28t-60 -83v-261h-150v500h150v-93q66 105 160 105zM35 -315l29 238h142l-88 -238h-83z" />
    <glyph glyph-name="Rcaron" unicode="&#x158;" horiz-adv-x="654" 
d="M239 219v-219h-172v700h299q108 0 176.5 -70t68.5 -173q0 -71 -38.5 -128.5t-103.5 -84.5q111 -183 150 -244h-177l-136 219h-67zM351 544h-112v-170h112q40 0 64.5 24t24.5 61t-24.5 61t-64.5 24zM256 773l-142 181h109l98 -95l98 95h108l-142 -181h-129z" />
    <glyph glyph-name="rcaron" unicode="&#x159;" horiz-adv-x="375" 
d="M360 512v-140q-56 0 -100 -28t-60 -83v-261h-150v500h150v-93q66 105 160 105zM119 573l-121 181h108l77 -95l78 95h109l-122 -181h-129z" />
    <glyph glyph-name="Sacute" unicode="&#x15a;" horiz-adv-x="608" 
d="M464 957l-159 -184h-108l96 184h171zM410 206q0 25 -26 41.5t-65.5 25t-85 25t-85 38t-65.5 66.5t-26 109q0 88 64.5 146t180.5 58q134 0 246 -79l-70 -117q-82 56 -184 56q-37 0 -62.5 -16.5t-25.5 -47.5q0 -22 20.5 -37t53 -24.5t71.5 -19.5t78.5 -26t72 -39t53 -63.5
t20.5 -95.5q0 -88 -81.5 -154.5t-193.5 -66.5q-144 0 -267 85l69 127q39 -27 98 -45t107 -18q46 0 74.5 19.5t28.5 52.5z" />
    <glyph glyph-name="sacute" unicode="&#x15b;" horiz-adv-x="496" 
d="M330 146q0 18 -21 28.5t-52 14.5t-67.5 14t-67.5 24t-52 47.5t-21 82.5q0 69 54.5 113.5t155.5 44.5q114 0 199 -75l-63 -89q-63 52 -136 52q-34 0 -54.5 -12t-20.5 -33t29.5 -33t71 -20t83.5 -21t71.5 -45.5t29.5 -83.5q0 -82 -58 -126t-158 -44q-132 0 -226 80l61 93
q84 -63 165 -63q34 0 55.5 14t21.5 37zM405 757l-160 -184h-107l95 184h172z" />
    <glyph glyph-name="Scaron" unicode="&#x160;" horiz-adv-x="608" 
d="M410 206q0 25 -26 41.5t-65.5 25t-85 25t-85 38t-65.5 66.5t-26 109q0 88 64.5 146t180.5 58q134 0 246 -79l-70 -117q-82 56 -184 56q-37 0 -62.5 -16.5t-25.5 -47.5q0 -22 20.5 -37t53 -24.5t71.5 -19.5t78.5 -26t72 -39t53 -63.5t20.5 -95.5q0 -88 -81.5 -154.5
t-193.5 -66.5q-144 0 -267 85l69 127q39 -27 98 -45t107 -18q46 0 74.5 19.5t28.5 52.5zM243 773l-143 181h109l98 -95l98 95h108l-142 -181h-128z" />
    <glyph glyph-name="scaron" unicode="&#x161;" horiz-adv-x="496" 
d="M189 573l-143 181h109l98 -95l98 95h108l-142 -181h-128zM330 146q0 18 -21 28.5t-52 14.5t-67.5 14t-67.5 24t-52 47.5t-21 82.5q0 69 54.5 113.5t155.5 44.5q114 0 199 -75l-63 -89q-63 52 -136 52q-34 0 -54.5 -12t-20.5 -33t29.5 -33t71 -20t83.5 -21t71.5 -45.5
t29.5 -83.5q0 -82 -58 -126t-158 -44q-132 0 -226 80l61 93q84 -63 165 -63q34 0 55.5 14t21.5 37z" />
    <glyph glyph-name="Tcaron" unicode="&#x164;" horiz-adv-x="616" 
d="M593 700v-156h-199v-544h-173v544h-198v156h570zM243 773l-142 181h109l97 -95l98 95h109l-142 -181h-129z" />
    <glyph glyph-name="tcaron" unicode="&#x165;" horiz-adv-x="635" 
d="M256 377v-184q0 -38 19 -56.5t49 -18.5q45 0 85 15v-115q-52 -22 -136 -22q-167 0 -167 176v205h-95v123h95v117h150v-117h153v-123h-153zM438 453l31 257h146l-91 -257h-86z" />
    <glyph glyph-name="Umacron" unicode="&#x16a;" horiz-adv-x="718" 
d="M195 778v96h329v-96h-329zM359 -15q-138 0 -219 83.5t-81 211.5v420h172v-428q0 -53 36.5 -90.5t91.5 -37.5t91.5 37.5t36.5 90.5v428h172v-420q0 -128 -81 -211.5t-219 -83.5z" />
    <glyph glyph-name="umacron" unicode="&#x16b;" horiz-adv-x="609" 
d="M200 500v-268q0 -47 21.5 -75t63.5 -28q31 0 68 27t56 67v277h150v-500h-150v70q-66 -81 -181 -81q-81 0 -129.5 55t-48.5 145v311h150zM140 578v96h329v-96h-329z" />
    <glyph glyph-name="Uring" unicode="&#x16e;" horiz-adv-x="718" 
d="M59 280v420h172v-428q0 -14 7 -28q7 -45 39.5 -72.5t81.5 -27.5q58 0 93 36t35 92v428h173v-395q0 -140 -77.5 -230t-223.5 -90q-138 0 -219 83.5t-81 211.5zM359 770q-48 0 -85 34.5t-37 81.5t37 81.5t85 34.5q49 0 85.5 -34.5t36.5 -81.5t-36.5 -81.5t-85.5 -34.5z
M359 833q22 0 37.5 15.5t15.5 37.5t-15.5 38t-37.5 16t-38 -16t-16 -38q0 -21 16.5 -37t37.5 -16z" />
    <glyph glyph-name="uring" unicode="&#x16f;" horiz-adv-x="609" 
d="M200 500v-268q0 -47 21.5 -75t63.5 -28q31 0 68 27t56 67v277h150v-500h-150v70q-66 -81 -181 -81q-81 0 -129.5 55t-48.5 145v311h150zM304 570q-48 0 -85 34.5t-37 81.5t37 81.5t85 34.5q49 0 85.5 -34.5t36.5 -81.5t-36.5 -81.5t-85.5 -34.5zM304 633q22 0 37.5 15.5
t15.5 37.5t-15.5 38t-37.5 16t-38 -16t-16 -38q0 -21 16.5 -37t37.5 -16z" />
    <glyph glyph-name="Uhungarumlaut" unicode="&#x170;" horiz-adv-x="718" 
d="M359 -15q-138 0 -219 83.5t-81 211.5v420h172v-428q0 -53 36.5 -90.5t91.5 -37.5t91.5 37.5t36.5 90.5v428h172v-420q0 -128 -81 -211.5t-219 -83.5zM611 957l-160 -184h-107l95 184h172zM395 957l-160 -184h-107l95 184h172z" />
    <glyph glyph-name="uhungarumlaut" unicode="&#x171;" horiz-adv-x="609" 
d="M200 500v-268q0 -47 21.5 -75t63.5 -28q31 0 68 27t56 67v277h150v-500h-150v70q-66 -81 -181 -81q-81 0 -129.5 55t-48.5 145v311h150zM573 757l-159 -184h-108l95 184h172zM357 757l-160 -184h-107l95 184h172z" />
    <glyph glyph-name="Uogonek" unicode="&#x172;" horiz-adv-x="718" 
d="M509 -192q-32 0 -64.5 4.5t-67.5 15t-56.5 33.5t-21.5 55q0 42 34 70q-127 8 -200.5 90t-73.5 204v420h172v-428q0 -53 36.5 -90.5t91.5 -37.5t91.5 37.5t36.5 90.5v428h172v-420q0 -103 -53 -178.5t-148 -102.5q-43 -29 -43 -67q0 -24 22.5 -43.5t71.5 -21.5v-59z" />
    <glyph glyph-name="uogonek" unicode="&#x173;" horiz-adv-x="609" 
d="M561 -192q-32 0 -64 4.5t-67 15t-56.5 33.5t-21.5 55q0 23 14 47t43 37v70q-67 -81 -182 -81q-82 0 -129.5 55t-47.5 145v311h150v-268q0 -51 24.5 -78.5t68.5 -27.5q75 0 116 97v277h150v-500q-40 -10 -64.5 -31.5t-24.5 -40.5q0 -24 22.5 -41t68.5 -20v-59z" />
    <glyph glyph-name="Ydieresis" unicode="&#x178;" horiz-adv-x="722" 
d="M5 700h192l164 -295l164 295h192l-270 -459v-241h-172v241l-85 144.5l-100 170zM393 835q0 32 21 54t53 22t54 -22t22 -54t-22 -53.5t-54 -21.5t-53 21.5t-21 53.5zM178 835q0 32 21.5 54t53.5 22q31 0 53 -22t22 -54t-21.5 -53.5t-53.5 -21.5t-53.5 21.5t-21.5 53.5z
" />
    <glyph glyph-name="Zacute" unicode="&#x179;" horiz-adv-x="616" 
d="M572 700v-120l-306 -425h320v-155h-556v119l306 425h-296v156h532zM492 957l-160 -184h-107l95 184h172z" />
    <glyph glyph-name="zacute" unicode="&#x17a;" horiz-adv-x="537" 
d="M260 129h247v-129h-477v95l234 275h-226v130h458v-96zM452 757l-160 -184h-107l95 184h172z" />
    <glyph glyph-name="Zdotaccent" unicode="&#x17b;" horiz-adv-x="616" 
d="M572 700v-120l-306 -425h320v-155h-556v119l306 425h-296v156h532zM233 835q0 32 21.5 54t53.5 22t54 -22.5t22 -53.5q0 -32 -22 -53.5t-54 -21.5t-53.5 21.5t-21.5 53.5z" />
    <glyph glyph-name="zdotaccent" unicode="&#x17c;" horiz-adv-x="537" 
d="M260 129h247v-129h-477v95l234 275h-226v130h458v-96zM193 635q0 32 21.5 54t53.5 22t54 -22.5t22 -53.5q0 -32 -22 -53.5t-54 -21.5t-53.5 21.5t-21.5 53.5z" />
    <glyph glyph-name="Zcaron" unicode="&#x17d;" horiz-adv-x="616" 
d="M572 700v-120l-306 -425h319v-155h-555v119l306 425h-296v156h532zM243 773l-143 181h109l98 -95l98 95h108l-142 -181h-128z" />
    <glyph glyph-name="zcaron" unicode="&#x17e;" horiz-adv-x="537" 
d="M260 129h247v-129h-477v95l234 275h-226v130h458v-96zM205 573l-143 181h109l98 -95l98 95h108l-142 -181h-128z" />
    <glyph glyph-name="circumflex" unicode="&#x2c6;" horiz-adv-x="500" 
d="M54 573l143 181h128l142 -181h-109l-98 94l-97 -94h-109z" />
    <glyph glyph-name="caron" unicode="&#x2c7;" horiz-adv-x="500" 
d="M197 573l-143 181h109l98 -95l98 95h108l-142 -181h-128z" />
    <glyph glyph-name="breve" unicode="&#x2d8;" horiz-adv-x="500" 
d="M250 572q-90 0 -141 43t-65 138h75q9 -35 43 -57t88 -22q53 0 87 22t43 57h76q-15 -95 -65.5 -138t-140.5 -43z" />
    <glyph glyph-name="dotaccent" unicode="&#x2d9;" horiz-adv-x="500" 
d="M175 635q0 32 21.5 54t53.5 22t54 -22.5t22 -53.5q0 -32 -22 -53.5t-54 -21.5t-53.5 21.5t-21.5 53.5z" />
    <glyph glyph-name="ring" unicode="&#x2da;" horiz-adv-x="500" 
d="M250 570q-49 0 -86 34.5t-37 81.5t37 81.5t86 34.5q48 0 85 -34.5t37 -81.5t-37 -81.5t-85 -34.5zM250 633q21 0 37 15.5t16 37.5t-15.5 38t-37.5 16t-38 -16t-16 -38t16 -37.5t38 -15.5z" />
    <glyph glyph-name="ogonek" unicode="&#x2db;" horiz-adv-x="500" 
d="M356 -192q-32 0 -64.5 4.5t-67.5 15t-56.5 33.5t-21.5 55q0 23 14.5 47t42.5 37h105q-46 -29 -46 -68q0 -24 22.5 -43.5t71.5 -21.5v-59z" />
    <glyph glyph-name="tilde" unicode="&#x2dc;" horiz-adv-x="526" 
d="M149 586h-71q14 75 47.5 114t80.5 39q27 0 73 -20.5t70 -20.5q36 0 57 50h70q-14 -75 -47.5 -114t-79.5 -39q-27 0 -73 20.5t-70 20.5q-38 0 -57 -50z" />
    <glyph glyph-name="hungarumlaut" unicode="&#x2dd;" horiz-adv-x="614" 
d="M559 757l-160 -184h-107l95 184h172zM343 757l-160 -184h-107l95 184h172z" />
    <glyph glyph-name="afii10023" unicode="&#x401;" horiz-adv-x="594" 
d="M554 151v-151h-487v700h484v-152h-312v-121h251v-144h-251v-132h315zM344 826q0 32 21 53.5t53 21.5t54 -21.5t22 -53.5t-22 -53.5t-54 -21.5t-53 21.5t-21 53.5zM120 826q0 32 21.5 53.5t53.5 21.5t54 -22t22 -53q0 -32 -22 -53.5t-54 -21.5t-53.5 21.5t-21.5 53.5z" />
    <glyph glyph-name="afii10051" unicode="&#x402;" horiz-adv-x="801" 
d="M593 700v-156h-201v-131q66 19 142 19q106 0 170 -55.5t64 -165.5v-36q0 -78 -51.5 -132t-144.5 -54q-65 0 -130 33q6 19 16.5 57t15.5 54q28 -25 62 -25q59 0 59 69v19q0 40 -25.5 60.5t-61.5 20.5q-68 0 -116 -19v-258h-173v544h-196v156h570z" />
    <glyph glyph-name="afii10052" unicode="&#x403;" horiz-adv-x="562" 
d="M542 700v-156h-303v-544h-172v700h475zM490 949l-160 -184h-107l95 184h172z" />
    <glyph glyph-name="afii10053" unicode="&#x404;" horiz-adv-x="688" 
d="M408 130q109 0 191 56l69 -123q-111 -78 -260 -78q-170 0 -270.5 103.5t-100.5 261.5q0 157 100.5 261t270.5 104q148 0 260 -79l-69 -123q-82 56 -191 56q-76 0 -123.5 -39t-62.5 -102h293v-134h-297q11 -72 60.5 -118t129.5 -46z" />
    <glyph glyph-name="afii10054" unicode="&#x405;" horiz-adv-x="608" 
d="M410 206q0 25 -26 41.5t-65.5 25t-85 25t-85 38t-65.5 66.5t-26 109q0 88 64.5 146t180.5 58q134 0 246 -79l-70 -117q-82 56 -184 56q-37 0 -62.5 -16.5t-25.5 -47.5q0 -22 20.5 -37t53 -24.5t71.5 -19.5t78.5 -26t72 -39t53 -63.5t20.5 -95.5q0 -88 -81.5 -154.5
t-193.5 -66.5q-144 0 -267 85l69 127q39 -27 98 -45t107 -18q46 0 74.5 19.5t28.5 52.5z" />
    <glyph glyph-name="afii10055" unicode="&#x406;" horiz-adv-x="306" 
d="M67 0v700h172v-700h-172z" />
    <glyph glyph-name="afii10056" unicode="&#x407;" horiz-adv-x="306" 
d="M67 0v700h172v-700h-172zM179 835q0 31 18 53t45 22t45.5 -22t18.5 -53q0 -32 -18.5 -53t-45.5 -21t-45 21t-18 53zM0 835q0 31 18 53t45 22t46 -22t19 -53q0 -32 -19 -53t-46 -21t-45 21t-18 53z" />
    <glyph glyph-name="afii10057" unicode="&#x408;" horiz-adv-x="486" 
d="M246 214v486h173v-465q0 -250 -204 -250q-122 0 -212 75l69 115q55 -41 106 -41q32 0 50 22.5t18 57.5z" />
    <glyph glyph-name="afii10058" unicode="&#x409;" horiz-adv-x="1061" 
d="M669 700v-220h95q124 0 195.5 -66.5t71.5 -173.5q0 -105 -71 -172.5t-196 -67.5h-267v544h-180v-135q0 -97 -14 -170.5t-37.5 -118t-59 -72.5t-73.5 -38t-85 -10h-38v155h26q62 0 89 61.5t27 227.5v256h517zM669 155h99q41 0 65.5 24t24.5 61t-24.5 61t-65.5 24h-99v-170
z" />
    <glyph glyph-name="afii10059" unicode="&#x40a;" horiz-adv-x="1050" 
d="M489 0v285h-250v-285h-172v700h172v-260h250v260h173v-224h95q107 0 185 -71t78 -170q0 -101 -77 -168t-186 -67h-268zM662 155h99q41 0 65.5 23t24.5 60q0 36 -24.5 59t-65.5 23h-99v-165z" />
    <glyph glyph-name="afii10060" unicode="&#x40b;" horiz-adv-x="818" 
d="M593 700v-156h-201v-131q66 19 156 19q104 0 169.5 -65.5t65.5 -177.5v-189h-173v189q0 40 -28 64.5t-74 24.5q-65 0 -116 -20v-258h-173v544h-196v156h570z" />
    <glyph glyph-name="afii10061" unicode="&#x40c;" horiz-adv-x="712" 
d="M486 0l-242 356l232 344h199l-239 -344l265 -356h-215zM67 0v700h172v-700h-172zM519 957l-160 -184h-107l95 184h172z" />
    <glyph glyph-name="afii10062" unicode="&#x40e;" horiz-adv-x="723" 
d="M376 0h-193l88 182l-263 518h197l161 -322l156 322h193zM366 850q93 0 160 41l52 -102q-89 -49 -212 -49q-122 0 -211 49l51 102q68 -41 160 -41z" />
    <glyph glyph-name="afii10145" unicode="&#x40f;" horiz-adv-x="735" 
d="M495 155v545h173v-700h-225v-154h-151v154h-225v700h172v-545h256z" />
    <glyph glyph-name="afii10017" unicode="&#x410;" horiz-adv-x="711" 
d="M455 700l248 -700h-173l-43 119h-263l-42 -119h-174l249 700h198zM355 495l-85 -239h171z" />
    <glyph glyph-name="afii10018" unicode="&#x411;" horiz-adv-x="661" 
d="M239 136h123q41 0 65 23.5t24 60.5t-24 60.5t-65 23.5h-123v-168zM558 700v-137h-319v-122h168q93 0 155.5 -63t62.5 -159t-59 -157.5t-159 -61.5h-340v700h491z" />
    <glyph glyph-name="afii10019" unicode="&#x412;" horiz-adv-x="649" 
d="M582 527q0 -51 -29.5 -94.5t-76.5 -66.5q59 -22 96 -70t37 -108q0 -79 -58.5 -133.5t-146.5 -54.5h-337v700h260q30 0 84 -4q74 -5 122.5 -53.5t48.5 -115.5zM239 132h112q35 0 60 23.5t25 57.5t-25 57.5t-60 23.5h-112v-162zM421 493q0 31 -23.5 52.5t-54.5 21.5h-104
v-150h104q31 0 54.5 22t23.5 54z" />
    <glyph glyph-name="afii10020" unicode="&#x413;" horiz-adv-x="562" 
d="M542 700v-156h-303v-544h-172v700h475z" />
    <glyph glyph-name="afii10021" unicode="&#x414;" horiz-adv-x="824" 
d="M166 0v-154h-151v309h81q40 69 57.5 150t17.5 226v169h522v-545h111v-309h-151v154h-487zM521 155v389h-185v-91q0 -176 -60 -298h245z" />
    <glyph glyph-name="afii10022" unicode="&#x415;" horiz-adv-x="594" 
d="M554 151v-151h-487v700h484v-152h-312v-121h251v-144h-251v-132h315z" />
    <glyph glyph-name="afii10024" unicode="&#x416;" horiz-adv-x="1059" 
d="M232 700l145 -261h66v261h173v-261h65l146 261h200l-196 -345l213 -355h-213l-156 283h-59v-283h-173v283h-61l-154 -283h-213l213 355l-197 345h201z" />
    <glyph glyph-name="afii10025" unicode="&#x417;" horiz-adv-x="599" 
d="M284 134q36 0 58.5 23.5t22.5 61.5q0 37 -23 59t-50 22h-115v117h129q26 0 53.5 23.5t27.5 54.5q0 34 -25.5 57t-59.5 23q-108 0 -189 -56l-70 117q112 79 259 79q116 0 178 -52.5t62 -133.5q0 -55 -29.5 -100t-83.5 -68q58 -19 94 -66t36 -107q0 -86 -80.5 -144.5
t-194.5 -58.5q-143 0 -254 78l69 127q81 -56 185 -56z" />
    <glyph glyph-name="afii10026" unicode="&#x418;" horiz-adv-x="738" 
d="M497 0v410l-258 -410h-172v700h172v-412l258 412h173v-700h-173z" />
    <glyph glyph-name="afii10027" unicode="&#x419;" horiz-adv-x="737" 
d="M372 850q93 0 160 41l52 -102q-89 -49 -212 -49q-122 0 -211 49l52 102q67 -41 159 -41zM497 0v410l-258 -410h-172v700h172v-412l258 412h173v-700h-173z" />
    <glyph glyph-name="afii10028" unicode="&#x41a;" horiz-adv-x="712" 
d="M486 0l-242 356l232 344h199l-239 -344l265 -356h-215zM67 0v700h172v-700h-172z" />
    <glyph glyph-name="afii10029" unicode="&#x41b;" horiz-adv-x="742" 
d="M10 0v155h26q62 0 89 61.5t27 227.5v256h523v-700h-173v544h-185v-135q0 -97 -14 -170.5t-37.5 -118t-59 -72.5t-73.5 -38t-85 -10h-38z" />
    <glyph glyph-name="afii10030" unicode="&#x41c;" horiz-adv-x="845" 
d="M234 699l188 -303l188 303h168v-699h-158v459l-166 -271h-64l-165 271v-459h-158v699h167z" />
    <glyph glyph-name="afii10031" unicode="&#x41d;" horiz-adv-x="735" 
d="M495 0v283h-256v-283h-172v700h172v-261h256v261h173v-700h-173z" />
    <glyph glyph-name="afii10032" unicode="&#x41e;" horiz-adv-x="816" 
d="M408 547q-89 0 -144 -56.5t-55 -140.5q0 -86 55 -142t144 -56t144 56t55 142q0 84 -55 140.5t-144 56.5zM408 -15q-170 0 -270.5 103.5t-100.5 261.5q0 157 100.5 261t270.5 104t270.5 -104t100.5 -261q0 -158 -100.5 -261.5t-270.5 -103.5z" />
    <glyph glyph-name="afii10033" unicode="&#x41f;" horiz-adv-x="735" 
d="M495 0v544h-256v-544h-172v700h601v-700h-173z" />
    <glyph glyph-name="afii10034" unicode="&#x420;" horiz-adv-x="643" 
d="M239 219v-219h-172v700h299q108 0 177.5 -70t69.5 -172q0 -101 -70.5 -170t-176.5 -69h-127zM351 544h-112v-170h112q40 0 64.5 24t24.5 61t-24.5 61t-64.5 24z" />
    <glyph glyph-name="afii10035" unicode="&#x421;" horiz-adv-x="691" 
d="M421 145q109 0 191 56l69 -138q-111 -78 -260 -78q-170 0 -270.5 103.5t-100.5 261.5q0 157 100.5 261t270.5 104q148 0 260 -79l-69 -138q-82 56 -191 56q-88 0 -142.5 -59.5t-54.5 -144.5t54.5 -145t142.5 -60z" />
    <glyph glyph-name="afii10036" unicode="&#x422;" horiz-adv-x="616" 
d="M593 700v-156h-199v-544h-173v544h-198v156h570z" />
    <glyph glyph-name="afii10037" unicode="&#x423;" horiz-adv-x="723" 
d="M376 0h-193l89 183l-264 517h197l161 -322l156 322h193z" />
    <glyph glyph-name="afii10038" unicode="&#x424;" horiz-adv-x="891" 
d="M359 0v75h-23q-130 0 -215.5 80t-85.5 209q0 132 86.5 210.5t214.5 78.5h23v67h173v-67h22q130 0 216 -80t86 -209q0 -133 -86.5 -211t-215.5 -78h-22v-75h-173zM532 218h16q69 0 108 41t39 105q0 62 -39.5 104t-107.5 42h-16v-292zM343 218h16v292h-16q-68 0 -108 -42
t-40 -104q0 -63 39.5 -104.5t108.5 -41.5z" />
    <glyph glyph-name="afii10039" unicode="&#x425;" horiz-adv-x="746" 
d="M523 0l-150 209l-150 -209h-210l255 357l-245 343h210l140 -196l140 196h210l-246 -343l256 -357h-210z" />
    <glyph glyph-name="afii10040" unicode="&#x426;" horiz-adv-x="802" 
d="M495 155v545h173v-545h110v-309h-150v154h-561v700h172v-545h256z" />
    <glyph glyph-name="afii10041" unicode="&#x427;" horiz-adv-x="658" 
d="M35 459v241h173v-241q0 -40 27 -64t68 -24q58 0 115 18v311h173v-700h-173v235q-71 -19 -134 -19q-106 0 -177.5 66t-71.5 177z" />
    <glyph glyph-name="afii10042" unicode="&#x428;" horiz-adv-x="1097" 
d="M462 155v545h173v-545h223v545h172v-700h-963v700h172v-545h223z" />
    <glyph glyph-name="afii10043" unicode="&#x429;" horiz-adv-x="1165" 
d="M67 0v700h172v-545h223v545h173v-545h223v545h172v-545h111v-309h-151v154h-923z" />
    <glyph glyph-name="afii10044" unicode="&#x42a;" horiz-adv-x="769" 
d="M372 700v-220h130q102 0 169.5 -69t67.5 -171q0 -111 -69 -175.5t-190 -64.5h-281v544h-176v156h349zM372 155h104q41 0 65.5 24t24.5 61t-24.5 61t-65.5 24h-104v-170z" />
    <glyph glyph-name="afii10045" unicode="&#x42b;" horiz-adv-x="903" 
d="M239 155h104q41 0 65.5 24t24.5 61t-24.5 61t-65.5 24h-104v-170zM239 480h130q102 0 169.5 -69t67.5 -171q0 -111 -69 -175.5t-190 -64.5h-280v700h172v-220zM663 0v700h173v-700h-173z" />
    <glyph glyph-name="afii10046" unicode="&#x42c;" horiz-adv-x="636" 
d="M239 155h104q41 0 65.5 24t24.5 61t-24.5 61t-65.5 24h-104v-170zM239 480h130q102 0 169.5 -69t67.5 -171q0 -111 -69 -175.5t-190 -64.5h-280v700h172v-220z" />
    <glyph glyph-name="afii10047" unicode="&#x42d;" horiz-adv-x="687" 
d="M279 130q80 0 129.5 46t61.5 118h-298v134h293q-15 63 -62.5 102t-123.5 39q-109 0 -190 -56l-69 123q112 79 259 79q170 0 270.5 -104t100.5 -261q0 -158 -100.5 -261.5t-270.5 -103.5q-148 0 -259 78l69 123q81 -56 190 -56z" />
    <glyph glyph-name="afii10048" unicode="&#x42e;" horiz-adv-x="1099" 
d="M691 -15q-151 0 -248 82.5t-117 215.5h-87v-283h-172v700h172v-261h92q26 123 121 199.5t239 76.5q170 0 270.5 -104t100.5 -261q0 -158 -100.5 -261.5t-270.5 -103.5zM691 547q-89 0 -144 -56.5t-55 -140.5q0 -86 55 -142t144 -56t144 56t55 142q0 84 -55 140.5
t-144 56.5z" />
    <glyph glyph-name="afii10049" unicode="&#x42f;" horiz-adv-x="654" 
d="M414 0v219h-67l-135 -219h-177l149 244q-66 26 -105 83.5t-39 130.5q0 101 70 171.5t177 70.5h300v-700h-173zM414 544h-111q-41 0 -65 -24t-24 -61t24.5 -61t64.5 -24h111v170z" />
    <glyph glyph-name="afii10065" unicode="&#x430;" horiz-adv-x="577" 
d="M203 -15q-80 0 -126 36.5t-46 105.5q0 51 26 86t76 52.5t107.5 24t136.5 6.5v25q0 80 -95 80q-38 0 -82.5 -14.5t-77.5 -38.5l-73 86q96 81 239 81q113 0 176 -43.5t63 -128.5v-343h-150v73q-38 -44 -84.5 -66t-89.5 -22zM262 89q63 0 115 73v60q-42 -1 -65 -3t-54.5 -9
t-46.5 -24t-15 -43q0 -25 18 -39.5t48 -14.5z" />
    <glyph glyph-name="afii10066" unicode="&#x431;" horiz-adv-x="595" 
d="M509 732l29 -126q-38 -8 -88 -18t-79 -15.5t-65.5 -14.5t-57 -17.5t-43.5 -22.5t-34.5 -31t-20.5 -41.5t-12 -55.5q24 40 73.5 62t97.5 22q117 0 186 -63.5t69 -165.5q0 -116 -72 -188t-192 -72q-134 0 -201.5 83t-67.5 238q0 186 55.5 268t207.5 110q111 21 215 48z
M298 116q49 0 82.5 34.5t33.5 83.5q0 52 -34.5 85t-81.5 33t-81 -33t-34 -85q0 -49 33 -83.5t82 -34.5z" />
    <glyph glyph-name="afii10067" unicode="&#x432;" horiz-adv-x="556" 
d="M498 376q0 -36 -19.5 -67t-53.5 -47q44 -15 70 -49t26 -78q0 -58 -41.5 -96.5t-113.5 -38.5h-316v500h306q65 0 103.5 -35.5t38.5 -88.5zM200 97h109q27 0 44 15.5t17 40.5q0 24 -17 39.5t-44 15.5h-109v-111zM359 352q0 22 -16 36t-41 14h-102v-103h102q25 0 41 15
t16 38z" />
    <glyph glyph-name="afii10068" unicode="&#x433;" horiz-adv-x="458" 
d="M443 500v-138h-243v-362h-150v500h393z" />
    <glyph glyph-name="afii10069" unicode="&#x434;" horiz-adv-x="681" 
d="M145 0v-141h-130v270h62q60 82 60 235v136h439v-371h85v-270h-143v141h-373zM425 129v241h-144v-32q0 -57 -13 -115t-34 -94h191z" />
    <glyph glyph-name="afii10070" unicode="&#x435;" horiz-adv-x="581" 
d="M550 255q0 -26 -4 -46h-363q31 -104 137 -104q80 0 141 40q8 -15 25 -45t25 -45q-80 -70 -213 -70q-111 0 -189 75.5t-78 185.5q0 111 76.5 190t185.5 79q117 0 187 -69.5t70 -190.5zM410 301q-9 43 -39.5 68t-77.5 25q-42 0 -73.5 -24.5t-41.5 -68.5h232z" />
    <glyph glyph-name="afii10072" unicode="&#x436;" horiz-adv-x="836" 
d="M343 0v192h-50l-116 -192h-161l161 257l-154 243h161l106 -171h53v171h150v-171h51l107 171h161l-154 -243l162 -257h-161l-117 192h-49v-192h-150z" />
    <glyph glyph-name="afii10073" unicode="&#x437;" horiz-adv-x="487" 
d="M160 298h74q27 0 45 16t18 38q0 28 -20 38t-58 10q-76 0 -134 -44l-58 86q79 73 220 73q90 0 141 -38t51 -94q0 -40 -22.5 -73.5t-61.5 -49.5q45 -16 71 -50t26 -76q0 -62 -53 -105.5t-164 -43.5q-139 0 -215 72l56 84q66 -47 149 -47q33 0 54 16.5t21 41.5
q0 24 -18.5 39t-48.5 15h-73v92z" />
    <glyph glyph-name="afii10074" unicode="&#x438;" horiz-adv-x="609" 
d="M200 500v-287l209 287h150v-500h-150v286l-208 -286h-151v500h150z" />
    <glyph glyph-name="afii10075" unicode="&#x439;" horiz-adv-x="609" 
d="M305 665q73 0 140 35l45 -87q-87 -46 -185 -46q-100 0 -187 46l46 87q67 -35 141 -35zM200 500v-287l208 287h151v-500h-150v286l-208 -286h-151v500h150z" />
    <glyph glyph-name="afii10076" unicode="&#x43a;" horiz-adv-x="569" 
d="M392 0l-182 264l175 236h164l-175 -236l185 -264h-167zM50 500h150v-500h-150v500z" />
    <glyph glyph-name="afii10077" unicode="&#x43b;" horiz-adv-x="620" 
d="M10 0v114h29q80 0 80 192v194h451v-500h-150v370h-158v-97q0 -139 -47.5 -206t-133.5 -67h-71z" />
    <glyph glyph-name="afii10078" unicode="&#x43c;" horiz-adv-x="704" 
d="M352 290l144 210h158v-500h-150v307l-124 -183h-56l-124 181v-305h-150v500h159z" />
    <glyph glyph-name="afii10079" unicode="&#x43d;" horiz-adv-x="609" 
d="M409 190h-209v-190h-150v500h150v-173h209v173h150v-500h-150v190z" />
    <glyph glyph-name="afii10080" unicode="&#x43e;" horiz-adv-x="592" 
d="M296 124q51 0 86.5 36.5t35.5 89.5q0 51 -35.5 88t-86.5 37t-86.5 -37t-35.5 -88q0 -53 35 -89.5t87 -36.5zM296 -15q-112 0 -188.5 77.5t-76.5 187.5t76.5 187.5t188.5 77.5t188.5 -77.5t76.5 -187.5t-76.5 -187.5t-188.5 -77.5z" />
    <glyph glyph-name="afii10081" unicode="&#x43f;" horiz-adv-x="609" 
d="M409 370h-209v-370h-150v500h509v-500h-150v370z" />
    <glyph glyph-name="afii10082" unicode="&#x440;" horiz-adv-x="612" 
d="M346 -15q-44 0 -84 21.5t-62 58.5v-269h-150v704h150v-66q24 37 64.5 57.5t87.5 20.5q104 0 166.5 -76t62.5 -186q0 -113 -64.5 -189t-170.5 -76zM299 374q-60 0 -99 -49v-151q39 -49 99 -49q50 0 86.5 37t36.5 88t-36.5 87.5t-86.5 36.5z" />
    <glyph glyph-name="afii10083" unicode="&#x441;" horiz-adv-x="511" 
d="M174 250q0 -53 37 -88.5t91 -35.5q69 0 129 40l66 -109q-77 -72 -203 -72q-110 0 -186.5 78t-76.5 187q0 108 77 186.5t186 78.5q125 0 203 -73l-66 -109q-62 40 -129 40q-52 0 -90 -35.5t-38 -87.5z" />
    <glyph glyph-name="afii10084" unicode="&#x442;" horiz-adv-x="502" 
d="M487 500v-138h-161v-362h-150v362h-161v138h472z" />
    <glyph glyph-name="afii10085" unicode="&#x443;" horiz-adv-x="601" 
d="M594 500l-310 -704h-151l86 205l-212 499h164l126 -315l134 315h163z" />
    <glyph glyph-name="afii10086" unicode="&#x444;" horiz-adv-x="784" 
d="M496 -15h-29v-189h-150v189h-29q-109 0 -183 77.5t-74 187.5t74 187.5t183 77.5h29v195h150v-195h29q108 0 182.5 -77.5t74.5 -187.5t-74 -187.5t-183 -77.5zM467 125h12q50 0 86.5 37t36.5 88t-36.5 87.5t-86.5 36.5h-12v-249zM317 374h-11q-51 0 -87.5 -36.5
t-36.5 -87.5t36.5 -88t87.5 -37h11v249z" />
    <glyph glyph-name="afii10087" unicode="&#x445;" horiz-adv-x="601" 
d="M399 0l-99 152l-99 -152h-190l187 253l-181 247h191l92 -153l93 153h190l-195 -247l202 -253h-191z" />
    <glyph glyph-name="afii10088" unicode="&#x446;" horiz-adv-x="664" 
d="M200 129h209v371h150v-371h85v-270h-143v141h-451v500h150v-371z" />
    <glyph glyph-name="afii10089" unicode="&#x447;" horiz-adv-x="556" 
d="M35 306v194h150v-165q0 -28 21 -45.5t53 -17.5q49 0 97 15v213h150v-500h-150v158q-63 -14 -121 -14q-90 0 -145 41.5t-55 120.5z" />
    <glyph glyph-name="afii10090" unicode="&#x448;" horiz-adv-x="899" 
d="M200 129h175v371h149v-371h175v371h150v-500h-799v500h150v-371z" />
    <glyph glyph-name="afii10091" unicode="&#x449;" horiz-adv-x="964" 
d="M200 129h175v371h149v-371h175v371h150v-371h95v-247h-131v118h-763v500h150v-371z" />
    <glyph glyph-name="afii10092" unicode="&#x44a;" horiz-adv-x="643" 
d="M11 500h294v-154h118q84 0 138 -50t54 -123q0 -74 -52.5 -123.5t-139.5 -49.5h-268v362h-144v138zM305 114h96q27 0 45 16.5t18 42.5q0 27 -18 43.5t-45 16.5h-96v-119z" />
    <glyph glyph-name="afii10093" unicode="&#x44b;" horiz-adv-x="757" 
d="M200 346h118q84 0 138 -49.5t54 -123.5t-52.5 -123.5t-139.5 -49.5h-268v500h150v-154zM200 114h96q27 0 45 16.5t18 42.5q0 27 -18 43.5t-45 16.5h-96v-119zM557 0v500h150v-500h-150z" />
    <glyph glyph-name="afii10094" unicode="&#x44c;" horiz-adv-x="538" 
d="M200 346h118q84 0 138 -49.5t54 -123.5t-52.5 -123.5t-139.5 -49.5h-268v500h150v-154zM200 114h96q27 0 45 16.5t18 42.5q0 27 -18 43.5t-45 16.5h-96v-119z" />
    <glyph glyph-name="afii10095" unicode="&#x44d;" horiz-adv-x="517" 
d="M139 198v101h195q-11 39 -42 63.5t-77 24.5q-72 0 -130 -35l-65 90q78 73 203 73q109 0 186 -78.5t77 -186.5q0 -109 -76.5 -187t-186.5 -78q-127 0 -203 72l65 90q58 -35 130 -35q45 0 76 23.5t42 62.5h-194z" />
    <glyph glyph-name="afii10096" unicode="&#x44e;" horiz-adv-x="816" 
d="M517 -15q-99 0 -172 61.5t-90 154.5h-55v-201h-150v500h150v-184h59q22 87 93 143t165 56q113 0 190.5 -77.5t77.5 -187.5t-77.5 -187.5t-190.5 -77.5zM517 124q52 0 88.5 36.5t36.5 89.5q0 51 -36.5 88t-88.5 37q-51 0 -87.5 -37t-36.5 -88q0 -53 36 -89.5t88 -36.5z
" />
    <glyph glyph-name="afii10097" unicode="&#x44f;" horiz-adv-x="537" 
d="M338 153h-55l-89 -153h-163l108 170q-50 19 -79 61t-29 95q0 74 52 124t139 50h265v-500h-149v153zM338 385h-94q-27 0 -45 -16.5t-18 -42.5q0 -27 18 -43.5t45 -16.5h94v119z" />
    <glyph glyph-name="afii10071" unicode="&#x451;" horiz-adv-x="581" 
d="M116 634q0 32 21.5 53.5t53.5 21.5t54 -22t22 -53q0 -32 -22 -53.5t-54 -21.5t-53.5 21.5t-21.5 53.5zM339 634q0 32 21.5 53.5t53.5 21.5t54 -22t22 -53q0 -32 -22 -53.5t-54 -21.5t-53.5 21.5t-21.5 53.5zM550 255q0 -26 -4 -46h-363q31 -104 137 -104q80 0 141 40
q8 -15 25 -45t25 -45q-80 -70 -213 -70q-111 0 -189 75.5t-78 185.5q0 111 76.5 190t185.5 79q117 0 187 -69.5t70 -190.5zM410 301q-9 43 -39.5 68t-77.5 25q-42 0 -73.5 -24.5t-41.5 -68.5h232z" />
    <glyph glyph-name="afii10099" unicode="&#x452;" horiz-adv-x="609" 
d="M369 650v-94h-169v-131q66 83 181 83q81 0 129.5 -56t48.5 -145v-511h-150v467q0 41 -26.5 73.5t-66.5 32.5q-39 0 -69 -28t-47 -69v-272h-150v556h-97v94h97v60h150v-60h169z" />
    <glyph glyph-name="afii10100" unicode="&#x453;" horiz-adv-x="458" 
d="M443 500v-138h-243v-362h-150v500h393zM408 757l-160 -184h-107l95 184h172z" />
    <glyph glyph-name="afii10101" unicode="&#x454;" horiz-adv-x="523" 
d="M307 386q-46 0 -79 -24.5t-45 -62.5h199v-101h-198q11 -38 44 -62t79 -24q73 0 131 35l65 -90q-78 -72 -203 -72q-111 0 -190 77t-79 187t79 187t190 77q124 0 203 -73l-65 -90q-60 36 -131 36z" />
    <glyph glyph-name="afii10102" unicode="&#x455;" horiz-adv-x="496" 
d="M330 146q0 18 -21 28.5t-52 14.5t-67.5 14t-67.5 24t-52 47.5t-21 82.5q0 69 54.5 113.5t155.5 44.5q114 0 199 -75l-63 -89q-63 52 -136 52q-34 0 -54.5 -12t-20.5 -33t29.5 -33t71 -20t83.5 -21t71.5 -45.5t29.5 -83.5q0 -82 -58 -126t-158 -44q-132 0 -226 80l61 93
q84 -63 165 -63q34 0 55.5 14t21.5 37z" />
    <glyph glyph-name="afii10103" unicode="&#x456;" horiz-adv-x="250" 
d="M50 0v500h150v-500h-150zM45 631q0 32 24 55.5t56 23.5t55.5 -23.5t23.5 -55.5q0 -33 -23.5 -56.5t-55.5 -23.5q-33 0 -56.5 23.5t-23.5 56.5z" />
    <glyph glyph-name="afii10104" unicode="&#x457;" horiz-adv-x="250" 
d="M50 0v500h150v-500h-150zM148 635q0 32 17.5 54.5t42.5 22.5t42.5 -22.5t17.5 -54.5t-17.5 -54t-42.5 -22t-42.5 22t-17.5 54zM-18 635q0 33 16.5 55t41.5 22q26 0 43.5 -22.5t17.5 -54.5t-17.5 -54t-43.5 -22q-25 0 -41.5 21.5t-16.5 54.5z" />
    <glyph glyph-name="afii10105" unicode="&#x458;" horiz-adv-x="250" 
d="M49 -204v704h150v-704h-150zM45 631q0 32 23.5 55.5t55.5 23.5t55.5 -23.5t23.5 -55.5q0 -33 -23.5 -56.5t-55.5 -23.5t-55.5 23.5t-23.5 56.5z" />
    <glyph glyph-name="afii10106" unicode="&#x459;" horiz-adv-x="897" 
d="M564 346h114q84 0 137.5 -50t53.5 -123q0 -74 -52 -123.5t-139 -49.5h-264v370h-152v-97q0 -139 -47.5 -206t-133.5 -67h-71v114h29q80 0 80 192v194h445v-154zM564 114h91q28 0 45.5 16.5t17.5 42.5q0 27 -17.5 43.5t-45.5 16.5h-91v-119z" />
    <glyph glyph-name="afii10107" unicode="&#x45a;" horiz-adv-x="885" 
d="M553 343h113q84 0 137.5 -49.5t53.5 -122.5q0 -71 -52.5 -121t-138.5 -50h-263v193h-203v-193h-150v500h150v-170h203v170h150v-157zM553 114h90q28 0 45.5 15.5t17.5 41.5q0 27 -17.5 42.5t-45.5 15.5h-90v-115z" />
    <glyph glyph-name="afii10108" unicode="&#x45b;" horiz-adv-x="609" 
d="M369 650v-94h-169v-131q66 83 181 83q81 0 129.5 -56t48.5 -145v-307h-150v263q0 51 -24.5 78.5t-68.5 27.5q-39 0 -69 -28t-47 -69v-272h-150v556h-97v94h97v60h150v-60h169z" />
    <glyph glyph-name="afii10109" unicode="&#x45c;" horiz-adv-x="569" 
d="M179 573l94 181h168l-155 -181h-107zM392 0l-182 264l175 236h164l-175 -236l185 -264h-167zM50 500h150v-500h-150v500z" />
    <glyph glyph-name="afii10110" unicode="&#x45e;" horiz-adv-x="601" 
d="M594 500l-310 -704h-151l86 205l-212 499h164l126 -315l134 315h163zM297 665q73 0 140 35l45 -87q-87 -46 -185 -46q-100 0 -187 46l46 87q67 -35 141 -35z" />
    <glyph glyph-name="afii10193" unicode="&#x45f;" horiz-adv-x="609" 
d="M200 129h209v371h150v-500h-184v-141h-142v141h-183v500h150v-371z" />
    <glyph glyph-name="afii10050" unicode="&#x490;" horiz-adv-x="562" 
d="M542 544h-303v-544h-172v700h339v124h136v-280z" />
    <glyph glyph-name="afii10098" unicode="&#x491;" horiz-adv-x="457" 
d="M442 622v-260h-242v-362h-150v500h271v122h121z" />
    <glyph glyph-name="endash" unicode="&#x2013;" horiz-adv-x="558" 
d="M35 219v110h488v-110h-488z" />
    <glyph glyph-name="emdash" unicode="&#x2014;" horiz-adv-x="859" 
d="M14 219v110h831v-110h-831z" />
    <glyph glyph-name="quoteleft" unicode="&#x2018;" horiz-adv-x="307" 
d="M256 710l-36 -311h-175l108 311h103z" />
    <glyph glyph-name="quoteright" unicode="&#x2019;" horiz-adv-x="307" 
d="M45 399l36 311h175l-108 -311h-103z" />
    <glyph glyph-name="quotesinglbase" unicode="&#x201a;" horiz-adv-x="298" 
d="M45 -148l36 311h175l-108 -311h-103z" />
    <glyph glyph-name="quotedblleft" unicode="&#x201c;" horiz-adv-x="572" 
d="M256 710l-36 -311h-175l108 311h103zM521 710l-36 -311h-175l108 311h103z" />
    <glyph glyph-name="quotedblright" unicode="&#x201d;" horiz-adv-x="572" 
d="M310 399l36 311h175l-108 -311h-103zM45 399l36 311h175l-108 -311h-103z" />
    <glyph glyph-name="quotedblbase" unicode="&#x201e;" horiz-adv-x="563" 
d="M310 -148l36 311h175l-108 -311h-103zM45 -148l36 311h175l-108 -311h-103z" />
    <glyph glyph-name="dagger" unicode="&#x2020;" horiz-adv-x="522" 
d="M175 -108l20 464l-165 -14v161l164 -15l-17 212h168l-17 -212l164 15v-161l-165 14l23 -464h-175z" />
    <glyph glyph-name="daggerdbl" unicode="&#x2021;" horiz-adv-x="523" 
d="M175 294l20 99l-165 -14v160l164 -14l-17 175h168l-16 -175l164 14v-160l-165 14l21 -96l-21 -99l165 14v-160l-164 14l16 -174h-168l17 174l-164 -14v160l165 -14z" />
    <glyph glyph-name="bullet" unicode="&#x2022;" horiz-adv-x="425" 
d="M213 190q-68 0 -115.5 47t-47.5 114q0 66 48.5 114t114.5 48q63 0 112.5 -47.5t49.5 -113.5q0 -68 -47.5 -115t-114.5 -47z" />
    <glyph glyph-name="ellipsis" unicode="&#x2026;" horiz-adv-x="894" 
d="M60 79q0 38 26 64.5t63 26.5t64 -27t27 -64q0 -38 -26.5 -63.5t-64.5 -25.5t-63.5 25.5t-25.5 63.5zM356 79q0 38 26 64.5t64 26.5t64.5 -27t26.5 -64q0 -38 -26.5 -63.5t-64.5 -25.5t-64 25.5t-26 63.5zM653 79q0 38 26 64.5t64 26.5q37 0 64 -27t27 -64
q0 -38 -26.5 -63.5t-64.5 -25.5t-64 25.5t-26 63.5z" />
    <glyph glyph-name="perthousand" unicode="&#x2030;" horiz-adv-x="1082" 
d="M882 0q-66 0 -107 42.5t-41 105.5q0 62 41 104.5t107 42.5q67 0 108.5 -42.5t41.5 -104.5q0 -63 -41.5 -105.5t-108.5 -42.5zM882 82q30 0 49 19.5t19 46.5q0 28 -19 46.5t-49 18.5q-29 0 -47.5 -18.5t-18.5 -46.5q0 -27 18.5 -46.5t47.5 -19.5zM199 403q-66 0 -107.5 43
t-41.5 105t41.5 105t107.5 43t108 -43t42 -105t-42 -105t-108 -43zM199 485q29 0 48.5 19.5t19.5 46.5t-19 46t-49 19q-29 0 -47.5 -18.5t-18.5 -46.5t18.5 -47t47.5 -19zM170 0h-120l523 700h119zM543 0q-67 0 -108 42.5t-41 105.5q0 62 41 104.5t108 42.5
q66 0 107.5 -42.5t41.5 -104.5q0 -63 -41.5 -105.5t-107.5 -42.5zM543 82q29 0 48 19.5t19 46.5q0 28 -19 46.5t-48 18.5q-30 0 -48 -18.5t-18 -46.5q0 -27 18 -46.5t48 -19.5z" />
    <glyph glyph-name="guilsinglleft" unicode="&#x2039;" horiz-adv-x="329" 
d="M245 13l-210 212v20l210 212l59 -54l-122 -167l122 -169z" />
    <glyph glyph-name="guilsinglright" unicode="&#x203a;" horiz-adv-x="330" 
d="M295 225l-211 -212l-59 54l123 169l-123 167l59 54l211 -212v-20z" />
    <glyph glyph-name="fraction" unicode="&#x2044;" horiz-adv-x="742" 
d="M169 0h-119l523 700h119z" />
    <glyph glyph-name="Euro" unicode="&#x20ac;" horiz-adv-x="742" 
d="M462 145q109 0 191 56l69 -138q-111 -78 -260 -78q-136 0 -229 67.5t-126 180.5h-97v92h81q0 1 -0.5 10.5t-0.5 14.5q0 17 2 25h-82v92h98q33 112 126 180t228 68q148 0 260 -79l-69 -138q-82 56 -191 56q-53 0 -93 -23.5t-62 -63.5h257v-92h-298q-1 -8 -1 -25t1 -25h298
v-92h-257q22 -41 62 -64.5t93 -23.5z" />
    <glyph glyph-name="afii61352" unicode="&#x2116;" horiz-adv-x="1054" 
d="M239 410v-410h-172v700h172l260 -412v412h173v-700h-173zM875 404q-67 0 -108 43t-41 105t41 105t108 43q66 0 107.5 -43t41.5 -105t-41.5 -105t-107.5 -43zM875 486q29 0 48 19t19 47t-19 46.5t-48 18.5t-47.5 -18.5t-18.5 -46.5t18.5 -47t47.5 -19zM726 241v99h297v-99
h-297z" />
    <glyph glyph-name="trademark" unicode="&#x2122;" horiz-adv-x="749" 
d="M353 391v309h89l89 -123l88 123h90v-309h-94v182l-69 -103h-31l-69 103v-182h-93zM115 391v223h-95v86h285v-86h-96v-223h-94z" />
    <glyph glyph-name="minus" unicode="&#x2212;" horiz-adv-x="640" 
d="M585 230h-531v113h531v-113z" />
    <glyph glyph-name="infinity" unicode="&#x221e;" horiz-adv-x="734" 
d="M523 484q83 0 134.5 -56t51.5 -141q0 -92 -52.5 -145t-133.5 -53q-80 0 -157 95q-74 -95 -155 -95q-80 0 -133 53t-53 145q0 85 51.5 141t134.5 56t155 -96q73 96 157 96zM523 206q30 0 50.5 22t20.5 59q0 35 -20 57.5t-51 22.5q-21 0 -45.5 -22.5t-43.5 -58.5
q19 -35 43.5 -57.5t45.5 -22.5zM211 206q20 0 44.5 22.5t44.5 58.5q-19 35 -44 57.5t-45 22.5q-31 0 -51 -22.5t-20 -57.5q0 -37 20.5 -59t50.5 -22z" />
    <glyph glyph-name="approxequal" unicode="&#x2248;" horiz-adv-x="640" 
d="M55 107v114q58 53 127 53q46 0 137.5 -34t138.5 -34q71 0 127 55v-114q-59 -56 -129 -56q-46 0 -138 34t-138 34q-69 0 -125 -52zM55 344v113q57 53 127 53q46 0 137.5 -34t138.5 -34q70 0 127 56v-114q-59 -56 -129 -56q-46 0 -138 34t-138 34q-68 0 -125 -52z" />
    <glyph glyph-name="notequal" unicode="&#x2260;" horiz-adv-x="640" 
d="M55 344v113h271l67 154l101 -42l-50 -112h141v-113h-187l-54 -123h241v-113h-288l-56 -129l-100 46l37 83h-123v113h170l54 123h-224z" />
    <glyph glyph-name="lessequal" unicode="&#x2264;" horiz-adv-x="640" 
d="M580 134l-520 153v110l520 156v-114l-379 -97l379 -94v-114zM580 0h-520v112h520v-112z" />
    <glyph glyph-name="greaterequal" unicode="&#x2265;" horiz-adv-x="640" 
d="M580 287l-520 -153v114l379 94l-379 97v114l520 -156v-110zM580 0h-520v112h520v-112z" />
    <glyph glyph-name="lozenge" unicode="&#x25ca;" horiz-adv-x="583" 
d="M245 0l-210 350l210 350h93l210 -350l-210 -350h-93zM290 133l125 217l-125 216l-124 -216z" />
    <glyph glyph-name="zerosmall" unicode="&#xf326;" horiz-adv-x="522" 
d="M475 269q0 -131 -57 -205.5t-157 -74.5t-157 74.5t-57 205.5t57 206t157 75t157 -75t57 -206zM197 269q0 -76 17 -119t47 -43t47.5 43t17.5 119t-17.5 119t-47.5 43t-47 -43t-17 -119z" />
    <glyph glyph-name="onesmall" unicode="&#xf327;" horiz-adv-x="522" 
d="M476 129v-129h-406v129h128v247l-92 -50l-60 100l225 120h77v-417h128z" />
    <glyph glyph-name="twosmall" unicode="&#xf328;" horiz-adv-x="522" 
d="M120 374l-67 91q42 39 99 62t113 23q93 0 143 -48.5t50 -119.5q0 -58 -45 -117.5t-136 -135.5h191v-129h-408v106l73 64q126 111 142 127q34 40 35 77q0 21 -16.5 39t-46.5 18q-61 0 -127 -57z" />
    <glyph glyph-name="threesmall" unicode="&#xf329;" horiz-adv-x="522" 
d="M248 107q26 0 41.5 17t15.5 45t-14.5 42t-33.5 14q-23 0 -75 -13l-25 92q4 1 24.5 5.5t30 7l28.5 7.5t29 10.5t22 13.5t17 17.5t5 21.5q0 21 -14.5 34t-39.5 13q-64 0 -134 -47l-56 95q96 68 193 68q94 0 141 -40t47 -102q0 -37 -23 -70.5t-66 -55.5q102 -37 102 -131
q0 -70 -60.5 -116t-160.5 -46q-53 0 -94 15.5t-90 48.5l63 98q65 -44 127 -44z" />
    <glyph glyph-name="foursmall" unicode="&#xf32a;" horiz-adv-x="522" 
d="M412 0h-150v117h-223l-17 86l260 343h130v-328h87v-101h-87v-117zM262 369l-110 -151h110v151z" />
    <glyph glyph-name="fivesmall" unicode="&#xf32b;" horiz-adv-x="522" 
d="M217 409l-11 -75q36 13 85 13q81 0 126.5 -48.5t45.5 -120.5q0 -76 -56 -132.5t-161 -56.5q-54 0 -96 15t-91 48l61 99q62 -44 126 -44q27 0 48 22.5t21 48.5q0 30 -17.5 47.5t-47.5 17.5q-40 0 -82 -21l-87 32l37 285h329v-130h-230z" />
    <glyph glyph-name="sixsmall" unicode="&#xf32c;" horiz-adv-x="522" 
d="M289 444q-40 0 -65 -27t-25 -82q46 30 105 30q72 0 121.5 -49t49.5 -126q0 -96 -58 -148.5t-156 -52.5q-214 0 -214 275q0 286 230 286q92 0 183 -58l-57 -92q-56 44 -114 44zM198 214q0 -107 70 -107q26 0 45.5 20.5t19.5 57.5q0 36 -17 56.5t-42 20.5q-56 0 -76 -48z
" />
    <glyph glyph-name="sevensmall" unicode="&#xf32d;" horiz-adv-x="522" 
d="M469 434l-186 -434h-160l181 404h-250v135h415v-105z" />
    <glyph glyph-name="eightsmall" unicode="&#xf32e;" horiz-adv-x="522" 
d="M464 398q0 -85 -80 -129q91 -46 91 -133q0 -70 -56 -108.5t-158 -38.5q-101 0 -157.5 38.5t-56.5 108.5q0 87 93 134q-78 43 -78 128q0 65 54 108.5t145 43.5q95 0 149 -44.5t54 -107.5zM326 163q0 46 -65 71q-31 -12 -47.5 -28t-16.5 -43t17 -44t47 -17q32 0 48.5 17
t16.5 44zM205 382q0 -41 56 -66q56 26 56 66q0 24 -15 39t-41 15q-25 0 -40.5 -15t-15.5 -39z" />
    <glyph glyph-name="ninesmall" unicode="&#xf32f;" horiz-adv-x="522" 
d="M233 95q40 0 65 27t25 82q-46 -30 -105 -30q-72 0 -121.5 49t-49.5 126q0 96 58 148.5t156 52.5q214 0 214 -275q0 -286 -230 -286q-92 0 -183 58l57 92q56 -44 114 -44zM324 325q0 107 -70 107q-26 0 -45.5 -20.5t-19.5 -57.5q0 -36 17 -56.5t42 -20.5q56 0 76 48z" />
    <glyph glyph-name="afii10017small" unicode="&#xf350;" horiz-adv-x="595" 
d="M380 542l205 -542h-152l-34 90h-203l-34 -90h-152l204 542h166zM298 365l-62 -160h123z" />
    <glyph glyph-name="afii10018small" unicode="&#xf351;" horiz-adv-x="567" 
d="M220 115h92q29 0 47 16.5t18 41.5t-18 41.5t-47 16.5h-92v-116zM475 542v-115h-255v-81h128q77 0 129 -50t52 -125t-49 -123t-132 -48h-281v542h408z" />
    <glyph glyph-name="afii10019small" unicode="&#xf352;" horiz-adv-x="551" 
d="M493 405q0 -74 -76 -122q46 -21 72 -56t26 -79q0 -62 -48.5 -105t-121.5 -43h-278v542h234q192 0 192 -137zM219 111h83q25 0 43 16.5t18 39.5t-18 40t-43 17h-83v-113zM352 379q0 21 -17 36t-40 15h-76v-103h76q23 0 40 15.5t17 36.5z" />
    <glyph glyph-name="afii10020small" unicode="&#xf353;" horiz-adv-x="481" 
d="M461 542v-129h-243v-413h-151v542h394z" />
    <glyph glyph-name="afii10021small" unicode="&#xf354;" horiz-adv-x="682" 
d="M148 0v-117h-133v246h67q57 88 57 209v204h433v-413h90v-246h-135v117h-379zM421 129v284h-136v-63q0 -124 -45 -221h181z" />
    <glyph glyph-name="afii10022small" unicode="&#xf355;" horiz-adv-x="514" 
d="M471 126v-126h-404v542h401v-126h-250v-80h202v-121h-202v-89h253z" />
    <glyph glyph-name="afii10024small" unicode="&#xf356;" horiz-adv-x="850" 
d="M189 542l109 -197h52v197h151v-197h51l110 197h151l-148 -266l170 -276h-165l-122 215h-47v-215h-151v215h-49l-122 -215h-164l170 277l-148 265h152z" />
    <glyph glyph-name="afii10025small" unicode="&#xf357;" horiz-adv-x="492" 
d="M228 113q26 0 43 18t17 39q0 31 -23 44.5t-56 13.5h-73v99h110q23 0 41 16t18 37q0 24 -18.5 40t-43.5 16q-82 0 -153 -45l-65 99q102 63 218 63q96 0 147.5 -41.5t51.5 -105.5q0 -37 -20.5 -70.5t-58.5 -54.5q41 -21 66.5 -56.5t25.5 -75.5q0 -68 -66.5 -114.5
t-160.5 -46.5q-112 0 -213 64l63 106q72 -45 150 -45z" />
    <glyph glyph-name="afii10026small" unicode="&#xf358;" horiz-adv-x="631" 
d="M414 0v297l-199 -297h-148v542h151v-299l198 299h148v-542h-150z" />
    <glyph glyph-name="afii10027small" unicode="&#xf359;" horiz-adv-x="631" 
d="M321 695q66 0 130 34l48 -88q-78 -40 -178 -40q-99 0 -181 41l48 87q63 -34 133 -34zM414 4v297l-199 -297h-148v542h151v-299l198 299h148v-542h-150z" />
    <glyph glyph-name="afii10028small" unicode="&#xf35a;" horiz-adv-x="607" 
d="M406 0l-178 276l170 266h175l-175 -266l197 -276h-189zM67 0v542h151v-542h-151z" />
    <glyph glyph-name="afii10029small" unicode="&#xf35b;" horiz-adv-x="632" 
d="M10 0v129h34q40 0 61.5 39.5t21.5 143.5v230h438v-542h-153v413h-142v-113q0 -88 -17 -149t-49.5 -93t-70 -45t-88.5 -13h-35z" />
    <glyph glyph-name="afii10030small" unicode="&#xf35c;" horiz-adv-x="719" 
d="M211 541l148 -225l149 225h144v-541h-139v335l-125 -192h-57l-124 191v-334h-140v541h144z" />
    <glyph glyph-name="afii10031small" unicode="&#xf35d;" horiz-adv-x="629" 
d="M412 0v215h-193v-215h-152v542h152v-197h193v197h150v-542h-150z" />
    <glyph glyph-name="afii10032small" unicode="&#xf35e;" horiz-adv-x="682" 
d="M340 415q-68 0 -110.5 -41t-42.5 -103q0 -61 42.5 -103t110.5 -42t111 42t43 103q0 62 -42.5 103t-111.5 41zM340 -12q-139 0 -221 80.5t-82 202.5t82 202t221 80q140 0 222.5 -80.5t82.5 -201.5q0 -122 -82.5 -202.5t-222.5 -80.5z" />
    <glyph glyph-name="afii10033small" unicode="&#xf35f;" horiz-adv-x="629" 
d="M412 0v413h-194v-413h-151v542h495v-542h-150z" />
    <glyph glyph-name="afii10034small" unicode="&#xf360;" horiz-adv-x="550" 
d="M220 166v-166h-153v542h248q88 0 146.5 -55t58.5 -135q0 -79 -58.5 -132.5t-146.5 -53.5h-95zM302 413h-82v-118h82q29 0 47 16.5t18 41.5q0 26 -18 43t-47 17z" />
    <glyph glyph-name="afii10035small" unicode="&#xf361;" horiz-adv-x="571" 
d="M341 121q84 0 154 44l62 -114q-103 -63 -216 -63q-140 0 -222 80.5t-82 202.5t82 202t222 80q114 0 215 -62l-60 -115q-67 44 -155 44q-68 0 -110.5 -43.5t-42.5 -105.5q0 -63 42.5 -106.5t110.5 -43.5z" />
    <glyph glyph-name="afii10036small" unicode="&#xf362;" horiz-adv-x="516" 
d="M493 542v-129h-160v-413h-151v413h-159v129h470z" />
    <glyph glyph-name="afii10037small" unicode="&#xf363;" horiz-adv-x="601" 
d="M317 0h-169l74 145l-217 397h175l126 -236l120 236h170z" />
    <glyph glyph-name="afii10038small" unicode="&#xf364;" horiz-adv-x="746" 
d="M298 0v57h-13q-107 0 -177.5 62t-70.5 163q0 102 71.5 163t176.5 61h13v51h151v-51h11q107 0 178 -62.5t71 -161.5q0 -104 -71.5 -164.5t-177.5 -60.5h-11v-57h-151zM449 177q56 0 87 28.5t31 76.5q0 45 -32 75t-86 30v-210zM298 177v210q-55 0 -87.5 -30.5t-32.5 -74.5
q0 -46 32 -75t88 -30z" />
    <glyph glyph-name="afii10039small" unicode="&#xf365;" horiz-adv-x="627" 
d="M433 0l-118 154l-119 -154h-183l209 276l-202 266h183l112 -144l109 144h183l-201 -266l208 -276h-181z" />
    <glyph glyph-name="afii10040small" unicode="&#xf366;" horiz-adv-x="676" 
d="M412 129v413h150v-413h90v-246h-134v117h-451v542h152v-413h193z" />
    <glyph glyph-name="afii10041small" unicode="&#xf367;" horiz-adv-x="561" 
d="M35 353v189h151v-189q0 -27 20 -44t50 -17q47 0 86 12v238h152v-542h-152v177q-48 -13 -101 -13q-87 0 -146.5 52t-59.5 137z" />
    <glyph glyph-name="afii10042small" unicode="&#xf368;" horiz-adv-x="922" 
d="M385 129v413h152v-413h166v413h152v-542h-788v542h152v-413h166z" />
    <glyph glyph-name="afii10043small" unicode="&#xf369;" horiz-adv-x="966" 
d="M67 0v542h151v-413h166v413h151v-413h166v413h153v-413h88v-246h-134v117h-741z" />
    <glyph glyph-name="afii10044small" unicode="&#xf36a;" horiz-adv-x="633" 
d="M315 542v-166h95q84 0 142 -55t58 -134q0 -86 -59 -136.5t-158 -50.5h-228v413h-142v129h292zM315 129h79q29 0 47 16.5t18 41.5q0 26 -18 42.5t-47 16.5h-79v-117z" />
    <glyph glyph-name="afii10045small" unicode="&#xf36b;" horiz-adv-x="765" 
d="M547 0v542h151v-542h-151zM220 129h76q30 0 48 16.5t18 41.5q0 26 -18 42.5t-48 16.5h-76v-117zM297 0h-230v542h153v-166h94q84 0 142 -55t58 -134q0 -86 -59 -136.5t-158 -50.5z" />
    <glyph glyph-name="afii10046small" unicode="&#xf36c;" horiz-adv-x="544" 
d="M220 129h76q30 0 48 16.5t18 41.5q0 26 -18 42.5t-48 16.5h-76v-117zM297 0h-230v542h153v-166h94q84 0 142 -55t58 -134q0 -86 -59 -136.5t-158 -50.5z" />
    <glyph glyph-name="afii10047small" unicode="&#xf36d;" horiz-adv-x="573" 
d="M233 110q58 0 95 31.5t49 82.5h-236v113h232q-14 42 -50.5 68t-89.5 26q-87 0 -155 -44l-62 103q99 63 217 63q139 0 221 -80t82 -202t-82 -202.5t-221 -80.5q-120 0 -218 64l63 103q74 -45 155 -45z" />
    <glyph glyph-name="afii10048small" unicode="&#xf36e;" horiz-adv-x="917" 
d="M576 -12q-123 0 -201.5 62t-97.5 165h-57v-215h-153v542h153v-197h62q23 94 100.5 151t193.5 57q139 0 221.5 -80.5t82.5 -201.5q0 -122 -82 -202.5t-222 -80.5zM576 415q-68 0 -111 -41t-43 -103q0 -61 43 -103t111 -42q69 0 111.5 41.5t42.5 103.5t-42.5 103t-111.5 41
z" />
    <glyph glyph-name="afii10049small" unicode="&#xf36f;" horiz-adv-x="559" 
d="M341 0v166h-44l-108 -166h-159l122 188q-52 24 -82 67.5t-30 96.5q0 80 58.5 135t146.5 55h247v-542h-151zM341 413h-84q-30 0 -47 -17t-17 -43q0 -25 17 -41.5t47 -16.5h84v118z" />
    <glyph glyph-name="afii10023small" unicode="&#xf371;" horiz-adv-x="514" 
d="M471 130v-126h-404v542h401v-125h-250v-81h202v-121h-202v-89h253zM267 632q0 27 19 45t48 18q28 0 47.5 -18t19.5 -45t-19.5 -45t-47.5 -18q-29 0 -48 18t-19 45zM89 632q0 27 18.5 45t46.5 18q29 0 48 -18t19 -45t-19 -45t-48 -18q-28 0 -46.5 18t-18.5 45z" />
    <glyph glyph-name="afii10051small" unicode="&#xf372;" horiz-adv-x="657" 
d="M493 542v-129h-161v-87q58 13 108 13q88 0 141 -44t53 -130v-27q0 -62 -42.5 -104.5t-121.5 -42.5q-52 0 -112 27l30 96q32 -21 57 -21q38 0 38 46v16q0 28 -21 41t-47 13q-50 0 -83 -12v-197h-152v413h-157v129h470z" />
    <glyph glyph-name="afii10052small" unicode="&#xf373;" horiz-adv-x="481" 
d="M461 542v-129h-243v-413h-151v542h394zM178 601l91 176h168l-151 -176h-108z" />
    <glyph glyph-name="afii10053small" unicode="&#xf374;" horiz-adv-x="572" 
d="M341 110q81 0 155 45l61 -103q-98 -64 -216 -64q-140 0 -222 80.5t-82 202.5t82 202t222 80q113 0 216 -63l-60 -103q-69 44 -156 44q-53 0 -89 -26.5t-52 -67.5h234v-113h-238q12 -51 49.5 -82.5t95.5 -31.5z" />
    <glyph glyph-name="afii10054small" unicode="&#xf375;" horiz-adv-x="515" 
d="M338 161q0 16 -21 27.5t-52.5 18.5t-68 20.5t-68 31t-52.5 52.5t-21 83q0 69 54 114t149 45q104 0 205 -63l-62 -99q-69 45 -150 45q-26 0 -45.5 -11t-19.5 -31q0 -19 30.5 -31.5t74 -24t87.5 -28.5t74.5 -55t30.5 -94q0 -72 -61.5 -122.5t-165.5 -50.5q-115 0 -223 70
l60 105q35 -22 83.5 -36t85.5 -14q28 0 52 13t24 35z" />
    <glyph glyph-name="afii10055small" unicode="&#xf376;" horiz-adv-x="285" 
d="M67 0v542h151v-542h-151z" />
    <glyph glyph-name="afii10056small" unicode="&#xf377;" horiz-adv-x="285" 
d="M67 0v542h151v-542h-151zM162 665q0 30 18 52t44 22q27 0 45 -22t18 -52q0 -31 -18 -52t-45 -21q-26 0 -44 21t-18 52zM-8 665q0 31 17.5 52.5t44.5 21.5q26 0 44.5 -22t18.5 -52q0 -31 -18.5 -52t-44.5 -21q-27 0 -44.5 20.5t-17.5 52.5z" />
    <glyph glyph-name="afii10057small" unicode="&#xf378;" horiz-adv-x="412" 
d="M202 169v373h150v-358q0 -196 -170 -196q-95 0 -179 62l62 97q47 -34 87 -34q24 0 37 15.5t13 40.5z" />
    <glyph glyph-name="afii10058small" unicode="&#xf379;" horiz-adv-x="881" 
d="M561 542v-166h69q105 0 163 -53.5t58 -135.5q0 -85 -56 -136t-165 -51h-221v413h-139v-113q0 -88 -17 -149t-49 -93t-69.5 -45t-88.5 -13h-36v129h34q40 0 61.5 39.5t21.5 143.5v230h434zM561 129h73q31 0 48.5 16.5t17.5 41.5q0 26 -17.5 42.5t-48.5 16.5h-73v-117z" />
    <glyph glyph-name="afii10059small" unicode="&#xf37a;" horiz-adv-x="876" 
d="M408 0v216h-189v-216h-152v542h152v-196h189v196h150v-169h71q103 0 160 -53t57 -133q0 -86 -54 -136.5t-163 -50.5h-221zM558 129h74q30 0 48 16t18 41t-18 41t-48 16h-74v-114z" />
    <glyph glyph-name="afii10060small" unicode="&#xf37b;" horiz-adv-x="670" 
d="M494 542v-129h-162v-87q56 13 119 13q86 0 141 -51.5t55 -138.5v-149h-153v149q0 28 -20.5 45t-54.5 17q-49 0 -87 -15v-196h-152v413h-157v129h471z" />
    <glyph glyph-name="afii10061small" unicode="&#xf37c;" horiz-adv-x="598" 
d="M200 608l92 176h167l-151 -176h-108zM398 0l-178 276l170 266h175l-175 -266l197 -276h-189zM59 0v542h151v-542h-151z" />
    <glyph glyph-name="afii10062small" unicode="&#xf37e;" horiz-adv-x="609" 
d="M307 695q66 0 130 34l48 -88q-78 -40 -178 -40q-99 0 -181 41l48 87q63 -34 133 -34zM318 0h-169l74 145l-217 397h175l126 -236l120 236h170z" />
    <glyph glyph-name="afii10145small" unicode="&#xf37f;" horiz-adv-x="629" 
d="M412 129v413h150v-542h-181v-117h-133v117h-181v542h151v-413h194z" />
    <glyph glyph-name="afii10050small" unicode="&#xf393;" horiz-adv-x="481" 
d="M461 413h-243v-413h-151v542h273v94h121v-223z" />
    <glyph glyph-name="afii61352small" unicode="&#xf3cf;" horiz-adv-x="914" 
d="M237 267v-267h-171v543h167l174 -269v269h170v-543h-167zM739 381q21 0 34 12t13 29q0 18 -13 30t-34 12q-19 0 -31 -12t-12 -30q0 -17 12 -29t31 -12zM739 302q-57 0 -92 34.5t-35 86.5q0 51 35 85t92 34q58 0 94 -34t36 -85q0 -52 -36 -86.5t-94 -34.5zM612 155v87h257
v-87h-257z" />
    <glyph glyph-name="sterlingsmall" unicode="&#xf628;" horiz-adv-x="497" 
d="M460 0h-370v243h-58v100h58v35q0 88 49 132t138 44q91 0 182 -62l-43 -80q-69 36 -128 36q-32 0 -51.5 -18.5t-19.5 -50.5v-36h172v-100h-172v-133h243v-110z" />
    <glyph glyph-name="yensmall" unicode="&#xf629;" horiz-adv-x="595" 
d="M10 539h168l119 -210l119 210h169l-158 -259h98v-87h-152v-29h152v-87h-152v-77h-151v77h-153v87h153v30h-153v86h99z" />
    <glyph glyph-name="Eurosmall" unicode="&#xf630;" horiz-adv-x="623" 
d="M384 121q82 0 153 44l62 -114q-103 -63 -215 -63q-114 0 -191 54.5t-103 145.5h-76v66h66q-1 2 -1 18q0 14 1 16h-66v67h77q26 89 103 143.5t190 54.5t214 -62l-60 -115q-68 44 -154 44t-124 -65h211v-67h-240q-1 -4 -1 -17q0 -11 1 -17h240v-66h-210q36 -67 123 -67z
" />
    <glyph glyph-name="Amacronsmall" unicode="&#xf66e;" horiz-adv-x="595" 
d="M131 607v97h329v-97h-329zM380 542l205 -542h-152l-34 90h-203l-34 -90h-152l204 542h166zM298 365l-62 -160h123z" />
    <glyph glyph-name="Aogoneksmall" unicode="&#xf66f;" horiz-adv-x="595" 
d="M586 -157q-21 0 -47 3.5t-60 12t-56.5 28.5t-22.5 48q0 33 35 60l-36 95h-203l-34 -90h-152l204 542h166l205 -542q-79 -11 -79 -53q0 -17 20 -31.5t60 -17.5v-55zM298 365l-61 -160h122z" />
    <glyph glyph-name="Cacutesmall" unicode="&#xf671;" horiz-adv-x="571" 
d="M341 121q84 0 154 44l62 -114q-103 -63 -216 -63q-140 0 -222 80.5t-82 202.5t82 202t222 80q114 0 215 -62l-60 -115q-67 44 -155 44q-68 0 -110.5 -43.5t-42.5 -105.5q0 -63 42.5 -106.5t110.5 -43.5zM433 786l-159 -184h-108l95 184h172z" />
    <glyph glyph-name="Ccaronsmall" unicode="&#xf672;" horiz-adv-x="571" 
d="M341 121q84 0 154 44l62 -114q-103 -63 -216 -63q-140 0 -222 80.5t-82 202.5t82 202t222 80q114 0 215 -62l-60 -115q-67 44 -155 44q-68 0 -110.5 -43.5t-42.5 -105.5q0 -63 42.5 -106.5t110.5 -43.5zM236 602l-143 181h109l98 -95l98 95h108l-142 -181h-128z" />
    <glyph glyph-name="Dcaronsmall" unicode="&#xf675;" horiz-adv-x="646" 
d="M218 142h78q65 0 103 35.5t38 92.5q0 58 -38 94t-103 36h-78v-258zM295 0h-228v542h228q135 0 214.5 -77t79.5 -194q0 -118 -79.5 -194.5t-214.5 -76.5zM243 602l-143 181h109l98 -95l98 95h108l-142 -181h-128z" />
    <glyph glyph-name="Ecaronsmall" unicode="&#xf678;" horiz-adv-x="514" 
d="M490 126v-126h-404v542h401v-126h-250v-80h202v-121h-202v-89h253zM210 602l-143 181h109l98 -95l98 95h108l-142 -181h-128z" />
    <glyph glyph-name="Edotaccentsmall" unicode="&#xf679;" horiz-adv-x="514" 
d="M471 126v-126h-404v542h401v-126h-250v-80h202v-121h-202v-89h253zM181 664q0 32 21.5 54t53.5 22t54 -22t22 -54t-22 -53t-54 -21t-53.5 21t-21.5 53z" />
    <glyph glyph-name="Emacronsmall" unicode="&#xf67a;" horiz-adv-x="514" 
d="M471 126v-126h-404v542h401v-126h-250v-80h202v-121h-202v-89h253zM90 607v97h329v-97h-329z" />
    <glyph glyph-name="Eogoneksmall" unicode="&#xf67c;" horiz-adv-x="514" 
d="M472 -157q-22 0 -48.5 3.5t-59.5 12.5t-55 28.5t-22 47.5q0 36 40 65h-260v542h401v-126h-250v-80h202v-121h-202v-89h252v-126q-78 -8 -78 -53q0 -17 20 -31.5t60 -17.5v-55z" />
    <glyph glyph-name="Imacronsmall" unicode="&#xf685;" horiz-adv-x="285" 
d="M67 0v542h151v-542h-151zM0 607v96h285v-96h-285z" />
    <glyph glyph-name="Iogoneksmall" unicode="&#xf686;" horiz-adv-x="285" 
d="M218 -157q-22 0 -48.5 3.5t-60 12.5t-55 28.5t-21.5 47.5q0 33 34 59q0 90 -0.5 273.5t-0.5 274.5h150v-542q-77 -12 -77 -53q0 -17 19.5 -31.5t59.5 -17.5v-55z" />
    <glyph glyph-name="Lacutesmall" unicode="&#xf68a;" horiz-adv-x="483" 
d="M67 0v542h151v-413h245v-129h-396zM370 786l-159 -184h-108l96 184h171z" />
    <glyph glyph-name="Lcaronsmall" unicode="&#xf68b;" horiz-adv-x="483" 
d="M67 0v542h151v-413h245v-129h-396zM278 327l26 215h128l-79 -215h-75z" />
    <glyph glyph-name="Nacutesmall" unicode="&#xf68e;" horiz-adv-x="632" 
d="M468 786l-159 -184h-108l95 184h172zM218 297v-297h-151v542h148l200 -299v299h150v-542h-148z" />
    <glyph glyph-name="Ncaronsmall" unicode="&#xf68f;" horiz-adv-x="632" 
d="M218 297v-297h-151v542h148l200 -299v299h150v-542h-148zM244 602l-143 181h109l98 -95l98 95h108l-142 -181h-128z" />
    <glyph glyph-name="Ohungarumlautsmall" unicode="&#xf692;" horiz-adv-x="682" 
d="M340 415q-68 0 -110.5 -41t-42.5 -103q0 -61 42.5 -103t110.5 -42t111 42t43 103q0 62 -42.5 103t-111.5 41zM340 -12q-139 0 -221 80.5t-82 202.5t82 202t221 80q140 0 222.5 -80.5t82.5 -201.5q0 -122 -82.5 -202.5t-222.5 -80.5zM609 786l-159 -184h-107l95 184h171z
M393 786l-159 -184h-108l96 184h171z" />
    <glyph glyph-name="Omacronsmall" unicode="&#xf693;" horiz-adv-x="682" 
d="M340 415q-68 0 -110.5 -41t-42.5 -103q0 -61 42.5 -103t110.5 -42t111 42t43 103q0 62 -42.5 103t-111.5 41zM340 -12q-139 0 -221 80.5t-82 202.5t82 202t221 80q140 0 222.5 -80.5t82.5 -201.5q0 -122 -82.5 -202.5t-222.5 -80.5zM174 607v97h330v-97h-330z" />
    <glyph glyph-name="Racutesmall" unicode="&#xf695;" horiz-adv-x="559" 
d="M220 166v-166h-153v542h248q88 0 146.5 -55t58.5 -135q0 -52 -31 -96.5t-83 -67.5l123 -188h-159l-108 166h-42zM302 413h-82v-118h82q29 0 47 16.5t18 41.5q0 26 -18 43t-47 17zM460 786l-159 -184h-108l95 184h172z" />
    <glyph glyph-name="Rcaronsmall" unicode="&#xf696;" horiz-adv-x="559" 
d="M220 166v-166h-153v542h248q88 0 146.5 -55t58.5 -135q0 -52 -31 -96.5t-83 -67.5l123 -188h-159l-108 166h-42zM302 413h-82v-118h82q29 0 47 16.5t18 41.5q0 26 -18 43t-47 17zM212 602l-143 181h109l98 -95l98 95h108l-142 -181h-128z" />
    <glyph glyph-name="Sacutesmall" unicode="&#xf698;" horiz-adv-x="515" 
d="M419 786l-159 -184h-108l95 184h172zM337 161q0 16 -21 27.5t-52.5 18.5t-68 20.5t-68 31t-52.5 52.5t-21 83q0 69 54 114t149 45q103 0 206 -63l-62 -99q-71 45 -150 45q-26 0 -46 -11t-20 -31q0 -19 30.5 -31.5t74.5 -24t87.5 -28.5t74 -55t30.5 -94q0 -72 -61 -122.5
t-166 -50.5q-116 0 -222 70l60 105q34 -22 82 -36t86 -14q30 0 53 13t23 35z" />
    <glyph glyph-name="Tcaronsmall" unicode="&#xf69d;" horiz-adv-x="516" 
d="M493 542v-129h-160v-413h-151v413h-159v129h470zM195 602l-143 181h109l98 -95l98 95h108l-142 -181h-128z" />
    <glyph glyph-name="Uhungarumlautsmall" unicode="&#xf6a0;" horiz-adv-x="616" 
d="M577 786l-160 -184h-107l95 184h172zM360 786l-159 -184h-108l96 184h171zM308 -12q-115 0 -182 65t-67 165v324h151v-330q0 -38 27.5 -64.5t70.5 -26.5t70.5 26.5t27.5 64.5v330h151v-324q0 -100 -67 -165t-182 -65z" />
    <glyph glyph-name="Umacronsmall" unicode="&#xf6a1;" horiz-adv-x="616" 
d="M141 607v97h330v-97h-330zM308 -12q-115 0 -182 65t-67 165v324h151v-330q0 -38 27.5 -64.5t70.5 -26.5t70.5 26.5t27.5 64.5v330h151v-324q0 -100 -67 -165t-182 -65z" />
    <glyph glyph-name="Uogoneksmall" unicode="&#xf6a2;" horiz-adv-x="616" 
d="M250 -65q0 31 23 55q-100 10 -157 73t-57 155v324h151v-330q0 -38 27.5 -64.5t70.5 -26.5t70.5 26.5t27.5 64.5v330h151v-324q0 -84 -48.5 -144.5t-134.5 -78.5q-19 -22 -19 -48q0 -17 19.5 -31.5t59.5 -17.5v-55q-22 0 -48.5 3.5t-59.5 12.5t-54.5 28.5t-21.5 47.5z" />
    <glyph glyph-name="Uringsmall" unicode="&#xf6a3;" horiz-adv-x="616" 
d="M304 599q-49 0 -85.5 34.5t-36.5 81.5q0 48 36.5 82.5t85.5 34.5q48 0 85 -34.5t37 -82.5q0 -47 -37 -81.5t-85 -34.5zM304 662q21 0 37 16t16 37q0 22 -15.5 38t-37.5 16t-38 -16t-16 -38q0 -21 16 -37t38 -16zM308 -12q-115 0 -182 65t-67 165v324h151v-330
q0 -38 27.5 -64.5t70.5 -26.5t70.5 26.5t27.5 64.5v330h151v-324q0 -100 -67 -165t-182 -65z" />
    <glyph glyph-name="Zacutesmall" unicode="&#xf6ab;" horiz-adv-x="518" 
d="M478 542v-97l-240 -316h250v-129h-458v97l241 316h-234v129h441zM429 786l-159 -184h-108l96 184h171z" />
    <glyph glyph-name="Zdotaccentsmall" unicode="&#xf6ac;" horiz-adv-x="518" 
d="M478 542v-97l-240 -316h250v-129h-458v97l241 316h-234v129h441zM183 664q0 32 21.5 54t53.5 22t54 -22t22 -54t-22 -53t-54 -21t-53.5 21t-21.5 53z" />
    <glyph glyph-name="commaaccent" unicode="&#xf6c3;" horiz-adv-x="250" 
d="M26 -315l29 238h142l-88 -238h-83z" />
    <glyph glyph-name="Lslashsmall" unicode="&#xf6f9;" horiz-adv-x="483" 
d="M18 122v100q5 4 22.5 16t26.5 20v284h152v-178l104 78v-99l-104 -78v-136h245v-129h-397v158z" />
    <glyph glyph-name="OEsmall" unicode="&#xf6fa;" horiz-adv-x="893" 
d="M453 271q0 63 -36 103.5t-96 40.5t-96 -40.5t-36 -103.5t36 -103.5t96 -40.5t96 40.5t36 103.5zM850 126v-126h-400v5q-58 -15 -111 -15q-140 0 -220.5 78.5t-80.5 202.5q0 123 80.5 202t220.5 79q58 0 111 -15v5h397v-126h-248v-80h199v-121h-199v-89h251z" />
    <glyph glyph-name="Scaronsmall" unicode="&#xf6fd;" horiz-adv-x="515" 
d="M338 161q0 16 -21 27.5t-52.5 18.5t-68 20.5t-68 31t-52.5 52.5t-21 83q0 69 54 114t149 45q104 0 205 -63l-62 -99q-69 45 -150 45q-26 0 -45.5 -11t-19.5 -31q0 -19 30.5 -31.5t74 -24t87.5 -28.5t74.5 -55t30.5 -94q0 -72 -61.5 -122.5t-165.5 -50.5q-115 0 -223 70
l60 105q35 -22 83.5 -36t85.5 -14q28 0 52 13t24 35zM201 599l-143 181h109l98 -95l98 95h108l-142 -181h-128z" />
    <glyph glyph-name="Zcaronsmall" unicode="&#xf6ff;" horiz-adv-x="518" 
d="M478 542v-97l-240 -316h251v-129h-459v97q222 291 241 316h-234v129h441zM200 599l-143 181h109l98 -95l98 95h108l-142 -181h-128z" />
    <glyph glyph-name="zero.onum" unicode="&#xf730;" 
d="M48 250q0 120 70 192.5t190 72.5q121 0 191.5 -72.5t70.5 -192.5q0 -121 -70.5 -193t-191.5 -72t-190.5 72t-69.5 193zM221 250q0 -59 23.5 -93.5t63.5 -34.5q42 0 65.5 34.5t23.5 93.5q0 58 -23.5 92.5t-65.5 34.5q-40 0 -63.5 -34.5t-23.5 -92.5z" />
    <glyph glyph-name="one.onum" unicode="&#xf731;" 
d="M566 133v-133h-494v133h160v197l-132 -61q-43 108 -48 119l268 127h85v-382h161z" />
    <glyph glyph-name="two.onum" unicode="&#xf732;" 
d="M117 323l-60 108q48 38 116.5 61t138.5 23q114 0 175 -47.5t61 -114.5q0 -68 -53 -126t-175 -111h240v-116h-496v97q163 82 230.5 128.5t67.5 94.5q0 28 -22.5 47.5t-63.5 19.5q-74 0 -159 -64z" />
    <glyph glyph-name="three.onum" unicode="&#xf733;" 
d="M284 -73q37 0 58 24.5t21 62.5q0 28 -17 56t-49 28q-38 0 -89 -14l-28 107l73 19q44 11 83 36.5t39 60.5q0 31 -21 49.5t-54 18.5q-87 0 -166 -58l-64 113q110 85 234 85q113 0 169.5 -51t56.5 -130q0 -54 -33.5 -100t-95.5 -70q73 -17 109.5 -63t36.5 -108
q0 -90 -74.5 -149.5t-195.5 -59.5q-65 0 -113.5 19.5t-105.5 60.5l69 119q77 -56 157 -56z" />
    <glyph glyph-name="four.onum" unicode="&#xf734;" 
d="M489 -197h-173v197h-280q-7 35 -19 105l321 410h151v-396h110v-119h-110v-197zM316 311l-161 -192h161v192z" />
    <glyph glyph-name="five.onum" unicode="&#xf735;" 
d="M249 343l-16 -120q45 23 115 23q97 0 153 -63t56 -154q0 -46 -16.5 -88.5t-48 -78t-83.5 -57t-118 -21.5t-116.5 19.5t-106.5 60.5l69 119q77 -56 154 -56q39 0 67 27t28 75q0 43 -24 68.5t-65 25.5q-55 0 -105 -26l-99 36q32 244 47 367h396v-157h-287z" />
    <glyph glyph-name="six.onum" unicode="&#xf736;" 
d="M546 642l-62 -108q-67 46 -129 46q-132 0 -132 -157q53 46 140 46t147 -63t60 -163q0 -123 -71.5 -190.5t-189.5 -67.5q-260 0 -260 359q0 180 69.5 275.5t210.5 95.5q113 0 217 -73zM222 281q0 -154 96 -154q35 0 62 29t27 82q0 51 -23.5 80t-58.5 29q-79 0 -103 -66z
" />
    <glyph glyph-name="seven.onum" unicode="&#xf737;" 
d="M570 369l-230 -570h-186l226 537h-314v164h504v-131z" />
    <glyph glyph-name="eight.onum" unicode="&#xf738;" 
d="M554 521q0 -123 -112 -170q60 -28 94 -68.5t34 -108.5q0 -90 -68.5 -139.5t-192.5 -49.5q-123 0 -191.5 49.5t-68.5 139.5q0 69 34 109.5t94 67.5q-109 49 -109 170q0 81 65 137.5t176 56.5q114 0 179.5 -56.5t65.5 -137.5zM398 209q0 39 -23 61.5t-66 40.5
q-43 -17 -65.5 -40t-22.5 -62q0 -40 22.5 -64t65.5 -24q44 0 66.5 24t22.5 64zM231 499q0 -34 20 -56t58 -41q38 19 58 41t20 56q0 35 -21 57t-57 22t-57 -22t-21 -57z" />
    <glyph glyph-name="nine.onum" unicode="&#xf739;" 
d="M73 -143l62 108q67 -46 129 -46q132 0 132 157q-53 -46 -140 -46t-147 63t-60 163q0 123 71.5 190.5t189.5 67.5q260 0 260 -359q0 -180 -69.5 -275.5t-210.5 -95.5q-113 0 -217 73zM397 218q0 154 -96 154q-35 0 -62 -29t-27 -82q0 -51 23.5 -80t58.5 -29q79 0 103 66z
" />
    <glyph glyph-name="Asmall" unicode="&#xf761;" horiz-adv-x="595" 
d="M380 542l205 -542h-152l-34 90h-203l-34 -90h-152l204 542h166zM298 365l-62 -160h123z" />
    <glyph glyph-name="Bsmall" unicode="&#xf762;" horiz-adv-x="551" 
d="M493 405q0 -74 -76 -122q46 -21 72 -56t26 -79q0 -62 -48.5 -105t-121.5 -43h-278v542h234q192 0 192 -137zM219 111h83q25 0 43 16.5t18 39.5t-18 40t-43 17h-83v-113zM352 379q0 21 -17 36t-40 15h-76v-103h76q23 0 40 15.5t17 36.5z" />
    <glyph glyph-name="Csmall" unicode="&#xf763;" horiz-adv-x="571" 
d="M341 121q84 0 154 44l62 -114q-103 -63 -216 -63q-140 0 -222 80.5t-82 202.5t82 202t222 80q114 0 215 -62l-60 -115q-67 44 -155 44q-68 0 -110.5 -43.5t-42.5 -105.5q0 -63 42.5 -106.5t110.5 -43.5z" />
    <glyph glyph-name="Dsmall" unicode="&#xf764;" horiz-adv-x="646" 
d="M218 142h78q65 0 103 35.5t38 92.5q0 58 -38 94t-103 36h-78v-258zM295 0h-228v542h228q135 0 214.5 -77t79.5 -194q0 -118 -79.5 -194.5t-214.5 -76.5z" />
    <glyph glyph-name="Esmall" unicode="&#xf765;" horiz-adv-x="514" 
d="M471 126v-126h-404v542h401v-126h-250v-80h202v-121h-202v-89h253z" />
    <glyph glyph-name="Fsmall" unicode="&#xf766;" horiz-adv-x="501" 
d="M440 321v-129h-222v-192h-151v542h401v-129h-250v-92h222z" />
    <glyph glyph-name="Gsmall" unicode="&#xf767;" horiz-adv-x="607" 
d="M282 201v103h285v-247q-105 -69 -226 -69q-140 0 -222 80.5t-82 202.5t82 202t222 80q104 0 205 -53l-60 -117q-61 36 -134 36q-74 0 -118.5 -41t-44.5 -107q0 -62 43.5 -106t115.5 -44q35 0 69 16v64h-135z" />
    <glyph glyph-name="Hsmall" unicode="&#xf768;" horiz-adv-x="629" 
d="M411 0v215h-192v-215h-152v542h152v-197h192v197h151v-542h-151z" />
    <glyph glyph-name="Ismall" unicode="&#xf769;" horiz-adv-x="285" 
d="M67 0v542h151v-542h-151z" />
    <glyph glyph-name="Jsmall" unicode="&#xf76a;" horiz-adv-x="412" 
d="M202 169v373h150v-358q0 -196 -170 -196q-95 0 -179 62l62 97q47 -34 87 -34q24 0 37 15.5t13 40.5z" />
    <glyph glyph-name="Ksmall" unicode="&#xf76b;" horiz-adv-x="607" 
d="M406 0l-178 276l170 266h175l-175 -266l197 -276h-189zM67 0v542h151v-542h-151z" />
    <glyph glyph-name="Lsmall" unicode="&#xf76c;" horiz-adv-x="483" 
d="M67 0v542h151v-413h245v-129h-396z" />
    <glyph glyph-name="Msmall" unicode="&#xf76d;" horiz-adv-x="719" 
d="M211 541l148 -225l149 225h144v-541h-139v335l-125 -192h-57l-124 191v-334h-140v541h144z" />
    <glyph glyph-name="Nsmall" unicode="&#xf76e;" horiz-adv-x="632" 
d="M218 297v-297h-151v542h148l200 -299v299h150v-542h-148z" />
    <glyph glyph-name="Osmall" unicode="&#xf76f;" horiz-adv-x="682" 
d="M340 415q-68 0 -110.5 -41t-42.5 -103q0 -61 42.5 -103t110.5 -42t111 42t43 103q0 62 -42.5 103t-111.5 41zM340 -12q-139 0 -221 80.5t-82 202.5t82 202t221 80q140 0 222.5 -80.5t82.5 -201.5q0 -122 -82.5 -202.5t-222.5 -80.5z" />
    <glyph glyph-name="Psmall" unicode="&#xf770;" horiz-adv-x="550" 
d="M220 166v-166h-153v542h248q88 0 146.5 -55t58.5 -135q0 -79 -58.5 -132.5t-146.5 -53.5h-95zM302 413h-82v-118h82q29 0 47 16.5t18 41.5q0 26 -18 43t-47 17z" />
    <glyph glyph-name="Qsmall" unicode="&#xf771;" horiz-adv-x="686" 
d="M680 47l-96 -107l-101 78q-69 -30 -141 -30q-141 0 -223 80.5t-82 202.5t82 202t223 80q139 0 221.5 -80.5t82.5 -201.5q0 -89 -50 -159zM342 126q68 0 110.5 42t42.5 103q0 62 -42 103t-111 41t-111 -41t-42 -103q0 -61 42.5 -103t110.5 -42z" />
    <glyph glyph-name="Rsmall" unicode="&#xf772;" horiz-adv-x="559" 
d="M220 166v-166h-153v542h248q88 0 146.5 -55t58.5 -135q0 -52 -31 -96.5t-83 -67.5l123 -188h-159l-108 166h-42zM302 413h-82v-118h82q29 0 47 16.5t18 41.5q0 26 -18 43t-47 17z" />
    <glyph glyph-name="Ssmall" unicode="&#xf773;" horiz-adv-x="515" 
d="M337 161q0 16 -21 27.5t-52.5 18.5t-68 20.5t-68 31t-52.5 52.5t-21 83q0 69 54 114t149 45q103 0 206 -63l-62 -99q-71 45 -150 45q-26 0 -46 -11t-20 -31q0 -19 30.5 -31.5t74.5 -24t87.5 -28.5t74 -55t30.5 -94q0 -72 -61 -122.5t-166 -50.5q-116 0 -222 70l60 105
q34 -22 82 -36t86 -14q30 0 53 13t23 35z" />
    <glyph glyph-name="Tsmall" unicode="&#xf774;" horiz-adv-x="516" 
d="M493 542v-129h-160v-413h-151v413h-159v129h470z" />
    <glyph glyph-name="Usmall" unicode="&#xf775;" horiz-adv-x="616" 
d="M308 -12q-115 0 -182 65t-67 165v324h151v-330q0 -38 27.5 -64.5t70.5 -26.5t70.5 26.5t27.5 64.5v330h151v-324q0 -100 -67 -165t-182 -65z" />
    <glyph glyph-name="Vsmall" unicode="&#xf776;" horiz-adv-x="599" 
d="M214 0l-204 542h158l130 -359l131 359h157l-206 -542h-166z" />
    <glyph glyph-name="Wsmall" unicode="&#xf777;" horiz-adv-x="873" 
d="M505 542l97 -307l96 307h159l-175 -542h-149l-98 309l-100 -309h-150l-174 542h159l95 -307l98 307h142z" />
    <glyph glyph-name="Xsmall" unicode="&#xf778;" horiz-adv-x="627" 
d="M433 0l-118 154l-119 -154h-183l209 276l-202 266h183l112 -144l109 144h183l-201 -266l208 -276h-181z" />
    <glyph glyph-name="Ysmall" unicode="&#xf779;" horiz-adv-x="604" 
d="M5 542h170l127 -216l127 216h170l-221 -355v-187h-151v187z" />
    <glyph glyph-name="Zsmall" unicode="&#xf77a;" horiz-adv-x="518" 
d="M478 542v-97l-240 -316h250v-129h-458v97l241 316h-234v129h441z" />
    <glyph glyph-name="Agravesmall" unicode="&#xf7e0;" horiz-adv-x="595" 
d="M323 780l92 -176h-108l-151 176h167zM380 542l205 -542h-152l-34 90h-203l-34 -90h-152l204 542h166zM298 365l-62 -160h123z" />
    <glyph glyph-name="Aacutesmall" unicode="&#xf7e1;" horiz-adv-x="595" 
d="M175 604l92 176h167l-151 -176h-108zM380 542l205 -542h-152l-34 90h-203l-34 -90h-152l204 542h166zM298 365l-62 -160h123z" />
    <glyph glyph-name="Acircumflexsmall" unicode="&#xf7e2;" horiz-adv-x="595" 
d="M94 604l139 176h127l140 -176h-110l-94 89l-93 -89h-109zM380 542l205 -542h-152l-34 90h-203l-34 -90h-152l204 542h166zM298 365l-62 -160h123z" />
    <glyph glyph-name="Atildesmall" unicode="&#xf7e3;" horiz-adv-x="595" 
d="M380 542l205 -542h-152l-34 90h-203l-34 -90h-152l204 542h166zM298 365l-62 -160h123zM164 619h-71q14 75 47.5 114t80.5 39q27 0 73 -20.5t70 -20.5q36 0 57 50h70q-14 -75 -47.5 -114t-79.5 -39q-27 0 -73 20.5t-70 20.5q-38 0 -57 -50z" />
    <glyph glyph-name="Adieresissmall" unicode="&#xf7e4;" horiz-adv-x="595" 
d="M327 666q0 31 21 52.5t53 21.5q31 0 52.5 -21.5t21.5 -52.5q0 -32 -21.5 -53t-52.5 -21q-32 0 -53 21t-21 53zM121 666q0 31 21 52.5t53 21.5q31 0 53 -21.5t22 -52.5q0 -32 -21.5 -53t-53.5 -21t-53 21t-21 53zM380 542l205 -542h-152l-34 90h-203l-34 -90h-152l204 542
h166zM298 365l-62 -160h123z" />
    <glyph glyph-name="Aringsmall" unicode="&#xf7e5;" horiz-adv-x="595" 
d="M294 596q-47 0 -82.5 33.5t-35.5 79.5q0 45 35.5 78.5t82.5 33.5t82.5 -33.5t35.5 -79.5q0 -45 -35.5 -78.5t-82.5 -33.5zM294 661q20 0 34.5 14.5t14.5 33.5t-14.5 33.5t-34.5 14.5t-34.5 -14.5t-14.5 -34.5q0 -19 14.5 -33t34.5 -14zM380 542l205 -542h-152l-34 90
h-203l-34 -90h-152l204 542h166zM298 365l-62 -160h123z" />
    <glyph glyph-name="AEsmall" unicode="&#xf7e6;" horiz-adv-x="858" 
d="M815 126v-126h-401v94h-189l-63 -94h-155l362 542h444v-126h-247v-80h198v-121h-198v-89h249zM295 201h119v182z" />
    <glyph glyph-name="Ccedillasmall" unicode="&#xf7e7;" horiz-adv-x="571" 
d="M341 121q84 0 154 44l62 -114q-103 -63 -216 -63q-4 0 -12 0.5t-13 0.5l-26 -40q12 3 26 3q32 0 52.5 -18t20.5 -50q0 -39 -33 -65t-95 -26q-66 0 -116 21l18 52q32 -12 77 -12q21 0 35 8t14 21q0 23 -30 23q-16 0 -31 -5l-36 28l46 73q-95 26 -148 98.5t-53 168.5
q0 122 82 203t222 81q114 0 215 -62l-60 -115q-67 44 -155 44q-68 0 -110.5 -43.5t-42.5 -105.5q0 -63 42.5 -106.5t110.5 -43.5z" />
    <glyph glyph-name="Egravesmall" unicode="&#xf7e8;" horiz-adv-x="514" 
d="M471 126v-126h-404v542h401v-126h-250v-80h202v-121h-202v-89h253zM287 780l91 -176h-108l-150 176h167z" />
    <glyph glyph-name="Eacutesmall" unicode="&#xf7e9;" horiz-adv-x="514" 
d="M471 126v-126h-404v542h401v-126h-250v-80h202v-121h-202v-89h253zM125 604l91 176h167l-150 -176h-108z" />
    <glyph glyph-name="Ecircumflexsmall" unicode="&#xf7ea;" horiz-adv-x="514" 
d="M488 126v-126h-404v542h401v-126h-250v-80h202v-121h-202v-89h253zM67 604l139 176h127l140 -176h-110l-94 89l-92 -89h-110z" />
    <glyph glyph-name="Edieresissmall" unicode="&#xf7eb;" horiz-adv-x="514" 
d="M471 126v-126h-404v542h401v-126h-250v-80h202v-121h-202v-89h253zM284 666q0 31 21 52.5t52 21.5t53 -21.5t22 -52.5q0 -32 -21.5 -53t-53.5 -21t-52.5 21t-20.5 53zM78 666q0 31 21.5 52.5t52.5 21.5t53 -21.5t22 -52.5q0 -32 -21.5 -53t-53.5 -21t-53 21t-21 53z" />
    <glyph glyph-name="Igravesmall" unicode="&#xf7ec;" horiz-adv-x="285" 
d="M67 0v542h151v-542h-151zM164 780l92 -176h-109l-149 176h166z" />
    <glyph glyph-name="Iacutesmall" unicode="&#xf7ed;" horiz-adv-x="285" 
d="M67 0v542h151v-542h-151zM14 604l92 176h167l-151 -176h-108z" />
    <glyph glyph-name="Icircumflexsmall" unicode="&#xf7ee;" horiz-adv-x="285" 
d="M67 0v542h151v-542h-151zM-37 604l108 176h128l109 -176h-110l-64 89l-62 -89h-109z" />
    <glyph glyph-name="Idieresissmall" unicode="&#xf7ef;" horiz-adv-x="285" 
d="M165 695q0 32 17.5 54.5t42.5 22.5t42.5 -22.5t17.5 -54.5t-17.5 -54t-42.5 -22t-42.5 22t-17.5 54zM-1 695q0 33 16.5 55t41.5 22q26 0 43.5 -22.5t17.5 -54.5t-17.5 -54t-43.5 -22q-25 0 -41.5 21.5t-16.5 54.5zM67 0v542h151v-542h-151z" />
    <glyph glyph-name="Ethsmall" unicode="&#xf7f0;" horiz-adv-x="626" 
d="M12 226v97h55v219h229q135 0 214 -77t79 -194q0 -119 -78.5 -195t-214.5 -76h-229v226h-55zM220 142h77q65 0 103 35.5t38 92.5t-38 93.5t-103 36.5h-77v-77h98v-97h-98v-84z" />
    <glyph glyph-name="Ntildesmall" unicode="&#xf7f1;" horiz-adv-x="632" 
d="M218 297v-297h-151v542h148l200 -299v299h150v-542h-148zM174 620h-71q14 75 47.5 114t80.5 39q27 0 73 -20.5t70 -20.5q36 0 57 50h70q-14 -75 -47.5 -114t-79.5 -39q-27 0 -73 20.5t-70 20.5q-38 0 -57 -50z" />
    <glyph glyph-name="Ogravesmall" unicode="&#xf7f2;" horiz-adv-x="682" 
d="M340 415q-68 0 -110.5 -41t-42.5 -103q0 -61 42.5 -103t110.5 -42t111 42t43 103q0 62 -42.5 103t-111.5 41zM340 -12q-139 0 -221 80.5t-82 202.5t82 202t221 80q140 0 222.5 -80.5t82.5 -201.5q0 -122 -82.5 -202.5t-222.5 -80.5zM372 780l92 -176h-109l-150 176h167z
" />
    <glyph glyph-name="Oacutesmall" unicode="&#xf7f3;" horiz-adv-x="682" 
d="M340 415q-68 0 -110.5 -41t-42.5 -103q0 -61 42.5 -103t110.5 -42t111 42t43 103q0 62 -42.5 103t-111.5 41zM340 -12q-139 0 -221 80.5t-82 202.5t82 202t221 80q140 0 222.5 -80.5t82.5 -201.5q0 -122 -82.5 -202.5t-222.5 -80.5zM213 604l91 176h168l-151 -176h-108z
" />
    <glyph glyph-name="Ocircumflexsmall" unicode="&#xf7f4;" horiz-adv-x="682" 
d="M340 415q-68 0 -110.5 -41t-42.5 -103q0 -61 42.5 -103t110.5 -42t111 42t43 103q0 62 -42.5 103t-111.5 41zM340 -12q-139 0 -221 80.5t-82 202.5t82 202t221 80q140 0 222.5 -80.5t82.5 -201.5q0 -122 -82.5 -202.5t-222.5 -80.5zM138 604l139 176h127l139 -176h-110
l-93 89l-93 -89h-109z" />
    <glyph glyph-name="Otildesmall" unicode="&#xf7f5;" horiz-adv-x="682" 
d="M340 415q-68 0 -110.5 -41t-42.5 -103q0 -61 42.5 -103t110.5 -42t111 42t43 103q0 62 -42.5 103t-111.5 41zM340 -12q-139 0 -221 80.5t-82 202.5t82 202t221 80q140 0 222.5 -80.5t82.5 -201.5q0 -122 -82.5 -202.5t-222.5 -80.5zM207 620h-71q14 75 47.5 114t80.5 39
q27 0 73 -20.5t70 -20.5q36 0 57 50h70q-14 -75 -47.5 -114t-79.5 -39q-27 0 -73 20.5t-70 20.5q-38 0 -57 -50z" />
    <glyph glyph-name="Odieresissmall" unicode="&#xf7f6;" horiz-adv-x="682" 
d="M340 415q-68 0 -110.5 -41t-42.5 -103q0 -61 42.5 -103t110.5 -42t111 42t43 103q0 62 -42.5 103t-111.5 41zM340 -12q-139 0 -221 80.5t-82 202.5t82 202t221 80q140 0 222.5 -80.5t82.5 -201.5q0 -122 -82.5 -202.5t-222.5 -80.5zM370 666q0 31 21 52.5t53 21.5
q31 0 52.5 -21.5t21.5 -52.5q0 -32 -21.5 -53t-52.5 -21q-32 0 -53 21t-21 53zM165 666q0 31 21 52.5t52 21.5t53 -21.5t22 -52.5q0 -32 -21.5 -53t-53.5 -21t-52.5 21t-20.5 53z" />
    <glyph glyph-name="Oslashsmall" unicode="&#xf7f8;" horiz-adv-x="686" 
d="M168 0h-124l67 75q-74 79 -74 196q0 122 82 202t222 80q91 0 161 -38l24 27h123l-74 -83q70 -78 70 -188q0 -122 -82.5 -202.5t-221.5 -80.5q-87 0 -153 33zM494 271q0 39 -21 70l-183 -203q25 -11 50 -11q68 0 111 41t43 103zM341 415q-69 0 -111 -41t-42 -103
q0 -44 24 -81l190 211q-28 14 -61 14z" />
    <glyph glyph-name="Ugravesmall" unicode="&#xf7f9;" horiz-adv-x="616" 
d="M341 780l91 -176h-108l-151 176h168zM308 -12q-115 0 -182 65t-67 165v324h151v-330q0 -38 27.5 -64.5t70.5 -26.5t70.5 26.5t27.5 64.5v330h151v-324q0 -100 -67 -165t-182 -65z" />
    <glyph glyph-name="Uacutesmall" unicode="&#xf7fa;" horiz-adv-x="616" 
d="M182 604l91 176h167l-150 -176h-108zM308 -12q-115 0 -182 65t-67 165v324h151v-330q0 -38 27.5 -64.5t70.5 -26.5t70.5 26.5t27.5 64.5v330h151v-324q0 -100 -67 -165t-182 -65z" />
    <glyph glyph-name="Ucircumflexsmall" unicode="&#xf7fb;" horiz-adv-x="616" 
d="M105 604l140 176h127l139 -176h-110l-93 89l-93 -89h-110zM308 -12q-115 0 -182 65t-67 165v324h151v-330q0 -38 27.5 -64.5t70.5 -26.5t70.5 26.5t27.5 64.5v330h151v-324q0 -100 -67 -165t-182 -65z" />
    <glyph glyph-name="Udieresissmall" unicode="&#xf7fc;" horiz-adv-x="616" 
d="M338 666q0 31 21.5 52.5t52.5 21.5t53 -21.5t22 -52.5q0 -32 -21.5 -53t-53.5 -21t-53 21t-21 53zM133 666q0 31 21 52.5t53 21.5q31 0 52.5 -21.5t21.5 -52.5q0 -32 -21.5 -53t-52.5 -21q-32 0 -53 21t-21 53zM308 -12q-115 0 -182 65t-67 165v324h151v-330
q0 -38 27.5 -64.5t70.5 -26.5t70.5 26.5t27.5 64.5v330h151v-324q0 -100 -67 -165t-182 -65z" />
    <glyph glyph-name="Yacutesmall" unicode="&#xf7fd;" horiz-adv-x="604" 
d="M5 542h170l127 -216l127 216h170q-36 -60 -110 -177.5t-111 -177.5v-187h-151v187q-58 90 -222 355zM174 604l92 176h167l-150 -176h-109z" />
    <glyph glyph-name="Thornsmall" unicode="&#xf7fe;" horiz-adv-x="533" 
d="M67 0v542h153v-77h68q93 0 156 -55t63 -139q0 -83 -62 -137.5t-157 -54.5h-68v-79h-153zM355 272q0 63 -102 63h-33v-127h33q102 0 102 64z" />
    <glyph glyph-name="Ydieresissmall" unicode="&#xf7ff;" horiz-adv-x="604" 
d="M5 542h170l127 -216l127 216h170l-221 -355v-187h-151v187zM331 666q0 31 21.5 52.5t52.5 21.5t53 -21.5t22 -52.5q0 -32 -21.5 -53t-53.5 -21t-53 21t-21 53zM126 666q0 31 21 52.5t53 21.5q31 0 52.5 -21.5t21.5 -52.5q0 -32 -21 -53t-53 -21t-53 21t-21 53z" />
    <glyph glyph-name="parenleftsmall" unicode="&#xfe59;" horiz-adv-x="359" 
d="M339 -58l-55 -72q-129 56 -187.5 151t-58.5 208q0 243 245 361l56 -73q-175 -105 -175 -288t175 -287z" />
    <glyph glyph-name="parenrightsmall" unicode="&#xfe5a;" horiz-adv-x="359" 
d="M73 -131q-11 15 -31.5 41.5t-23.5 31.5q175 102 175 287t-175 288q3 5 23.5 31.5t31.5 41.5q247 -118 247 -361q0 -242 -247 -360z" />
    <glyph glyph-name="braceleftsmall" unicode="&#xfe5b;" horiz-adv-x="371" 
d="M354 -56l-18 -86q-127 25 -169 62t-42 113v34q0 26 -1.5 42.5t-6 35t-15.5 27t-28 8.5h-34v87h34q24 0 37.5 17t13.5 46v101q0 68 42 101t169 57l18 -85q-71 -21 -86.5 -36t-15.5 -57v-84q0 -71 -70 -104q70 -36 70 -102v-94q0 -34 17 -48t85 -35z" />
    <glyph glyph-name="bracerightsmall" unicode="&#xfe5c;" horiz-adv-x="370" 
d="M34 -142l-17 86q71 21 86.5 36t15.5 57v84q0 67 68 102q-68 33 -68 104v84q0 42 -15.5 57t-86.5 36l17 85q129 -25 170 -59t41 -108v-67q0 -88 51 -88h34v-87h-34q-22 0 -34 -17.5t-14.5 -38.5t-2.5 -57v-34q0 -77 -41 -114t-170 -61z" />
    <glyph glyph-name="bracketleftsmall" unicode="&#xfe5d;" horiz-adv-x="294" 
d="M45 -132v715h234v-99h-110v-517h110v-99h-234z" />
    <glyph glyph-name="bracketrightsmall" unicode="&#xfe5e;" horiz-adv-x="294" 
d="M248 583v-715h-233v99h108v517h-108v99h233z" />
    <glyph glyph-name="numbersignsmall" unicode="&#xfe5f;" horiz-adv-x="592" 
d="M108 0q4 20 11 60t11 59h-80v89h96l22 124h-86v90h103l20 117h98l-21 -117h83q2 11 9 52.5t12 64.5h97l-21 -117h80v-90h-95q-16 -82 -23 -124h85v-89h-102l-21 -119h-98q8 39 22 119h-82q-16 -80 -23 -119h-97zM244 208h82l23 124h-82q-16 -82 -23 -124z" />
    <glyph glyph-name="ampersandsmall" unicode="&#xfe60;" horiz-adv-x="614" 
d="M433 263h148q-4 -8 -21 -38t-25 -43t-23 -35t-29 -38l111 -109h-174l-33 32q-73 -43 -156 -43q-100 0 -152 45t-52 118q0 43 28.5 73t79.5 56q-61 74 -61 115q0 62 55 108t149 46q90 0 136 -41.5t46 -105.5q0 -49 -35.5 -82t-97.5 -60l68 -68q8 14 22.5 40.5t15.5 29.5z
M248 88q31 0 60 20l-95 93q-42 -27 -42 -55t20.5 -43t56.5 -15zM206 398q0 -18 49 -67q36 17 54.5 33.5t18.5 38.5q0 21 -16.5 32.5t-41.5 11.5q-29 0 -46.5 -13.5t-17.5 -35.5z" />
    <glyph glyph-name="dollarsmall" unicode="&#xfe69;" horiz-adv-x="497" 
d="M199 -75v67q-91 12 -173 66l60 105q35 -22 82.5 -36t85.5 -14q32 0 51.5 12.5t19.5 35.5q0 16 -20.5 27.5t-51.5 18.5t-67 20.5t-67 31t-51.5 52.5t-20.5 83q0 59 39.5 100.5t112.5 53.5v67h113v-69q69 -12 141 -57l-62 -99q-70 45 -147 45q-27 0 -46 -10.5t-19 -30.5
q0 -19 30 -31.5t73 -24t86 -28.5t73 -55t30 -94q0 -60 -41.5 -106t-117.5 -61v-69h-113z" />
    <glyph glyph-name="ordfeminine.alt" horiz-adv-x="483" 
d="M433 326h-111v45q-16 -25 -44 -40t-58 -15q-77 0 -123.5 55t-46.5 136t46.5 136t123.5 55q27 0 56 -16t46 -39v44h111v-361zM253 420q43 0 69 33v107q-26 34 -69 34q-35 0 -60.5 -26t-25.5 -61q0 -36 25.5 -61.5t60.5 -25.5z" />
    <glyph glyph-name="afii10106.alt" horiz-adv-x="839" 
d="M7 0l211 500h166l64 -154h155q94 0 151 -47.5t57 -125.5q0 -74 -52 -123.5t-139 -49.5h-188l-131 326l-130 -326h-164zM597 233h-101l51 -119h50q28 0 46 16.5t18 42.5q0 27 -18 43.5t-46 16.5z" />
    <glyph glyph-name="afii10077.alt" horiz-adv-x="602" 
d="M7 0l211 500h166l211 -500h-163l-131 326l-130 -326h-164z" />
    <glyph glyph-name="musmall" horiz-adv-x="529" 
d="M15 173h56v26h-56v94h56v246h208q93 0 156.5 -48t63.5 -126t-65 -122t-155 -44h-58v-26h160v-94h-160v-79h-150v79h-56v94zM282 409h-61v-116h61q30 0 48 16.5t18 41.5t-18 41.5t-48 16.5z" />
    <glyph glyph-name="afii10069.alt" horiz-adv-x="686" 
d="M20 129h86l154 371h166l153 -371h87v-270h-143v141h-373v-141h-130v270zM343 333l-84 -204h169z" />
    <glyph glyph-name="afii10021.alt" horiz-adv-x="819" 
d="M166 0v-154h-151v309h106l190 545h197l190 -545h106v-309h-151v154h-487zM409 495l-116 -340h233z" />
    <glyph glyph-name="afii10029.alt" horiz-adv-x="711" 
d="M529 0l-174 495l-173 -495h-174l249 700h198l248 -700h-174z" />
    <glyph glyph-name="afii10058small.alt" horiz-adv-x="823" 
d="M380 539l61 -166h155q78 0 138.5 -52.5t60.5 -134.5q0 -79 -56.5 -132.5t-142.5 -53.5h-165l-136 362l-134 -362h-151l203 539h167zM579 245h-91l46 -116h45q29 0 47 16t18 41t-18 42t-47 17z" />
    <glyph glyph-name="uni0145small" horiz-adv-x="632" 
d="M215 -315l29 238h142l-88 -238h-83zM218 297v-297h-151v542h148l200 -299v299h150v-542h-148z" />
    <glyph glyph-name="afii10029small.alt" horiz-adv-x="591" 
d="M431 0l-135 362l-135 -362h-151l203 539h166l202 -539h-150z" />
    <glyph glyph-name="afii10021small.alt" horiz-adv-x="678" 
d="M15 129h87q29 76 80.5 216.5t71.5 193.5h164l153 -410h87v-245h-133v116h-377v-116h-133v245zM336 363l-86 -234h172z" />
    <glyph glyph-name="afii10037.alt" horiz-adv-x="718" 
d="M710 700l-227 -535q-36 -84 -89 -132t-143 -48q-66 0 -106.5 18t-89.5 67l105 99q39 -43 74 -43q45 0 62 50l-288 524h195l180 -330l134 330h193z" />
    <glyph glyph-name="uni013Bsmall" horiz-adv-x="483" 
d="M67 0v542h151v-413h245v-129h-396zM145 -315l30 238h142l-89 -238h-83z" />
    <glyph glyph-name="aogonek.alt" horiz-adv-x="613" 
d="M562 500v-500q-53 -12 -70 -27t-17 -43q0 -12 5 -24t26.5 -25t56.5 -14v-59q-32 0 -64 4.5t-67 15t-56.5 33.5t-21.5 55q0 23 14.5 47t43.5 37v64q-24 -36 -64.5 -56t-86.5 -20q-105 0 -167.5 75.5t-62.5 186.5q0 110 62.5 186t167.5 76q45 0 86 -20.5t65 -56.5v65h150z
M311 125q62 0 101 49v150q-40 50 -101 50q-51 0 -86.5 -36.5t-35.5 -87.5q0 -52 35.5 -88.5t86.5 -36.5z" />
    <glyph glyph-name="amacron.alt" horiz-adv-x="612" 
d="M562 0h-150v64q-24 -36 -64.5 -56t-86.5 -20q-105 0 -167.5 75.5t-62.5 186.5q0 110 62.5 186t167.5 76q45 0 86 -20.5t65 -56.5v65h150v-500zM311 125q62 0 101 49v150q-40 50 -101 50q-51 0 -86.5 -36.5t-35.5 -87.5q0 -52 35.5 -88.5t86.5 -36.5zM141 578v96h329v-96
h-329z" />
    <glyph glyph-name="afii10065.alt" horiz-adv-x="612" 
d="M562 0h-150v65q-50 -77 -152 -77q-105 0 -167 75.5t-62 186.5q0 110 62.5 186t166.5 76q46 0 87 -20.5t65 -57.5v66h150v-500zM313 125q60 0 99 49v151q-39 49 -99 49q-50 0 -86.5 -37t-36.5 -87q0 -52 36 -88.5t87 -36.5z" />
    <glyph glyph-name="uni0136small" horiz-adv-x="607" 
d="M192 -315l29 238h142l-89 -238h-82zM406 0l-178 276l170 266h175l-175 -266l197 -276h-189zM67 0v542h151v-542h-151z" />
    <glyph glyph-name="sectionsmall" horiz-adv-x="541" 
d="M491 253q0 -61 -68 -102q18 -29 18 -60q0 -48 -46.5 -87t-136.5 -39q-92 0 -163 40l27 88q69 -34 128 -34q53 0 53 29q0 16 -39.5 27t-87 19t-87 39t-39.5 83q0 64 68 101q-19 27 -19 51q0 53 42 94.5t137 41.5q86 0 163 -43l-28 -87q-75 33 -118 33q-58 0 -58 -28
q0 -14 26 -22.5t63.5 -15.5t75 -18.5t63.5 -39.5t26 -70zM352 253q0 5 -3 9t-9 7.5t-12 6t-17 5t-18 4l-21 4.5t-20 4q-28 0 -46 -12t-18 -25q0 -16 38 -28t75 -12q51 6 51 37z" />
    <glyph glyph-name="uni0156small" horiz-adv-x="559" 
d="M220 166v-166h-153v542h248q88 0 146.5 -55t58.5 -135q0 -52 -31 -96.5t-83 -67.5l123 -188h-159l-108 166h-42zM302 413h-82v-118h82q29 0 47 16.5t18 41.5q0 26 -18 43t-47 17zM186 -315l29 238h142l-89 -238h-82z" />
    <glyph glyph-name="uni0122small" horiz-adv-x="607" 
d="M282 201v103h285v-247q-105 -69 -226 -69q-140 0 -222 80.5t-82 202.5t82 202t222 80q104 0 205 -53l-60 -117q-61 36 -134 36q-74 0 -118.5 -41t-44.5 -107q0 -62 43.5 -106t115.5 -44q35 0 69 16v64h-135zM240 -315l29 238h142q-16 -43 -45.5 -123t-42.5 -115h-83z" />
    <glyph glyph-name="agrave.alt" horiz-adv-x="612" 
d="M562 0h-150v65q-50 -77 -152 -77q-105 0 -167 75.5t-62 186.5q0 110 62.5 186t166.5 76q46 0 87 -20.5t65 -57.5v66h150v-500zM313 125q60 0 99 49v151q-39 49 -99 49q-50 0 -86.5 -37t-36.5 -87q0 -52 36 -88.5t87 -36.5zM307 573l-160 184h172l95 -184h-107z" />
    <glyph glyph-name="aacute.alt" horiz-adv-x="612" 
d="M562 0h-150v65q-50 -77 -152 -77q-105 0 -167 75.5t-62 186.5q0 110 62.5 186t166.5 76q46 0 87 -20.5t65 -57.5v66h150v-500zM313 125q60 0 99 49v151q-39 49 -99 49q-50 0 -86.5 -37t-36.5 -87q0 -52 36 -88.5t87 -36.5zM467 757l-160 -184h-107l95 184h172z" />
    <glyph glyph-name="acircumflex.alt" horiz-adv-x="612" 
d="M562 0h-150v65q-50 -77 -152 -77q-105 0 -167 75.5t-62 186.5q0 110 62.5 186t166.5 76q46 0 87 -20.5t65 -57.5v66h150v-500zM313 125q60 0 99 49v151q-39 49 -99 49q-50 0 -86.5 -37t-36.5 -87q0 -52 36 -88.5t87 -36.5zM101 573l143 181h128l142 -181h-109l-98 94
l-97 -94h-109z" />
    <glyph glyph-name="atilde.alt" horiz-adv-x="612" 
d="M562 0h-150v65q-50 -77 -152 -77q-105 0 -167 75.5t-62 186.5q0 110 62.5 186t166.5 76q46 0 87 -20.5t65 -57.5v66h150v-500zM313 125q60 0 99 49v151q-39 49 -99 49q-50 0 -86.5 -37t-36.5 -87q0 -52 36 -88.5t87 -36.5zM198 586h-71q14 75 47.5 114t80.5 39
q27 0 73 -20.5t70 -20.5q36 0 57 50h70q-14 -75 -47.5 -114t-79.5 -39q-27 0 -73 20.5t-70 20.5q-38 0 -57 -50z" />
    <glyph glyph-name="afii10085.alt" horiz-adv-x="601" 
d="M594 500l-310 -704h-151l86 205l-212 499h164l126 -315l134 315h163z" />
    <glyph glyph-name="asmall.alt" horiz-adv-x="611" 
d="M398 543l202 -543h-172l-28 77h-191l-27 -77h-172l200 543h188zM305 343l-52 -138h103z" />
    <glyph glyph-name="aacutesmall.alt" horiz-adv-x="611" 
d="M168 604l95 191h185l-159 -191h-121zM398 543l202 -543h-172l-28 77h-191l-27 -77h-172l200 543h188zM305 343l-52 -138h103z" />
    <glyph glyph-name="agravesmall.alt" horiz-adv-x="611" 
d="M341 795l95 -191h-121l-159 191h185zM398 543l202 -543h-172l-28 77h-191l-27 -77h-172l200 543h188zM305 343l-52 -138h103z" />
    <glyph glyph-name="acircumflexsmall.alt" horiz-adv-x="611" 
d="M99 604l132 191h145l132 -191h-122q-4 5 -83 98l-82 -98h-122zM398 543l202 -543h-172l-28 77h-191l-27 -77h-172l200 543h188zM305 343l-52 -138h103z" />
    <glyph glyph-name="adieresissmall.alt" horiz-adv-x="611" 
d="M334 671q0 34 23.5 58t57.5 24t58 -24t24 -58q0 -35 -23.5 -58t-58.5 -23t-58 23t-23 58zM114 671q0 34 23 58t58 24q34 0 57.5 -24t23.5 -58q0 -35 -23.5 -58t-57.5 -23q-35 0 -58 23t-23 58zM398 543l202 -543h-172l-28 77h-191l-27 -77h-172l200 543h188zM305 343
l-52 -138h103z" />
    <glyph glyph-name="atildesmall.alt" horiz-adv-x="611" 
d="M173 623q-52 0 -78 1q14 78 50 119t86 41q27 0 71 -19.5t71 -19.5q38 0 57 48q13 0 39 -0.5t39 -0.5q-14 -78 -49.5 -119.5t-85.5 -41.5q-27 0 -71.5 20t-70.5 20q-38 0 -58 -48zM398 543l202 -543h-172l-28 77h-191l-27 -77h-172l200 543h188zM305 343l-52 -138h103z
" />
    <glyph glyph-name="aringsmall.alt" horiz-adv-x="611" 
d="M301 599q-50 0 -87.5 35.5t-37.5 83.5t37.5 83.5t87.5 35.5t87 -35.5t37 -83.5t-37 -83.5t-87 -35.5zM301 669q20 0 34.5 14.5t14.5 34.5t-14.5 34.5t-34.5 14.5q-21 0 -36 -14.5t-15 -34.5t15.5 -34.5t35.5 -14.5zM398 543l202 -543h-172l-28 77h-191l-27 -77h-172
l200 543h188zM305 343l-52 -138h103z" />
    <glyph glyph-name="amacronsmall.alt" horiz-adv-x="611" 
d="M135 608v106h335v-106h-335zM398 543l202 -543h-172l-28 77h-191l-27 -77h-172l200 543h188zM305 343l-52 -138h103z" />
    <glyph glyph-name="aogoneksmall.alt" horiz-adv-x="611" 
d="M599 -156q-25 0 -52.5 3.5t-63 12t-58.5 29t-23 49.5q0 39 24 62l-26 77h-191l-27 -77h-172l201 543h187l202 -543q-81 -17 -81 -49q0 -15 19.5 -29t60.5 -18v-60zM305 343l-51 -138h102z" />
    <glyph glyph-name="aesmall.alt" horiz-adv-x="869" 
d="M825 141v-141h-409v83h-183l-54 -83h-174l363 543h456v-141h-237v-60h184v-135h-184v-66h238zM310 200h106v161z" />
    <glyph glyph-name="afii10065small.alt" horiz-adv-x="611" 
d="M398 543l202 -543h-172l-28 77h-191l-27 -77h-172l200 543h188zM305 343l-52 -138h103z" />
    <glyph glyph-name="a.alt" horiz-adv-x="612" 
d="M562 0h-150v64q-24 -36 -64.5 -56t-86.5 -20q-105 0 -167.5 75.5t-62.5 186.5q0 110 62.5 186t167.5 76q45 0 86 -20.5t65 -56.5v65h150v-500zM311 125q62 0 101 49v150q-40 50 -101 50q-51 0 -86.5 -36.5t-35.5 -87.5q0 -52 35.5 -88.5t86.5 -36.5z" />
    <glyph glyph-name="adieresis.alt" horiz-adv-x="612" 
d="M562 0h-150v65q-50 -77 -152 -77q-105 0 -167 75.5t-62 186.5q0 110 62.5 186t166.5 76q46 0 87 -20.5t65 -57.5v66h150v-500zM313 125q60 0 99 49v151q-39 49 -99 49q-50 0 -86.5 -37t-36.5 -87q0 -52 36 -88.5t87 -36.5zM340 635q0 32 21.5 54t53.5 22q31 0 53.5 -22.5
t22.5 -53.5q0 -32 -22 -53.5t-54 -21.5t-53.5 21.5t-21.5 53.5zM125 635q0 32 21.5 54t53.5 22t54 -22.5t22 -53.5q0 -32 -22 -53.5t-54 -21.5t-53.5 21.5t-21.5 53.5z" />
    <glyph glyph-name="aring.alt" horiz-adv-x="612" 
d="M562 0h-150v65q-50 -77 -152 -77q-105 0 -167 75.5t-62 186.5q0 110 62.5 186t166.5 76q46 0 87 -20.5t65 -57.5v66h150v-500zM313 125q60 0 99 49v151q-39 49 -99 49q-50 0 -86.5 -37t-36.5 -87q0 -52 36 -88.5t87 -36.5zM308 564q-48 0 -85 34.5t-37 82.5q0 47 37 81.5
t85 34.5q49 0 85.5 -34.5t36.5 -82.5q0 -47 -36.5 -81.5t-85.5 -34.5zM308 627q22 0 37.5 16t15.5 38q0 21 -15.5 37t-37.5 16t-38 -16t-16 -38q0 -21 16.5 -37t37.5 -16z" />
    <glyph glyph-name="afii10037small.alt" horiz-adv-x="601" 
d="M614 543l-178 -411q-29 -67 -72.5 -105t-117.5 -38q-59 0 -90.5 11.5t-69.5 44.5l81 102q27 -28 52 -28q20 0 33 21q-23 38 -110 181.5t-134 221.5h193l134 -238l91 238h188z" />
    <glyph glyph-name="ae.alt" horiz-adv-x="967" 
d="M684 -15q-68 0 -124 37v-22h-148v65q-22 -37 -62 -58.5t-84 -21.5q-106 0 -170.5 76t-64.5 189q0 112 64.5 188.5t170.5 76.5q44 0 84 -22t62 -59v66h148v-25q29 40 119 40q117 0 187 -70t70 -190q0 -16 -4 -46h-363q19 -104 137 -104q80 0 141 40l50 -90
q-80 -70 -213 -70zM313 125q60 0 99 49v151q-39 49 -99 49q-50 0 -86.5 -37t-36.5 -87q0 -52 36 -88.5t87 -36.5zM796 301q-9 43 -40 68t-77 25q-43 0 -74 -24.5t-41 -68.5h232z" />
    <glyph glyph-name="afii10058.alt" horiz-adv-x="1002" 
d="M455 700l78 -220h193q97 0 171.5 -69t74.5 -171q0 -100 -71.5 -170t-174.5 -70h-197l-174 495l-173 -495h-174l249 700h198zM710 325h-124l62 -170h62q41 0 65.5 24t24.5 61t-24.5 61t-65.5 24z" />
    </font>
</defs>
</svg>
