<?xml version="1.0" standalone="no"?>
<!DOCTYPE svg PUBLIC "-//W3C//DTD SVG 1.1//EN" "http://www.w3.org/Graphics/SVG/1.1/DTD/svg11.dtd" >
<svg xmlns="http://www.w3.org/2000/svg" xmlns:xlink="http://www.w3.org/1999/xlink" version="1.1">
<metadata>
Created by FontForge 20150318 at Thu Jun  4 09:16:31 2015
 By uniteet7
Copyright (c) 2012 by Letterhead Studio Moscow. All rights reserved.
</metadata>
<defs>
<font id="RedRingMedium" horiz-adv-x="593" >
  <font-face 
    font-family="RedRingMedium"
    font-weight="500"
    font-stretch="normal"
    units-per-em="1000"
    panose-1="2 11 6 4 2 2 2 2 2 4"
    ascent="770"
    descent="-230"
    x-height="500"
    cap-height="700"
    bbox="-48 -306 1116 996"
    underline-thickness="50"
    underline-position="-50"
    unicode-range="U+0020-FE69"
  />
<missing-glyph horiz-adv-x="250" 
 />
    <glyph glyph-name="fi" unicode="fi" horiz-adv-x="668" 
d="M476 0v401h-236v-401h-119v401h-99v99h99q0 100 40.5 157.5t126.5 57.5q60 0 110 -22v-94q-40 17 -84 17q-43 0 -58.5 -28t-15.5 -88h355v-500h-119zM468 630q0 28 19.5 48t47.5 20t48 -20t20 -48t-20 -47.5t-48 -19.5t-47.5 19.5t-19.5 47.5z" />
    <glyph glyph-name="fl" unicode="fl" horiz-adv-x="652" 
d="M240 500h228v210h119v-710h-119v401h-228v-401h-119v401h-99v99h99q0 100 40.5 157.5t126.5 57.5q60 0 110 -22v-94q-40 17 -84 17q-43 0 -58.5 -28t-15.5 -88z" />
    <glyph glyph-name=".notdef" horiz-adv-x="250" 
 />
    <glyph glyph-name=".null" horiz-adv-x="0" 
 />
    <glyph glyph-name="nonmarkingreturn" horiz-adv-x="333" 
 />
    <glyph glyph-name="space" unicode=" " horiz-adv-x="250" 
 />
    <glyph glyph-name="exclam" unicode="!" horiz-adv-x="300" 
d="M97 205l-30 495h166l-30 -495h-106zM73 66q0 32 22 54.5t54 22.5t54.5 -22.5t22.5 -54.5t-22.5 -54t-54.5 -22t-54 22t-22 54z" />
    <glyph glyph-name="quotedbl" unicode="&#x22;" horiz-adv-x="422" 
d="M273 446l-12 254h110l-39 -254h-59zM83 446l-12 254h110l-39 -254h-59z" />
    <glyph glyph-name="numbersign" unicode="#" horiz-adv-x="700" 
d="M128 0l29 167h-108v87h122l35 196h-117v87h131l28 163h88l-28 -163h147l28 163h88l-28 -163h107v-87h-121l-34 -196h115v-87h-130l-28 -167h-89l29 167h-147l-28 -167h-89zM260 254h146l35 196h-147z" />
    <glyph glyph-name="dollar" unicode="$" horiz-adv-x="571" 
d="M244 -100v88q-120 13 -213 87l61 100q65 -52 152 -67v200q-41 12 -70.5 26t-59.5 37.5t-45.5 60.5t-15.5 87q0 75 51.5 127.5t139.5 64.5v89h103v-89q89 -13 178 -81l-62 -94q-60 47 -116 60v-184q44 -13 73.5 -26.5t61.5 -37t48.5 -60.5t16.5 -87q0 -77 -56 -136
t-144 -75v-90h-103zM416 201q0 47 -69 75v-166q69 24 69 91zM173 519q0 -48 71 -75v153q-71 -18 -71 -78z" />
    <glyph glyph-name="percent" unicode="%" horiz-adv-x="743" 
d="M200 413q-65 0 -105 41.5t-40 102.5q0 60 40 101t105 41t105 -41t40 -101q0 -61 -40 -102.5t-105 -41.5zM200 486q32 0 52.5 20.5t20.5 49.5q0 30 -20.5 50t-52.5 20t-52 -20t-20 -50q0 -29 20 -49.5t52 -20.5zM157 0h-102l530 700h103zM542 0q-65 0 -105 41t-40 102
q0 60 40.5 101.5t104.5 41.5q65 0 105.5 -41.5t40.5 -101.5q0 -61 -40.5 -102t-105.5 -41zM542 73q32 0 52.5 20.5t20.5 49.5q0 30 -20.5 50t-52.5 20t-52 -20t-20 -50q0 -29 20 -49.5t52 -20.5z" />
    <glyph glyph-name="ampersand" unicode="&#x26;" horiz-adv-x="695" 
d="M659 335l-81 -150q-12 -21 -31 -49q19 -20 41 -43t48 -50.5t41 -42.5h-158l-58 60q-87 -75 -196 -75q-115 0 -175.5 57t-60.5 147q0 60 38 100t106 74q-43 49 -65.5 87.5t-22.5 82.5q0 73 62.5 127.5t164.5 54.5q100 0 152 -50t52 -129q0 -68 -44 -111t-124 -82l118 -123
q5 10 26 51t31 64h136zM280 80q60 0 111 53l-148 156q-41 -25 -62 -48.5t-21 -57.5q0 -48 32 -75.5t88 -27.5zM204 531q0 -8 2 -16t7 -17t8.5 -15t13 -17.5t13.5 -16.5t16.5 -18.5t16.5 -18.5q55 28 84.5 56t29.5 68q0 37 -24.5 58t-65.5 21q-46 0 -73.5 -23.5t-27.5 -60.5z
" />
    <glyph glyph-name="quotesingle" unicode="'" horiz-adv-x="233" 
d="M83 446l-12 254h110l-39 -254h-59z" />
    <glyph glyph-name="parenleft" unicode="(" horiz-adv-x="413" 
d="M385 -94l-47 -68q-293 151 -293 459t293 459l47 -68q-117 -71 -171 -172.5t-54 -218.5q0 -111 54.5 -215.5t170.5 -175.5z" />
    <glyph glyph-name="parenright" unicode=")" horiz-adv-x="413" 
d="M75 -162l-48 68q117 71 171.5 173t54.5 218t-54.5 218t-171.5 173l48 68q293 -151 293 -459t-293 -459z" />
    <glyph glyph-name="asterisk" unicode="*" horiz-adv-x="476" 
d="M188 351l22 140l-113 -87l-47 76l140 54l-140 53l47 77l113 -88l-22 141h89l-23 -141l115 88l46 -77l-139 -53l139 -54l-46 -76l-115 87l23 -140h-89z" />
    <glyph glyph-name="plus" unicode="+" horiz-adv-x="640" 
d="M272 29v211h-213v93h213v212h95v-212h214v-93h-214v-211h-95z" />
    <glyph glyph-name="comma" unicode="," horiz-adv-x="293" 
d="M45 -148l37 286h146l-99 -286h-84z" />
    <glyph glyph-name="hyphen" unicode="-" horiz-adv-x="398" 
d="M55 236v106h288v-106h-288z" />
    <glyph glyph-name="period" unicode="." horiz-adv-x="283" 
d="M65 66q0 32 22 54.5t54 22.5q31 0 54 -22.5t23 -54.5t-22.5 -54t-54.5 -22t-54 22t-22 54z" />
    <glyph glyph-name="slash" unicode="/" horiz-adv-x="454" 
d="M101 -100h-101l353 850h101z" />
    <glyph glyph-name="zero" unicode="0" 
d="M541 350q0 -181 -66.5 -273t-178.5 -92t-178 92.5t-66 272.5t66 272.5t178 92.5t178.5 -92.5t66.5 -272.5zM188 350q0 -251 108 -251q48 0 78.5 62.5t30.5 188.5t-30.5 188.5t-78.5 62.5q-108 0 -108 -251z" />
    <glyph glyph-name="one" unicode="1" 
d="M547 123v-123h-476v123h170v421l-132 -75l-54 96l255 145h67v-587h170z" />
    <glyph glyph-name="two" unicode="2" 
d="M130 519l-65 87q100 109 239 109q104 0 161 -57.5t57 -147.5q0 -26 -7 -52.5t-14.5 -47t-30.5 -52t-36.5 -49.5t-51.5 -58t-56 -58.5t-69 -69.5h278v-123h-468v100q41 42 94.5 94t78.5 77t56.5 58t44.5 50t26.5 40t17.5 41.5t4 40.5q0 38 -26.5 69t-73.5 31
q-84 0 -159 -82z" />
    <glyph glyph-name="three" unicode="3" 
d="M282 99q47 0 73.5 33.5t26.5 72.5q0 43 -21.5 75t-58.5 32q-34 0 -84 -14l-23 88q195 46 195 135q0 37 -24 59.5t-66 22.5q-83 0 -163 -72l-58 88q101 96 224 96q103 0 157 -49t54 -125q0 -54 -32.5 -100t-94.5 -71q71 -16 108.5 -63.5t37.5 -109.5q0 -90 -70.5 -151
t-185.5 -61q-67 0 -112.5 20.5t-99.5 65.5l61 94q75 -66 156 -66z" />
    <glyph glyph-name="four" unicode="4" 
d="M462 0h-136v170h-292l-15 86l331 454h112v-442h115v-98h-115v-170zM326 532l-190 -264h190v264z" />
    <glyph glyph-name="five" unicode="5" 
d="M222 576l-20 -154q50 28 124 28q97 0 152 -63t55 -157q0 -99 -66 -172t-187 -73q-67 0 -114 21t-101 65l61 94q75 -66 154 -66q47 0 82.5 40.5t35.5 90.5q0 56 -29.5 87.5t-78.5 31.5q-70 0 -120 -35l-81 31l45 355h380v-124h-292z" />
    <glyph glyph-name="six" unicode="6" 
d="M465 554q-28 24 -68 39t-74 15q-74 0 -103.5 -53.5t-30.5 -145.5q51 60 150 60q84 0 142.5 -61t58.5 -168q0 -121 -69 -188t-175 -67q-127 0 -185.5 88t-58.5 267q0 375 264 375q58 0 105 -17t97 -57zM189 266q2 -87 32.5 -127t80.5 -40q44 0 76.5 35t32.5 103
q0 65 -28.5 98.5t-68.5 33.5q-43 0 -79.5 -23t-45.5 -80z" />
    <glyph glyph-name="seven" unicode="7" 
d="M537 599l-244 -599h-145l240 571h-333v129h482v-101z" />
    <glyph glyph-name="eight" unicode="8" 
d="M523 526q0 -66 -31 -105t-86 -64q63 -29 98.5 -70t35.5 -110q0 -90 -64.5 -141t-179.5 -51q-114 0 -179 51t-65 141q0 69 35.5 110t98.5 70q-114 53 -114 169q0 82 61.5 135.5t162.5 53.5q105 0 166 -54t61 -135zM405 201q0 45 -28 71t-81 49q-53 -23 -80.5 -48.5
t-27.5 -71.5q0 -48 28.5 -77t79.5 -29q53 0 81 29t28 77zM202 511q0 -39 24 -63.5t70 -46.5q46 22 70.5 46.5t24.5 63.5q0 43 -26.5 68.5t-68.5 25.5t-68 -25t-26 -69z" />
    <glyph glyph-name="nine" unicode="9" 
d="M74 59l53 87q28 -24 68 -39t74 -15q74 0 103.5 53.5t30.5 145.5q-51 -60 -150 -60q-84 0 -142.5 61t-58.5 168q0 121 69 188t175 67q127 0 185.5 -88t58.5 -267q0 -375 -264 -375q-58 0 -105 17t-97 57zM403 434q-2 87 -32.5 127t-80.5 40q-44 0 -76.5 -35t-32.5 -103
q0 -65 28.5 -98.5t68.5 -33.5q43 0 79.5 23t45.5 80z" />
    <glyph glyph-name="colon" unicode=":" horiz-adv-x="283" 
d="M65 426q0 32 22 54.5t54 22.5q31 0 54 -22.5t23 -54.5t-22.5 -54t-54.5 -22t-54 22t-22 54zM65 66q0 32 22 54.5t54 22.5q31 0 54 -22.5t23 -54.5t-22.5 -54t-54.5 -22t-54 22t-22 54z" />
    <glyph glyph-name="semicolon" unicode=";" horiz-adv-x="293" 
d="M80 426q0 32 22 54.5t54 22.5t54.5 -22.5t22.5 -54.5t-22.5 -54t-54.5 -22t-54 22t-22 54zM45 -148l37 286h146l-99 -286h-84z" />
    <glyph glyph-name="less" unicode="&#x3c;" horiz-adv-x="640" 
d="M563 10l-502 222v89l502 222v-96l-390 -170l390 -171v-96z" />
    <glyph glyph-name="equal" unicode="=" horiz-adv-x="640" 
d="M59 353v94h521v-94h-521zM59 121v94h521v-94h-521z" />
    <glyph glyph-name="greater" unicode="&#x3e;" horiz-adv-x="640" 
d="M76 10v96l391 170l-391 171v96l502 -222v-89z" />
    <glyph glyph-name="question" unicode="?" horiz-adv-x="527" 
d="M492 534q0 -40 -20.5 -75.5t-50 -62t-58.5 -53t-49.5 -62t-20.5 -76.5h-106q0 20 2 52q3 51 21 88t42 56.5t48 35.5t40 37t16 50q0 43 -29 64.5t-76 21.5q-93 0 -155 -82l-61 83q89 104 229 104q105 0 166.5 -50t61.5 -131zM163 66q0 32 22 54.5t54 22.5q31 0 54 -22.5
t23 -54.5t-22.5 -54t-54.5 -22t-54 22t-22 54z" />
    <glyph glyph-name="at" unicode="@" horiz-adv-x="989" 
d="M673 0h-71v61q-24 -33 -63 -52.5t-81 -19.5q-98 0 -160 69.5t-62 169.5q0 101 62 170.5t160 69.5q42 0 81 -20t63 -53v59h110v-373q64 16 101.5 77.5t37.5 137.5q0 58 -19 108.5t-59.5 92.5t-112.5 66.5t-169 24.5q-158 0 -260.5 -102.5t-102.5 -251.5
q0 -147 104.5 -240.5t270.5 -93.5v-76q-198 0 -324.5 115.5t-126.5 294.5q0 181 123.5 305.5t315.5 124.5q111 0 197.5 -30.5t138.5 -82.5t78.5 -115t26.5 -133q0 -125 -74 -214t-185 -89zM491 89q68 0 111 55v168q-43 56 -111 56q-57 0 -98 -41.5t-41 -98.5q0 -58 41 -98.5
t98 -40.5z" />
    <glyph glyph-name="A" unicode="A" horiz-adv-x="691" 
d="M423 700l258 -700h-136l-55 146h-289l-55 -146h-136l258 700h155zM345 541l-107 -285h214z" />
    <glyph glyph-name="B" unicode="B" horiz-adv-x="635" 
d="M568 527q0 -51 -29.5 -94.5t-76.5 -66.5q59 -22 96 -70t37 -108q0 -79 -58.5 -133.5t-146.5 -54.5h-317v700h260q103 0 169 -44t66 -129zM209 107h145q44 0 74.5 29t30.5 72q0 42 -30.5 71t-74.5 29h-145v-201zM440 502q0 38 -28.5 64.5t-67.5 26.5h-135v-185h135
q39 0 67.5 27.5t28.5 66.5z" />
    <glyph glyph-name="C" unicode="C" horiz-adv-x="685" 
d="M411 111q118 0 201 66l60 -107q-107 -85 -261 -85q-170 0 -270.5 103.5t-100.5 261.5q0 157 100.5 261t270.5 104q152 0 261 -85l-60 -108q-85 67 -201 67q-105 0 -169 -69t-64 -170q0 -99 64.5 -169t168.5 -70z" />
    <glyph glyph-name="D" unicode="D" horiz-adv-x="751" 
d="M209 134h129q104 0 163 59.5t59 155.5q0 97 -59 157t-163 60h-129v-432zM337 0h-264v700h264q167 0 263 -98t96 -252t-96 -252t-263 -98z" />
    <glyph glyph-name="E" unicode="E" horiz-adv-x="606" 
d="M550 120v-120h-477v700h472v-120h-336v-164h285v-115h-285v-181h341z" />
    <glyph glyph-name="F" unicode="F" horiz-adv-x="580" 
d="M512 400v-123h-303v-277h-136v700h472v-123h-336v-177h303z" />
    <glyph glyph-name="G" unicode="G" horiz-adv-x="722" 
d="M343 277v98h339v-300q-117 -90 -271 -90q-170 0 -270.5 103.5t-100.5 261.5q0 157 100.5 261t270.5 104q131 0 234 -64l-56 -110q-75 46 -172 46q-108 0 -173.5 -67t-65.5 -170q0 -99 64.5 -169t168.5 -70q77 0 137 41v125h-205z" />
    <glyph glyph-name="H" unicode="H" horiz-adv-x="719" 
d="M510 0v301h-301v-301h-136v700h136v-276h301v276h136v-700h-136z" />
    <glyph glyph-name="I" unicode="I" horiz-adv-x="282" 
d="M73 0v700h136v-700h-136z" />
    <glyph glyph-name="J" unicode="J" horiz-adv-x="452" 
d="M243 200v500h136v-462q0 -123 -43.5 -188t-149.5 -65q-107 0 -186 70l59 91q53 -42 101 -42q39 0 61 26t22 70z" />
    <glyph glyph-name="K" unicode="K" horiz-adv-x="686" 
d="M502 0l-285 359l272 341h159l-277 -341l303 -359h-172zM73 0v700h136v-700h-136z" />
    <glyph glyph-name="L" unicode="L" horiz-adv-x="563" 
d="M73 0v700h136v-577h332v-123h-468z" />
    <glyph glyph-name="M" unicode="M" horiz-adv-x="827" 
d="M205 699l208 -329l209 329h132v-699h-126v506l-188 -299h-54l-187 299v-506h-126v699h132z" />
    <glyph glyph-name="N" unicode="N" horiz-adv-x="726" 
d="M208 472v-472h-135v700h136l309 -473v473h135v-700h-136z" />
    <glyph glyph-name="O" unicode="O" horiz-adv-x="822" 
d="M411 584q-106 0 -171 -67t-65 -167q0 -101 65 -167.5t171 -66.5q105 0 170 66.5t65 167.5q0 100 -65 167t-170 67zM411 -15q-170 0 -270.5 103.5t-100.5 261.5q0 157 100.5 261t270.5 104t270.5 -104t100.5 -261q0 -158 -100.5 -261.5t-270.5 -103.5z" />
    <glyph glyph-name="P" unicode="P" horiz-adv-x="625" 
d="M209 241v-241h-136v700h281q108 0 174.5 -65.5t66.5 -164.5q0 -98 -68 -163.5t-173 -65.5h-145zM344 577h-135v-213h135q54 0 84 29.5t30 77.5t-30 77t-84 29z" />
    <glyph glyph-name="Q" unicode="Q" horiz-adv-x="822" 
d="M809 36l-86 -101l-119 97q-85 -47 -193 -47q-170 0 -270.5 103.5t-100.5 261.5q0 157 100.5 261t270.5 104t270.5 -104t100.5 -261q0 -132 -73 -224zM419 210l86 101l104 -94q37 57 37 133q0 100 -65 167t-170 67q-106 0 -171 -67t-65 -167q0 -101 65 -167.5t171 -66.5
q52 0 91 25z" />
    <glyph glyph-name="R" unicode="R" horiz-adv-x="632" 
d="M209 241v-241h-136v700h281q109 0 173 -65t64 -165q0 -74 -42.5 -131.5t-115.5 -79.5l172 -259h-144l-161 241h-91zM344 577h-135v-213h135q54 0 84 29.5t30 77.5t-30 77t-84 29z" />
    <glyph glyph-name="S" unicode="S" horiz-adv-x="601" 
d="M432 201q0 32 -27.5 53t-69 31t-90 26t-90 36.5t-69 64.5t-27.5 107q0 86 65.5 141t173.5 55q127 0 238 -85l-62 -94q-83 67 -182 67q-45 0 -79 -21.5t-34 -62.5q0 -28 21 -46.5t55 -30t75 -22t82 -26t75 -37.5t55 -62t21 -94q0 -88 -78 -152t-188 -64q-148 0 -261 90
l60 100q41 -32 96.5 -52t109.5 -20q52 0 91 28t39 70z" />
    <glyph glyph-name="T" unicode="T" horiz-adv-x="602" 
d="M577 700v-123h-208v-577h-136v577h-208v123h552z" />
    <glyph glyph-name="U" unicode="U" horiz-adv-x="704" 
d="M352 110q65 0 107.5 44.5t42.5 106.5v439h136v-433q0 -122 -77 -202t-209 -80t-209 80t-77 202v433h136v-439q0 -62 42.5 -106.5t107.5 -44.5z" />
    <glyph glyph-name="V" unicode="V" horiz-adv-x="691" 
d="M268 0l-258 700h141l194 -536l195 536h141l-258 -700h-155z" />
    <glyph glyph-name="W" unicode="W" horiz-adv-x="1015" 
d="M573 700l147 -485l144 485h141l-212 -700h-139l-147 482l-146 -482h-139l-212 700h141l144 -485l147 485h131z" />
    <glyph glyph-name="X" unicode="X" horiz-adv-x="708" 
d="M528 0l-174 241l-175 -241h-164l256 357l-246 343h164l165 -228l164 228h165q-23 -32 -247 -343l257 -357h-165z" />
    <glyph glyph-name="Y" unicode="Y" horiz-adv-x="686" 
d="M5 700h151l187 -324l187 324h151l-270 -453v-247h-136v246z" />
    <glyph glyph-name="Z" unicode="Z" horiz-adv-x="609" 
d="M562 700v-98l-345 -479h357v-123h-539v98l345 479h-335v123h517z" />
    <glyph glyph-name="bracketleft" unicode="[" horiz-adv-x="318" 
d="M62 -171v926h246v-93h-133v-740h133v-93h-246z" />
    <glyph glyph-name="backslash" unicode="\" horiz-adv-x="454" 
d="M454 -100h-101l-353 850h101z" />
    <glyph glyph-name="bracketright" unicode="]" horiz-adv-x="318" 
d="M255 755v-926h-245v93h133v740h-133v93h245z" />
    <glyph glyph-name="asciicircum" unicode="^" horiz-adv-x="540" 
d="M45 418l188 285h74l188 -285h-108l-118 177l-118 -177h-106z" />
    <glyph glyph-name="underscore" unicode="_" horiz-adv-x="642" 
d="M-2 -182v94h646v-94h-646z" />
    <glyph glyph-name="grave" unicode="`" horiz-adv-x="500" 
d="M249 580l-153 168h147l93 -168h-87z" />
    <glyph glyph-name="a" unicode="a" horiz-adv-x="558" 
d="M203 -15q-80 0 -125.5 37t-45.5 105q0 36 12.5 64t39 45.5t55.5 29.5t73 17.5t81.5 8t89.5 3.5v33q0 94 -107 94q-89 0 -160 -58l-61 70q92 81 228 81q115 0 167.5 -47.5t52.5 -124.5v-343h-120v81q-78 -96 -180 -96zM243 72q80 0 140 90v67q-93 -2 -133 -10
q-33 -6 -60.5 -26t-27.5 -55q0 -33 23.5 -49.5t57.5 -16.5z" />
    <glyph glyph-name="b" unicode="b" horiz-adv-x="614" 
d="M338 -15q-46 0 -89 21.5t-70 58.5v-65h-119v710h119v-276q27 37 70 58.5t89 21.5q109 0 176.5 -76.5t67.5 -187.5q0 -112 -68 -188.5t-176 -76.5zM302 404q-74 0 -123 -62v-185q47 -62 123 -62q63 0 108 45.5t45 109.5q0 63 -45 108.5t-108 45.5z" />
    <glyph glyph-name="c" unicode="c" horiz-adv-x="520" 
d="M147 250q0 -66 43.5 -109t108.5 -43q74 0 138 48l57 -86q-78 -75 -200 -75q-110 0 -186 79t-76 186t76 186t186 79q122 0 200 -75l-57 -87q-65 49 -138 49q-63 0 -107.5 -44.5t-44.5 -107.5z" />
    <glyph glyph-name="d" unicode="d" horiz-adv-x="614" 
d="M554 0h-119v65q-27 -37 -70 -58.5t-89 -21.5q-108 0 -176 76.5t-68 188.5q0 111 68.5 188t175.5 77q46 0 89 -22t70 -59v276h119v-710zM312 95q76 0 123 62v185q-47 62 -123 62q-63 0 -108 -45.5t-45 -108.5q0 -64 45 -109.5t108 -45.5z" />
    <glyph glyph-name="e" unicode="e" horiz-adv-x="582" 
d="M549 260q0 -18 -3 -35h-392q0 -63 43 -102.5t120 -39.5q87 0 151 49l46 -74q-81 -73 -212 -73q-113 0 -191.5 74t-78.5 184q0 113 76 192.5t185 79.5q119 0 187.5 -71t68.5 -184zM436 303q-10 51 -47 82.5t-96 31.5q-52 0 -89.5 -30.5t-50.5 -83.5h283z" />
    <glyph glyph-name="f" unicode="f" horiz-adv-x="410" 
d="M311 616q-73 0 -73 -116h157v-99h-157v-401h-120v401h-98v99h98q0 104 45.5 159.5t121.5 55.5q60 0 110 -22v-94q-38 17 -84 17z" />
    <glyph glyph-name="g" unicode="g" horiz-adv-x="614" 
d="M554 500v-485q0 -62 -21.5 -108.5t-59 -72t-81 -38t-92.5 -12.5q-123 0 -230 71l44 77q88 -54 183 -54q59 0 98.5 34.5t39.5 102.5v50q-27 -37 -70 -58.5t-89 -21.5q-108 0 -176 76.5t-68 188.5q0 111 68.5 188t175.5 77q46 0 89 -22t70 -59v66h119zM312 95q76 0 123 62
v185q-47 62 -123 62q-63 0 -108 -45.5t-45 -108.5q0 -64 45 -109.5t108 -45.5z" />
    <glyph glyph-name="h" unicode="h" horiz-adv-x="600" 
d="M426 0v282q0 54 -25 85.5t-70 31.5q-38 0 -83 -26t-69 -72v-301h-119v710h119v-285q68 88 187 88q79 0 129 -53.5t50 -147.5v-312h-119z" />
    <glyph glyph-name="i" unicode="i" horiz-adv-x="249" 
d="M65 0v500h119v-500h-119zM57 630q0 28 19.5 48t47.5 20t48 -20t20 -48t-20 -47.5t-48 -19.5t-47.5 19.5t-19.5 47.5z" />
    <glyph glyph-name="j" unicode="j" horiz-adv-x="249" 
d="M65 -204v704h119v-704h-119zM57 630q0 28 19.5 48t47.5 20t48 -20t20 -48t-20 -47.5t-48 -19.5t-47.5 19.5t-19.5 47.5z" />
    <glyph glyph-name="k" unicode="k" horiz-adv-x="557" 
d="M65 710h119v-710h-119v710zM412 0l-210 264l200 236h131l-204 -236l214 -264h-131z" />
    <glyph glyph-name="l" unicode="l" horiz-adv-x="249" 
d="M65 710h119v-710h-119v710z" />
    <glyph glyph-name="m" unicode="m" horiz-adv-x="876" 
d="M500 0h-119v282q0 60 -19 91t-63 31q-36 0 -69.5 -26t-50.5 -71v-307h-119v500h119v-72q56 83 153 83q117 0 152 -97q59 99 175 99q76 0 119 -53t43 -148v-312h-119v282q0 60 -19 91t-63 31q-36 0 -69.5 -26t-50.5 -71v-307z" />
    <glyph glyph-name="n" unicode="n" horiz-adv-x="600" 
d="M426 0v282q0 54 -25 85.5t-70 31.5q-38 0 -83 -26t-69 -72v-301h-119v500h119v-75q68 88 187 88q79 0 129 -53.5t50 -147.5v-312h-119z" />
    <glyph glyph-name="o" unicode="o" horiz-adv-x="604" 
d="M302 94q65 0 110 45.5t45 110.5q0 64 -45 110t-110 46t-110 -46t-45 -110q0 -66 44.5 -111t110.5 -45zM302 -15q-116 0 -193 77t-77 188q0 110 77 187.5t193 77.5q115 0 192 -77.5t77 -187.5q0 -111 -76.5 -188t-192.5 -77z" />
    <glyph glyph-name="p" unicode="p" horiz-adv-x="614" 
d="M338 -15q-46 0 -89 21.5t-70 58.5v-269h-119v704h119v-66q60 78 164 78q107 0 173 -76.5t66 -185.5q0 -112 -68 -188.5t-176 -76.5zM302 404q-75 0 -123 -61v-186q47 -62 123 -62q63 0 108 45.5t45 109.5q0 63 -45 108.5t-108 45.5z" />
    <glyph glyph-name="q" unicode="q" horiz-adv-x="614" 
d="M554 -204h-119v269q-27 -37 -70 -58.5t-89 -21.5q-107 0 -175.5 76.5t-68.5 188.5q0 111 68.5 188t175.5 77q46 0 89 -22t70 -59v66h119v-704zM312 95q76 0 123 62v186q-48 61 -123 61q-63 0 -108 -45.5t-45 -108.5q0 -64 45 -109.5t108 -45.5z" />
    <glyph glyph-name="r" unicode="r" horiz-adv-x="365" 
d="M350 513v-113q-58 0 -102.5 -30.5t-63.5 -88.5v-281h-119v500h119v-95q65 108 166 108z" />
    <glyph glyph-name="s" unicode="s" horiz-adv-x="487" 
d="M340 143q0 23 -21.5 36.5t-53.5 19t-69 15.5t-69 23.5t-53.5 45.5t-21.5 80q0 64 51 108t147 44q112 0 192 -76l-55 -73q-63 57 -137 57q-38 0 -63 -16t-25 -42t30 -40.5t72.5 -23.5t85.5 -21.5t73 -45t30 -83.5q0 -76 -55 -121t-154 -45q-124 0 -216 80l54 76
q79 -65 162 -65q44 0 70 18.5t26 48.5z" />
    <glyph glyph-name="t" unicode="t" horiz-adv-x="410" 
d="M230 401v-225q0 -44 21 -64.5t53 -20.5q44 0 84 17v-94q-48 -21 -120 -21q-157 0 -157 169v239h-99v99h99v117h119v-117h157v-99h-157z" />
    <glyph glyph-name="u" unicode="u" horiz-adv-x="605" 
d="M177 500v-282q0 -54 24.5 -85.5t69.5 -31.5q38 0 83 25.5t69 71.5v302h120v-500h-120v74q-69 -86 -186 -86q-80 0 -130 53t-50 147v312h120z" />
    <glyph glyph-name="v" unicode="v" horiz-adv-x="571" 
d="M219 0q-40 96 -212 500h132l147 -361l147 361h131l-212 -500h-133z" />
    <glyph glyph-name="w" unicode="w" horiz-adv-x="798" 
d="M456 500l107 -329l105 329h123l-165 -500h-119l-108 327l-108 -327h-119l-165 500h123l105 -329l107 329h114z" />
    <glyph glyph-name="x" unicode="x" horiz-adv-x="572" 
d="M408 0l-122 170l-122 -170h-152l193 252l-188 248h151l118 -170l117 170h152l-199 -248l203 -252h-151z" />
    <glyph glyph-name="y" unicode="y" horiz-adv-x="562" 
d="M562 500l-307 -704h-122l86 205l-212 499h132l143 -351l149 351h131z" />
    <glyph glyph-name="z" unicode="z" horiz-adv-x="524" 
d="M212 104h279v-104h-459v80l269 316h-262v104h443v-80z" />
    <glyph glyph-name="braceleft" unicode="{" horiz-adv-x="422" 
d="M405 -100l-14 -79q-77 16 -122 34.5t-68 48.5t-30 63.5t-7 90.5v44q0 148 -80 148h-36v80h36q38 0 59 27.5t21 75.5v131q0 59 16.5 92.5t65.5 59t145 44.5l14 -79q-89 -28 -108 -49.5t-19 -87.5v-115q0 -108 -102 -138q102 -32 102 -139v-115q0 -65 19.5 -87t107.5 -50z
" />
    <glyph glyph-name="bar" unicode="|" horiz-adv-x="306" 
d="M100 -128v886h105v-886h-105z" />
    <glyph glyph-name="braceright" unicode="}" horiz-adv-x="422" 
d="M48 -179l-15 79q48 15 71.5 25t37 26.5t16 33t2.5 52.5v115q0 107 103 139q-103 30 -103 138v115q0 36 -2.5 52.5t-16 33t-37 26.5t-71.5 25l15 79q96 -19 144.5 -44.5t65 -59t16.5 -92.5v-131q0 -47 21.5 -75t58.5 -28h36v-80h-36q-80 0 -80 -126v-87q0 -51 -7 -81
t-30.5 -57t-68.5 -45t-120 -33z" />
    <glyph glyph-name="asciitilde" unicode="~" horiz-adv-x="640" 
d="M59 238v94q54 51 120 51q49 0 141 -38.5t139 -38.5q67 0 121 53v-94q-57 -54 -122 -54q-50 0 -142 39t-138 39q-65 0 -119 -51z" />
    <glyph glyph-name="uni00A0" unicode="&#xa0;" horiz-adv-x="250" 
 />
    <glyph glyph-name="exclamdown" unicode="&#xa1;" horiz-adv-x="300" 
d="M73 536q0 32 22 54t54 22t54.5 -22t22.5 -54t-22.5 -54.5t-54.5 -22.5t-54 22.5t-22 54.5zM67 -98l30 495h106l30 -495h-166z" />
    <glyph glyph-name="cent" unicode="&#xa2;" horiz-adv-x="538" 
d="M175 -6q1 8 24 121q-68 32 -109 97.5t-41 142.5q0 104 71.5 183t177.5 84l16 84h105l-19 -96q62 -17 111 -63l-58 -87q-41 29 -74 40l-58 -297q69 1 132 48l58 -86q-80 -75 -200 -75h-13l-18 -96h-105zM163 355q0 -79 59 -123l53 271q-49 -14 -80.5 -55t-31.5 -93z" />
    <glyph glyph-name="sterling" unicode="&#xa3;" horiz-adv-x="571" 
d="M541 0h-435v335h-76v98h76v57q0 111 57.5 170.5t162.5 59.5q114 0 212 -86l-45 -75q-78 60 -158 60q-51 0 -82 -34.5t-31 -93.5v-58h228v-98h-228v-228h319v-107z" />
    <glyph glyph-name="yen" unicode="&#xa5;" horiz-adv-x="651" 
d="M5 700h151l169 -309l170 309h151l-201 -348h140v-84h-192v-62h192v-84h-192v-122h-136v122h-191v84h191v62h-191v84h139z" />
    <glyph glyph-name="brokenbar" unicode="&#xa6;" horiz-adv-x="306" 
d="M100 -128v358h105v-358h-105zM100 400v358h105v-358h-105z" />
    <glyph glyph-name="section" unicode="&#xa7;" horiz-adv-x="646" 
d="M562 328q0 -39 -23 -74.5t-72 -58.5q37 -34 37 -88q0 -60 -52.5 -107t-152.5 -47q-110 0 -190 60l32 82q72 -50 159 -50q35 0 57 16t22 42q0 23 -23.5 38t-58.5 22t-76.5 18.5t-76.5 26.5t-58.5 46.5t-23.5 77.5q0 91 94 132q-37 34 -37 87q0 61 48.5 108.5t150.5 47.5
q106 0 187 -61l-32 -82q-75 49 -157 49q-31 0 -51 -16t-20 -41q0 -26 32.5 -41.5t79.5 -25.5t93.5 -24t79 -48.5t32.5 -88.5zM436 328q0 10 -5 19t-14.5 15.5t-19.5 11.5t-26 9.5t-26.5 7.5t-28 6.5t-24.5 5.5q-48 -1 -76 -21t-28 -50q0 -17 13.5 -30.5t40.5 -22.5
t43.5 -12.5t47.5 -9.5q103 1 103 71z" />
    <glyph glyph-name="dieresis" unicode="&#xa8;" horiz-adv-x="541" 
d="M311 635q0 28 18 47t46 19t47 -19t19 -47t-19 -46t-47 -18t-46 18t-18 46zM112 635q0 28 18.5 47t46.5 19q27 0 46 -19t19 -47q0 -27 -19 -45.5t-46 -18.5q-28 0 -46.5 18t-18.5 46z" />
    <glyph glyph-name="copyright" unicode="&#xa9;" horiz-adv-x="830" 
d="M303 355q0 -51 34 -88t82 -37q49 0 95 42l52 -52q-36 -34 -69.5 -50t-78.5 -16q-82 0 -138 59t-56 142t56 141.5t138 58.5q46 0 79.5 -15.5t68.5 -49.5l-52 -53q-47 43 -95 43t-82 -37t-34 -88zM414 715q151 0 256 -108t105 -257t-105 -257t-256 -108t-256 108t-105 257
t105 257t256 108zM414 40q129 0 216.5 91t87.5 219t-87.5 218.5t-216.5 90.5q-130 0 -217 -90.5t-87 -218.5t87.5 -219t216.5 -91z" />
    <glyph glyph-name="ordfeminine" unicode="&#xaa;" horiz-adv-x="439" 
d="M172 314q-57 0 -90.5 27.5t-33.5 76.5q0 32 15 55t37.5 35.5t57.5 20.5t67 10t73 2v20q0 64 -74 64q-62 0 -114 -42l-47 54q67 60 168 60q82 0 119.5 -35t37.5 -90v-247h-90v53q-57 -64 -126 -64zM201 382q52 0 97 62v44q-36 -1 -53.5 -2t-45.5 -6.5t-41 -18.5t-13 -35
t16.5 -33t39.5 -11z" />
    <glyph glyph-name="guillemotleft" unicode="&#xab;" horiz-adv-x="548" 
d="M465 17l-201 210v16l201 211l50 -44l-127 -174l127 -175zM243 17l-201 210v16l201 211l50 -44l-127 -174l127 -175z" />
    <glyph glyph-name="logicalnot" unicode="&#xac;" horiz-adv-x="428" 
d="M37 237v97h353v-233h-72v136h-281z" />
    <glyph glyph-name="uni00AD" unicode="&#xad;" horiz-adv-x="398" 
d="M55 236v106h288v-106h-288z" />
    <glyph glyph-name="registered" unicode="&#xae;" horiz-adv-x="830" 
d="M414 715q151 0 256 -108t105 -257t-105 -257t-256 -108t-256 108t-105 257t105 257t256 108zM414 40q129 0 216.5 91t87.5 219t-87.5 218.5t-216.5 90.5q-130 0 -217 -90.5t-87 -218.5t87.5 -219t216.5 -91zM368 293v-130h-80v382h154q59 0 98 -36.5t39 -89.5
q0 -41 -26 -72.5t-67 -43.5l93 -140h-85l-87 130h-39zM436 474h-68v-109h68q29 0 45.5 16t16.5 38t-17 38.5t-45 16.5z" />
    <glyph glyph-name="macron" unicode="&#xaf;" horiz-adv-x="500" 
d="M90 585v83h320v-83h-320z" />
    <glyph glyph-name="degree" unicode="&#xb0;" horiz-adv-x="430" 
d="M215 402q-63 0 -112 47t-49 109t48.5 109t112.5 47q63 0 111.5 -46.5t48.5 -108.5q0 -63 -48 -110t-112 -47zM215 474q35 0 58.5 25t23.5 59q0 33 -23.5 58.5t-58.5 25.5t-59 -25t-24 -58q0 -35 23.5 -60t59.5 -25z" />
    <glyph glyph-name="plusminus" unicode="&#xb1;" horiz-adv-x="640" 
d="M272 123v165h-213v92h213v165h95v-165h214v-92h-214v-165h-95zM568 0h-502v92h502v-92z" />
    <glyph glyph-name="twosuperior" unicode="&#xb2;" horiz-adv-x="409" 
d="M117 604l-42 52q58 63 135 63q59 0 90.5 -32t31.5 -80q0 -68 -99 -167l-36 -36h141v-73h-260v57q118 116 137 139q33 41 33 74q0 20 -12.5 34.5t-34.5 14.5q-42 0 -84 -46z" />
    <glyph glyph-name="threesuperior" unicode="&#xb3;" horiz-adv-x="401" 
d="M195 392q20 0 34 17t14 38q0 18 -11.5 34t-26.5 16q-21 0 -49 -9l-15 53l51 15q15 4 34 21.5t19 36.5q0 17 -11 27.5t-30 10.5q-43 0 -88 -40l-37 51q54 56 127 56q57 0 87 -26.5t30 -67.5q0 -61 -66 -93q76 -24 76 -93q0 -49 -39 -82.5t-102 -33.5q-59 0 -121 50l38 55
q39 -36 86 -36z" />
    <glyph glyph-name="acute" unicode="&#xb4;" horiz-adv-x="500" 
d="M370 748l-153 -168h-87l93 168h147z" />
    <glyph glyph-name="mu" unicode="&#xb5;" horiz-adv-x="601" 
d="M17 215h71v57h-71v92h71v336h228q111 0 182.5 -60t71.5 -157q0 -96 -74 -153.5t-179 -57.5h-93v-57h205v-93h-205v-122h-136v122h-71v93zM319 577h-95v-213h95q54 0 84.5 29.5t30.5 77.5q0 47 -30.5 76.5t-84.5 29.5z" />
    <glyph glyph-name="paragraph" unicode="&#xb6;" horiz-adv-x="645" 
d="M492 603h-68v-764h-93v408h-6q-117 0 -195.5 63t-78.5 163t73 163.5t186 63.5h265v-861h-83v764z" />
    <glyph glyph-name="periodcentered" unicode="&#xb7;" horiz-adv-x="260" 
d="M42 326q0 32 22 54.5t54 22.5t54.5 -22.5t22.5 -54.5t-22.5 -54t-54.5 -22t-54 22t-22 54z" />
    <glyph glyph-name="cedilla" unicode="&#xb8;" horiz-adv-x="500" 
d="M300 9l-47 -66q17 3 30 3q35 0 57 -20t22 -51q0 -38 -33.5 -65t-92.5 -27q-61 0 -110 22l16 45q34 -14 79 -14q24 0 40.5 9.5t16.5 27.5q0 14 -12.5 23t-28.5 9q-19 0 -38 -7l-29 24l57 87h73z" />
    <glyph glyph-name="onesuperior" unicode="&#xb9;" horiz-adv-x="412" 
d="M345 415v-73h-264v73h90v213l-66 -38l-34 57l142 81h43v-313h89z" />
    <glyph glyph-name="ordmasculine" unicode="&#xba;" horiz-adv-x="481" 
d="M239 398q44 0 74 31.5t30 76.5q0 44 -30 75.5t-74 31.5t-74 -31.5t-30 -75.5q0 -45 30 -76.5t74 -31.5zM239 314q-82 0 -136.5 56t-54.5 136t54.5 135.5t136.5 55.5t136.5 -55.5t54.5 -135.5t-54.5 -136t-136.5 -56z" />
    <glyph glyph-name="guillemotright" unicode="&#xbb;" horiz-adv-x="548" 
d="M283 227l-201 -210l-50 44l127 175l-127 174l50 44l201 -211v-16zM505 227l-201 -210l-50 44l127 175l-127 174l50 44l201 -211v-16z" />
    <glyph glyph-name="onequarter" unicode="&#xbc;" horiz-adv-x="895" 
d="M340 405v-73h-264v73h90v213l-65 -38l-34 57l139 81h45v-313h89zM782 0h-83v89h-154l-10 50l179 248h68v-238h61v-60h-61v-89zM699 276l-92 -127h92v127zM274 0h-103l531 700h102z" />
    <glyph glyph-name="onehalf" unicode="&#xbd;" horiz-adv-x="914" 
d="M271 0h-97l533 700h96zM629 273l-41 52q58 63 134 63q59 0 91 -32t32 -80q0 -79 -136 -203h141v-73h-260v57q119 117 136 137q35 42 35 76q0 19 -12.5 34t-34.5 15q-42 0 -85 -46zM340 405v-73h-264v73h90v213l-65 -38l-34 57l139 81h45v-313h89z" />
    <glyph glyph-name="threequarters" unicode="&#xbe;" horiz-adv-x="875" 
d="M246 0h-97l533 702h96zM181 392q20 0 34 17t14 38q0 18 -11.5 34t-26.5 16q-21 0 -49 -9l-15 53l51 15q15 4 34 21.5t19 36.5q0 17 -11 27.5t-30 10.5q-43 0 -88 -40l-37 51q54 56 127 56q57 0 87 -26.5t30 -67.5q0 -61 -66 -93q76 -24 76 -93q0 -49 -39 -82.5
t-102 -33.5q-59 0 -121 50l38 55q39 -36 86 -36zM757 0h-83v89h-154l-10 50l179 248h68v-238h61v-60h-61v-89zM674 276l-92 -127h92v127z" />
    <glyph glyph-name="questiondown" unicode="&#xbf;" horiz-adv-x="527" 
d="M35 70q0 40 20.5 72.5t49.5 56.5t58.5 49t50 63.5t20.5 87.5h106v-52q0 -52 -17.5 -88.5t-42 -56t-49.5 -35.5t-42.5 -37.5t-17.5 -49.5q0 -43 29 -64.5t76 -21.5q94 0 154 82l62 -83q-89 -103 -229 -103q-105 0 -166.5 49.5t-61.5 130.5zM364 538q0 -32 -22 -54.5
t-54 -22.5t-54.5 22.5t-22.5 54.5t22.5 54t54.5 22t54 -22t22 -54z" />
    <glyph glyph-name="Agrave" unicode="&#xc0;" horiz-adv-x="691" 
d="M353 942l91 -162h-87l-143 162h139zM423 700l258 -700h-136l-55 146h-289l-55 -146h-136l258 700h155zM345 541l-107 -285h214z" />
    <glyph glyph-name="Aacute" unicode="&#xc1;" horiz-adv-x="691" 
d="M246 780l91 162h140l-144 -162h-87zM423 700l258 -700h-136l-55 146h-289l-55 -146h-136l258 700h155zM345 541l-107 -285h214z" />
    <glyph glyph-name="Acircumflex" unicode="&#xc2;" horiz-adv-x="691" 
d="M166 780l129 162h101l129 -162h-90l-90 86l-90 -86h-89zM423 700l258 -700h-136l-55 146h-289l-55 -146h-136l258 700h155zM345 541l-107 -285h214z" />
    <glyph glyph-name="Atilde" unicode="&#xc3;" horiz-adv-x="691" 
d="M221 786l-59 5q27 132 114 132q24 0 70 -20.5t68 -20.5q36 0 55 50l59 -4q-27 -133 -114 -133q-24 0 -70 20.5t-68 20.5q-35 0 -55 -50zM423 700l258 -700h-136l-55 146h-289l-55 -146h-136l258 700h155zM345 541l-107 -285h214z" />
    <glyph glyph-name="Adieresis" unicode="&#xc4;" horiz-adv-x="691" 
d="M380 835q0 28 18 47t46 19t47 -19t19 -47t-19 -46t-47 -18t-46 18t-18 46zM181 835q0 28 18.5 47t46.5 19q27 0 46 -19t19 -47q0 -27 -19 -45.5t-46 -18.5q-28 0 -46.5 18t-18.5 46zM423 700l258 -700h-136l-55 146h-289l-55 -146h-136l258 700h155zM345 541l-107 -285
h214z" />
    <glyph glyph-name="Aring" unicode="&#xc5;" horiz-adv-x="691" 
d="M345 767q-46 0 -80 32.5t-34 77.5q0 44 34.5 76.5t79.5 32.5q46 0 80.5 -32.5t34.5 -77.5t-34.5 -77t-80.5 -32zM345 820q23 0 39.5 17t16.5 40t-16.5 39.5t-39.5 16.5t-39.5 -17t-16.5 -40q0 -22 16.5 -39t39.5 -17zM423 700l258 -700h-136l-55 146h-289l-55 -146h-136
l258 700h155zM345 541l-107 -285h214z" />
    <glyph glyph-name="AE" unicode="&#xc6;" horiz-adv-x="1014" 
d="M974 120v-120h-473v150h-261l-94 -150h-141l441 700h523v-120h-332v-164h280v-115h-280v-181h337zM308 260h193v308z" />
    <glyph glyph-name="Ccedilla" unicode="&#xc7;" horiz-adv-x="685" 
d="M411 111q118 0 201 66l60 -107q-103 -84 -261 -84l-31 -43q16 3 30 3q35 0 57 -20t22 -51q0 -36 -34 -64t-92 -28q-65 0 -110 22l16 45q34 -14 79 -14q24 0 40.5 9.5t16.5 27.5q0 16 -12 24t-29 8q-19 0 -38 -7l-29 24l45 68q-140 21 -221 120.5t-81 239.5
q0 157 100.5 261t270.5 104q152 0 261 -85l-60 -108q-85 67 -201 67q-104 0 -168.5 -69t-64.5 -170t64 -170t169 -69z" />
    <glyph glyph-name="Egrave" unicode="&#xc8;" horiz-adv-x="606" 
d="M550 120v-120h-477v700h472v-120h-336v-164h285v-115h-285v-181h341zM321 942l91 -162h-87l-143 162h139z" />
    <glyph glyph-name="Eacute" unicode="&#xc9;" horiz-adv-x="606" 
d="M550 120v-120h-477v700h472v-120h-336v-164h285v-115h-285v-181h341zM182 780l91 162h139l-143 -162h-87z" />
    <glyph glyph-name="Ecircumflex" unicode="&#xca;" horiz-adv-x="606" 
d="M550 120v-120h-477v700h472v-120h-336v-164h285v-115h-285v-181h341zM118 780l129 162h100l129 -162h-89l-91 86l-90 -86h-88z" />
    <glyph glyph-name="Edieresis" unicode="&#xcb;" horiz-adv-x="606" 
d="M550 120v-120h-477v700h472v-120h-336v-164h285v-115h-285v-181h341zM332 835q0 28 18 47t46 19t47 -19t19 -47t-19 -46t-47 -18t-46 18t-18 46zM133 835q0 28 18.5 47t46.5 19q27 0 46 -19t19 -47q0 -27 -19 -45.5t-46 -18.5q-28 0 -46.5 18t-18.5 46z" />
    <glyph glyph-name="Igrave" unicode="&#xcc;" horiz-adv-x="282" 
d="M73 0v700h136v-700h-136zM151 942l91 -162h-87l-144 162h140z" />
    <glyph glyph-name="Iacute" unicode="&#xcd;" horiz-adv-x="282" 
d="M73 0v700h136v-700h-136zM40 780l91 162h139l-143 -162h-87z" />
    <glyph glyph-name="Icircumflex" unicode="&#xce;" horiz-adv-x="282" 
d="M73 0v700h136v-700h-136zM-38 780l129 162h100l129 -162h-89l-91 86l-90 -86h-88z" />
    <glyph glyph-name="Idieresis" unicode="&#xcf;" horiz-adv-x="282" 
d="M73 0v700h136v-700h-136zM173 835q0 28 16 47t40 19t41 -19t17 -47t-17 -46.5t-41 -18.5t-40 18.5t-16 46.5zM-5 835q0 28 16 47t41 19q24 0 40.5 -19t16.5 -47t-16.5 -46.5t-40.5 -18.5q-25 0 -41 18.5t-16 46.5z" />
    <glyph glyph-name="Eth" unicode="&#xd0;" horiz-adv-x="751" 
d="M0 309v94h73v297h264q167 0 263 -98t96 -252t-96 -252t-263 -98h-264v309h-73zM209 134h129q104 0 163 59.5t59 155.5q0 97 -59 157t-163 60h-129v-163h131v-94h-131v-175z" />
    <glyph glyph-name="Ntilde" unicode="&#xd1;" horiz-adv-x="726" 
d="M208 472v-472h-135v700h136l309 -473v473h135v-700h-136zM239 786l-59 5q27 132 114 132q24 0 70 -20.5t68 -20.5q34 0 55 50l59 -4q-27 -133 -114 -133q-24 0 -70 20.5t-68 20.5q-36 0 -55 -50z" />
    <glyph glyph-name="Ograve" unicode="&#xd2;" horiz-adv-x="822" 
d="M411 584q-106 0 -171 -67t-65 -167q0 -101 65 -167.5t171 -66.5q105 0 170 66.5t65 167.5q0 100 -65 167t-170 67zM411 -15q-170 0 -270.5 103.5t-100.5 261.5q0 157 100.5 261t270.5 104t270.5 -104t100.5 -261q0 -158 -100.5 -261.5t-270.5 -103.5zM431 942l91 -162
h-87l-143 162h139z" />
    <glyph glyph-name="Oacute" unicode="&#xd3;" horiz-adv-x="822" 
d="M411 584q-106 0 -171 -67t-65 -167q0 -101 65 -167.5t171 -66.5q105 0 170 66.5t65 167.5q0 100 -65 167t-170 67zM411 -15q-170 0 -270.5 103.5t-100.5 261.5q0 157 100.5 261t270.5 104t270.5 -104t100.5 -261q0 -158 -100.5 -261.5t-270.5 -103.5zM298 780l91 162h140
l-144 -162h-87z" />
    <glyph glyph-name="Ocircumflex" unicode="&#xd4;" horiz-adv-x="822" 
d="M411 584q-106 0 -171 -67t-65 -167q0 -101 65 -167.5t171 -66.5q105 0 170 66.5t65 167.5q0 100 -65 167t-170 67zM411 -15q-170 0 -270.5 103.5t-100.5 261.5q0 157 100.5 261t270.5 104t270.5 -104t100.5 -261q0 -158 -100.5 -261.5t-270.5 -103.5zM231 780l129 162
h101l129 -162h-90l-90 86l-90 -86h-89z" />
    <glyph glyph-name="Otilde" unicode="&#xd5;" horiz-adv-x="822" 
d="M411 584q-106 0 -171 -67t-65 -167q0 -101 65 -167.5t171 -66.5q105 0 170 66.5t65 167.5q0 100 -65 167t-170 67zM411 -15q-170 0 -270.5 103.5t-100.5 261.5q0 157 100.5 261t270.5 104t270.5 -104t100.5 -261q0 -158 -100.5 -261.5t-270.5 -103.5zM287 786l-59 5
q27 132 114 132q24 0 70 -20.5t68 -20.5q34 0 55 50l59 -4q-27 -133 -114 -133q-24 0 -70.5 20.5t-67.5 20.5q-36 0 -55 -50z" />
    <glyph glyph-name="Odieresis" unicode="&#xd6;" horiz-adv-x="822" 
d="M411 584q-106 0 -171 -67t-65 -167q0 -101 65 -167.5t171 -66.5q105 0 170 66.5t65 167.5q0 100 -65 167t-170 67zM411 -15q-170 0 -270.5 103.5t-100.5 261.5q0 157 100.5 261t270.5 104t270.5 -104t100.5 -261q0 -158 -100.5 -261.5t-270.5 -103.5zM445 835q0 28 18 47
t46 19t47 -19t19 -47t-19 -46t-47 -18t-46 18t-18 46zM246 835q0 28 18.5 47t46.5 19q27 0 46 -19t19 -47q0 -27 -19 -45.5t-46 -18.5q-28 0 -46.5 18t-18.5 46z" />
    <glyph glyph-name="multiply" unicode="&#xd7;" horiz-adv-x="640" 
d="M487 54l-167 167l-166 -166l-66 66l166 166l-167 167l65 65l167 -166l166 166l67 -67l-166 -166l166 -167z" />
    <glyph glyph-name="Oslash" unicode="&#xd8;" horiz-adv-x="822" 
d="M171 0h-111l78 91q-98 100 -98 259q0 157 100.5 261t270.5 104q121 0 212 -59l38 44h111l-84 -98q94 -102 94 -252q0 -158 -100.5 -261.5t-270.5 -103.5q-117 0 -206 54zM646 350q0 83 -49 143l-302 -345q53 -31 121 -31q103 0 166.5 67t63.5 166zM411 584
q-107 0 -170.5 -67.5t-63.5 -168.5q0 -86 50 -149l307 350q-54 35 -123 35z" />
    <glyph glyph-name="Ugrave" unicode="&#xd9;" horiz-adv-x="704" 
d="M376 942l91 -162h-87l-144 162h140zM352 110q65 0 107.5 44.5t42.5 106.5v439h136v-433q0 -122 -77 -202t-209 -80t-209 80t-77 202v433h136v-439q0 -62 42.5 -106.5t107.5 -44.5z" />
    <glyph glyph-name="Uacute" unicode="&#xda;" horiz-adv-x="704" 
d="M243 780l91 162h139l-143 -162h-87zM352 110q65 0 107.5 44.5t42.5 106.5v439h136v-433q0 -122 -77 -202t-209 -80t-209 80t-77 202v433h136v-439q0 -62 42.5 -106.5t107.5 -44.5z" />
    <glyph glyph-name="Ucircumflex" unicode="&#xdb;" horiz-adv-x="704" 
d="M176 780l129 162h100l129 -162h-89l-91 86l-90 -86h-88zM352 110q65 0 107.5 44.5t42.5 106.5v439h136v-433q0 -122 -77 -202t-209 -80t-209 80t-77 202v433h136v-439q0 -62 42.5 -106.5t107.5 -44.5z" />
    <glyph glyph-name="Udieresis" unicode="&#xdc;" horiz-adv-x="704" 
d="M389 835q0 28 18.5 47t46.5 19q27 0 46 -19t19 -47q0 -27 -19 -45.5t-46 -18.5q-28 0 -46.5 18t-18.5 46zM191 835q0 28 18 47t46 19t47 -19t19 -47t-19 -46t-47 -18t-46 18t-18 46zM352 110q65 0 107.5 44.5t42.5 106.5v439h136v-433q0 -122 -77 -202t-209 -80t-209 80
t-77 202v433h136v-439q0 -62 42.5 -106.5t107.5 -44.5z" />
    <glyph glyph-name="Yacute" unicode="&#xdd;" horiz-adv-x="686" 
d="M5 700h151l187 -324l187 324h151l-270 -453v-247h-136v246zM230 780l91 162h140l-144 -162h-87z" />
    <glyph glyph-name="Thorn" unicode="&#xde;" horiz-adv-x="591" 
d="M73 0v700h136v-104h82q122 0 198.5 -67t76.5 -175q0 -106 -76 -173t-199 -67h-82v-114h-136zM429 355q0 59 -45.5 89t-124.5 30h-50v-238h50q79 0 124.5 29.5t45.5 89.5z" />
    <glyph glyph-name="germandbls" unicode="&#xdf;" horiz-adv-x="629" 
d="M543 530q0 -114 -106 -167q78 -20 117.5 -66t39.5 -105q0 -34 -9 -62t-31 -52.5t-57 -41.5t-90 -26.5t-127 -9.5v95q77 0 129 27.5t52 76.5q0 42 -43.5 70t-137.5 29v93q67 9 100.5 48.5t33.5 89.5q0 37 -28 66.5t-77 29.5q-59 0 -94.5 -40.5t-35.5 -108.5v-476h-119v475
q0 110 68.5 177t185.5 67q110 0 169.5 -55.5t59.5 -133.5z" />
    <glyph glyph-name="agrave" unicode="&#xe0;" horiz-adv-x="558" 
d="M203 -15q-80 0 -125.5 37t-45.5 105q0 36 12.5 64t39 45.5t55.5 29.5t73 17.5t81.5 8t89.5 3.5v33q0 94 -107 94q-89 0 -160 -58l-61 70q92 81 228 81q115 0 167.5 -47.5t52.5 -124.5v-343h-120v81q-78 -96 -180 -96zM243 72q80 0 140 90v67q-93 -2 -133 -10
q-33 -6 -60.5 -26t-27.5 -55q0 -33 23.5 -49.5t57.5 -16.5zM316 580l-153 168h147l93 -168h-87z" />
    <glyph glyph-name="aacute" unicode="&#xe1;" horiz-adv-x="558" 
d="M203 -15q-80 0 -125.5 37t-45.5 105q0 36 12.5 64t39 45.5t55.5 29.5t73 17.5t81.5 8t89.5 3.5v33q0 94 -107 94q-89 0 -160 -58l-61 70q92 81 228 81q115 0 167.5 -47.5t52.5 -124.5v-343h-120v81q-78 -96 -180 -96zM243 72q80 0 140 90v67q-93 -2 -133 -10
q-33 -6 -60.5 -26t-27.5 -55q0 -33 23.5 -49.5t57.5 -16.5zM406 748l-152 -168h-87l93 168h146z" />
    <glyph glyph-name="acircumflex" unicode="&#xe2;" horiz-adv-x="558" 
d="M203 -15q-80 0 -125.5 37t-45.5 105q0 36 12.5 64t39 45.5t55.5 29.5t73 17.5t81.5 8t89.5 3.5v33q0 94 -107 94q-89 0 -160 -58l-61 70q92 81 228 81q115 0 167.5 -47.5t52.5 -124.5v-343h-120v81q-78 -96 -180 -96zM243 72q80 0 140 90v67q-93 -2 -133 -10
q-33 -6 -60.5 -26t-27.5 -55q0 -33 23.5 -49.5t57.5 -16.5zM104 580l129 162h100l129 -162h-89l-91 86l-90 -86h-88z" />
    <glyph glyph-name="atilde" unicode="&#xe3;" horiz-adv-x="558" 
d="M203 -15q-80 0 -125.5 37t-45.5 105q0 36 12.5 64t39 45.5t55.5 29.5t73 17.5t81.5 8t89.5 3.5v33q0 94 -107 94q-89 0 -160 -58l-61 70q92 81 228 81q115 0 167.5 -47.5t52.5 -124.5v-343h-120v81q-78 -96 -180 -96zM243 72q80 0 140 90v67q-93 -2 -133 -10
q-33 -6 -60.5 -26t-27.5 -55q0 -33 23.5 -49.5t57.5 -16.5zM170 586l-59 5q27 132 114 132q25 0 71 -20.5t67 -20.5q36 0 55 50l59 -4q-27 -133 -114 -133q-25 0 -71 20.5t-67 20.5q-35 0 -55 -50z" />
    <glyph glyph-name="adieresis" unicode="&#xe4;" horiz-adv-x="558" 
d="M203 -15q-80 0 -125.5 37t-45.5 105q0 36 12.5 64t39 45.5t55.5 29.5t73 17.5t81.5 8t89.5 3.5v33q0 94 -107 94q-89 0 -160 -58l-61 70q92 81 228 81q115 0 167.5 -47.5t52.5 -124.5v-343h-120v81q-78 -96 -180 -96zM243 72q80 0 140 90v67q-93 -2 -133 -10
q-33 -6 -60.5 -26t-27.5 -55q0 -33 23.5 -49.5t57.5 -16.5zM313 635q0 28 18 47t46 19t47 -19t19 -47t-19 -46t-47 -18t-46 18t-18 46zM114 635q0 28 18.5 47t46.5 19q27 0 46 -19t19 -47q0 -27 -19 -45.5t-46 -18.5q-28 0 -46.5 18t-18.5 46z" />
    <glyph glyph-name="aring" unicode="&#xe5;" horiz-adv-x="558" 
d="M203 -15q-80 0 -125.5 37t-45.5 105q0 36 12.5 64t39 45.5t55.5 29.5t73 17.5t81.5 8t89.5 3.5v33q0 94 -107 94q-89 0 -160 -58l-61 70q92 81 228 81q115 0 167.5 -47.5t52.5 -124.5v-343h-120v81q-78 -96 -180 -96zM243 72q80 0 140 90v67q-93 -2 -133 -10
q-33 -6 -60.5 -26t-27.5 -55q0 -33 23.5 -49.5t57.5 -16.5zM283 578q-45 0 -79.5 32t-34.5 77q0 44 34.5 76.5t79.5 32.5q46 0 80.5 -32.5t34.5 -76.5q0 -45 -34.5 -77t-80.5 -32zM283 631q23 0 39.5 16.5t16.5 39.5t-16.5 39.5t-39.5 16.5t-39.5 -16.5t-16.5 -39.5
t16.5 -39.5t39.5 -16.5z" />
    <glyph glyph-name="ae" unicode="&#xe6;" horiz-adv-x="934" 
d="M203 -15q-80 0 -125.5 37t-45.5 105q0 55 27 91.5t79.5 54t108.5 23.5t136 6v29q0 91 -107 91q-89 0 -160 -58l-61 70q92 81 228 81q128 0 186 -81q75 81 178 81q119 0 188 -71t69 -184q0 -18 -3 -35h-393q21 -70 57 -106t106 -36q87 0 151 49l46 -74q-81 -73 -212 -73
t-218 106q-103 -106 -235 -106zM243 72q80 0 140 90v74q-76 0 -133 -10q-31 -6 -59.5 -29t-28.5 -59q0 -33 23.5 -49.5t57.5 -16.5zM790 303q-9 51 -46.5 82.5t-96.5 31.5q-51 0 -89 -31t-51 -83h283z" />
    <glyph glyph-name="ccedilla" unicode="&#xe7;" horiz-adv-x="530" 
d="M144 248q0 -64 48 -107t115 -43q73 0 137 48l58 -86q-60 -60 -158 -71l-26 -3l-30 -43q15 3 30 3q35 0 57 -20t22 -51q0 -38 -33.5 -65t-93.5 -27t-110 22l17 45q34 -14 79 -14q24 0 40.5 9.5t16.5 27.5q0 15 -12.5 23.5t-29.5 8.5q-19 0 -37 -7l-29 24q7 11 22 33.5
t22 34.5q-95 18 -157.5 89.5t-62.5 168.5q0 111 80 187.5t193 76.5q120 0 200 -75l-58 -87q-65 49 -137 49q-66 0 -114.5 -43.5t-48.5 -107.5z" />
    <glyph glyph-name="egrave" unicode="&#xe8;" horiz-adv-x="582" 
d="M313 742l91 -162h-87l-144 162h140zM549 260q0 -18 -3 -35h-392q0 -63 43 -102.5t120 -39.5q87 0 151 49l46 -74q-81 -73 -212 -73q-113 0 -191.5 74t-78.5 184q0 113 76 192.5t185 79.5q119 0 187.5 -71t68.5 -184zM436 303q-10 51 -47 82.5t-96 31.5q-52 0 -89.5 -30.5
t-50.5 -83.5h283z" />
    <glyph glyph-name="eacute" unicode="&#xe9;" horiz-adv-x="582" 
d="M180 580l91 162h139l-143 -162h-87zM549 260q0 -18 -3 -35h-392q0 -63 43 -102.5t120 -39.5q87 0 151 49l46 -74q-81 -73 -212 -73q-113 0 -191.5 74t-78.5 184q0 113 76 192.5t185 79.5q119 0 187.5 -71t68.5 -184zM436 303q-10 51 -47 82.5t-96 31.5q-52 0 -89.5 -30.5
t-50.5 -83.5h283z" />
    <glyph glyph-name="ecircumflex" unicode="&#xea;" horiz-adv-x="582" 
d="M113 580l129 162h100l129 -162h-89l-91 86l-90 -86h-88zM549 260q0 -18 -3 -35h-392q0 -63 43 -102.5t120 -39.5q87 0 151 49l46 -74q-81 -73 -212 -73q-113 0 -191.5 74t-78.5 184q0 113 76 192.5t185 79.5q119 0 187.5 -71t68.5 -184zM436 303q-10 51 -47 82.5
t-96 31.5q-52 0 -89.5 -30.5t-50.5 -83.5h283z" />
    <glyph glyph-name="edieresis" unicode="&#xeb;" horiz-adv-x="582" 
d="M327 635q0 28 18 47t46 19t47 -19t19 -47t-19 -46t-47 -18t-46 18t-18 46zM128 635q0 28 18.5 47t46.5 19q27 0 46 -19t19 -47q0 -27 -19 -45.5t-46 -18.5q-28 0 -46.5 18t-18.5 46zM549 260q0 -18 -3 -35h-392q0 -63 43 -102.5t120 -39.5q87 0 151 49l46 -74
q-81 -73 -212 -73q-113 0 -191.5 74t-78.5 184q0 113 76 192.5t185 79.5q119 0 187.5 -71t68.5 -184zM436 303q-10 51 -47 82.5t-96 31.5q-52 0 -89.5 -30.5t-50.5 -83.5h283z" />
    <glyph glyph-name="igrave" unicode="&#xec;" horiz-adv-x="249" 
d="M73 0v500h119v-500h-119zM144 742l91 -162h-87l-144 162h140z" />
    <glyph glyph-name="iacute" unicode="&#xed;" horiz-adv-x="249" 
d="M73 0v500h119v-500h-119zM31 580l91 162h139l-143 -162h-87z" />
    <glyph glyph-name="icircumflex" unicode="&#xee;" horiz-adv-x="249" 
d="M73 0v500h119v-500h-119zM-46 580l129 162h100l129 -162h-89l-91 86l-90 -86h-88z" />
    <glyph glyph-name="idieresis" unicode="&#xef;" horiz-adv-x="249" 
d="M73 0v500h119v-500h-119zM163 635q0 28 15.5 47t38.5 19t39 -19t16 -47t-16 -46.5t-39 -18.5t-38.5 18.5t-15.5 46.5zM-6 635q0 28 15 47t38 19t39 -19t16 -47t-16 -46.5t-39 -18.5t-38 18.5t-15 46.5z" />
    <glyph glyph-name="eth" unicode="&#xf0;" horiz-adv-x="604" 
d="M201 721q40 -20 58 -30l52 60l62 -32l-55 -63q238 -152 238 -376q0 -129 -69 -211t-195 -82q-112 0 -184.5 73.5t-72.5 183.5q0 101 69 166t178 65q90 0 157 -55q-35 75 -180 168l-66 -77l-63 32l70 81l-47 26zM296 91q60 0 100.5 43t40.5 102q0 58 -42.5 99.5
t-103.5 41.5q-60 0 -98.5 -41t-38.5 -101q0 -57 41.5 -100.5t100.5 -43.5z" />
    <glyph glyph-name="ntilde" unicode="&#xf1;" horiz-adv-x="600" 
d="M426 0v282q0 54 -25 85.5t-70 31.5q-38 0 -83 -26t-69 -72v-301h-119v500h119v-75q68 88 187 88q79 0 129 -53.5t50 -147.5v-312h-119zM173 586l-59 5q27 132 114 132q24 0 70 -20.5t68 -20.5q36 0 55 50l59 -4q-27 -133 -114 -133q-24 0 -70 20.5t-68 20.5
q-35 0 -55 -50z" />
    <glyph glyph-name="ograve" unicode="&#xf2;" horiz-adv-x="604" 
d="M302 94q65 0 110 45.5t45 110.5q0 64 -45 110t-110 46t-110 -46t-45 -110q0 -66 44.5 -111t110.5 -45zM302 -15q-116 0 -193 77t-77 188q0 110 77 187.5t193 77.5q115 0 192 -77.5t77 -187.5q0 -111 -76.5 -188t-192.5 -77zM322 742l91 -162h-87l-143 162h139z" />
    <glyph glyph-name="oacute" unicode="&#xf3;" horiz-adv-x="604" 
d="M302 94q65 0 110 45.5t45 110.5q0 64 -45 110t-110 46t-110 -46t-45 -110q0 -66 44.5 -111t110.5 -45zM302 -15q-116 0 -193 77t-77 188q0 110 77 187.5t193 77.5q115 0 192 -77.5t77 -187.5q0 -111 -76.5 -188t-192.5 -77zM189 580l91 162h140l-144 -162h-87z" />
    <glyph glyph-name="ocircumflex" unicode="&#xf4;" horiz-adv-x="604" 
d="M302 94q65 0 110 45.5t45 110.5q0 64 -45 110t-110 46t-110 -46t-45 -110q0 -66 44.5 -111t110.5 -45zM302 -15q-116 0 -193 77t-77 188q0 110 77 187.5t193 77.5q115 0 192 -77.5t77 -187.5q0 -111 -76.5 -188t-192.5 -77zM122 580l129 162h101l129 -162h-90l-90 86
l-90 -86h-89z" />
    <glyph glyph-name="otilde" unicode="&#xf5;" horiz-adv-x="604" 
d="M302 94q65 0 110 45.5t45 110.5q0 64 -45 110t-110 46t-110 -46t-45 -110q0 -66 44.5 -111t110.5 -45zM302 -15q-116 0 -193 77t-77 188q0 110 77 187.5t193 77.5q115 0 192 -77.5t77 -187.5q0 -111 -76.5 -188t-192.5 -77zM178 586l-59 5q27 132 114 132q25 0 71 -20.5
t67 -20.5q34 0 55 50l59 -4q-27 -133 -114 -133q-25 0 -71 20.5t-67 20.5q-36 0 -55 -50z" />
    <glyph glyph-name="odieresis" unicode="&#xf6;" horiz-adv-x="604" 
d="M302 94q65 0 110 45.5t45 110.5q0 64 -45 110t-110 46t-110 -46t-45 -110q0 -66 44.5 -111t110.5 -45zM302 -15q-116 0 -193 77t-77 188q0 110 77 187.5t193 77.5q115 0 192 -77.5t77 -187.5q0 -111 -76.5 -188t-192.5 -77zM336 635q0 28 18.5 47t46.5 19q27 0 46 -19
t19 -47q0 -27 -19 -45.5t-46 -18.5q-28 0 -46.5 18t-18.5 46zM138 635q0 28 18 47t46 19t47 -19t19 -47t-19 -46t-47 -18t-46 18t-18 46z" />
    <glyph glyph-name="divide" unicode="&#xf7;" horiz-adv-x="640" 
d="M254 124q0 28 18.5 47t46.5 19q27 0 46 -19t19 -47q0 -27 -19 -46t-46 -19q-28 0 -46.5 19t-18.5 46zM254 448q0 28 18.5 47t46.5 19q27 0 46 -19t19 -47q0 -27 -19 -46t-46 -19q-28 0 -46.5 19t-18.5 46zM581 240h-522v93h522v-93z" />
    <glyph glyph-name="oslash" unicode="&#xf8;" horiz-adv-x="604" 
d="M122 0h-79l59 69q-70 75 -70 181q0 110 77 187.5t193 77.5q81 0 147 -42l23 27h79l-55 -64q75 -77 75 -186q0 -111 -76.5 -188t-192.5 -77q-86 0 -154 45zM302 94q67 0 110 46t43 113q0 53 -34 93l-199 -228q35 -24 80 -24zM147 250q0 -54 30 -93l198 227q-34 20 -74 20
q-65 0 -109.5 -45t-44.5 -109z" />
    <glyph glyph-name="ugrave" unicode="&#xf9;" horiz-adv-x="605" 
d="M177 500v-282q0 -54 24.5 -85.5t69.5 -31.5q38 0 83 25.5t69 71.5v302h120v-500h-120v74q-69 -86 -186 -86q-80 0 -130 53t-50 147v312h120zM326 742l91 -162h-87l-143 162h139z" />
    <glyph glyph-name="uacute" unicode="&#xfa;" horiz-adv-x="605" 
d="M177 500v-282q0 -54 24.5 -85.5t69.5 -31.5q38 0 83 25.5t69 71.5v302h120v-500h-120v74q-69 -86 -186 -86q-80 0 -130 53t-50 147v312h120zM187 580l91 162h139l-143 -162h-87z" />
    <glyph glyph-name="ucircumflex" unicode="&#xfb;" horiz-adv-x="605" 
d="M177 500v-282q0 -54 24.5 -85.5t69.5 -31.5q38 0 83 25.5t69 71.5v302h120v-500h-120v74q-69 -86 -186 -86q-80 0 -130 53t-50 147v312h120zM123 580l129 162h100l129 -162h-89l-91 86l-90 -86h-88z" />
    <glyph glyph-name="udieresis" unicode="&#xfc;" horiz-adv-x="605" 
d="M177 500v-282q0 -54 24.5 -85.5t69.5 -31.5q38 0 83 25.5t69 71.5v302h120v-500h-120v74q-69 -86 -186 -86q-80 0 -130 53t-50 147v312h120zM336 635q0 28 18.5 47t46.5 19q27 0 46 -19t19 -47q0 -27 -19 -45.5t-46 -18.5q-28 0 -46.5 18t-18.5 46zM138 635q0 28 18 47
t46 19t47 -19t19 -47t-19 -46t-47 -18t-46 18t-18 46z" />
    <glyph glyph-name="yacute" unicode="&#xfd;" horiz-adv-x="562" 
d="M562 500l-307 -704h-122l86 205l-212 499h132l143 -351l149 351h131zM169 580l91 162h139l-144 -162h-86z" />
    <glyph glyph-name="thorn" unicode="&#xfe;" horiz-adv-x="624" 
d="M348 -15q-46 0 -89 21.5t-70 58.5v-269h-119v914h119v-276q27 37 70 59t89 22q107 0 175.5 -77t68.5 -188q0 -112 -68 -188.5t-176 -76.5zM312 404q-75 0 -123 -61v-186q47 -62 123 -62q63 0 108 45.5t45 109.5q0 63 -45 108.5t-108 45.5z" />
    <glyph glyph-name="ydieresis" unicode="&#xff;" horiz-adv-x="562" 
d="M562 500l-307 -704h-122l86 205l-212 499h132l143 -351l149 351h131zM315 635q0 28 18 47t46 19t47 -19t19 -47t-19 -46t-47 -18t-46 18t-18 46zM116 635q0 28 18.5 47t46.5 19q27 0 46 -19t19 -47q0 -27 -19 -45.5t-46 -18.5q-28 0 -46.5 18t-18.5 46z" />
    <glyph glyph-name="Amacron" unicode="&#x100;" horiz-adv-x="691" 
d="M185 785v83h320v-83h-320zM423 700l258 -700h-136l-55 146h-289l-55 -146h-136l258 700h155zM345 541l-107 -285h214z" />
    <glyph glyph-name="amacron" unicode="&#x101;" horiz-adv-x="558" 
d="M203 -15q-80 0 -125.5 37t-45.5 105q0 36 12.5 64t39 45.5t55.5 29.5t73 17.5t81.5 8t89.5 3.5v33q0 94 -107 94q-89 0 -160 -58l-61 70q92 81 228 81q115 0 167.5 -47.5t52.5 -124.5v-343h-120v81q-78 -96 -180 -96zM243 72q80 0 140 90v67q-93 -2 -133 -10
q-33 -6 -60.5 -26t-27.5 -55q0 -33 23.5 -49.5t57.5 -16.5zM123 585v83h320v-83h-320z" />
    <glyph glyph-name="Aogonek" unicode="&#x104;" horiz-adv-x="691" 
d="M685 -183q-30 0 -59 4.5t-58.5 15t-48 31t-18.5 49.5q0 56 60 83h-20l-51 146h-289l-55 -146h-136l258 700h155l258 -700q-49 -17 -64 -34t-15 -40q0 -10 4.5 -21t25 -24t53.5 -14v-50zM345 541l-107 -285h214z" />
    <glyph glyph-name="aogonek" unicode="&#x105;" horiz-adv-x="558" 
d="M506 -183q-29 0 -58 4.5t-58.5 15t-48 31t-18.5 49.5q0 56 60 83v81q-78 -96 -180 -96q-80 0 -125.5 37t-45.5 105q0 36 12.5 64t39 45.5t55.5 29.5t73 17.5t81.5 8t89.5 3.5v33q0 54 -28.5 74t-78.5 20q-89 0 -160 -58l-61 70q92 81 228 81q113 0 166.5 -48t53.5 -124
v-343q-44 -11 -64 -31t-20 -44t23 -40.5t64 -17.5v-50zM243 72q80 0 140 90v67q-93 -2 -133 -10q-33 -6 -60.5 -26t-27.5 -55q0 -33 23.5 -49.5t57.5 -16.5z" />
    <glyph glyph-name="Cacute" unicode="&#x106;" horiz-adv-x="685" 
d="M411 111q118 0 201 66l60 -107q-107 -85 -261 -85q-170 0 -270.5 103.5t-100.5 261.5q0 157 100.5 261t270.5 104q152 0 261 -85l-60 -108q-85 67 -201 67q-105 0 -169 -69t-64 -170q0 -99 64.5 -169t168.5 -70zM469 948l-152 -168h-87l93 168h146z" />
    <glyph glyph-name="cacute" unicode="&#x107;" horiz-adv-x="520" 
d="M147 250q0 -66 43.5 -109t108.5 -43q74 0 138 48l57 -86q-78 -75 -200 -75q-110 0 -186 79t-76 186t76 186t186 79q122 0 200 -75l-57 -87q-65 49 -138 49q-63 0 -107.5 -44.5t-44.5 -107.5zM387 748l-152 -168h-87l93 168h146z" />
    <glyph glyph-name="Ccaron" unicode="&#x10c;" horiz-adv-x="685" 
d="M411 111q118 0 201 66l60 -107q-107 -85 -261 -85q-170 0 -270.5 103.5t-100.5 261.5q0 157 100.5 261t270.5 104q152 0 261 -85l-60 -108q-85 67 -201 67q-105 0 -169 -69t-64 -170q0 -99 64.5 -169t168.5 -70zM292 780l-129 162h89l90 -86l91 86h88l-129 -162h-100z
" />
    <glyph glyph-name="ccaron" unicode="&#x10d;" horiz-adv-x="520" 
d="M147 250q0 -66 43.5 -109t108.5 -43q74 0 138 48l57 -86q-78 -75 -200 -75q-110 0 -186 79t-76 186t76 186t186 79q122 0 200 -75l-57 -87q-65 49 -138 49q-63 0 -107.5 -44.5t-44.5 -107.5zM210 580l-129 162h89l90 -86l91 86h88l-129 -162h-100z" />
    <glyph glyph-name="Dcaron" unicode="&#x10e;" horiz-adv-x="751" 
d="M209 134h129q104 0 163 59.5t59 155.5q0 97 -59 157t-163 60h-129v-432zM337 0h-264v700h264q167 0 263 -98t96 -252t-96 -252t-263 -98zM325 780l-129 162h89l90 -86l91 86h88l-129 -162h-100z" />
    <glyph glyph-name="dcaron" unicode="&#x10f;" horiz-adv-x="900" 
d="M554 0h-119v65q-27 -37 -70 -58.5t-89 -21.5q-108 0 -176 76.5t-68 188.5q0 111 68.5 188t175.5 77q46 0 89 -22t70 -59v276h119v-710zM312 95q76 0 123 62v185q-47 62 -123 62q-63 0 -108 -45.5t-45 -108.5q0 -64 45 -109.5t108 -45.5zM681 470l34 240h126l-88 -240h-72
z" />
    <glyph glyph-name="Emacron" unicode="&#x112;" horiz-adv-x="606" 
d="M550 120v-120h-477v700h472v-120h-336v-164h285v-115h-285v-181h341zM137 785v83h320v-83h-320z" />
    <glyph glyph-name="emacron" unicode="&#x113;" horiz-adv-x="582" 
d="M131 585v83h320v-83h-320zM549 260q0 -18 -3 -35h-392q0 -63 43 -102.5t120 -39.5q87 0 151 49l46 -74q-81 -73 -212 -73q-113 0 -191.5 74t-78.5 184q0 113 76 192.5t185 79.5q119 0 187.5 -71t68.5 -184zM436 303q-10 51 -47 82.5t-96 31.5q-52 0 -89.5 -30.5
t-50.5 -83.5h283z" />
    <glyph glyph-name="Edotaccent" unicode="&#x116;" horiz-adv-x="606" 
d="M550 120v-120h-477v700h472v-120h-336v-164h285v-115h-285v-181h341zM233 836q0 28 18.5 47t46.5 19q27 0 46 -19t19 -47q0 -27 -19 -45.5t-46 -18.5q-28 0 -46.5 18t-18.5 46z" />
    <glyph glyph-name="edotaccent" unicode="&#x117;" horiz-adv-x="582" 
d="M225 634q0 28 18.5 47t46.5 19q27 0 46 -19t19 -47q0 -27 -19 -45.5t-46 -18.5q-28 0 -46.5 18t-18.5 46zM549 260q0 -18 -3 -35h-392q0 -63 43 -102.5t120 -39.5q87 0 151 49l46 -74q-81 -73 -212 -73q-113 0 -191.5 74t-78.5 184q0 113 76 192.5t185 79.5
q119 0 187.5 -71t68.5 -184zM436 303q-10 51 -47 82.5t-96 31.5q-52 0 -89.5 -30.5t-50.5 -83.5h283z" />
    <glyph glyph-name="Eogonek" unicode="&#x118;" horiz-adv-x="606" 
d="M554 -183q-30 0 -59 4.5t-58.5 15t-48 31t-18.5 49.5q0 56 60 83h-357v700h472v-120h-336v-164h285v-115h-285v-181h341v-107q-13 -6 -31 -13q-54 -30 -54 -71q0 -25 22 -43t67 -19v-50z" />
    <glyph glyph-name="eogonek" unicode="&#x119;" horiz-adv-x="582" 
d="M422 -187q-30 0 -59 4.5t-58.5 15t-48 31t-18.5 49.5q0 47 43 75q-106 11 -177.5 81t-71.5 174q0 113 76 192.5t185 79.5q119 0 187.5 -71t68.5 -184q0 -18 -3 -35h-392q0 -73 43.5 -107.5t119.5 -34.5q87 0 151 49l46 -74q-42 -38 -104 -57q-47 -20 -61 -37t-14 -41
q0 -26 21.5 -42.5t65.5 -17.5v-50zM436 303q-10 51 -47 82.5t-96 31.5q-52 0 -89.5 -30.5t-50.5 -83.5h283z" />
    <glyph glyph-name="Ecaron" unicode="&#x11a;" horiz-adv-x="606" 
d="M550 120v-120h-477v700h472v-120h-336v-164h285v-115h-285v-181h341zM247 780l-129 162h89l90 -86l91 86h88l-129 -162h-100z" />
    <glyph glyph-name="ecaron" unicode="&#x11b;" horiz-adv-x="582" 
d="M240 580l-129 162h90l90 -86l90 86h89l-129 -162h-101zM549 260q0 -18 -3 -35h-392q0 -63 43 -102.5t120 -39.5q87 0 151 49l46 -74q-81 -73 -212 -73q-113 0 -191.5 74t-78.5 184q0 113 76 192.5t185 79.5q119 0 187.5 -71t68.5 -184zM436 303q-10 51 -47 82.5t-96 31.5
q-52 0 -89.5 -30.5t-50.5 -83.5h283z" />
    <glyph glyph-name="uni0122" unicode="&#x122;" horiz-adv-x="722" 
d="M343 277v98h339v-300q-117 -90 -271 -90q-170 0 -270.5 103.5t-100.5 261.5q0 157 100.5 261t270.5 104q131 0 234 -64l-56 -110q-75 46 -172 46q-108 0 -173.5 -67t-65.5 -170q0 -99 64.5 -169t168.5 -70q77 0 137 41v125h-205zM319 -306q11 77 31 229h121l-83 -229h-69
z" />
    <glyph glyph-name="uni0123" unicode="&#x123;" horiz-adv-x="614" 
d="M554 500v-485q0 -62 -21.5 -108.5t-59 -72t-81 -38t-92.5 -12.5q-123 0 -230 71l44 77q88 -54 183 -54q59 0 98.5 34.5t39.5 102.5v50q-27 -37 -70 -58.5t-89 -21.5q-108 0 -176 76.5t-68 188.5q0 111 68.5 188t175.5 77q46 0 89 -22t70 -59v66h119zM312 95q76 0 123 62
v185q-47 62 -123 62q-63 0 -108 -45.5t-45 -108.5q0 -64 45 -109.5t108 -45.5zM387 830l-31 -229h-121l83 229h69z" />
    <glyph glyph-name="Imacron" unicode="&#x12a;" horiz-adv-x="282" 
d="M73 0v700h136v-700h-136zM0 785v83h282v-83h-282z" />
    <glyph glyph-name="imacron" unicode="&#x12b;" horiz-adv-x="249" 
d="M73 0v500h119v-500h-119zM0 585v83h265v-83h-265z" />
    <glyph glyph-name="Iogonek" unicode="&#x12e;" horiz-adv-x="282" 
d="M212 -183q-29 0 -58 4.5t-58.5 15t-48 31t-18.5 49.5q0 56 59 83h-15v700h136v-700q-86 -20 -86 -71q0 -25 22 -43t67 -19v-50z" />
    <glyph glyph-name="iogonek" unicode="&#x12f;" horiz-adv-x="249" 
d="M201 -183q-29 0 -58 4.5t-58.5 15t-48 31t-18.5 49.5q0 55 61 83h-14v500h119v-500q-72 -28 -72 -71q0 -25 22 -43t67 -19v-50zM57 630q0 28 19.5 48t47.5 20t48 -20t20 -48t-20 -47.5t-48 -19.5t-47.5 19.5t-19.5 47.5z" />
    <glyph glyph-name="dotlessi" unicode="&#x131;" horiz-adv-x="265" 
d="M73 0v500h119v-500h-119z" />
    <glyph glyph-name="uni0136" unicode="&#x136;" horiz-adv-x="686" 
d="M502 0l-285 359l272 341h159l-277 -341l303 -359h-172zM73 0v700h136v-700h-136zM249 -306l31 229h121l-83 -229h-69z" />
    <glyph glyph-name="uni0137" unicode="&#x137;" horiz-adv-x="557" 
d="M65 710h119v-710h-119v710zM412 0l-210 264l200 236h131l-204 -236l214 -264h-131zM169 -306q11 77 31 229h121l-83 -229h-69z" />
    <glyph glyph-name="Lacute" unicode="&#x139;" horiz-adv-x="563" 
d="M73 0v700h136v-577h332v-123h-468zM354 948l-153 -168h-87l93 168h147z" />
    <glyph glyph-name="lacute" unicode="&#x13a;" horiz-adv-x="249" 
d="M65 710h119v-710h-119v710zM277 948l-152 -168h-87l93 168h146z" />
    <glyph glyph-name="uni013B" unicode="&#x13b;" horiz-adv-x="563" 
d="M73 0v700h136v-577h332v-123h-468zM195 -306l31 229h121l-83 -229h-69z" />
    <glyph glyph-name="uni013C" unicode="&#x13c;" horiz-adv-x="249" 
d="M65 710h119v-710h-119v710zM40 -306l31 229h121l-83 -229h-69z" />
    <glyph glyph-name="Lcaron" unicode="&#x13d;" horiz-adv-x="563" 
d="M73 0v700h136v-577h332v-123h-468zM301 465l34 240h126l-88 -240h-72z" />
    <glyph glyph-name="lcaron" unicode="&#x13e;" horiz-adv-x="406" 
d="M65 710h119v-710h-119v710zM246 470l34 240h126l-88 -240h-72z" />
    <glyph glyph-name="Lslash" unicode="&#x141;" horiz-adv-x="563" 
d="M10 188v94l63 53v365h136v-261l135 115v-95l-135 -114v-222h332v-123h-468v240z" />
    <glyph glyph-name="lslash" unicode="&#x142;" horiz-adv-x="249" 
d="M0 216v92l65 59v343h119v-239l82 72v-92l-82 -72v-379h-119v275z" />
    <glyph glyph-name="Nacute" unicode="&#x143;" horiz-adv-x="726" 
d="M208 472v-472h-135v700h136l309 -473v473h135v-700h-136zM505 948l-152 -168h-87l93 168h146z" />
    <glyph glyph-name="nacute" unicode="&#x144;" horiz-adv-x="600" 
d="M426 0v282q0 54 -25 85.5t-70 31.5q-38 0 -83 -26t-69 -72v-301h-119v500h119v-75q68 88 187 88q79 0 129 -53.5t50 -147.5v-312h-119zM435 748l-153 -168h-87l93 168h147z" />
    <glyph glyph-name="uni0145" unicode="&#x145;" horiz-adv-x="726" 
d="M208 472v-472h-135v700h136l309 -473v473h135v-700h-136zM281 -306q11 77 31 229h121l-83 -229h-69z" />
    <glyph glyph-name="uni0146" unicode="&#x146;" horiz-adv-x="600" 
d="M426 0v282q0 54 -25 85.5t-70 31.5q-38 0 -83 -26t-69 -72v-301h-119v500h119v-75q68 88 187 88q79 0 129 -53.5t50 -147.5v-312h-119zM224 -306l31 229h121l-83 -229h-69z" />
    <glyph glyph-name="Ncaron" unicode="&#x147;" horiz-adv-x="726" 
d="M208 472v-472h-135v700h136l309 -473v473h135v-700h-136zM312 780l-129 162h90l90 -86l90 86h89l-129 -162h-101z" />
    <glyph glyph-name="ncaron" unicode="&#x148;" horiz-adv-x="600" 
d="M426 0v282q0 54 -25 85.5t-70 31.5q-38 0 -83 -26t-69 -72v-301h-119v500h119v-75q68 88 187 88q79 0 129 -53.5t50 -147.5v-312h-119zM247 580l-129 162h89l90 -86l91 86h88l-129 -162h-100z" />
    <glyph glyph-name="Omacron" unicode="&#x14c;" horiz-adv-x="822" 
d="M411 584q-106 0 -171 -67t-65 -167q0 -101 65 -167.5t171 -66.5q105 0 170 66.5t65 167.5q0 100 -65 167t-170 67zM411 -15q-170 0 -270.5 103.5t-100.5 261.5q0 157 100.5 261t270.5 104t270.5 -104t100.5 -261q0 -158 -100.5 -261.5t-270.5 -103.5zM251 785v83h320v-83
h-320z" />
    <glyph glyph-name="omacron" unicode="&#x14d;" horiz-adv-x="604" 
d="M297 94q64 0 107.5 45t43.5 111q0 64 -43.5 110t-107.5 46t-107 -46t-43 -110q0 -66 43 -111t107 -45zM297 -15q-114 0 -189.5 77t-75.5 188q0 110 75.5 187.5t189.5 77.5t189.5 -77.5t75.5 -187.5q0 -111 -75.5 -188t-189.5 -77zM137 585v83h320v-83h-320z" />
    <glyph glyph-name="Ohungarumlaut" unicode="&#x150;" horiz-adv-x="822" 
d="M411 584q-106 0 -171 -67t-65 -167q0 -101 65 -167.5t171 -66.5q105 0 170 66.5t65 167.5q0 100 -65 167t-170 67zM411 -15q-170 0 -270.5 103.5t-100.5 261.5q0 157 100.5 261t270.5 104t270.5 -104t100.5 -261q0 -158 -100.5 -261.5t-270.5 -103.5zM662 948l-152 -168
h-87l93 168h146zM466 948l-152 -168h-87l93 168h146z" />
    <glyph glyph-name="ohungarumlaut" unicode="&#x151;" horiz-adv-x="604" 
d="M297 94q64 0 107.5 45t43.5 111q0 64 -43.5 110t-107.5 46t-107 -46t-43 -110q0 -66 43 -111t107 -45zM297 -15q-114 0 -189.5 77t-75.5 188q0 110 75.5 187.5t189.5 77.5t189.5 -77.5t75.5 -187.5q0 -111 -75.5 -188t-189.5 -77zM549 748l-152 -168h-87l93 168h146z
M353 748l-152 -168h-87l93 168h146z" />
    <glyph glyph-name="OE" unicode="&#x152;" horiz-adv-x="1205" 
d="M1010 120v-120h-472v10q-78 -22 -132 -22q-171 0 -268.5 100.5t-97.5 261.5q0 160 97.5 261t268.5 101q64 0 131 -23v11h468v-120h-332v-164h280v-115h-280v-181h337zM406 118q89 0 131 20v405q-23 16 -62.5 26t-72.5 10q-103 0 -163.5 -63.5t-60.5 -165.5
q0 -104 61 -168t167 -64z" />
    <glyph glyph-name="oe" unicode="&#x153;" horiz-adv-x="1007" 
d="M730 -15q-68 0 -125 29t-90 80q-34 -51 -89.5 -80t-123.5 -29q-116 0 -193 78t-77 187q0 110 77 187.5t193 77.5q69 0 125 -30.5t89 -82.5q34 52 88 82.5t117 30.5q119 0 187.5 -72t68.5 -183q0 -18 -3 -35h-392q0 -64 42.5 -103t120.5 -39q87 0 151 49l46 -74
q-81 -73 -212 -73zM302 94q65 0 110 46t45 111q0 64 -45 109.5t-110 45.5t-110 -46t-45 -110q0 -66 44.5 -111t110.5 -45zM864 303q-10 51 -47 82.5t-96 31.5q-52 0 -89.5 -30.5t-50.5 -83.5h283z" />
    <glyph glyph-name="Racute" unicode="&#x154;" horiz-adv-x="632" 
d="M209 241v-241h-136v700h281q109 0 173 -65t64 -165q0 -74 -42.5 -131.5t-115.5 -79.5q20 -29 79.5 -119.5t92.5 -139.5h-144l-161 241h-91zM344 577h-135v-213h135q54 0 84 29.5t30 77.5t-30 77t-84 29zM443 948l-152 -168h-87l93 168h146z" />
    <glyph glyph-name="racute" unicode="&#x155;" horiz-adv-x="365" 
d="M350 513v-113q-58 0 -102.5 -30.5t-63.5 -88.5v-281h-119v500h119v-95q65 108 166 108zM310 748l-153 -168h-87l93 168h147z" />
    <glyph glyph-name="uni0156" unicode="&#x156;" horiz-adv-x="632" 
d="M209 241v-241h-136v700h281q109 0 173 -65t64 -165q0 -74 -42.5 -131.5t-115.5 -79.5q20 -29 79.5 -119.5t92.5 -139.5h-144l-161 241h-91zM344 577h-135v-213h135q54 0 84 29.5t30 77.5t-30 77t-84 29zM229 -306q11 77 31 229h121l-83 -229h-69z" />
    <glyph glyph-name="uni0157" unicode="&#x157;" horiz-adv-x="365" 
d="M350 513v-113q-58 0 -102.5 -30.5t-63.5 -88.5v-281h-119v500h119v-95q65 108 166 108zM39 -306q11 77 31 229h121l-83 -229h-69z" />
    <glyph glyph-name="Rcaron" unicode="&#x158;" horiz-adv-x="632" 
d="M209 241v-241h-136v700h281q109 0 173 -65t64 -165q0 -74 -42.5 -131.5t-115.5 -79.5q20 -29 79.5 -119.5t92.5 -139.5h-144l-161 241h-91zM344 577h-135v-213h135q54 0 84 29.5t30 77.5t-30 77t-84 29zM265 780l-129 162h90l90 -86l90 86h89l-129 -162h-101z" />
    <glyph glyph-name="rcaron" unicode="&#x159;" horiz-adv-x="365" 
d="M350 513v-113q-58 0 -102.5 -30.5t-63.5 -88.5v-281h-119v500h119v-95q65 108 166 108zM132 580l-129 162h90l90 -86l90 86h89l-129 -162h-101z" />
    <glyph glyph-name="Sacute" unicode="&#x15a;" horiz-adv-x="601" 
d="M433 201q0 32 -27.5 53t-69 31t-90 26t-90 36.5t-69 64.5t-27.5 107q0 86 65.5 141t172.5 55q129 0 238 -85l-61 -94q-85 67 -182 67q-46 0 -79.5 -22t-33.5 -62q0 -28 21 -46.5t55 -30t75 -22t81.5 -26t74.5 -37.5t55 -62t21 -94q0 -88 -78 -152t-187 -64
q-147 0 -262 90q6 9 27.5 44.5t33.5 55.5q40 -32 96 -52t110 -20q41 0 68 22q62 24 62 76zM444 948l-152 -168h-87l93 168h146z" />
    <glyph glyph-name="sacute" unicode="&#x15b;" horiz-adv-x="487" 
d="M340 143q0 23 -21.5 36.5t-53.5 19t-69 15.5t-69 23.5t-53.5 45.5t-21.5 80q0 65 50.5 108.5t146.5 43.5q112 0 192 -76l-54 -73q-63 57 -138 57q-38 0 -63 -16.5t-25 -41.5q0 -26 30 -40.5t73 -23.5t86 -21.5t73 -45t30 -83.5q0 -76 -55 -121t-155 -45q-125 0 -215 80
q7 10 25.5 35.5t27.5 40.5q80 -65 162 -65q44 0 70.5 19t26.5 48zM380 748l-152 -168h-87l93 168h146z" />
    <glyph glyph-name="Scaron" unicode="&#x160;" horiz-adv-x="601" 
d="M432 201q0 32 -27.5 53t-69 31t-90 26t-90 36.5t-69 64.5t-27.5 107q0 86 65.5 141t173.5 55q127 0 238 -85l-62 -94q-83 67 -182 67q-45 0 -79 -21.5t-34 -62.5q0 -28 21 -46.5t55 -30t75 -22t82 -26t75 -37.5t55 -62t21 -94q0 -88 -78 -152t-188 -64q-148 0 -261 90
l60 100q41 -32 96.5 -52t109.5 -20q41 0 85.5 29t44.5 69zM250 780l-129 162h89l90 -86l91 86h88l-129 -162h-100z" />
    <glyph glyph-name="scaron" unicode="&#x161;" horiz-adv-x="487" 
d="M340 143q0 23 -21.5 37t-53.5 19.5t-69.5 15.5t-69.5 23.5t-53.5 45.5t-21.5 79q0 64 51.5 108t147.5 44q112 0 192 -76l-55 -73q-63 57 -137 57q-38 0 -63 -16t-25 -42t30 -41t73 -24t86 -22t73 -45t30 -83q0 -76 -55.5 -120.5t-154.5 -44.5q-124 0 -216 80l54 76
q79 -65 162 -65q44 0 70 18.5t26 48.5zM193 580l-129 162h90l90 -86l90 86h89l-129 -162h-101z" />
    <glyph glyph-name="Tcaron" unicode="&#x164;" horiz-adv-x="602" 
d="M577 700v-123h-208v-577h-136v577h-208v123h552zM250 780l-129 162h90l90 -86l90 86h89l-129 -162h-101z" />
    <glyph glyph-name="tcaron" unicode="&#x165;" horiz-adv-x="646" 
d="M230 401v-225q0 -44 21 -64.5t53 -20.5q44 0 84 17v-94q-48 -21 -120 -21q-157 0 -157 169v239h-99v99h99v117h119v-117h157v-99h-157zM442 470l34 240h126l-88 -240h-72z" />
    <glyph glyph-name="Umacron" unicode="&#x16a;" horiz-adv-x="704" 
d="M192 785v83h320v-83h-320zM352 110q65 0 107.5 44.5t42.5 106.5v439h136v-433q0 -122 -77 -202t-209 -80t-209 80t-77 202v433h136v-439q0 -62 42.5 -106.5t107.5 -44.5z" />
    <glyph glyph-name="umacron" unicode="&#x16b;" horiz-adv-x="605" 
d="M177 500v-282q0 -54 24.5 -85.5t69.5 -31.5q38 0 83 25.5t69 71.5v302h120v-500h-120v74q-69 -86 -186 -86q-80 0 -130 53t-50 147v312h120zM142 585v83h320v-83h-320z" />
    <glyph glyph-name="Uring" unicode="&#x16e;" horiz-adv-x="704" 
d="M352 778q-45 0 -79.5 32t-34.5 77q0 44 34.5 76.5t79.5 32.5q46 0 80.5 -32.5t34.5 -76.5q0 -45 -34.5 -77t-80.5 -32zM352 831q22 0 39 16.5t17 39.5t-16.5 39.5t-39.5 16.5t-39.5 -16.5t-16.5 -39.5t17 -39.5t39 -16.5zM352 110q65 0 107.5 44.5t42.5 106.5v439h136
v-433q0 -122 -77 -202t-209 -80t-209 80t-77 202v433h136v-439q0 -62 42.5 -106.5t107.5 -44.5z" />
    <glyph glyph-name="uring" unicode="&#x16f;" horiz-adv-x="605" 
d="M177 500v-282q0 -54 24.5 -85.5t69.5 -31.5q38 0 83 25.5t69 71.5v302h120v-500h-120v74q-69 -86 -186 -86q-80 0 -130 53t-50 147v312h120zM302 578q-45 0 -79.5 32t-34.5 77q0 44 34.5 76.5t79.5 32.5q46 0 80.5 -32.5t34.5 -76.5q0 -45 -34.5 -77t-80.5 -32zM302 631
q22 0 39 16.5t17 39.5t-16.5 39.5t-39.5 16.5t-39.5 -16.5t-16.5 -39.5t17 -39.5t39 -16.5z" />
    <glyph glyph-name="Uhungarumlaut" unicode="&#x170;" horiz-adv-x="704" 
d="M594 948l-153 -168h-87l93 168h147zM398 948l-153 -168h-87l93 168h147zM352 110q65 0 107.5 44.5t42.5 106.5v439h136v-433q0 -122 -77 -202t-209 -80t-209 80t-77 202v433h136v-439q0 -62 42.5 -106.5t107.5 -44.5z" />
    <glyph glyph-name="uhungarumlaut" unicode="&#x171;" horiz-adv-x="605" 
d="M177 500v-282q0 -54 24.5 -85.5t69.5 -31.5q38 0 83 25.5t69 71.5v302h120v-500h-120v74q-69 -86 -186 -86q-80 0 -130 53t-50 147v312h120zM544 748l-152 -168h-87l93 168h146zM348 748l-152 -168h-87l93 168h146z" />
    <glyph glyph-name="Uogonek" unicode="&#x172;" horiz-adv-x="704" 
d="M487 -183q-30 0 -59 4.5t-58.5 15t-48 31t-18.5 49.5q0 40 35 68q-126 4 -199 83.5t-73 198.5v433h136v-439q0 -62 42.5 -106.5t107.5 -44.5t107.5 44.5t42.5 106.5v439h136v-433q0 -97 -50 -169t-139 -99q-51 -30 -51 -70q0 -25 22 -43t67 -19v-50z" />
    <glyph glyph-name="uogonek" unicode="&#x173;" horiz-adv-x="605" 
d="M546 -183q-29 0 -58 4.5t-58.5 15t-48 31t-18.5 49.5q0 56 60 83v74q-67 -85 -182 -85q-85 0 -134.5 51.5t-49.5 147.5v312h120v-282q0 -61 29.5 -91.5t78.5 -30.5q43 0 80 28.5t58 73.5v302h120v-464q-13 -14 -29 -30.5t-24 -25t-16.5 -19t-11.5 -19t-3 -17.5
q0 -24 23 -40.5t64 -17.5v-50z" />
    <glyph glyph-name="Ydieresis" unicode="&#x178;" horiz-adv-x="686" 
d="M377 835q0 28 18 47t46 19t47 -19t19 -47t-19 -46t-47 -18t-46 18t-18 46zM178 835q0 28 18.5 47t46.5 19q27 0 46 -19t19 -47q0 -27 -19 -45.5t-46 -18.5q-28 0 -46.5 18t-18.5 46zM5 700h151l187 -324l187 324h151l-270 -453v-247h-136v246z" />
    <glyph glyph-name="Zacute" unicode="&#x179;" horiz-adv-x="609" 
d="M562 700v-98l-345 -479h357v-123h-539v98l345 479h-335v123h517zM432 948l-153 -168h-87l93 168h147z" />
    <glyph glyph-name="zacute" unicode="&#x17a;" horiz-adv-x="524" 
d="M212 104h279v-104h-459v80l269 316h-262v104h443v-80zM389 748l-152 -168h-87l93 168h146z" />
    <glyph glyph-name="Zdotaccent" unicode="&#x17b;" horiz-adv-x="609" 
d="M562 700v-98l-345 -479h357v-123h-539v98l345 479h-335v123h517zM243 815q0 45 21 79q18 6 40 6q23 0 40 -13t22 -31q0 -45 -21 -79q-22 -5 -41 -5q-23 0 -39.5 12t-21.5 31z" />
    <glyph glyph-name="zdotaccent" unicode="&#x17c;" horiz-adv-x="524" 
d="M212 104h279v-104h-459v80l269 316h-262v104h443v-80zM200 615q0 45 21 79q18 6 40 6q23 0 40 -13t22 -31q0 -45 -21 -79q-22 -5 -41 -5q-23 0 -39.5 12t-21.5 31z" />
    <glyph glyph-name="Zcaron" unicode="&#x17d;" horiz-adv-x="609" 
d="M562 700v-98l-345 -479h357v-123h-539v98l345 479h-335v123h517zM252 780l-129 162h89l90 -86l91 86h88l-129 -162h-100z" />
    <glyph glyph-name="zcaron" unicode="&#x17e;" horiz-adv-x="524" 
d="M212 104h279v-104h-459v80l269 316h-262v104h443v-80zM211 580l-129 162h90l90 -86l90 86h89l-129 -162h-101z" />
    <glyph glyph-name="circumflex" unicode="&#x2c6;" horiz-adv-x="500" 
d="M78 580l129 162h101l129 -162h-90l-90 86l-90 -86h-89z" />
    <glyph glyph-name="caron" unicode="&#x2c7;" horiz-adv-x="500" 
d="M207 580l-129 162h90l90 -86l90 86h89l-129 -162h-101z" />
    <glyph glyph-name="breve" unicode="&#x2d8;" horiz-adv-x="500" 
d="M250 579q-161 0 -183 163h64q9 -35 39.5 -56t79.5 -21t79.5 21t39.5 56h64q-22 -163 -183 -163z" />
    <glyph glyph-name="dotaccent" unicode="&#x2d9;" horiz-adv-x="500" 
d="M185 634q0 28 18.5 47t46.5 19q27 0 46 -19t19 -47q0 -27 -19 -45.5t-46 -18.5q-28 0 -46.5 18t-18.5 46z" />
    <glyph glyph-name="ring" unicode="&#x2da;" horiz-adv-x="500" 
d="M250 578q-46 0 -80.5 32t-34.5 77q0 44 34.5 76.5t80.5 32.5q45 0 79.5 -32.5t34.5 -76.5q0 -45 -34.5 -77t-79.5 -32zM250 631q22 0 39 16.5t17 39.5t-16.5 39.5t-39.5 16.5t-40 -16.5t-17 -39.5q0 -22 17 -39t40 -17z" />
    <glyph glyph-name="ogonek" unicode="&#x2db;" horiz-adv-x="500" 
d="M356 -183q-30 0 -59 4.5t-58.5 15t-48 31t-18.5 49.5q0 56 60 83h89q-54 -30 -54 -71q0 -25 22 -43t67 -19v-50z" />
    <glyph glyph-name="tilde" unicode="&#x2dc;" horiz-adv-x="518" 
d="M145 586l-59 5q27 132 114 132q24 0 70 -20.5t68 -20.5q34 0 55 50l59 -4q-27 -133 -114 -133q-24 0 -70 20.5t-68 20.5q-36 0 -55 -50z" />
    <glyph glyph-name="hungarumlaut" unicode="&#x2dd;" horiz-adv-x="578" 
d="M520 748l-153 -168h-87l93 168h147zM324 748l-153 -168h-87l93 168h147z" />
    <glyph glyph-name="afii10023" unicode="&#x401;" horiz-adv-x="606" 
d="M550 120v-120h-477v700h472v-120h-336v-164h285v-115h-285v-181h341zM353 817q0 28 18.5 47t46.5 19q27 0 46 -19t19 -47q0 -27 -19 -45.5t-46 -18.5q-28 0 -46.5 18t-18.5 46zM139 817q0 28 18.5 47t46.5 19q27 0 46 -19t19 -47q0 -27 -19 -45.5t-46 -18.5
q-28 0 -46.5 18t-18.5 46z" />
    <glyph glyph-name="afii10051" unicode="&#x402;" horiz-adv-x="788" 
d="M572 700v-123h-213v-168q79 19 157 19q107 0 172 -54t65 -165v-30q0 -84 -51 -137.5t-137 -53.5q-74 0 -142 46l32 87q38 -36 84 -36q36 0 57 24.5t21 70.5v19q0 55 -34 81t-85 26q-73 0 -139 -19v-287h-136v577h-203v123h552z" />
    <glyph glyph-name="afii10052" unicode="&#x403;" horiz-adv-x="566" 
d="M536 700v-123h-327v-577h-136v700h463zM220 775l91 162h140l-144 -162h-87z" />
    <glyph glyph-name="afii10053" unicode="&#x404;" horiz-adv-x="687" 
d="M411 101q118 0 201 66l60 -97q-107 -85 -261 -85q-170 0 -270.5 103.5t-100.5 261.5q0 157 100.5 261t270.5 104q152 0 261 -85l-60 -98q-85 67 -201 67q-93 0 -152 -51t-73 -132h338v-108h-341q9 -91 69 -149t159 -58z" />
    <glyph glyph-name="afii10054" unicode="&#x405;" horiz-adv-x="601" 
d="M432 201q0 32 -27.5 53t-69 31t-90 26t-90 36.5t-69 64.5t-27.5 107q0 86 65.5 141t173.5 55q127 0 238 -85l-62 -94q-83 67 -182 67q-45 0 -79 -21.5t-34 -62.5q0 -28 21 -46.5t55 -30t75 -22t82 -26t75 -37.5t55 -62t21 -94q0 -88 -78 -152t-188 -64q-148 0 -261 90
l60 100q41 -32 96.5 -52t109.5 -20q52 0 91 28t39 70z" />
    <glyph glyph-name="afii10055" unicode="&#x406;" horiz-adv-x="282" 
d="M73 0v700h136v-700h-136z" />
    <glyph glyph-name="afii10056" unicode="&#x407;" horiz-adv-x="282" 
d="M73 0v700h136v-700h-136zM168 835q0 27 16 46t40 19t41 -19t17 -46t-17 -45.5t-41 -18.5t-40 18t-16 46zM0 835q0 27 16 46t41 19q24 0 40.5 -19t16.5 -46q0 -28 -16.5 -46t-40.5 -18q-25 0 -41 18t-16 46z" />
    <glyph glyph-name="afii10057" unicode="&#x408;" horiz-adv-x="452" 
d="M243 200v500h136v-462q0 -123 -43.5 -188t-149.5 -65q-107 0 -186 70l59 91q53 -42 101 -42q39 0 61 26t22 70z" />
    <glyph glyph-name="afii10058" unicode="&#x409;" horiz-adv-x="1047" 
d="M641 700v-242h117q117 0 185.5 -64.5t68.5 -164.5q0 -101 -67 -165t-187 -64h-253v577h-212v-164q0 -121 -19 -204.5t-55 -127.5t-78 -62.5t-97 -18.5h-34v123h26q68 0 97.5 68.5t29.5 245.5v263h478zM641 123h120q54 0 84.5 29.5t30.5 76.5t-30.5 76.5t-84.5 29.5h-120
v-212z" />
    <glyph glyph-name="afii10059" unicode="&#x40a;" horiz-adv-x="1042" 
d="M500 0v303h-291v-303h-136v700h136v-274h291v274h136v-250h117q94 0 172 -64.5t78 -161.5q0 -98 -70 -161t-180 -63h-253zM636 123h120q54 0 84.5 27.5t30.5 74.5q0 46 -30.5 74t-84.5 28h-120v-204z" />
    <glyph glyph-name="afii10060" unicode="&#x40b;" horiz-adv-x="798" 
d="M572 700v-123h-213v-168q79 19 167 19q105 0 171 -61t66 -173v-194h-136v194q0 54 -36 83.5t-93 29.5q-70 0 -139 -20v-287h-136v577h-203v123h552z" />
    <glyph glyph-name="afii10061" unicode="&#x40c;" horiz-adv-x="686" 
d="M517 0l-300 359l287 341h144l-287 -341l313 -359h-157zM73 0v700h136v-700h-136zM248 780l91 162h140l-144 -162h-87z" />
    <glyph glyph-name="afii10062" unicode="&#x40e;" horiz-adv-x="684" 
d="M335 0h-153l88 180l-260 520h155l180 -366l178 366h151zM345 837q91 0 155 37l44 -85q-85 -44 -199 -44t-199 44l43 85q65 -37 156 -37z" />
    <glyph glyph-name="afii10145" unicode="&#x40f;" horiz-adv-x="759" 
d="M510 123v577h136v-700h-226v-154h-121v154h-226v700h136v-577h301z" />
    <glyph glyph-name="afii10017" unicode="&#x410;" horiz-adv-x="691" 
d="M423 700l258 -700h-136l-55 146h-289l-55 -146h-136l258 700h155zM345 541l-107 -285h214z" />
    <glyph glyph-name="afii10018" unicode="&#x411;" horiz-adv-x="643" 
d="M209 110h143q54 0 83 28.5t29 76.5t-29.5 77t-82.5 29h-143v-211zM543 700v-110h-334v-159h173q96 0 158.5 -61.5t62.5 -155.5q0 -95 -59 -154.5t-162 -59.5h-309v700h470z" />
    <glyph glyph-name="afii10019" unicode="&#x412;" horiz-adv-x="635" 
d="M568 527q0 -51 -29.5 -94.5t-76.5 -66.5q59 -22 96 -70t37 -108q0 -79 -58.5 -133.5t-146.5 -54.5h-317v700h260q103 0 169 -44t66 -129zM209 107h145q44 0 74.5 29t30.5 72q0 42 -30.5 71t-74.5 29h-145v-201zM440 502q0 38 -28.5 64.5t-67.5 26.5h-135v-185h135
q39 0 67.5 27.5t28.5 66.5z" />
    <glyph glyph-name="afii10020" unicode="&#x413;" horiz-adv-x="556" 
d="M536 700v-123h-327v-577h-136v700h463z" />
    <glyph glyph-name="afii10021" unicode="&#x414;" horiz-adv-x="789" 
d="M134 0v-154h-121v277h76q43 74 63.5 164.5t20.5 243.5v169h488v-577h103v-277h-121v154h-509zM525 123v454h-221v-99q0 -213 -72 -355h293z" />
    <glyph glyph-name="afii10022" unicode="&#x415;" horiz-adv-x="606" 
d="M550 120v-120h-477v700h472v-120h-336v-164h285v-115h-285v-181h341z" />
    <glyph glyph-name="afii10024" unicode="&#x416;" horiz-adv-x="986" 
d="M196 700l157 -276h72v276h136v-276h70l158 276h157l-196 -344l223 -356h-168l-179 301h-65v-301h-136v301h-67l-178 -301h-168l224 357l-196 343h156z" />
    <glyph glyph-name="afii10025" unicode="&#x417;" horiz-adv-x="591" 
d="M285 103q51 0 79 29t28 77q0 46 -24.5 74.5t-67.5 28.5h-112v96h121q34 0 67.5 26t33.5 72q0 49 -31 73t-77 24q-107 0 -192 -67l-61 94q109 85 253 85q108 0 170 -51t62 -133q0 -54 -30.5 -99.5t-87.5 -68.5q61 -17 98 -65.5t37 -108.5q0 -87 -77.5 -145.5t-188.5 -58.5
q-144 0 -251 85l60 100q85 -67 191 -67z" />
    <glyph glyph-name="afii10026" unicode="&#x418;" horiz-adv-x="724" 
d="M515 0v472l-306 -472h-136v700h136v-473l306 473h136v-700h-136z" />
    <glyph glyph-name="afii10027" unicode="&#x419;" horiz-adv-x="724" 
d="M366 837q91 0 155 37l44 -85q-85 -44 -199 -44t-199 44l43 85q65 -37 156 -37zM515 0v472l-306 -472h-136v700h136v-473l306 473h136v-700h-136z" />
    <glyph glyph-name="afii10028" unicode="&#x41a;" horiz-adv-x="686" 
d="M517 0l-300 359l287 341h144l-287 -341l313 -359h-157zM73 0v700h136v-700h-136z" />
    <glyph glyph-name="afii10029" unicode="&#x41b;" horiz-adv-x="724" 
d="M10 0v123h26q68 0 97.5 68.5t29.5 245.5v263h488v-700h-136v577h-222v-164q0 -121 -19 -204.5t-55 -127.5t-78 -62.5t-97 -18.5h-34z" />
    <glyph glyph-name="afii10030" unicode="&#x41c;" horiz-adv-x="827" 
d="M205 700l208 -330l209 330h132v-700h-126v507l-188 -300h-54l-187 300v-507h-126v700h132z" />
    <glyph glyph-name="afii10031" unicode="&#x41d;" horiz-adv-x="719" 
d="M510 0v301h-301v-301h-136v700h136v-276h301v276h136v-700h-136z" />
    <glyph glyph-name="afii10032" unicode="&#x41e;" horiz-adv-x="822" 
d="M411 584q-106 0 -171 -67t-65 -167q0 -101 65 -167.5t171 -66.5q105 0 170 66.5t65 167.5q0 100 -65 167t-170 67zM411 -15q-170 0 -270.5 103.5t-100.5 261.5q0 157 100.5 261t270.5 104t270.5 -104t100.5 -261q0 -158 -100.5 -261.5t-270.5 -103.5z" />
    <glyph glyph-name="afii10033" unicode="&#x41f;" horiz-adv-x="719" 
d="M510 0v577h-301v-577h-136v700h573v-700h-136z" />
    <glyph glyph-name="afii10034" unicode="&#x420;" horiz-adv-x="625" 
d="M209 241v-241h-136v700h263q110 0 182 -65t72 -164q0 -98 -75 -164t-179 -66h-127zM339 577h-130v-213h130q54 0 84.5 29.5t30.5 77.5q0 47 -30.5 76.5t-84.5 29.5z" />
    <glyph glyph-name="afii10035" unicode="&#x421;" horiz-adv-x="685" 
d="M411 111q118 0 201 66l60 -107q-107 -85 -261 -85q-170 0 -270.5 103.5t-100.5 261.5q0 157 100.5 261t270.5 104q152 0 261 -85l-60 -108q-85 67 -201 67q-105 0 -169 -69t-64 -170q0 -99 64.5 -169t168.5 -70z" />
    <glyph glyph-name="afii10036" unicode="&#x422;" horiz-adv-x="602" 
d="M577 700v-123h-208v-577h-136v577h-208v123h552z" />
    <glyph glyph-name="afii10037" unicode="&#x423;" horiz-adv-x="684" 
d="M335 0h-153l88 181l-260 519h155l180 -366l178 366h151z" />
    <glyph glyph-name="afii10038" unicode="&#x424;" horiz-adv-x="854" 
d="M359 0v75h-25q-132 0 -215.5 80.5t-83.5 208.5q0 130 84 209.5t215 79.5h25v67h136v-67h25q131 0 215 -81t84 -208q0 -130 -84.5 -209.5t-214.5 -79.5h-25v-75h-136zM495 191h20q82 0 129 49t47 124q0 74 -47.5 123.5t-128.5 49.5h-20v-346zM338 191h21v346h-21
q-81 0 -128.5 -49.5t-47.5 -123.5q0 -75 47 -124t129 -49z" />
    <glyph glyph-name="afii10039" unicode="&#x425;" horiz-adv-x="708" 
d="M528 0l-174 241l-175 -241h-164l256 357l-246 343h164l165 -228l164 228h165l-247 -343l257 -357h-165z" />
    <glyph glyph-name="afii10040" unicode="&#x426;" horiz-adv-x="774" 
d="M510 123v577h136v-577h103v-277h-121v154h-555v700h136v-577h301z" />
    <glyph glyph-name="afii10041" unicode="&#x427;" horiz-adv-x="635" 
d="M42 471v229h136v-229q0 -55 34.5 -83.5t89.5 -28.5q68 0 139 19v322h136v-700h-136v256q-83 -20 -152 -20q-106 0 -176.5 61.5t-70.5 173.5z" />
    <glyph glyph-name="afii10042" unicode="&#x428;" horiz-adv-x="1086" 
d="M475 123v577h136v-577h266v577h136v-700h-940v700h136v-577h266z" />
    <glyph glyph-name="afii10043" unicode="&#x429;" horiz-adv-x="1141" 
d="M73 0v700h136v-577h266v577h136v-577h266v577h136v-577h103v-277h-121v154h-922z" />
    <glyph glyph-name="afii10044" unicode="&#x42a;" horiz-adv-x="762" 
d="M346 700v-242h127q97 0 175.5 -65t78.5 -164q0 -110 -79.5 -169.5t-214.5 -59.5h-223v577h-193v123h329zM346 123h131q53 0 83.5 29.5t30.5 76.5t-30.5 76.5t-83.5 29.5h-131v-212z" />
    <glyph glyph-name="afii10045" unicode="&#x42b;" horiz-adv-x="867" 
d="M209 123h130q54 0 84.5 29.5t30.5 76.5t-30.5 76.5t-84.5 29.5h-130v-212zM209 700v-242h127q102 0 178 -66.5t76 -162.5t-74 -162.5t-180 -66.5h-263v700h136zM658 0v700h136v-700h-136z" />
    <glyph glyph-name="afii10046" unicode="&#x42c;" horiz-adv-x="625" 
d="M209 123h130q54 0 84.5 29.5t30.5 76.5t-30.5 76.5t-84.5 29.5h-130v-212zM209 700v-242h127q102 0 178 -66.5t76 -162.5t-74 -162.5t-180 -66.5h-263v700h136z" />
    <glyph glyph-name="afii10047" unicode="&#x42d;" horiz-adv-x="687" 
d="M276 101q98 0 158.5 58t69.5 149h-341v108h338q-15 81 -73.5 132t-151.5 51q-116 0 -201 -67l-60 98q109 85 261 85q170 0 270.5 -104t100.5 -261q0 -158 -100.5 -261.5t-270.5 -103.5q-154 0 -261 85l60 97q83 -66 201 -66z" />
    <glyph glyph-name="afii10048" unicode="&#x42e;" horiz-adv-x="1082" 
d="M671 -15q-156 0 -254 88t-113 228h-95v-301h-136v700h136v-276h99q22 129 118 210t245 81q170 0 270.5 -104t100.5 -261q0 -158 -100.5 -261.5t-270.5 -103.5zM671 584q-106 0 -171 -67t-65 -167q0 -101 65 -167.5t171 -66.5q105 0 170 66.5t65 167.5q0 100 -65 167
t-170 67z" />
    <glyph glyph-name="afii10049" unicode="&#x42f;" horiz-adv-x="632" 
d="M443 0v241h-92l-160 -241h-144l171 259q-74 20 -117.5 77.5t-43.5 133.5q0 98 67 164t174 66h281v-700h-136zM443 577h-135q-54 0 -84 -29t-30 -77t30 -77.5t84 -29.5h135v213z" />
    <glyph glyph-name="afii10065" unicode="&#x430;" horiz-adv-x="558" 
d="M203 -15q-80 0 -125.5 37t-45.5 105q0 36 12.5 64t39 45.5t55.5 29.5t73 17.5t81.5 8t89.5 3.5v33q0 94 -107 94q-89 0 -160 -58l-61 70q92 81 228 81q115 0 167.5 -47.5t52.5 -124.5v-343h-120v81q-78 -96 -180 -96zM243 72q80 0 140 90v67q-93 -2 -133 -10
q-33 -6 -60.5 -26t-27.5 -55q0 -33 23.5 -49.5t57.5 -16.5z" />
    <glyph glyph-name="afii10066" unicode="&#x431;" horiz-adv-x="598" 
d="M534 629q-38 -9 -83.5 -18.5t-75 -15t-64 -13.5t-55.5 -15.5t-44.5 -19.5t-37.5 -26.5t-26.5 -35t-19.5 -47.5t-9 -61q26 51 80 78.5t111 27.5q112 0 183.5 -64.5t71.5 -173.5q0 -114 -72 -187t-192 -73q-131 0 -200 83t-69 236q0 136 27.5 212.5t84 113.5t164.5 57
q110 22 202 45zM300 89q63 0 104 43t41 106q0 67 -43 107.5t-102 40.5t-102 -40.5t-43 -107.5q0 -63 40.5 -106t104.5 -43z" />
    <glyph glyph-name="afii10067" unicode="&#x432;" horiz-adv-x="544" 
d="M485 377q0 -35 -19.5 -66t-52.5 -48q43 -16 68.5 -50t25.5 -77q0 -57 -41.5 -96.5t-109.5 -39.5h-296v500h285q63 0 101.5 -35.5t38.5 -87.5zM179 82h133q33 0 53.5 18.5t20.5 48.5t-21 49t-53 19h-133v-135zM373 359q0 26 -20 42.5t-49 16.5h-125v-124h125q29 0 49 18.5
t20 46.5z" />
    <glyph glyph-name="afii10068" unicode="&#x433;" horiz-adv-x="448" 
d="M440 500v-109h-261v-391h-119v500h380z" />
    <glyph glyph-name="afii10069" unicode="&#x434;" horiz-adv-x="651" 
d="M118 0v-141h-106v245h61q29 40 47 110.5t18 155.5v130h407v-396h81v-245h-114v141h-394zM425 104v292h-172v-44q0 -71 -15.5 -141t-38.5 -107h226z" />
    <glyph glyph-name="afii10070" unicode="&#x435;" horiz-adv-x="582" 
d="M549 260q0 -18 -3 -35h-392q0 -63 43 -102.5t120 -39.5q87 0 151 49l46 -74q-81 -73 -212 -73q-113 0 -191.5 74t-78.5 184q0 113 76 192.5t185 79.5q119 0 187.5 -71t68.5 -184zM436 303q-10 51 -47 82.5t-96 31.5q-52 0 -89.5 -30.5t-50.5 -83.5h283z" />
    <glyph glyph-name="afii10072" unicode="&#x436;" horiz-adv-x="778" 
d="M329 0v209h-54l-131 -209h-131l168 260l-154 240h131l115 -182h56v182h120v-182h55l116 182h131l-154 -240l168 -260h-131l-132 209h-53v-209h-120z" />
    <glyph glyph-name="afii10073" unicode="&#x437;" horiz-adv-x="483" 
d="M167 294h76q32 0 54.5 19.5t22.5 47.5q0 59 -86 59q-84 0 -141 -51l-52 71q76 75 207 75q90 0 138 -38t48 -93q0 -40 -23.5 -73.5t-63.5 -50.5q46 -16 72.5 -50t26.5 -76q0 -62 -51.5 -105.5t-158.5 -43.5q-129 0 -209 75l51 69q68 -54 151 -54q42 0 68.5 20.5t26.5 51.5
q0 30 -22.5 49.5t-58.5 19.5h-76v78z" />
    <glyph glyph-name="afii10074" unicode="&#x438;" horiz-adv-x="605" 
d="M179 500v-332l245 332h121v-500h-119v331l-245 -331h-121v500h119z" />
    <glyph glyph-name="afii10075" unicode="&#x439;" horiz-adv-x="610" 
d="M308 656q72 0 137 33l38 -74q-81 -41 -175 -41q-95 0 -176 41l38 74q65 -33 138 -33zM184 500v-332l245 332h121v-500h-119v331l-245 -331h-121v500h119z" />
    <glyph glyph-name="afii10076" unicode="&#x43a;" horiz-adv-x="551" 
d="M402 0l-214 259l204 241h136l-213 -241l223 -259h-136zM60 500h119v-500h-119v500z" />
    <glyph glyph-name="afii10077" unicode="&#x43b;" horiz-adv-x="606" 
d="M10 0v93h30q42 0 63.5 47.5t21.5 164.5v195h421v-500h-120v396h-187v-114q0 -282 -170 -282h-59z" />
    <glyph glyph-name="afii10078" unicode="&#x43c;" horiz-adv-x="692" 
d="M346 266l160 234h126v-500h-119v341l-143 -209h-49l-142 208v-340h-119v500h126z" />
    <glyph glyph-name="afii10079" unicode="&#x43d;" horiz-adv-x="604" 
d="M424 204h-245v-204h-119v500h119v-187h245v187h120v-500h-120v204z" />
    <glyph glyph-name="afii10080" unicode="&#x43e;" horiz-adv-x="604" 
d="M302 94q65 0 110 45.5t45 110.5q0 64 -45 110t-110 46t-110 -46t-45 -110q0 -66 44.5 -111t110.5 -45zM302 -15q-116 0 -193 77t-77 188q0 110 77 187.5t193 77.5q115 0 192 -77.5t77 -187.5q0 -111 -76.5 -188t-192.5 -77z" />
    <glyph glyph-name="afii10081" unicode="&#x43f;" horiz-adv-x="605" 
d="M426 396h-247v-396h-119v500h485v-500h-119v396z" />
    <glyph glyph-name="afii10082" unicode="&#x440;" horiz-adv-x="614" 
d="M338 -15q-46 0 -89 21.5t-70 58.5v-269h-119v704h119v-66q60 78 164 78q107 0 173 -76.5t66 -185.5q0 -112 -68 -188.5t-176 -76.5zM302 404q-75 0 -123 -61v-186q47 -62 123 -62q63 0 108 45.5t45 109.5q0 63 -45 108.5t-108 45.5z" />
    <glyph glyph-name="afii10083" unicode="&#x441;" horiz-adv-x="519" 
d="M147 250q0 -66 43.5 -109t108.5 -43q74 0 138 48l57 -86q-78 -75 -200 -75q-110 0 -186 79t-76 186t76 186t186 79q122 0 200 -75l-57 -87q-65 49 -138 49q-63 0 -107.5 -44.5t-44.5 -107.5z" />
    <glyph glyph-name="afii10084" unicode="&#x442;" horiz-adv-x="473" 
d="M466 500v-109h-170v-391h-119v391h-170v109h459z" />
    <glyph glyph-name="afii10085" unicode="&#x443;" horiz-adv-x="562" 
d="M562 500l-307 -704h-122l86 205l-212 499h132l143 -351l149 351h131z" />
    <glyph glyph-name="afii10086" unicode="&#x444;" horiz-adv-x="760" 
d="M469 -15h-29v-189h-120v189h-29q-108 0 -183.5 78t-75.5 187q0 110 75 187.5t184 77.5h29v195h120v-195h29q108 0 183.5 -78.5t75.5 -186.5q0 -110 -75 -187.5t-184 -77.5zM440 95h13q63 0 108 45.5t45 109.5q0 63 -45 108.5t-108 45.5h-13v-309zM320 404h-13
q-63 0 -108 -45.5t-45 -108.5q0 -64 45 -109.5t108 -45.5h13v309z" />
    <glyph glyph-name="afii10087" unicode="&#x445;" horiz-adv-x="572" 
d="M408 0l-122 170l-122 -170h-152l193 252l-188 248h151l118 -170l117 170h152l-199 -248l203 -252h-151z" />
    <glyph glyph-name="afii10088" unicode="&#x446;" horiz-adv-x="650" 
d="M179 104h247v396h119v-396h81v-245h-114v141h-452v500h119v-396z" />
    <glyph glyph-name="afii10089" unicode="&#x447;" horiz-adv-x="544" 
d="M37 321v179h120v-159q0 -40 25 -60t68 -20q58 0 115 15v224h119v-500h-119v172q-68 -14 -132 -14q-90 0 -143 41.5t-53 121.5z" />
    <glyph glyph-name="afii10090" unicode="&#x448;" horiz-adv-x="873" 
d="M179 104h198v396h119v-396h198v396h119v-500h-753v500h119v-396z" />
    <glyph glyph-name="afii10091" unicode="&#x449;" horiz-adv-x="920" 
d="M179 104h198v396h119v-396h198v396h119v-396h88v-229h-106v125h-735v500h119v-396z" />
    <glyph glyph-name="afii10092" unicode="&#x44a;" horiz-adv-x="631" 
d="M12 500h271v-166h136q71 0 126.5 -47t55.5 -120q0 -70 -49 -118.5t-133 -48.5h-255v391h-152v109zM283 93h121q33 0 54.5 20.5t21.5 53.5t-21.5 53.5t-54.5 20.5h-121v-148z" />
    <glyph glyph-name="afii10093" unicode="&#x44b;" horiz-adv-x="732" 
d="M179 334h136q80 0 130.5 -48.5t50.5 -118.5t-49 -118.5t-132 -48.5h-255v500h119v-166zM179 93h121q32 0 54 20.5t22 53.5t-22 53.5t-54 20.5h-121v-148zM553 0v500h119v-500h-119z" />
    <glyph glyph-name="afii10094" unicode="&#x44c;" horiz-adv-x="526" 
d="M179 334h136q80 0 130.5 -48.5t50.5 -118.5t-49 -118.5t-132 -48.5h-255v500h119v-166zM179 93h121q32 0 54 20.5t22 53.5t-22 53.5t-54 20.5h-121v-148z" />
    <glyph glyph-name="afii10095" unicode="&#x44d;" horiz-adv-x="519" 
d="M148 206v84h222q-9 54 -48 88t-97 34q-76 0 -139 -46l-56 74q78 75 200 75q110 0 186 -79t76 -186t-76 -186t-186 -79q-122 0 -200 75l56 73q64 -45 139 -45q57 0 95.5 33t48.5 85h-221z" />
    <glyph glyph-name="afii10096" unicode="&#x44e;" horiz-adv-x="814" 
d="M512 -15q-105 0 -179 64.5t-87 161.5h-67v-211h-119v500h119v-195h70q18 91 90 150.5t173 59.5q115 0 192 -77.5t77 -187.5q0 -111 -76.5 -188t-192.5 -77zM512 94q65 0 110 45.5t45 110.5q0 64 -45 110t-110 46t-110 -46t-45 -110q0 -66 44.5 -111t110.5 -45z" />
    <glyph glyph-name="afii10097" unicode="&#x44f;" horiz-adv-x="523" 
d="M344 166h-74l-105 -166h-133l119 178q-55 14 -87 57t-32 98q0 69 49.5 118t131.5 49h250v-500h-119v166zM344 406h-116q-33 0 -54.5 -20t-21.5 -53q0 -34 21.5 -54t54.5 -20h116v147z" />
    <glyph glyph-name="afii10071" unicode="&#x451;" horiz-adv-x="582" 
d="M131 632q0 28 18.5 47t46.5 19q27 0 46 -19t19 -47q0 -27 -19 -45.5t-46 -18.5q-28 0 -46.5 18t-18.5 46zM345 632q0 28 18.5 47t46.5 19q27 0 46 -19t19 -47q0 -27 -19 -45.5t-46 -18.5q-28 0 -46.5 18t-18.5 46zM549 260q0 -18 -3 -35h-392q0 -63 43 -102.5t120 -39.5
q87 0 151 49l46 -74q-81 -73 -212 -73q-113 0 -191.5 74t-78.5 184q0 113 76 192.5t185 79.5q119 0 187.5 -71t68.5 -184zM436 303q-10 51 -47 82.5t-96 31.5q-52 0 -89.5 -30.5t-50.5 -83.5h283z" />
    <glyph glyph-name="afii10099" unicode="&#x452;" horiz-adv-x="635" 
d="M399 641v-79h-185v-144q67 87 187 87q80 0 129.5 -53t49.5 -148v-508h-119v478q0 49 -29 85.5t-80 36.5q-43 0 -80 -28.5t-58 -73.5v-294h-119v562h-105v79h105v69h119v-69h185z" />
    <glyph glyph-name="afii10100" unicode="&#x453;" horiz-adv-x="453" 
d="M440 500v-109h-261v-391h-119v500h380zM138 605l91 162h140l-144 -162h-87z" />
    <glyph glyph-name="afii10101" unicode="&#x454;" horiz-adv-x="530" 
d="M310 409q-59 0 -102 -33.5t-54 -85.5h229v-84h-229q11 -52 54 -85t102 -33q74 0 138 45l57 -73q-80 -75 -200 -75q-113 0 -193 76.5t-80 186.5q0 111 80 187.5t193 76.5q120 0 200 -75l-57 -74q-63 46 -138 46z" />
    <glyph glyph-name="afii10102" unicode="&#x455;" horiz-adv-x="487" 
d="M340 143q0 23 -21.5 36.5t-53.5 19t-69 15.5t-69 23.5t-53.5 45.5t-21.5 80q0 64 51 108t147 44q112 0 192 -76l-55 -73q-63 57 -137 57q-38 0 -63 -16t-25 -42t30 -40.5t72.5 -23.5t85.5 -21.5t73 -45t30 -83.5q0 -76 -55 -121t-154 -45q-124 0 -216 80l54 76
q79 -65 162 -65q44 0 70 18.5t26 48.5z" />
    <glyph glyph-name="afii10103" unicode="&#x456;" horiz-adv-x="249" 
d="M65 0v500h119v-500h-119zM57 630q0 28 19.5 48t47.5 20t48 -20t20 -48t-20 -47.5t-48 -19.5t-47.5 19.5t-19.5 47.5z" />
    <glyph glyph-name="afii10104" unicode="&#x457;" horiz-adv-x="249" 
d="M65 0v500h119v-500h-119zM150 635q0 28 15.5 47t38.5 19t39 -19t16 -47q0 -27 -16 -46t-39 -19t-38.5 18.5t-15.5 46.5zM-9 635q0 28 15 47t38 19t39 -19t16 -47t-16 -46.5t-39 -18.5t-38 18.5t-15 46.5z" />
    <glyph glyph-name="afii10105" unicode="&#x458;" horiz-adv-x="249" 
d="M65 -204v704h119v-704h-119zM57 630q0 28 19.5 48t47.5 20t48 -20t20 -48t-20 -47.5t-48 -19.5t-47.5 19.5t-19.5 47.5z" />
    <glyph glyph-name="afii10106" unicode="&#x459;" horiz-adv-x="873" 
d="M536 334h126q81 0 131 -49.5t50 -117.5q0 -70 -49 -118.5t-132 -48.5h-246v396h-177v-114q0 -282 -170 -282h-59v93h30q42 0 63.5 47.5t21.5 164.5v195h411v-166zM536 93h111q32 0 54 20.5t22 53.5t-22 53.5t-54 20.5h-111v-148z" />
    <glyph glyph-name="afii10107" unicode="&#x45a;" horiz-adv-x="871" 
d="M534 328h125q71 0 126.5 -46t55.5 -118q0 -68 -50 -116t-132 -48h-245v209h-235v-209h-119v500h119v-182h235v182h120v-172zM534 93h110q33 0 54.5 19t21.5 52t-21.5 52t-54.5 19h-110v-142z" />
    <glyph glyph-name="afii10108" unicode="&#x45b;" horiz-adv-x="635" 
d="M399 641v-79h-185v-144q67 87 187 87q80 0 129.5 -53t49.5 -148v-304h-119v274q0 61 -29.5 91.5t-79.5 30.5q-43 0 -80 -28.5t-58 -73.5v-294h-119v562h-105v79h105v69h119v-69h185z" />
    <glyph glyph-name="afii10109" unicode="&#x45c;" horiz-adv-x="551" 
d="M402 0l-214 259l204 241h136l-213 -241l223 -259h-136zM60 500h119v-500h-119v500zM196 580l91 162h139l-143 -162h-87z" />
    <glyph glyph-name="afii10110" unicode="&#x45e;" horiz-adv-x="562" 
d="M562 500l-307 -704h-122l86 205l-212 499h132l143 -351l149 351h131zM278 576q-108 0 -166 88l47 52q48 -56 119 -56t119 56l47 -52q-58 -88 -166 -88z" />
    <glyph glyph-name="afii10193" unicode="&#x45f;" horiz-adv-x="605" 
d="M179 104h247v396h119v-500h-186v-141h-114v141h-185v500h119v-396z" />
    <glyph glyph-name="afii10050" unicode="&#x490;" horiz-adv-x="563" 
d="M536 577h-327v-577h-136v700h353v124h110v-247z" />
    <glyph glyph-name="afii10098" unicode="&#x491;" horiz-adv-x="458" 
d="M445 621v-230h-261v-391h-119v500h281v121h99z" />
    <glyph glyph-name="endash" unicode="&#x2013;" horiz-adv-x="558" 
d="M35 236v87h488v-87h-488z" />
    <glyph glyph-name="emdash" unicode="&#x2014;" horiz-adv-x="858" 
d="M20 236v87h818v-87h-818z" />
    <glyph glyph-name="quoteleft" unicode="&#x2018;" horiz-adv-x="275" 
d="M230 710l-37 -272h-146l99 272h84z" />
    <glyph glyph-name="quoteright" unicode="&#x2019;" horiz-adv-x="275" 
d="M57 470l33 240h126l-87 -240h-72z" />
    <glyph glyph-name="quotesinglbase" unicode="&#x201a;" horiz-adv-x="268" 
d="M42 -148l37 286h146l-99 -286h-84z" />
    <glyph glyph-name="quotedblleft" unicode="&#x201c;" horiz-adv-x="511" 
d="M466 710l-37 -272h-146l99 272h84zM230 710l-37 -272h-146l99 272h84z" />
    <glyph glyph-name="quotedblright" unicode="&#x201d;" horiz-adv-x="511" 
d="M45 438l37 272h146l-99 -272h-84zM281 438l37 272h146l-99 -272h-84z" />
    <glyph glyph-name="quotedblbase" unicode="&#x201e;" horiz-adv-x="503" 
d="M42 -133l37 271h146l-99 -271h-84zM278 -133l37 271h146l-99 -271h-84z" />
    <glyph glyph-name="dagger" unicode="&#x2020;" horiz-adv-x="477" 
d="M171 -108l17 490l-165 -12v126l164 -12l-14 216h133l-14 -216l164 12v-126l-165 12l20 -490h-140z" />
    <glyph glyph-name="daggerdbl" unicode="&#x2021;" horiz-adv-x="483" 
d="M176 294l18 113l-165 -12v126l164 -12l-14 191h133l-14 -191l164 12v-126l-165 12l19 -109l-19 -114l165 12v-126l-164 12l14 -190h-133l14 190l-164 -12v126l165 -12z" />
    <glyph glyph-name="bullet" unicode="&#x2022;" horiz-adv-x="461" 
d="M231 202q-62 0 -106.5 44t-44.5 105q0 62 45 106t106 44q59 0 104.5 -44t45.5 -105q0 -62 -44 -106t-106 -44z" />
    <glyph glyph-name="ellipsis" unicode="&#x2026;" horiz-adv-x="849" 
d="M65 66q0 32 22 54.5t54 22.5q31 0 54 -22.5t23 -54.5t-22.5 -54t-54.5 -22t-54 22t-22 54zM348 66q0 32 22 54.5t54 22.5t54.5 -22.5t22.5 -54.5t-22.5 -54t-54.5 -22t-54 22t-22 54zM631 66q0 32 22 54.5t54 22.5q31 0 54 -22.5t23 -54.5t-22.5 -54t-54.5 -22t-54 22
t-22 54z" />
    <glyph glyph-name="perthousand" unicode="&#x2030;" horiz-adv-x="1064" 
d="M863 0q-65 0 -105 41t-40 102q0 60 40.5 101.5t104.5 41.5q65 0 105.5 -41.5t40.5 -101.5q0 -61 -40.5 -102t-105.5 -41zM863 73q32 0 52.5 20.5t20.5 49.5q0 30 -20.5 50t-52.5 20t-52 -20t-20 -50q0 -29 20 -49.5t52 -20.5zM187 413q-65 0 -105 41.5t-40 102.5
q0 60 40 101t105 41t105.5 -41t40.5 -101q0 -61 -40.5 -102.5t-105.5 -41.5zM187 486q32 0 52.5 20.5t20.5 49.5q0 30 -20.5 50t-52.5 20t-52 -20t-20 -50q0 -29 20 -49.5t52 -20.5zM145 0h-103l531 700h102zM530 0q-65 0 -105 41t-40 102q0 60 40 101.5t105 41.5
q64 0 104.5 -41.5t40.5 -101.5q0 -61 -40 -102t-105 -41zM530 73q32 0 52.5 20.5t20.5 49.5q0 30 -20.5 50t-52.5 20t-52 -20t-20 -50q0 -29 20 -49.5t52 -20.5z" />
    <glyph glyph-name="guilsinglleft" unicode="&#x2039;" horiz-adv-x="321" 
d="M238 17l-201 210v16l201 211l50 -44l-127 -174l127 -175z" />
    <glyph glyph-name="guilsinglright" unicode="&#x203a;" horiz-adv-x="316" 
d="M283 227l-201 -210l-50 44l127 175l-127 174l50 44l201 -211v-16z" />
    <glyph glyph-name="fraction" unicode="&#x2044;" horiz-adv-x="743" 
d="M157 0h-102l530 700h103z" />
    <glyph glyph-name="Euro" unicode="&#x20ac;" horiz-adv-x="706" 
d="M466 111q119 0 201 66l61 -107q-109 -85 -262 -85q-139 0 -232.5 70.5t-124.5 186.5h-97v80h84q-1 6 -1 28q0 23 1 30h-84v80h98q32 115 125 185t231 70q151 0 262 -85l-61 -108q-83 67 -201 67q-72 0 -124.5 -35.5t-75.5 -93.5h314v-80h-345q-2 -20 -2 -30t2 -28h345
v-80h-315q23 -60 75.5 -95.5t125.5 -35.5z" />
    <glyph glyph-name="afii61352" unicode="&#x2116;" horiz-adv-x="1038" 
d="M209 471v-471h-136v699h136l301 -472v472h136v-699h-136zM852 413q-65 0 -105 41.5t-40 102.5q0 60 40 101t105 41t105 -41t40 -101q0 -61 -40 -102.5t-105 -41.5zM852 486q32 0 52.5 20.5t20.5 49.5q0 30 -20.5 50t-52.5 20t-52 -20t-20 -50q0 -29 20 -49.5t52 -20.5z
M707 256v86h290v-86h-290z" />
    <glyph glyph-name="trademark" unicode="&#x2122;" horiz-adv-x="732" 
d="M348 391v309h72l99 -142l98 142h73v-309h-75v203l-85 -127h-23l-85 126v-202h-74zM120 391v239h-97v70h269v-70h-97v-239h-75z" />
    <glyph glyph-name="minus" unicode="&#x2212;" horiz-adv-x="640" 
d="M581 240h-522v93h522v-93z" />
    <glyph glyph-name="infinity" unicode="&#x221e;" horiz-adv-x="720" 
d="M517 475q79 0 128.5 -53t49.5 -135q0 -86 -51 -137t-127 -51q-82 0 -158 102q-73 -102 -156 -102q-76 0 -127 51t-51 137q0 82 49.5 135t128.5 53q84 0 156 -103q74 103 158 103zM517 197q36 0 59.5 24t23.5 66q0 39 -23 64.5t-60 25.5q-50 0 -102 -91q52 -89 102 -89z
M203 197q50 0 101 90q-50 90 -101 90q-37 0 -60 -25.5t-23 -64.5q0 -42 23.5 -66t59.5 -24z" />
    <glyph glyph-name="approxequal" unicode="&#x2248;" horiz-adv-x="640" 
d="M59 120v94q55 52 120 52q46 0 139.5 -39t140.5 -39q66 0 121 54v-94q-55 -54 -122 -54q-47 0 -140.5 38.5t-139.5 38.5q-67 0 -119 -51zM59 353v94q55 52 120 52q46 0 139.5 -39t140.5 -39q66 0 121 54v-94q-55 -54 -122 -54q-47 0 -140.5 38.5t-139.5 38.5
q-67 0 -119 -51z" />
    <glyph glyph-name="notequal" unicode="&#x2260;" horiz-adv-x="640" 
d="M59 353v94h273l76 163l83 -36l-60 -127h149v-94h-189l-66 -138h255v-94h-296l-64 -138l-83 39q32 66 47 99h-125v94h166l66 138h-232z" />
    <glyph glyph-name="lessequal" unicode="&#x2264;" horiz-adv-x="640" 
d="M568 120l-502 168v88l502 170v-96l-380 -118l380 -116v-96zM568 0h-502v92h502v-92z" />
    <glyph glyph-name="greaterequal" unicode="&#x2265;" horiz-adv-x="640" 
d="M573 288l-502 -168v96l381 116l-381 118v96l502 -170v-88zM573 0h-502v92h502v-92z" />
    <glyph glyph-name="lozenge" unicode="&#x25ca;" horiz-adv-x="550" 
d="M233 0l-203 350l203 350h83l204 -350l-204 -350h-83zM274 105l138 245l-138 245l-138 -245z" />
    <glyph glyph-name="zerosmall" unicode="&#xf326;" horiz-adv-x="496" 
d="M447 269q0 -139 -54 -209.5t-146 -70.5t-145.5 71t-53.5 209t53.5 209.5t145.5 71.5t146 -71t54 -210zM168 269q0 -183 79 -183q36 0 58.5 45.5t22.5 137.5t-22.5 138t-58.5 46q-79 0 -79 -184z" />
    <glyph glyph-name="onesmall" unicode="&#xf327;" horiz-adv-x="496" 
d="M452 104v-104h-388v104h134v303l-101 -55l-49 82l209 112h61v-442h134z" />
    <glyph glyph-name="twosmall" unicode="&#xf328;" horiz-adv-x="496" 
d="M115 389l-59 72q87 89 197 89q87 0 133.5 -45.5t46.5 -116.5q0 -54 -36.5 -108.5t-112.5 -127.5l-50 -48h208v-104h-382v84l121 116q81 75 108 111t27 73q0 26 -20 47.5t-55 21.5q-62 0 -126 -64z" />
    <glyph glyph-name="threesmall" unicode="&#xf329;" horiz-adv-x="496" 
d="M239 86q35 0 54.5 21.5t19.5 54.5q0 30 -16 51.5t-43 21.5q-23 0 -71 -12l-21 78l74 19q33 8 57.5 29.5t24.5 48.5q0 26 -17 41t-49 15q-65 0 -131 -57l-51 75q86 78 184 78q85 0 129.5 -38.5t44.5 -97.5q0 -38 -22 -72t-64 -56q50 -17 75.5 -52.5t25.5 -79.5
q0 -71 -57.5 -118t-150.5 -47q-55 0 -93 16.5t-85 52.5l57 80q62 -52 125 -52z" />
    <glyph glyph-name="foursmall" unicode="&#xf32a;" horiz-adv-x="496" 
d="M385 0h-119v128h-230l-14 71l265 347h98v-333h91v-85h-91v-128zM266 389l-133 -176h133v176z" />
    <glyph glyph-name="fivesmall" unicode="&#xf32b;" horiz-adv-x="496" 
d="M190 434l-14 -100q39 16 92 16q80 0 125 -49t45 -122q0 -77 -53.5 -133.5t-152.5 -56.5q-55 0 -94 16.5t-85 52.5l55 80q59 -52 124 -52q36 0 61.5 28t25.5 64q0 40 -21.5 62.5t-57.5 22.5q-52 0 -94 -28l-72 28l36 276h313v-105h-233z" />
    <glyph glyph-name="sixsmall" unicode="&#xf32c;" horiz-adv-x="496" 
d="M271 457q-45 0 -71 -30t-32 -101q43 38 114 38q68 0 116.5 -47.5t48.5 -129.5q0 -94 -56 -146t-144 -52q-103 0 -151 67.5t-48 204.5q0 149 54 219t161 70q87 0 169 -60q-4 -6 -22 -33.5t-27 -42.5q-57 43 -112 43zM169 204q1 -61 24 -89.5t59 -28.5q33 0 57 25t24 73
q0 46 -21.5 70t-50.5 24q-30 0 -57.5 -16.5t-34.5 -57.5z" />
    <glyph glyph-name="sevensmall" unicode="&#xf32d;" horiz-adv-x="496" 
d="M444 456l-195 -456h-127l190 431h-262v108h394v-83z" />
    <glyph glyph-name="eightsmall" unicode="&#xf32e;" horiz-adv-x="496" 
d="M434 402q0 -83 -84 -128q97 -47 97 -135q0 -70 -53 -110t-147 -40q-93 0 -146 40t-53 110q0 87 97 136q-81 45 -81 127q0 64 50.5 106t132.5 42q86 0 136.5 -42t50.5 -106zM328 158q0 31 -21 49.5t-60 33.5q-39 -16 -59 -34t-20 -49q0 -33 21 -54t58 -21q39 0 60 20.5
t21 54.5zM178 391q0 -27 17.5 -44t51.5 -33q34 16 51.5 33t17.5 44q0 30 -19 47.5t-50 17.5q-30 0 -49.5 -17.5t-19.5 -47.5z" />
    <glyph glyph-name="ninesmall" unicode="&#xf32f;" horiz-adv-x="496" 
d="M224 81q45 0 70.5 30t31.5 101q-43 -38 -113 -38q-69 0 -117 45.5t-48 128.5q0 95 57.5 148.5t141.5 53.5q200 0 200 -274q0 -287 -215 -287q-90 0 -169 60l49 74q56 -42 112 -42zM326 330q-1 65 -25 94t-59 29q-32 0 -56 -26t-24 -77q0 -45 21 -67t51 -22q81 0 92 69z
" />
    <glyph glyph-name="afii10017small" unicode="&#xf350;" horiz-adv-x="576" 
d="M354 542l211 -542h-121l-44 110h-223l-43 -110h-121l210 542h131zM289 400l-77 -195h154z" />
    <glyph glyph-name="afii10018small" unicode="&#xf351;" horiz-adv-x="543" 
d="M191 95h109q39 0 61 20.5t22 53.5t-22 54t-61 21h-109v-149zM458 542v-95h-267v-109h133q79 0 130.5 -48t51.5 -122t-49 -121t-133 -47h-254v542h388z" />
    <glyph glyph-name="afii10019small" unicode="&#xf352;" horiz-adv-x="535" 
d="M477 405q0 -36 -20.5 -68t-55.5 -54q45 -20 71 -55.5t26 -79.5q0 -62 -48 -105t-121 -43h-259v542h212q86 0 140.5 -35t54.5 -102zM191 92h109q32 0 54.5 21t22.5 50t-22.5 50t-54.5 21h-109v-142zM363 386q0 26 -21 45t-50 19h-101v-129h101q29 0 50 19t21 46z" />
    <glyph glyph-name="afii10020small" unicode="&#xf353;" horiz-adv-x="471" 
d="M451 542v-104h-261v-438h-120v542h381z" />
    <glyph glyph-name="afii10021small" unicode="&#xf354;" horiz-adv-x="656" 
d="M126 0v-117h-109v222h64q33 54 48.5 122t15.5 182v133h401v-437h83v-222h-109v117h-394zM426 105v333h-165v-69q0 -158 -54 -264h219z" />
    <glyph glyph-name="afii10022small" unicode="&#xf355;" horiz-adv-x="511" 
d="M462 102v-102h-392v542h388v-102h-268v-113h227v-99h-227v-126h272z" />
    <glyph glyph-name="afii10024small" unicode="&#xf356;" horiz-adv-x="816" 
d="M169 543l124 -210h54v209h120v-209h54l124 210h124l-156 -266l178 -277h-133l-141 228h-50v-228h-120v228h-51l-140 -228h-134l179 278l-156 265h124z" />
    <glyph glyph-name="afii10025small" unicode="&#xf357;" horiz-adv-x="494" 
d="M239 90q35 0 57.5 22.5t22.5 47.5q0 37 -22.5 57t-62.5 20h-78v84h103q23 0 48.5 21t25.5 47q0 30 -24 49t-56 19q-83 0 -154 -52l-57 80q96 68 211 68q89 0 140 -40.5t51 -104.5q0 -37 -21.5 -71t-59.5 -55q43 -19 68.5 -54.5t25.5 -78.5q0 -68 -63.5 -114.5
t-154.5 -46.5q-112 0 -209 70l57 84q70 -52 152 -52z" />
    <glyph glyph-name="afii10026small" unicode="&#xf358;" horiz-adv-x="610" 
d="M423 0v345l-236 -345h-117v542h120v-347l235 347h117v-542h-119z" />
    <glyph glyph-name="afii10027small" unicode="&#xf359;" horiz-adv-x="610" 
d="M311 645q65 0 126 31q14 -25 40 -75q-72 -36 -166 -36q-95 0 -169 37l41 74q59 -31 128 -31zM423 0v345l-236 -345h-117v542h120v-347l235 347h117v-542h-119z" />
    <glyph glyph-name="afii10028small" unicode="&#xf35a;" horiz-adv-x="572" 
d="M410 0l-225 265l214 277h142l-214 -269l236 -273h-153zM64 0v542h121v-542h-121z" />
    <glyph glyph-name="afii10029small" unicode="&#xf35b;" horiz-adv-x="606" 
d="M10 0v105h31q46 0 69 46.5t23 164.5v226h405v-542h-121v438h-169v-130q0 -90 -15.5 -152t-45 -95t-64.5 -47t-81 -14h-32z" />
    <glyph glyph-name="afii10030small" unicode="&#xf35c;" horiz-adv-x="694" 
d="M185 542l163 -246l163 246h115v-542h-112v372l-142 -215h-48l-141 214v-371h-113v542h115z" />
    <glyph glyph-name="afii10031small" unicode="&#xf35d;" horiz-adv-x="606" 
d="M419 0v228h-228v-228h-121v542h121v-209h228v209h119v-542h-119z" />
    <glyph glyph-name="afii10032small" unicode="&#xf35e;" horiz-adv-x="682" 
d="M340 442q-81 0 -131 -49t-50 -122q0 -74 50 -123t131 -49q82 0 132 49t50 123q0 73 -50 122t-132 49zM340 -12q-139 0 -220 80.5t-81 202.5t81 202t220 80t220.5 -80.5t81.5 -201.5q0 -122 -81.5 -202.5t-220.5 -80.5z" />
    <glyph glyph-name="afii10033small" unicode="&#xf35f;" horiz-adv-x="603" 
d="M419 0v438h-229v-438h-120v542h468v-542h-119z" />
    <glyph glyph-name="afii10034small" unicode="&#xf360;" horiz-adv-x="528" 
d="M191 183v-183h-121v542h216q90 0 149.5 -51t59.5 -129q0 -76 -62 -127.5t-147 -51.5h-95zM289 438h-98v-151h98q39 0 61.5 21t22.5 54q0 34 -22 55t-62 21z" />
    <glyph glyph-name="afii10035small" unicode="&#xf361;" horiz-adv-x="570" 
d="M340 96q91 0 161 51l55 -90q-97 -69 -216 -69q-139 0 -220.5 80.5t-81.5 202.5q0 121 81.5 201.5t220.5 80.5q119 0 215 -68l-54 -90q-70 51 -161 51q-81 0 -130.5 -50t-49.5 -125q0 -74 49.5 -124.5t130.5 -50.5z" />
    <glyph glyph-name="afii10036small" unicode="&#xf362;" horiz-adv-x="504" 
d="M478 542v-104h-166v-438h-121v438h-165v104h452z" />
    <glyph glyph-name="afii10037small" unicode="&#xf363;" horiz-adv-x="572" 
d="M284 0h-136l73 143l-212 399h140l140 -270l138 270h134z" />
    <glyph glyph-name="afii10038small" unicode="&#xf364;" horiz-adv-x="708" 
d="M294 0v57h-15q-107 0 -175.5 63t-68.5 162q0 101 69 162.5t175 61.5h15v51h120v-51h14q107 0 175.5 -63t68.5 -161q0 -101 -68.5 -163t-175.5 -62h-14v-57h-120zM414 156q68 0 106 34t38 92q0 56 -38.5 90.5t-105.5 34.5v-251zM294 156v251q-68 0 -107 -35t-39 -90
t38.5 -90t107.5 -36z" />
    <glyph glyph-name="afii10039small" unicode="&#xf365;" horiz-adv-x="590" 
d="M433 0l-137 179l-137 -179h-146l209 276l-202 266h146l130 -168l128 168h146l-201 -266l209 -276h-145z" />
    <glyph glyph-name="afii10040small" unicode="&#xf366;" horiz-adv-x="648" 
d="M419 105v437h120v-437h83v-222h-109v117h-443v542h121v-437h228z" />
    <glyph glyph-name="afii10041small" unicode="&#xf367;" horiz-adv-x="545" 
d="M40 362v180h120v-180q0 -38 25.5 -58.5t67.5 -20.5q51 0 105 12v247h120v-542h-120v192q-67 -13 -116 -13q-86 0 -144 48.5t-58 134.5z" />
    <glyph glyph-name="afii10042small" unicode="&#xf368;" horiz-adv-x="902" 
d="M391 105v437h121v-437h200v437h121v-542h-763v542h121v-437h200z" />
    <glyph glyph-name="afii10043small" unicode="&#xf369;" horiz-adv-x="945" 
d="M71 0v542h120v-437h200v437h120v-437h200v437h122v-437h82v-222h-109v117h-735z" />
    <glyph glyph-name="afii10044small" unicode="&#xf36a;" horiz-adv-x="633" 
d="M294 542v-183h97q86 0 147 -53t61 -127q0 -86 -66 -132.5t-175 -46.5h-184v438h-153v104h273zM294 105h100q39 0 61.5 20.5t22.5 53.5t-22.5 54t-61.5 21h-100v-149z" />
    <glyph glyph-name="afii10045small" unicode="&#xf36b;" horiz-adv-x="726" 
d="M191 105h97q40 0 62.5 20.5t22.5 53.5t-22.5 54t-62.5 21h-97v-149zM191 542v-183h94q95 0 152 -51t57 -129q0 -79 -55 -129t-154 -50h-215v542h121zM537 0v542h121v-542h-121z" />
    <glyph glyph-name="afii10046small" unicode="&#xf36c;" horiz-adv-x="528" 
d="M191 105h98q40 0 62 20.5t22 53.5t-22.5 54t-61.5 21h-98v-149zM191 542v-183h95q83 0 146 -52.5t63 -127.5t-61 -127t-148 -52h-216v542h121z" />
    <glyph glyph-name="afii10047small" unicode="&#xf36d;" horiz-adv-x="572" 
d="M233 88q72 0 118 41t56 105h-270v94h266q-13 56 -58 90.5t-112 34.5q-92 0 -162 -51l-55 83q95 68 217 68q138 0 219.5 -80.5t81.5 -201.5q0 -122 -81.5 -202.5t-219.5 -80.5q-123 0 -217 70l55 82q75 -52 162 -52z" />
    <glyph glyph-name="afii10048small" unicode="&#xf36e;" horiz-adv-x="898" 
d="M554 -12q-126 0 -204.5 66t-93.5 174h-64v-228h-122v542h122v-209h68q19 99 96.5 159.5t197.5 60.5q138 0 220 -80.5t82 -201.5q0 -122 -82 -202.5t-220 -80.5zM554 442q-81 0 -131.5 -49t-50.5 -122t50.5 -122.5t131.5 -49.5q82 0 132 49t50 123q0 73 -50 122t-132 49z
" />
    <glyph glyph-name="afii10049small" unicode="&#xf36f;" horiz-adv-x="538" 
d="M351 0v183h-64l-127 -183h-132l139 199q-57 19 -91 63t-34 99q0 77 55.5 129t143.5 52h230v-542h-120zM351 438h-103q-40 0 -62 -21t-22 -55q0 -33 22 -54t62 -21h103v151z" />
    <glyph glyph-name="afii10023small" unicode="&#xf371;" horiz-adv-x="511" 
d="M462 105v-102h-392v542h388v-102h-268v-113h227v-99h-227v-126h272zM278 626q0 23 16.5 39t41.5 16q24 0 41 -16t17 -39q0 -24 -17 -39.5t-41 -15.5q-25 0 -41.5 15.5t-16.5 39.5zM108 626q0 24 16 39.5t41 15.5q24 0 40.5 -16t16.5 -39q0 -24 -16.5 -39.5t-40.5 -15.5
q-25 0 -41 15.5t-16 39.5z" />
    <glyph glyph-name="afii10051small" unicode="&#xf372;" horiz-adv-x="654" 
d="M475 542v-104h-170v-115q70 13 120 13q88 0 141 -42.5t53 -129.5v-23q0 -66 -41.5 -108.5t-114.5 -42.5q-62 0 -120 39l31 77q36 -30 71 -30q24 0 39 17t15 49v15q0 38 -27 56t-65 18q-59 0 -102 -13v-218h-121v438h-161v104h452z" />
    <glyph glyph-name="afii10052small" unicode="&#xf373;" horiz-adv-x="473" 
d="M451 542v-104h-261v-438h-120v542h381zM175 602l86 153h139l-137 -153h-88z" />
    <glyph glyph-name="afii10053small" unicode="&#xf374;" horiz-adv-x="572" 
d="M340 88q88 0 161 52l55 -82q-95 -70 -216 -70q-139 0 -220.5 80.5t-81.5 202.5q0 121 81.5 201.5t220.5 80.5q120 0 216 -68l-54 -83q-69 51 -162 51q-67 0 -112 -35t-59 -90h267v-94h-271q10 -64 56.5 -105t118.5 -41z" />
    <glyph glyph-name="afii10054small" unicode="&#xf375;" horiz-adv-x="503" 
d="M350 158q0 25 -30.5 40.5t-74 27t-87 27.5t-74 53t-30.5 94q0 67 54 110t142 43q103 0 197 -68l-54 -80q-72 52 -148 52q-33 0 -58.5 -15.5t-25.5 -41.5q0 -25 31.5 -41t76.5 -27t90 -27.5t76.5 -53.5t31.5 -93q0 -71 -60 -120.5t-158 -49.5q-117 0 -216 74q8 14 26 42
l27 42q78 -56 167 -56q38 0 67.5 19t29.5 49z" />
    <glyph glyph-name="afii10055small" unicode="&#xf376;" horiz-adv-x="255" 
d="M69 0v542h121v-542h-121z" />
    <glyph glyph-name="afii10056small" unicode="&#xf377;" horiz-adv-x="255" 
d="M63 0v542h121v-542h-121zM142 657q0 26 16 44t39 18t39 -18t16 -44q0 -27 -16 -44.5t-39 -17.5t-39 17.5t-16 44.5zM-10 657q0 26 15.5 44t39.5 18q23 0 39 -18t16 -44q0 -27 -16 -44.5t-39 -17.5q-24 0 -39.5 17.5t-15.5 44.5z" />
    <glyph glyph-name="afii10057small" unicode="&#xf378;" horiz-adv-x="382" 
d="M200 158v384h120v-355q0 -97 -35.5 -148t-124.5 -51q-86 0 -157 59l54 77q45 -34 82 -34q28 0 44.5 18t16.5 50z" />
    <glyph glyph-name="afii10058small" unicode="&#xf379;" horiz-adv-x="865" 
d="M531 542v-183h87q87 0 148 -53t61 -127q0 -77 -59 -128t-150 -51h-208v438h-161v-130q0 -90 -15.5 -152t-45 -95t-64.5 -47t-81 -14h-33v105h32q46 0 69 46.5t23 164.5v226h397zM531 105h90q41 0 63 20.5t22 53.5t-22 54t-63 21h-90v-149z" />
    <glyph glyph-name="afii10059small" unicode="&#xf37a;" horiz-adv-x="865" 
d="M412 0v230h-221v-230h-121v542h121v-207h221v207h119v-189h88q87 0 146 -52t59 -125q0 -77 -57.5 -126.5t-147.5 -49.5h-207zM531 105h91q40 0 62.5 19t22.5 52t-22.5 52.5t-62.5 19.5h-91v-143z" />
    <glyph glyph-name="afii10060small" unicode="&#xf37b;" horiz-adv-x="663" 
d="M475 542v-104h-170v-115q65 13 128 13q86 0 140.5 -48t54.5 -136v-152h-121v152q0 39 -26 59.5t-71 20.5q-57 0 -105 -14v-218h-121v438h-162v104h453z" />
    <glyph glyph-name="afii10061small" unicode="&#xf37c;" horiz-adv-x="578" 
d="M410 0l-225 265l214 277h142l-214 -274l236 -268h-153zM64 0v542h121v-542h-121zM197 606l86 154h139l-137 -154h-88z" />
    <glyph glyph-name="afii10062small" unicode="&#xf37e;" horiz-adv-x="572" 
d="M284 0h-136l73 142l-211 400h139l140 -270l138 270h134zM289 645q67 0 126 31l41 -75q-73 -36 -167 -36t-169 36l42 75q58 -31 127 -31z" />
    <glyph glyph-name="afii10145small" unicode="&#xf37f;" horiz-adv-x="606" 
d="M419 105v437h119v-542h-180v-117h-108v117h-180v542h120v-437h229z" />
    <glyph glyph-name="afii10050small" unicode="&#xf393;" horiz-adv-x="477" 
d="M451 438h-261v-438h-120v542h281v94h100v-198z" />
    <glyph glyph-name="afii61352small" unicode="&#xf3cf;" horiz-adv-x="862" 
d="M192 346v-346h-121v543h117l231 -347v347h119v-543h-116zM697 382q23 0 38 14t15 34t-14.5 33.5t-38.5 13.5q-23 0 -37 -13.5t-14 -33.5t14 -34t37 -14zM697 315q-54 0 -87.5 33t-33.5 82q0 48 33.5 80.5t87.5 32.5t88 -32.5t34 -80.5t-34 -81.5t-88 -33.5zM576 202v83
h243v-83h-243z" />
    <glyph glyph-name="sterlingsmall" unicode="&#xf628;" horiz-adv-x="479" 
d="M447 0h-356v252h-61v85h61v38q0 87 47 133t133 46q93 0 176 -70l-42 -64q-66 46 -127 46q-38 0 -60.5 -24.5t-22.5 -65.5v-39h180v-85h-180v-160h252v-92z" />
    <glyph glyph-name="yensmall" unicode="&#xf629;" horiz-adv-x="545" 
d="M7 539h134l130 -227l131 227h134l-159 -262h106v-76h-151v-34h151v-76h-151v-91h-120v91h-152v76h152v35h-152v75h106z" />
    <glyph glyph-name="Eurosmall" unicode="&#xf630;" horiz-adv-x="588" 
d="M385 96q89 0 161 51l54 -90q-97 -69 -215 -69q-114 0 -190 55.5t-102 147.5h-76v62h66q0 1 -0.5 8t-0.5 11t0.5 10.5t0.5 8.5h-66v62h77q25 89 101.5 144.5t189.5 55.5q119 0 215 -68l-54 -90q-68 51 -161 51q-55 0 -96.5 -25.5t-60.5 -67.5h252v-62h-275q0 -1 -0.5 -7
t-0.5 -13q0 -12 1 -18h275v-62h-251q18 -44 58.5 -69.5t97.5 -25.5z" />
    <glyph glyph-name="Amacronsmall" unicode="&#xf66e;" horiz-adv-x="576" 
d="M128 605v83h320v-83h-320zM354 542l211 -542h-121l-44 110h-223l-43 -110h-121l210 542h131zM289 400l-77 -195h154z" />
    <glyph glyph-name="Aogoneksmall" unicode="&#xf66f;" horiz-adv-x="576" 
d="M568 -159q-17 0 -41 3.5t-54.5 12t-51 28t-20.5 46.5q0 39 44 66l-45 113h-222l-43 -110h-122l210 542h132l212 -542q-44 -7 -61.5 -24.5t-17.5 -36.5t20.5 -33.5t59.5 -17.5v-47zM290 400l-78 -195h155z" />
    <glyph glyph-name="Cacutesmall" unicode="&#xf671;" horiz-adv-x="570" 
d="M340 96q91 0 161 51q36 -60 55 -90q-97 -69 -216 -69q-139 0 -220.5 80.5t-81.5 202.5q0 121 81.5 201.5t220.5 80.5q119 0 215 -68l-54 -90q-70 51 -161 51q-81 0 -130.5 -50t-49.5 -125q0 -74 49.5 -124.5t130.5 -50.5zM431 768l-152 -168h-87l93 168h146z" />
    <glyph glyph-name="Ccaronsmall" unicode="&#xf672;" horiz-adv-x="570" 
d="M340 96q91 0 161 51q36 -60 55 -90q-97 -69 -216 -69q-139 0 -220.5 80.5t-81.5 202.5q0 121 81.5 201.5t220.5 80.5q119 0 215 -68l-54 -90q-70 51 -161 51q-81 0 -130.5 -50t-49.5 -125q0 -74 49.5 -124.5t130.5 -50.5zM261 600l-129 162h90l90 -86l90 86h89l-129 -162
h-101z" />
    <glyph glyph-name="Dcaronsmall" unicode="&#xf675;" horiz-adv-x="630" 
d="M190 113h97q80 0 125.5 43.5t45.5 113.5q0 71 -45.5 115t-125.5 44h-97v-316zM287 0h-217v542h217q135 0 213.5 -76t78.5 -195t-78.5 -195t-213.5 -76zM241 600l-129 162h89l90 -86l91 86h88l-129 -162h-100z" />
    <glyph glyph-name="Ecaronsmall" unicode="&#xf678;" horiz-adv-x="511" 
d="M462 102v-102h-392v542h388v-102h-268v-113h227v-99h-227v-126h272zM203 600l-129 162h90l90 -86l90 86h89l-129 -162h-101z" />
    <glyph glyph-name="Edotaccentsmall" unicode="&#xf679;" horiz-adv-x="511" 
d="M462 102v-102h-392v542h388v-102h-268v-113h227v-99h-227v-126h272zM193 655q0 28 18 47t46 19t47 -19t19 -47t-19 -46t-47 -18t-46 18t-18 46z" />
    <glyph glyph-name="Emacronsmall" unicode="&#xf67a;" horiz-adv-x="511" 
d="M462 102v-102h-392v542h388v-102h-268v-113h227v-99h-227v-126h272zM93 605v83h320v-83h-320z" />
    <glyph glyph-name="Eogoneksmall" unicode="&#xf67c;" horiz-adv-x="511" 
d="M466 -159q-17 0 -41 3.5t-54.5 12t-51 28t-20.5 46.5q0 40 48 69h-277v542h389v-102h-268v-113h227v-99h-227v-126h272v-102q-43 -7 -60 -25t-17 -36q0 -19 20.5 -33.5t59.5 -17.5v-47z" />
    <glyph glyph-name="Imacronsmall" unicode="&#xf685;" horiz-adv-x="255" 
d="M69 0v542h121v-542h-121zM0 605v82h245v-82h-245z" />
    <glyph glyph-name="Iogoneksmall" unicode="&#xf686;" horiz-adv-x="255" 
d="M193 -159q-17 0 -41 3.5t-54.5 12t-51 28t-20.5 46.5q0 41 44 69q0 90 -0.5 270.5t-0.5 271.5h120v-542q-42 -7 -59 -24.5t-17 -36.5t20.5 -33.5t59.5 -17.5v-47z" />
    <glyph glyph-name="Lacutesmall" unicode="&#xf68a;" horiz-adv-x="477" 
d="M70 0v542h120v-437h265v-105h-385zM351 768l-153 -168h-87l93 168h147z" />
    <glyph glyph-name="Lcaronsmall" unicode="&#xf68b;" horiz-adv-x="477" 
d="M70 0v542h120v-437h265v-105h-385zM260 336l28 206h109l-75 -206h-62z" />
    <glyph glyph-name="Nacutesmall" unicode="&#xf68e;" horiz-adv-x="612" 
d="M190 345v-345h-120v542h117l238 -346v346h119v-542h-117zM448 768l-153 -168h-87l93 168h147z" />
    <glyph glyph-name="Ncaronsmall" unicode="&#xf68f;" horiz-adv-x="612" 
d="M190 345v-345h-120v542h117l238 -346v346h119v-542h-117zM250 600l-129 162h90l90 -86l90 86h89l-129 -162h-101z" />
    <glyph glyph-name="Ohungarumlautsmall" unicode="&#xf692;" horiz-adv-x="682" 
d="M340 442q-81 0 -131 -49t-50 -122q0 -74 50 -123t131 -49q82 0 132 49t50 123q0 73 -50 122t-132 49zM340 -12q-139 0 -220 80.5t-81 202.5t81 202t220 80t220.5 -80.5t81.5 -201.5q0 -122 -81.5 -202.5t-220.5 -80.5zM586 768l-153 -168h-87l93 168h147zM390 768
l-153 -168h-87l93 168h147z" />
    <glyph glyph-name="Omacronsmall" unicode="&#xf693;" horiz-adv-x="682" 
d="M340 442q-81 0 -131 -49t-50 -122q0 -74 50 -123t131 -49q82 0 132 49t50 123q0 73 -50 122t-132 49zM340 -12q-139 0 -220 80.5t-81 202.5t81 202t220 80t220.5 -80.5t81.5 -201.5q0 -122 -81.5 -202.5t-220.5 -80.5zM179 605v83h320v-83h-320z" />
    <glyph glyph-name="Racutesmall" unicode="&#xf695;" horiz-adv-x="538" 
d="M191 183v-183h-121v542h231q89 0 143.5 -51.5t54.5 -129.5q0 -56 -34 -100t-91 -63l138 -198h-131l-127 183h-63zM293 438h-102v-151h102q39 0 61.5 21t22.5 54q0 34 -22 55t-62 21zM422 768l-153 -168h-87l93 168h147z" />
    <glyph glyph-name="Rcaronsmall" unicode="&#xf696;" horiz-adv-x="538" 
d="M191 183v-183h-121v542h231q89 0 143.5 -51.5t54.5 -129.5q0 -56 -34 -100t-91 -63l138 -198h-131l-127 183h-63zM293 438h-102v-151h102q39 0 61.5 21t22.5 54q0 34 -22 55t-62 21zM251 600l-129 162h90l90 -86l90 86h89l-129 -162h-101z" />
    <glyph glyph-name="Sacutesmall" unicode="&#xf698;" horiz-adv-x="503" 
d="M351 158q0 25 -30.5 40.5t-74 27t-87.5 27.5t-74.5 53t-30.5 94q0 67 54 110t142 43q102 0 198 -68l-56 -80q-69 52 -146 52q-33 0 -59 -15.5t-26 -41.5q0 -25 31.5 -41t76.5 -27t90 -27.5t76.5 -53.5t31.5 -93q0 -71 -60 -120.5t-158 -49.5q-115 0 -216 74l54 84
q74 -56 166 -56q39 0 68.5 19t29.5 49zM399 768l-153 -168h-87l93 168h147z" />
    <glyph glyph-name="Tcaronsmall" unicode="&#xf69d;" horiz-adv-x="504" 
d="M478 542v-104h-166v-438h-121v438h-165v104h452zM202 600l-129 162h89l90 -86l91 86h88l-129 -162h-100z" />
    <glyph glyph-name="Uhungarumlautsmall" unicode="&#xf6a0;" horiz-adv-x="585" 
d="M538 768l-152 -168h-87l93 168h146zM342 768l-152 -168h-87l93 168h146zM293 -12q-108 0 -171.5 62.5t-63.5 157.5v334h120v-338q0 -43 32 -76t83 -33t83 33t32 76v338h120v-334q0 -95 -63.5 -157.5t-171.5 -62.5z" />
    <glyph glyph-name="Umacronsmall" unicode="&#xf6a1;" horiz-adv-x="585" 
d="M131 605v83h320v-83h-320zM293 -12q-108 0 -171.5 62.5t-63.5 157.5v334h120v-338q0 -43 32 -76t83 -33t83 33t32 76v338h120v-334q0 -95 -63.5 -157.5t-171.5 -62.5z" />
    <glyph glyph-name="Uogoneksmall" unicode="&#xf6a2;" horiz-adv-x="585" 
d="M240 -69q0 35 28 58q-97 7 -153.5 68.5t-56.5 150.5v334h120v-338q0 -43 32 -76t83 -33t83 33t32 76v338h120v-334q0 -72 -37.5 -127t-105.5 -79q-30 -15 -44 -28.5t-14 -34.5q0 -19 20 -33.5t59 -17.5v-47q-17 0 -41 3.5t-54 12.5t-50.5 28.5t-20.5 45.5z" />
    <glyph glyph-name="Uringsmall" unicode="&#xf6a3;" horiz-adv-x="585" 
d="M290 598q-46 0 -80.5 32t-34.5 77q0 44 34.5 76.5t80.5 32.5q45 0 79.5 -32.5t34.5 -76.5q0 -45 -34.5 -77t-79.5 -32zM290 651q22 0 39 16.5t17 39.5t-16.5 39.5t-39.5 16.5t-40 -16.5t-17 -39.5q0 -22 17 -39t40 -17zM293 -12q-108 0 -171.5 62.5t-63.5 157.5v334h120
v-338q0 -43 32 -76t83 -33t83 33t32 76v338h120v-334q0 -95 -63.5 -157.5t-171.5 -62.5z" />
    <glyph glyph-name="Zacutesmall" unicode="&#xf6ab;" horiz-adv-x="509" 
d="M467 542v-81l-269 -356h278v-105h-442v82l269 356h-262v104h426zM385 768l-153 -168h-87l93 168h147z" />
    <glyph glyph-name="Zdotaccentsmall" unicode="&#xf6ac;" horiz-adv-x="509" 
d="M467 542v-81l-269 -356h278v-105h-442v82l269 356h-262v104h426zM189 655q0 28 18 47t46 19t47 -19t19 -47t-19 -46t-47 -18t-46 18t-18 46z" />
    <glyph glyph-name="commaaccent" unicode="&#xf6c3;" horiz-adv-x="250" 
d="M39 -306q11 77 31 229h121l-83 -229h-69z" />
    <glyph glyph-name="Lslashsmall" unicode="&#xf6f9;" horiz-adv-x="477" 
d="M14 137v85l50 39v281h121v-192l108 86v-84l-108 -87v-160h265v-105h-386v177z" />
    <glyph glyph-name="OEsmall" unicode="&#xf6fa;" horiz-adv-x="991" 
d="M825 102v-102h-385v6q-64 -16 -103 -16q-139 0 -218 78t-79 203q0 124 79 202t218 78q47 0 103 -14v5h381v-102h-264v-113h223v-99h-223v-126h268zM337 101q67 0 103 17v304q-43 16 -104 16q-81 0 -127.5 -46t-46.5 -121q0 -76 47 -123t128 -47z" />
    <glyph glyph-name="Scaronsmall" unicode="&#xf6fd;" horiz-adv-x="503" 
d="M350 158q0 25 -30.5 40.5t-74 27t-87 27.5t-74 53t-30.5 94q0 67 54 110t142 43q103 0 197 -68l-54 -80q-72 52 -148 52q-33 0 -58.5 -15.5t-25.5 -41.5q0 -25 31.5 -41t76.5 -27t90 -27.5t76.5 -53.5t31.5 -93q0 -71 -60 -120.5t-158 -49.5q-117 0 -216 74l53 84
q78 -56 167 -56q38 0 67.5 19t29.5 49zM203 604l-123 153h91l82 -77l82 77h90l-123 -153h-99z" />
    <glyph glyph-name="Zcaronsmall" unicode="&#xf6ff;" horiz-adv-x="509" 
d="M466 542v-81l-268 -356h278v-105h-442v82l269 356h-262v104h425zM205 604l-123 153h90l82 -77l82 77h90l-123 -153h-98z" />
    <glyph glyph-name="zero.onum" unicode="&#xf730;" 
d="M52 250q0 125 67 195t177 70t177 -70t67 -195t-67 -195t-177 -70t-177 70t-67 195zM188 250q0 -75 29.5 -115t78.5 -40t78.5 40t29.5 115t-29.5 114.5t-78.5 39.5t-78.5 -39.5t-29.5 -114.5z" />
    <glyph glyph-name="one.onum" unicode="&#xf731;" 
d="M547 108v-108h-476v108h170v256l-140 -70l-41 96l250 125h67v-407h170z" />
    <glyph glyph-name="two.onum" unicode="&#xf732;" 
d="M120 335l-55 84q101 96 239 96q105 0 162.5 -47.5t57.5 -115.5q0 -71 -55 -129.5t-190 -126.5h256v-96h-468v77q190 105 239 143q72 56 73 110q0 35 -26.5 58t-73.5 23q-80 0 -159 -76z" />
    <glyph glyph-name="three.onum" unicode="&#xf733;" horiz-adv-x="571" 
d="M272 -103q47 0 73.5 34t26.5 72q0 48 -21 78.5t-59 30.5q-34 0 -84 -14l-23 88q195 46 195 135q0 37 -24 59.5t-66 22.5q-83 0 -163 -72l-58 88q101 96 224 96q103 0 157 -49t54 -125q0 -54 -32.5 -100t-94.5 -71q71 -16 108.5 -64t37.5 -110q0 -90 -70.5 -151.5
t-185.5 -61.5q-67 0 -112 20.5t-100 65.5l61 95q76 -67 156 -67z" />
    <glyph glyph-name="four.onum" unicode="&#xf734;" 
d="M462 -199h-136v199h-292l-15 86l331 429h112v-417h115v-98h-115v-199zM326 337l-190 -239h190v239z" />
    <glyph glyph-name="five.onum" unicode="&#xf735;" horiz-adv-x="571" 
d="M212 376l-20 -154q50 28 124 28q97 0 152 -63.5t55 -157.5q0 -100 -66 -173t-187 -73q-67 0 -114 21t-101 65l61 95q74 -67 154 -67q51 0 84.5 38t33.5 94t-29.5 88t-78.5 32q-70 0 -120 -35l-81 31l45 355h380v-124h-292z" />
    <glyph glyph-name="six.onum" unicode="&#xf736;" 
d="M465 554q-61 50 -132 50q-144 0 -144 -195q51 60 150 60q84 0 142.5 -61t58.5 -168q0 -121 -69 -188t-175 -67q-127 0 -185.5 88t-58.5 267q0 375 264 375q58 0 105 -17t97 -57zM189 266q2 -87 32.5 -127t80.5 -40q44 0 76.5 35t32.5 103q0 65 -28.5 98.5t-68.5 33.5
q-43 0 -79.5 -23t-45.5 -80z" />
    <glyph glyph-name="seven.onum" unicode="&#xf737;" 
d="M527 399l-244 -601h-145l240 573h-333v129h482v-101z" />
    <glyph glyph-name="eight.onum" unicode="&#xf738;" 
d="M523 526q0 -66 -31 -105t-86 -64q63 -29 98.5 -70t35.5 -110q0 -90 -64.5 -141t-179.5 -51q-114 0 -179 51t-65 141q0 69 35.5 110t98.5 70q-114 53 -114 169q0 82 61.5 135.5t162.5 53.5q105 0 166 -54t61 -135zM405 201q0 45 -28 71t-81 49q-53 -23 -80.5 -48.5
t-27.5 -71.5q0 -48 28.5 -77t79.5 -29q53 0 81 29t28 77zM202 511q0 -39 24 -63.5t70 -46.5q46 22 70.5 46.5t24.5 63.5q0 43 -26.5 68.5t-68.5 25.5t-68 -25t-26 -69z" />
    <glyph glyph-name="nine.onum" unicode="&#xf739;" 
d="M74 -143l53 87q61 -50 132 -50q144 0 144 195q-51 -60 -150 -60q-84 0 -142.5 61t-58.5 168q0 121 69 188t175 67q127 0 185.5 -88t58.5 -267q0 -375 -264 -375q-58 0 -105 17t-97 57zM403 232q-2 87 -32.5 127t-80.5 40q-44 0 -76.5 -35t-32.5 -103q0 -65 28.5 -98.5
t68.5 -33.5q43 0 79.5 23t45.5 80z" />
    <glyph glyph-name="Asmall" unicode="&#xf761;" horiz-adv-x="576" 
d="M354 542l211 -542h-121l-44 110h-223l-43 -110h-121l210 542h131zM289 400l-77 -195h154z" />
    <glyph glyph-name="Bsmall" unicode="&#xf762;" horiz-adv-x="535" 
d="M476 405q0 -75 -75 -122q45 -20 71 -55.5t26 -79.5q0 -62 -48 -105t-121 -43h-259v542h212q85 0 139.5 -35t54.5 -102zM191 92h109q32 0 54.5 21t22.5 50t-22.5 50t-54.5 21h-109v-142zM363 386q0 26 -21.5 45t-49.5 19h-101v-129h101q28 0 49.5 19t21.5 46z" />
    <glyph glyph-name="Csmall" unicode="&#xf763;" horiz-adv-x="570" 
d="M340 96q91 0 161 51l55 -90q-97 -69 -216 -69q-139 0 -220.5 80.5t-81.5 202.5q0 121 81.5 201.5t220.5 80.5q119 0 215 -68l-54 -90q-70 51 -161 51q-81 0 -130.5 -50t-49.5 -125q0 -74 49.5 -124.5t130.5 -50.5z" />
    <glyph glyph-name="Dsmall" unicode="&#xf764;" horiz-adv-x="630" 
d="M190 113h97q80 0 125.5 43.5t45.5 113.5q0 71 -45.5 115t-125.5 44h-97v-316zM287 0h-217v542h217q135 0 213.5 -76t78.5 -195t-78.5 -195t-213.5 -76z" />
    <glyph glyph-name="Esmall" unicode="&#xf765;" horiz-adv-x="511" 
d="M462 102v-102h-392v542h388v-102h-268v-113h227v-99h-227v-126h272z" />
    <glyph glyph-name="Fsmall" unicode="&#xf766;" horiz-adv-x="491" 
d="M431 315v-105h-241v-210h-120v542h388v-104h-268v-123h241z" />
    <glyph glyph-name="Gsmall" unicode="&#xf767;" horiz-adv-x="600" 
d="M280 209v86h282v-234q-98 -73 -222 -73q-139 0 -220.5 80.5t-81.5 202.5q0 121 81.5 201.5t220.5 80.5q104 0 195 -51l-51 -94q-59 37 -139 37q-83 0 -133.5 -49t-50.5 -125q0 -73 50 -124t134 -51q56 0 98 28v85h-163z" />
    <glyph glyph-name="Hsmall" unicode="&#xf768;" horiz-adv-x="606" 
d="M418 0v228h-227v-228h-121v542h121v-209h227v209h120v-542h-120z" />
    <glyph glyph-name="Ismall" unicode="&#xf769;" horiz-adv-x="255" 
d="M69 0v542h121v-542h-121z" />
    <glyph glyph-name="Jsmall" unicode="&#xf76a;" horiz-adv-x="382" 
d="M200 158v384h120v-355q0 -97 -35.5 -148t-124.5 -51q-86 0 -157 59l54 77q45 -34 82 -34q28 0 44.5 18t16.5 50z" />
    <glyph glyph-name="Ksmall" unicode="&#xf76b;" horiz-adv-x="572" 
d="M410 0l-225 265l214 277h142l-214 -264l236 -278h-153zM64 0v542h121v-542h-121z" />
    <glyph glyph-name="Lsmall" unicode="&#xf76c;" horiz-adv-x="477" 
d="M70 0v542h120v-437h265v-105h-385z" />
    <glyph glyph-name="Msmall" unicode="&#xf76d;" horiz-adv-x="694" 
d="M185 542l163 -246l163 246h115v-542h-112v372l-142 -215h-48l-141 214v-371h-113v542h115z" />
    <glyph glyph-name="Nsmall" unicode="&#xf76e;" horiz-adv-x="612" 
d="M190 345v-345h-120v542h117l238 -346v346h119v-542h-117z" />
    <glyph glyph-name="Osmall" unicode="&#xf76f;" horiz-adv-x="682" 
d="M340 442q-81 0 -131 -49t-50 -122q0 -74 50 -123t131 -49q82 0 132 49t50 123q0 73 -50 122t-132 49zM340 -12q-139 0 -220 80.5t-81 202.5t81 202t220 80t220.5 -80.5t81.5 -201.5q0 -122 -81.5 -202.5t-220.5 -80.5z" />
    <glyph glyph-name="Psmall" unicode="&#xf770;" horiz-adv-x="528" 
d="M191 183v-183h-121v542h231q89 0 143.5 -51.5t54.5 -129.5q0 -76 -56 -127t-142 -51h-110zM293 438h-102v-151h102q39 0 61.5 21t22.5 54q0 34 -22 55t-62 21z" />
    <glyph glyph-name="Qsmall" unicode="&#xf771;" horiz-adv-x="682" 
d="M667 34l-77 -85l-96 75q-72 -36 -153 -36q-139 0 -221 80.5t-82 202.5t82 202t221 80q138 0 220 -80.5t82 -201.5q0 -94 -56 -167zM341 442q-82 0 -132 -49t-50 -122q0 -74 50 -123t132 -49q35 0 66 17l-64 51l77 85l79 -70q23 40 23 89q0 73 -50 122t-131 49z" />
    <glyph glyph-name="Rsmall" unicode="&#xf772;" horiz-adv-x="538" 
d="M191 183v-183h-121v542h231q89 0 143.5 -51.5t54.5 -129.5q0 -56 -34 -100t-91 -63l138 -198h-131l-127 183h-63zM293 438h-102v-151h102q39 0 61.5 21t22.5 54q0 34 -22 55t-62 21z" />
    <glyph glyph-name="Ssmall" unicode="&#xf773;" horiz-adv-x="503" 
d="M350 158q0 25 -30.5 40.5t-74 27t-87 27.5t-74 53t-30.5 94q0 67 54 110t142 43q103 0 197 -68l-54 -80q-72 52 -148 52q-33 0 -58.5 -15.5t-25.5 -41.5q0 -25 31.5 -41t76.5 -27t90 -27.5t76.5 -53.5t31.5 -93q0 -71 -60 -120.5t-158 -49.5q-117 0 -216 74q8 14 26 42
l27 42q78 -56 167 -56q38 0 67.5 19t29.5 49z" />
    <glyph glyph-name="Tsmall" unicode="&#xf774;" horiz-adv-x="504" 
d="M478 542v-104h-166v-438h-121v438h-165v104h452z" />
    <glyph glyph-name="Usmall" unicode="&#xf775;" horiz-adv-x="585" 
d="M293 -12q-108 0 -171.5 62.5t-63.5 157.5v334h120v-338q0 -43 32 -76t83 -33t83 33t32 76v338h120v-334q0 -95 -63.5 -157.5t-171.5 -62.5z" />
    <glyph glyph-name="Vsmall" unicode="&#xf776;" horiz-adv-x="577" 
d="M222 0l-210 542h125l152 -396l151 396h125l-211 -542h-132z" />
    <glyph glyph-name="Wsmall" unicode="&#xf777;" horiz-adv-x="840" 
d="M476 542l112 -355l111 355h126l-173 -542h-121l-111 353l-113 -353h-121l-173 542h127l110 -355l113 355h113z" />
    <glyph glyph-name="Xsmall" unicode="&#xf778;" horiz-adv-x="590" 
d="M433 0l-137 179l-137 -179h-146l209 276l-202 266h146l130 -168l128 168h146l-201 -266l209 -276h-145z" />
    <glyph glyph-name="Ysmall" unicode="&#xf779;" horiz-adv-x="573" 
d="M6 542h136l144 -239l146 239h135l-220 -350v-192h-121v191z" />
    <glyph glyph-name="Zsmall" unicode="&#xf77a;" horiz-adv-x="509" 
d="M467 542v-81l-269 -356h278v-105h-442v82l269 356h-262v104h426z" />
    <glyph glyph-name="Agravesmall" unicode="&#xf7e0;" horiz-adv-x="576" 
d="M298 757l86 -153h-87l-137 153h138zM354 542l211 -542h-121l-44 110h-223l-43 -110h-121l210 542h131zM289 400l-77 -195h154z" />
    <glyph glyph-name="Aacutesmall" unicode="&#xf7e1;" horiz-adv-x="576" 
d="M190 604l86 153h138l-136 -153h-88zM354 542l211 -542h-121l-44 110h-223l-43 -110h-121l210 542h131zM289 400l-77 -195h154z" />
    <glyph glyph-name="Acircumflexsmall" unicode="&#xf7e2;" horiz-adv-x="576" 
d="M116 604l123 153h98q21 -26 62 -77t62 -76h-91l-82 77l-82 -77h-90zM354 542l211 -542h-121l-44 110h-223l-43 -110h-121l210 542h131zM289 400l-77 -195h154z" />
    <glyph glyph-name="Atildesmall" unicode="&#xf7e3;" horiz-adv-x="576" 
d="M177 611l-60 4q26 127 108 127q21 0 62 -18t62 -18q31 0 48 44l61 -4q-26 -127 -109 -127q-23 0 -64 18t-60 18q-29 0 -48 -44zM354 542l211 -542h-121l-44 110h-223l-43 -110h-121l210 542h131zM289 400l-77 -195h154z" />
    <glyph glyph-name="Adieresissmall" unicode="&#xf7e4;" horiz-adv-x="576" 
d="M354 542l211 -542h-121l-44 110h-223l-43 -110h-121l210 542h131zM289 400l-77 -195h154zM317 657q0 26 18 44.5t45 18.5q26 0 44.5 -18.5t18.5 -44.5q0 -27 -18 -44.5t-45 -17.5t-45 17.5t-18 44.5zM136 657q0 27 17.5 45t44.5 18t45.5 -18.5t18.5 -44.5
q0 -27 -18.5 -44.5t-45.5 -17.5t-44.5 17.5t-17.5 44.5z" />
    <glyph glyph-name="Aringsmall" unicode="&#xf7e5;" horiz-adv-x="576" 
d="M287 593q-43 0 -75 30t-32 72q0 41 32 70.5t75 29.5q42 0 74 -29.5t32 -71.5q0 -41 -32 -71t-74 -30zM287 649q18 0 32.5 13.5t14.5 32.5q0 18 -14 31.5t-33 13.5q-20 0 -34 -13.5t-14 -32.5q0 -18 14.5 -31.5t33.5 -13.5zM354 542l211 -542h-121l-44 110h-223l-43 -110
h-121l210 542h131zM289 400l-77 -195h154z" />
    <glyph glyph-name="AEsmall" unicode="&#xf7e6;" horiz-adv-x="838" 
d="M796 102v-102h-387v113h-201l-74 -113h-127l360 542h425v-102h-263v-113h223v-99h-223v-126h267zM267 202h142v216z" />
    <glyph glyph-name="Ccedillasmall" unicode="&#xf7e7;" horiz-adv-x="570" 
d="M339 96q91 0 161 51l55 -90q-97 -69 -216 -69q-4 0 -12.5 0.5t-12.5 0.5q-8 -11 -22 -33q6 2 20 2q32 0 52 -18t20 -47q0 -35 -29.5 -59.5t-84.5 -24.5q-61 0 -107 20l18 46q29 -12 72 -12q48 0 48 28q0 24 -33 24q-12 0 -34 -6q-10 9 -30 25l43 66q-99 24 -154 97
t-55 173q0 122 80.5 202.5t220.5 80.5q119 0 215 -68l-54 -90q-70 51 -161 51q-81 0 -130.5 -50t-49.5 -125q0 -74 49.5 -124.5t130.5 -50.5z" />
    <glyph glyph-name="Egravesmall" unicode="&#xf7e8;" horiz-adv-x="511" 
d="M462 102v-102h-392v542h388v-102h-268v-113h227v-99h-227v-126h272zM273 757l86 -153h-88l-137 153h139z" />
    <glyph glyph-name="Eacutesmall" unicode="&#xf7e9;" horiz-adv-x="511" 
d="M462 102v-102h-392v542h388v-102h-268v-113h227v-99h-227v-126h272zM139 604l86 153h138l-136 -153h-88z" />
    <glyph glyph-name="Ecircumflexsmall" unicode="&#xf7ea;" horiz-adv-x="511" 
d="M462 102v-102h-392v542h388v-102h-268v-113h227v-99h-227v-126h272zM77 604l123 153h99l123 -153h-91l-82 77l-81 -77h-91z" />
    <glyph glyph-name="Edieresissmall" unicode="&#xf7eb;" horiz-adv-x="511" 
d="M462 102v-102h-392v542h388v-102h-268v-113h227v-99h-227v-126h272zM279 657q0 27 17.5 45t44.5 18t45.5 -18.5t18.5 -44.5q0 -27 -18.5 -44.5t-45.5 -17.5t-44.5 17.5t-17.5 44.5zM98 657q0 26 18 44.5t44 18.5q27 0 45.5 -18.5t18.5 -44.5q0 -27 -18.5 -44.5
t-45.5 -17.5q-26 0 -44 17.5t-18 44.5z" />
    <glyph glyph-name="Igravesmall" unicode="&#xf7ec;" horiz-adv-x="255" 
d="M69 0v542h120v-542h-120zM137 757l86 -153h-88l-136 153h138z" />
    <glyph glyph-name="Iacutesmall" unicode="&#xf7ed;" horiz-adv-x="255" 
d="M69 0v542h121v-542h-121zM25 604l86 153h139l-137 -153h-88z" />
    <glyph glyph-name="Icircumflexsmall" unicode="&#xf7ee;" horiz-adv-x="255" 
d="M69 0v542h121v-542h-121zM-48 604l123 153h98l123 -153h-91l-82 77l-81 -77h-90z" />
    <glyph glyph-name="Idieresissmall" unicode="&#xf7ef;" horiz-adv-x="255" 
d="M69 0v542h121v-542h-121zM146 657q0 27 15.5 45t39.5 18q23 0 39 -18.5t16 -44.5q0 -27 -16 -45t-39 -18q-24 0 -39.5 18t-15.5 45zM-14 657q0 27 15.5 45t39.5 18q23 0 39 -18.5t16 -44.5q0 -27 -16 -45t-39 -18q-24 0 -39.5 18t-15.5 45z" />
    <glyph glyph-name="Ethsmall" unicode="&#xf7f0;" horiz-adv-x="625" 
d="M3 235v82h61v225h218q135 0 213.5 -76t78.5 -195t-78 -195t-214 -76h-218v235h-61zM186 113h96q80 0 125.5 43.5t45.5 113.5q0 71 -45.5 115t-125.5 44h-96v-112h104v-82h-104v-122z" />
    <glyph glyph-name="Ntildesmall" unicode="&#xf7f1;" horiz-adv-x="612" 
d="M190 611l-60 4q26 127 108 127q22 0 63.5 -18t61.5 -18q30 0 48 44l60 -4q-26 -127 -108 -127q-24 0 -65 18t-60 18q-29 0 -48 -44zM190 345v-345h-120v542h117l238 -346v346h119v-542h-117z" />
    <glyph glyph-name="Ogravesmall" unicode="&#xf7f2;" horiz-adv-x="682" 
d="M340 442q-81 0 -131 -49t-50 -122q0 -74 50 -123t131 -49q82 0 132 49t50 123q0 73 -50 122t-132 49zM340 -12q-139 0 -220 80.5t-81 202.5t81 202t220 80t220.5 -80.5t81.5 -201.5q0 -122 -81.5 -202.5t-220.5 -80.5zM360 757l86 -153h-88l-136 153h138z" />
    <glyph glyph-name="Oacutesmall" unicode="&#xf7f3;" horiz-adv-x="682" 
d="M340 442q-81 0 -131 -49t-50 -122q0 -74 50 -123t131 -49q82 0 132 49t50 123q0 73 -50 122t-132 49zM340 -12q-139 0 -220 80.5t-81 202.5t81 202t220 80t220.5 -80.5t81.5 -201.5q0 -122 -81.5 -202.5t-220.5 -80.5zM231 604l86 153h139l-137 -153h-88z" />
    <glyph glyph-name="Ocircumflexsmall" unicode="&#xf7f4;" horiz-adv-x="682" 
d="M340 442q-81 0 -131 -49t-50 -122q0 -74 50 -123t131 -49q82 0 132 49t50 123q0 73 -50 122t-132 49zM340 -12q-139 0 -220 80.5t-81 202.5t81 202t220 80t220.5 -80.5t81.5 -201.5q0 -122 -81.5 -202.5t-220.5 -80.5zM168 604l123 153h99l123 -153h-91l-82 77l-82 -77
h-90z" />
    <glyph glyph-name="Otildesmall" unicode="&#xf7f5;" horiz-adv-x="682" 
d="M229 611l-61 4q28 127 109 127q21 0 62.5 -18t61.5 -18q30 0 49 44l60 -4q-26 -127 -109 -127q-23 0 -64.5 18t-59.5 18q-30 0 -48 -44zM340 442q-81 0 -131 -49t-50 -122q0 -74 50 -123t131 -49q82 0 132 49t50 123q0 73 -50 122t-132 49zM340 -12q-139 0 -220 80.5
t-81 202.5t81 202t220 80t220.5 -80.5t81.5 -201.5q0 -122 -81.5 -202.5t-220.5 -80.5z" />
    <glyph glyph-name="Odieresissmall" unicode="&#xf7f6;" horiz-adv-x="682" 
d="M340 442q-81 0 -131 -49t-50 -122q0 -74 50 -123t131 -49q82 0 132 49t50 123q0 73 -50 122t-132 49zM340 -12q-139 0 -220 80.5t-81 202.5t81 202t220 80t220.5 -80.5t81.5 -201.5q0 -122 -81.5 -202.5t-220.5 -80.5zM369 657q0 27 17.5 45t44.5 18t45 -18.5t18 -44.5
q0 -27 -18 -44.5t-45 -17.5t-44.5 17.5t-17.5 44.5zM188 657q0 27 17.5 45t44.5 18q26 0 45 -18.5t19 -44.5q0 -27 -18.5 -44.5t-45.5 -17.5t-44.5 17.5t-17.5 44.5z" />
    <glyph glyph-name="Oslashsmall" unicode="&#xf7f8;" horiz-adv-x="682" 
d="M152 0h-104l67 74q-76 79 -76 197q0 122 81.5 202t220.5 80q96 0 168 -42l28 31h105l-73 -80q73 -78 73 -191q0 -122 -81.5 -202.5t-219.5 -80.5q-94 0 -163 39zM522 271q0 55 -34 99l-228 -249q29 -20 82 -20q80 0 130 48.5t50 121.5zM341 442q-83 0 -132 -49t-49 -124
q0 -56 35 -104l234 255q-39 22 -88 22z" />
    <glyph glyph-name="Ugravesmall" unicode="&#xf7f9;" horiz-adv-x="585" 
d="M316 757l85 -153h-88l-136 153h139zM293 -12q-108 0 -171.5 62.5t-63.5 157.5v334h120v-338q0 -43 32 -76t83 -33t83 33t32 76v338h120v-334q0 -95 -63.5 -157.5t-171.5 -62.5z" />
    <glyph glyph-name="Uacutesmall" unicode="&#xf7fa;" horiz-adv-x="585" 
d="M187 604l86 153h138l-137 -153h-87zM293 -12q-108 0 -171.5 62.5t-63.5 157.5v334h120v-338q0 -43 32 -76t83 -33t83 33t32 76v338h120v-334q0 -95 -63.5 -157.5t-171.5 -62.5z" />
    <glyph glyph-name="Ucircumflexsmall" unicode="&#xf7fb;" horiz-adv-x="585" 
d="M122 604l124 153h98l124 -153h-91l-82 77l-82 -77h-91zM293 -12q-108 0 -171.5 62.5t-63.5 157.5v334h120v-338q0 -43 32 -76t83 -33t83 33t32 76v338h120v-334q0 -95 -63.5 -157.5t-171.5 -62.5z" />
    <glyph glyph-name="Udieresissmall" unicode="&#xf7fc;" horiz-adv-x="585" 
d="M324 657q0 27 17.5 45t44.5 18t45.5 -18.5t18.5 -44.5q0 -27 -18.5 -44.5t-45.5 -17.5t-44.5 17.5t-17.5 44.5zM142 657q0 26 18 44.5t45 18.5q26 0 44.5 -18.5t18.5 -44.5q0 -27 -18 -44.5t-45 -17.5t-45 17.5t-18 44.5zM293 -12q-108 0 -171.5 62.5t-63.5 157.5v334
h120v-338q0 -43 32 -76t83 -33t83 33t32 76v338h120v-334q0 -95 -63.5 -157.5t-171.5 -62.5z" />
    <glyph glyph-name="Yacutesmall" unicode="&#xf7fd;" horiz-adv-x="573" 
d="M6 542h136l144 -239l146 239h135l-220 -350v-192h-121v191zM177 604l87 153h138l-137 -153h-88z" />
    <glyph glyph-name="Thornsmall" unicode="&#xf7fe;" horiz-adv-x="501" 
d="M70 0v542h122v-78h59q98 0 161.5 -53t63.5 -137q0 -83 -62.5 -135.5t-162.5 -52.5h-60v-86h-121zM354 275q0 42 -34 63t-93 21h-36v-169h36q59 0 93 21.5t34 63.5z" />
    <glyph glyph-name="Ydieresissmall" unicode="&#xf7ff;" horiz-adv-x="573" 
d="M6 542h136l144 -239l146 239h135l-220 -350v-192h-121v191zM315 657q0 27 17.5 45t44.5 18q26 0 45 -18.5t19 -44.5q0 -27 -18.5 -44.5t-45.5 -17.5t-44.5 17.5t-17.5 44.5zM134 657q0 27 17.5 45t44.5 18t45 -18.5t18 -44.5q0 -27 -18 -44.5t-45 -17.5t-44.5 17.5
t-17.5 44.5z" />
    <glyph glyph-name="parenleftsmall" unicode="&#xfe59;" horiz-adv-x="350" 
d="M326 -63l-44 -59q-120 53 -180 146.5t-60 204.5q0 234 239 353l45 -60q-181 -108 -181 -293t181 -292z" />
    <glyph glyph-name="parenrightsmall" unicode="&#xfe5a;" horiz-adv-x="350" 
d="M70 -123l-45 60q181 107 181 292q0 186 -181 293l45 60q240 -119 240 -353q0 -233 -240 -352z" />
    <glyph glyph-name="braceleftsmall" unicode="&#xfe5b;" horiz-adv-x="357" 
d="M340 -66l-14 -70q-63 12 -101 27t-57.5 39t-25.5 50t-6 69v33q0 106 -58 106h-34v73h34q28 0 43 19t15 52v98q0 68 36.5 100t153.5 54l14 -69q-71 -21 -86.5 -37t-15.5 -62v-87q0 -77 -67 -105q67 -32 67 -104v-86q0 -46 15 -62t87 -38z" />
    <glyph glyph-name="bracerightsmall" unicode="&#xfe5c;" horiz-adv-x="357" 
d="M46 -136l-14 71q71 21 86.5 37t15.5 62v86q0 72 66 104q-66 27 -66 105v87q0 46 -15.5 62t-86.5 37l14 69q83 -16 123.5 -37.5t53 -50t12.5 -81.5v-66q0 -39 14.5 -63.5t43.5 -24.5h34v-73h-34q-58 0 -58 -106v-33q0 -44 -5.5 -70t-25 -49.5t-57 -38t-101.5 -27.5z" />
    <glyph glyph-name="bracketleftsmall" unicode="&#xfe5d;" horiz-adv-x="273" 
d="M55 -129v709h206v-82h-105v-545h105v-82h-206z" />
    <glyph glyph-name="numbersignsmall" unicode="&#xfe5f;" horiz-adv-x="582" 
d="M108 0l22 126h-84v76h98l24 137h-90v76h105l21 124h82l-22 -124h105l22 124h81l-22 -124h84v-76h-97l-25 -137h90v-76h-104l-22 -126h-82l23 126h-105l-23 -126h-81zM226 202h104l25 137h-104z" />
    <glyph glyph-name="ampersandsmall" unicode="&#xfe60;" horiz-adv-x="580" 
d="M425 263h121q-62 -118 -91 -154l110 -109h-142q-22 21 -43 43q-71 -54 -157 -54q-94 0 -143.5 44t-49.5 115q0 78 111 133q-67 73 -67 122q0 59 51 103t136 44q82 0 125 -39.5t43 -100.5q0 -51 -34 -84.5t-95 -62.5l82 -83q14 23 43 83zM235 73q43 0 79 34l-109 107
q-59 -33 -59 -70q0 -34 23.5 -52.5t65.5 -18.5zM180 405q0 -24 58 -82q41 20 62 39.5t21 47.5q0 25 -18 39t-48 14q-34 0 -54.5 -16t-20.5 -42z" />
    <glyph glyph-name="dollarsmall" unicode="&#xfe69;" horiz-adv-x="479" 
d="M200 -75v66q-94 13 -171 70l54 84q50 -38 117 -50v140q-33 10 -56 21t-46.5 29.5t-36 47.5t-12.5 67q0 58 40.5 98t110.5 50v67h94v-67q69 -10 144 -65l-55 -80q-46 33 -89 46v-126q73 -22 116 -58t43 -107q0 -62 -42 -108t-117 -58v-67h-94zM337 158q0 29 -43 47v-108
q43 16 43 61zM156 400q0 -30 44 -48v97q-44 -14 -44 -49z" />
    <glyph glyph-name="acircumflexsmall.alt" horiz-adv-x="568" 
d="M116 604l123 153h98q21 -26 62 -77t62 -76h-91l-82 77l-82 -77h-90zM354 542l211 -542h-121l-44 110h-223l-43 -110h-121l210 542h131zM289 400l-77 -195h154z" />
    <glyph glyph-name="adieresissmall.alt" horiz-adv-x="568" 
d="M354 542l211 -542h-121l-44 110h-223l-43 -110h-121l210 542h131zM289 400l-77 -195h154zM317 657q0 26 18 44.5t45 18.5q26 0 44.5 -18.5t18.5 -44.5q0 -27 -18 -44.5t-45 -17.5t-45 17.5t-18 44.5zM136 657q0 27 17.5 45t44.5 18t45.5 -18.5t18.5 -44.5
q0 -27 -18.5 -44.5t-45.5 -17.5t-44.5 17.5t-17.5 44.5z" />
    <glyph glyph-name="aringsmall.alt" horiz-adv-x="568" 
d="M287 593q-43 0 -75 30t-32 72q0 41 32 70.5t75 29.5q42 0 74 -29.5t32 -71.5q0 -41 -32 -71t-74 -30zM287 649q18 0 32.5 13.5t14.5 32.5q0 18 -14 31.5t-33 13.5q-20 0 -34 -13.5t-14 -32.5q0 -18 14.5 -31.5t33.5 -13.5zM354 542l211 -542h-121l-44 110h-223l-43 -110
h-121l210 542h131zM289 400l-77 -195h154z" />
    <glyph glyph-name="uni0122small" horiz-adv-x="600" 
d="M280 209v86h282v-234q-98 -73 -222 -73q-139 0 -220.5 80.5t-81.5 202.5q0 121 81.5 201.5t220.5 80.5q104 0 195 -51l-51 -94q-59 37 -139 37q-83 0 -133.5 -49t-50.5 -125q0 -73 50 -124t134 -51q56 0 98 28v85h-163zM250 -306q19 144 31 229h121l-83 -229h-69z" />
    <glyph glyph-name="aacutesmall.alt" horiz-adv-x="568" 
d="M190 604l86 153h138l-136 -153h-88zM354 542l211 -542h-121l-44 110h-223l-43 -110h-121l210 542h131zM289 400l-77 -195h154z" />
    <glyph glyph-name="agravesmall.alt" horiz-adv-x="568" 
d="M298 757l86 -153h-87l-137 153h138zM354 542l211 -542h-121l-44 110h-223l-43 -110h-121l210 542h131zM289 400l-77 -195h154z" />
    <glyph glyph-name="asmall.alt" horiz-adv-x="576" 
d="M354 542l211 -542h-121l-44 110h-223l-43 -110h-121l210 542h131zM289 400l-77 -195h154z" />
    <glyph glyph-name="aogoneksmall.alt" horiz-adv-x="577" 
d="M567 -159q-17 0 -41 3.5t-54.5 12t-51 28t-20.5 46.5q0 39 44 66l-45 113h-222l-43 -110h-122l210 542h132l212 -542q-44 -7 -61.5 -24.5t-17.5 -36.5t20.5 -33.5t59.5 -17.5v-47zM289 400l-78 -195h155z" />
    <glyph glyph-name="amacronsmall.alt" horiz-adv-x="568" 
d="M128 605v83h320v-83h-320zM354 542l211 -542h-121l-44 110h-223l-43 -110h-121l210 542h131zM289 400l-77 -195h154z" />
    <glyph glyph-name="atildesmall.alt" horiz-adv-x="568" 
d="M177 611l-60 4q26 127 108 127q21 0 62 -18t62 -18q31 0 48 44l61 -4q-26 -127 -109 -127q-23 0 -64 18t-60 18q-29 0 -48 -44zM354 542l211 -542h-121l-44 110h-223l-43 -110h-121l210 542h131zM289 400l-77 -195h154z" />
    <glyph glyph-name="aesmall.alt" horiz-adv-x="838" 
d="M796 102v-102h-387v113h-201l-74 -113h-127l360 542h425v-102h-263v-113h223v-99h-223v-126h267zM267 202h142v216z" />
    <glyph glyph-name="bracketrightsmall" horiz-adv-x="273" 
d="M219 580v-709h-205v82h104v545h-104v82h205z" />
    <glyph glyph-name="sectionsmall" horiz-adv-x="538" 
d="M464 253q0 -64 -69 -103q23 -28 23 -64q0 -47 -43 -84t-126 -37q-91 0 -157 48l30 72q59 -40 125 -40q60 0 60 38q0 18 -26 28.5t-63 18t-73.5 19t-62.5 38.5t-26 69q0 66 69 102q-24 27 -24 65q0 47 41 84t123 37q84 0 156 -50l-31 -71q-67 38 -114 38q-63 0 -63 -36
q0 -18 26 -28.5t62.5 -17.5t73.5 -18t63 -38.5t26 -69.5zM352 253q0 7 -3.5 12.5t-10.5 10t-14 8t-19 6.5t-19.5 5t-21.5 5t-20 4q-34 0 -55 -15t-21 -33q0 -19 25 -29.5t76 -20.5q83 0 83 47z" />
    <glyph glyph-name="ordfeminine.alt" horiz-adv-x="471" 
d="M420 325h-91v43q-41 -54 -110 -54q-77 0 -126.5 55.5t-49.5 136.5q0 80 49.5 135.5t126.5 55.5q29 0 60 -15.5t50 -37.5v43h91v-362zM244 399q54 0 85 42v129q-32 42 -85 42q-43 0 -74.5 -31.5t-31.5 -74.5q0 -44 31.5 -75.5t74.5 -31.5z" />
    <glyph glyph-name="musmall" horiz-adv-x="503" 
d="M20 173h57v32h-57v81h57v253h186q91 0 149.5 -46.5t58.5 -122.5q0 -75 -60 -120t-147 -45h-67v-32h163v-81h-163v-92h-120v92h-57v81zM266 434h-69v-148h69q40 0 62.5 20.5t22.5 53.5t-22.5 53.5t-62.5 20.5z" />
    <glyph glyph-name="ae.alt" horiz-adv-x="986" 
d="M709 -15q-93 0 -155 56v-41h-118v65q-27 -37 -70 -58.5t-89 -21.5q-108 0 -176 76.5t-68 188.5q0 111 68.5 188t175.5 77q46 0 89 -22t70 -59v66h118v-46q47 61 146 61q119 0 187.5 -71.5t68.5 -183.5q0 -18 -3 -35h-392q0 -64 46 -103t117 -39q87 0 151 49l46 -74
q-81 -73 -212 -73zM313 95q76 0 123 62v185q-47 62 -123 62q-63 0 -108 -45.5t-45 -108.5q0 -64 45 -109.5t108 -45.5zM843 303q-10 51 -47 82.5t-96 31.5q-52 0 -89.5 -30.5t-50.5 -83.5h283z" />
    <glyph glyph-name="aogonek.alt" horiz-adv-x="619" 
d="M555 500v-500q-49 -17 -64 -34t-15 -40q0 -10 4.5 -21t25 -24t53.5 -14v-50q-30 0 -59 4.5t-58.5 15t-48 31t-18.5 49.5q0 55 61 83v64q-59 -76 -163 -76q-107 0 -173.5 75.5t-66.5 186.5q0 110 66.5 186t173.5 76q49 0 92 -20.5t71 -56.5v65h119zM308 95q36 0 70.5 17
t57.5 45v185q-23 28 -57.5 45t-70.5 17q-62 0 -106 -45.5t-44 -108.5q0 -65 43.5 -110t106.5 -45z" />
    <glyph glyph-name="amacron.alt" horiz-adv-x="619" 
d="M555 0h-119v64q-59 -76 -163 -76q-107 0 -173.5 75.5t-66.5 186.5q0 110 66.5 186t173.5 76q49 0 92 -20.5t71 -56.5v65h119v-500zM308 95q36 0 70.5 17t57.5 45v185q-23 28 -57.5 45t-70.5 17q-62 0 -106 -45.5t-44 -108.5q0 -65 43.5 -110t106.5 -45zM145 585v83h320
v-83h-320z" />
    <glyph glyph-name="acircumflex.alt" horiz-adv-x="619" 
d="M555 0h-119v65q-60 -77 -165 -77q-107 0 -172.5 76t-65.5 186q0 109 66 185.5t172 76.5q105 0 165 -78v66h119v-500zM313 95q76 0 123 62v185q-47 62 -123 62q-63 0 -108 -45.5t-45 -108.5q0 -64 45 -109.5t108 -45.5zM130 580l129 162h100l129 -162h-89l-91 86l-90 -86
h-88z" />
    <glyph glyph-name="atilde.alt" horiz-adv-x="619" 
d="M555 0h-119v65q-60 -77 -165 -77q-107 0 -172.5 76t-65.5 186q0 109 66 185.5t172 76.5q105 0 165 -78v66h119v-500zM313 95q76 0 123 62v185q-47 62 -123 62q-63 0 -108 -45.5t-45 -108.5q0 -64 45 -109.5t108 -45.5zM196 586l-59 5q27 132 114 132q25 0 71 -20.5
t67 -20.5q36 0 55 50l59 -4q-27 -133 -114 -133q-25 0 -71 20.5t-67 20.5q-35 0 -55 -50z" />
    <glyph glyph-name="adieresis.alt" horiz-adv-x="619" 
d="M555 0h-119v65q-60 -77 -165 -77q-107 0 -172.5 76t-65.5 186q0 109 66 185.5t172 76.5q105 0 165 -78v66h119v-500zM313 95q76 0 123 62v185q-47 62 -123 62q-63 0 -108 -45.5t-45 -108.5q0 -64 45 -109.5t108 -45.5zM343 635q0 28 18.5 47t46.5 19q27 0 46 -19t19 -47
q0 -27 -19 -45.5t-46 -18.5q-28 0 -46.5 18t-18.5 46zM145 635q0 28 18 47t46 19t47 -19t19 -47t-19 -46t-47 -18t-46 18t-18 46z" />
    <glyph glyph-name="aring.alt" horiz-adv-x="619" 
d="M555 0h-119v65q-60 -77 -165 -77q-107 0 -172.5 76t-65.5 186q0 109 66 185.5t172 76.5q105 0 165 -78v66h119v-500zM313 95q76 0 123 62v185q-47 62 -123 62q-63 0 -108 -45.5t-45 -108.5q0 -64 45 -109.5t108 -45.5zM309 567q-46 0 -80 32.5t-34 77.5q0 44 34.5 76.5
t79.5 32.5q46 0 80.5 -32.5t34.5 -77.5t-34.5 -77t-80.5 -32zM309 620q23 0 39.5 17t16.5 40t-16.5 39.5t-39.5 16.5t-39.5 -17t-16.5 -40q0 -22 16.5 -39t39.5 -17z" />
    <glyph glyph-name="agrave.alt" horiz-adv-x="619" 
d="M555 0h-119v65q-60 -77 -165 -77q-107 0 -172.5 76t-65.5 186q0 109 66 185.5t172 76.5q105 0 165 -78v66h119v-500zM313 95q76 0 123 62v185q-47 62 -123 62q-63 0 -108 -45.5t-45 -108.5q0 -64 45 -109.5t108 -45.5zM329 580l-153 168h147l93 -168h-87z" />
    <glyph glyph-name="aacute.alt" horiz-adv-x="619" 
d="M555 0h-119v65q-60 -77 -165 -77q-107 0 -172.5 76t-65.5 186q0 109 66 185.5t172 76.5q105 0 165 -78v66h119v-500zM313 95q76 0 123 62v185q-47 62 -123 62q-63 0 -108 -45.5t-45 -108.5q0 -64 45 -109.5t108 -45.5zM450 748l-153 -168h-87l93 168h147z" />
    <glyph glyph-name="a.alt" horiz-adv-x="619" 
d="M555 0h-119v64q-59 -76 -163 -76q-107 0 -173.5 75.5t-66.5 186.5q0 110 66.5 186t173.5 76q49 0 92 -20.5t71 -56.5v65h119v-500zM308 95q36 0 70.5 17t57.5 45v185q-23 28 -57.5 45t-70.5 17q-62 0 -106 -45.5t-44 -108.5q0 -65 43.5 -110t106.5 -45z" />
    <glyph glyph-name="uni0156small" horiz-adv-x="538" 
d="M191 183v-183h-121v542h231q89 0 143.5 -51.5t54.5 -129.5q0 -56 -34 -100t-91 -63l138 -198h-131l-127 183h-63zM293 438h-102v-151h102q39 0 61.5 21t22.5 54q0 34 -22 55t-62 21zM183 -306l31 229h121l-83 -229h-69z" />
    <glyph glyph-name="uni0145small" horiz-adv-x="612" 
d="M190 345v-345h-120v542h117l238 -346v346h119v-542h-117zM219 -306l31 229h121l-83 -229h-69z" />
    <glyph glyph-name="uni013Bsmall" horiz-adv-x="477" 
d="M70 0v542h120v-437h265v-105h-385zM165 -306l31 229h121l-83 -229h-69z" />
    <glyph glyph-name="uni0136small" horiz-adv-x="572" 
d="M410 0l-225 265l214 277h142l-214 -264l236 -278h-153zM64 0v542h121v-542h-121zM188 -306l31 229h121l-83 -229h-69z" />
    <glyph glyph-name="afii10065small.alt" horiz-adv-x="576" 
d="M354 542l211 -542h-121l-44 110h-223l-43 -110h-121l210 542h131zM289 400l-77 -195h154z" />
    <glyph glyph-name="afii10065.alt" horiz-adv-x="619" 
d="M555 0h-119v65q-60 -77 -165 -77q-107 0 -172.5 76t-65.5 186q0 109 66 185.5t172 76.5q105 0 165 -78v66h119v-500zM313 95q76 0 123 62v185q-47 62 -123 62q-63 0 -108 -45.5t-45 -108.5q0 -64 45 -109.5t108 -45.5z" />
    <glyph glyph-name="afii10021.alt" horiz-adv-x="784" 
d="M134 0v-154h-121v277h92l205 577h156l205 -577h93v-277h-121v154h-509zM388 541l-148 -418h296z" />
    <glyph glyph-name="afii10069.alt" horiz-adv-x="651" 
d="M12 104h78l163 396h133l162 -396h78v-245h-114v141h-394v-141h-106v245zM320 365l-106 -261h212z" />
    <glyph glyph-name="afii10021small.alt" horiz-adv-x="652" 
d="M18 104h76l163 435h130l164 -435h75v-220h-108v116h-392v-116h-108v220zM322 397l-109 -293h218q-72 196 -109 293z" />
    <glyph glyph-name="afii10029.alt" horiz-adv-x="708" 
d="M544 0l-199 541l-199 -541h-136l258 700h155l258 -700h-137z" />
    <glyph glyph-name="afii10077.alt" horiz-adv-x="571" 
d="M7 0l212 500h133l212 -500h-131l-147 360l-147 -360h-132z" />
    <glyph glyph-name="afii10029small.alt" horiz-adv-x="590" 
d="M441 0l-153 397q-32 -81 -154 -397h-121q167 429 209 539h131l209 -539h-121z" />
    <glyph glyph-name="afii10058small.alt" horiz-adv-x="816" 
d="M355 539q23 -61 71 -183h142q77 0 142 -50t65 -128q0 -75 -59.5 -126.5t-147.5 -51.5h-125l-155 397l-153 -397h-121l209 539h132zM570 253h-106l60 -149h46q39 0 62 20.5t23 53.5t-22.5 54t-62.5 21z" />
    <glyph glyph-name="afii10106.alt" horiz-adv-x="810" 
d="M7 0l212 500h133l70 -166h145q99 0 156 -44.5t57 -122.5q0 -70 -49 -118.5t-132 -48.5h-166l-147 360l-147 -360h-132zM584 241h-123l63 -148h60q32 0 54 20.5t22 53.5t-22 53.5t-54 20.5z" />
    <glyph glyph-name="afii10058.alt" horiz-adv-x="986" 
d="M423 700l90 -242h184q103 0 178.5 -66.5t75.5 -162.5t-73 -162.5t-181 -66.5h-153l-199 541q-114 -313 -199 -541h-136l258 700h155zM701 335h-145l81 -212h64q53 0 83.5 29.5t30.5 76.5t-30.5 76.5t-83.5 29.5z" />
    <glyph glyph-name="afii10085.alt" horiz-adv-x="562" 
d="M562 500l-307 -704h-122l86 205l-212 499h132l143 -351l149 351h131z" />
    <glyph glyph-name="afii10037.alt" horiz-adv-x="697" 
d="M676 700l-222 -544q-34 -83 -82 -127t-133 -44q-56 0 -94 17t-81 60l84 80q41 -44 80 -44q55 0 80 69l-288 533h154l203 -380l148 380h151z" />
    <glyph glyph-name="afii10037small.alt" horiz-adv-x="565" 
d="M553 543l-175 -422q-26 -64 -62.5 -98t-103.5 -34q-46 0 -74.5 11t-60.5 41l60 75q28 -31 60 -31q19 0 29.5 10t22.5 36l-238 412h136l161 -293l112 293h133z" />
    </font>
</defs>
</svg>
